<svg xmlns="http://www.w3.org/2000/svg" viewBox="0 0 500 500"><g id="freepik--background-complete--inject-1"><rect y="382.4" width="500" height="0.25" style="fill:#ebebeb"></rect><rect x="359" y="391.92" width="90.9" height="0.25" style="fill:#ebebeb"></rect><rect x="306.33" y="389.21" width="24.89" height="0.25" style="fill:#ebebeb"></rect><rect x="349.52" y="401.21" width="38.59" height="0.25" style="fill:#ebebeb"></rect><rect x="52.46" y="399.53" width="22.64" height="0.25" style="fill:#ebebeb"></rect><rect x="84" y="399.53" width="26.89" height="0.25" style="fill:#ebebeb"></rect><rect x="178.31" y="395.31" width="46.84" height="0.25" style="fill:#ebebeb"></rect><path d="M237,337.8H43.91a5.71,5.71,0,0,1-5.7-5.71V60.66A5.71,5.71,0,0,1,43.91,55H237a5.71,5.71,0,0,1,5.71,5.71V332.09A5.71,5.71,0,0,1,237,337.8ZM43.91,55.2a5.46,5.46,0,0,0-5.45,5.46V332.09a5.46,5.46,0,0,0,5.45,5.46H237a5.47,5.47,0,0,0,5.46-5.46V60.66A5.47,5.47,0,0,0,237,55.2Z" style="fill:#ebebeb"></path><path d="M453.31,337.8H260.21a5.72,5.72,0,0,1-5.71-5.71V60.66A5.72,5.72,0,0,1,260.21,55h193.1A5.71,5.71,0,0,1,459,60.66V332.09A5.71,5.71,0,0,1,453.31,337.8ZM260.21,55.2a5.47,5.47,0,0,0-5.46,5.46V332.09a5.47,5.47,0,0,0,5.46,5.46h193.1a5.47,5.47,0,0,0,5.46-5.46V60.66a5.47,5.47,0,0,0-5.46-5.46Z" style="fill:#ebebeb"></path><rect x="426.21" y="272.69" width="18.75" height="104.02" transform="translate(871.16 649.41) rotate(180)" style="fill:#f0f0f0"></rect><rect x="234.82" y="376.71" width="206.53" height="5.69" transform="translate(676.17 759.11) rotate(180)" style="fill:#f0f0f0"></rect><rect x="231.22" y="272.69" width="194.98" height="104.02" style="fill:#f5f5f5"></rect><rect x="428.15" y="267.73" width="19.16" height="4.96" transform="translate(875.46 540.42) rotate(180)" style="fill:#f0f0f0"></rect><rect x="228.86" y="267.73" width="199.29" height="4.96" style="fill:#fafafa"></rect><path d="M419.47,310.23H238V283.11H419.47ZM239.22,309h179v-24.6h-179Z" style="fill:#e0e0e0"></path><path d="M419.47,366.3H238V317.75H419.47ZM239.22,365h179V319h-179Z" style="fill:#e0e0e0"></path><rect x="262.42" y="283.74" width="132.6" height="4.04" rx="1.66" transform="translate(657.43 571.51) rotate(180)" style="fill:#e0e0e0"></rect><rect x="262.42" y="318.38" width="132.6" height="4.04" rx="1.66" transform="translate(657.43 640.8) rotate(180)" style="fill:#e0e0e0"></rect><rect x="57.11" y="250" width="7.79" height="132.4" transform="translate(122 632.4) rotate(180)" style="fill:#e6e6e6"></rect><rect x="54.65" y="250" width="5.41" height="132.4" transform="translate(114.71 632.4) rotate(180)" style="fill:#f0f0f0"></rect><rect x="52.97" y="250" width="92.68" height="9.57" style="fill:#f0f0f0"></rect><rect x="149.14" y="259.57" width="7.79" height="122.82" transform="translate(306.07 641.97) rotate(180)" style="fill:#e6e6e6"></rect><rect x="146.68" y="259.57" width="5.41" height="122.82" transform="translate(298.78 641.97) rotate(180)" style="fill:#f0f0f0"></rect><rect x="198.44" y="259.57" width="7.79" height="122.82" transform="translate(404.68 641.97) rotate(180)" style="fill:#e6e6e6"></rect><rect x="195.99" y="259.57" width="5.41" height="122.82" transform="translate(397.38 641.97) rotate(180)" style="fill:#f0f0f0"></rect><rect x="106.41" y="259.57" width="7.79" height="122.82" transform="translate(220.61 641.97) rotate(180)" style="fill:#e6e6e6"></rect><rect x="103.95" y="259.57" width="5.41" height="122.82" transform="translate(213.31 641.97) rotate(180)" style="fill:#f0f0f0"></rect><rect x="145.65" y="250" width="60.58" height="9.57" transform="translate(351.89 509.57) rotate(180)" style="fill:#e6e6e6"></rect><polygon points="137.8 175.97 62.91 175.97 69.54 118 131.17 118 137.8 175.97" style="fill:#ebebeb"></polygon><rect x="96.28" y="175.97" width="8.15" height="74.03" style="fill:#f5f5f5"></rect><path d="M117,250H83.74a3.54,3.54,0,0,1,3.54-3.54h26.15A3.54,3.54,0,0,1,117,250Z" style="fill:#f0f0f0"></path><polygon points="104.43 182.38 96.28 178.49 96.28 175.97 104.43 175.97 104.43 182.38" style="fill:#e0e0e0"></polygon><polygon points="135.39 249.79 170.56 249.79 174.91 202.02 139.74 202.02 135.39 249.79" style="fill:#e6e6e6"></polygon><polygon points="133.57 249.79 168.74 249.79 173.09 202.02 137.92 202.02 133.57 249.79" style="fill:#f0f0f0"></polygon><polygon points="163.93 244.5 167.32 207.31 142.73 207.31 139.34 244.5 163.93 244.5" style="fill:#fff"></polygon><polygon points="424.79 215.53 353.4 215.53 339.51 265 410.9 265 424.79 215.53" style="fill:#e6e6e6"></polygon><polygon points="410.9 265 410.62 267.73 339.21 267.73 339.5 265 410.9 265" style="fill:#e6e6e6"></polygon><polygon points="422.6 215.53 351.2 215.53 337.31 265 408.71 265 422.6 215.53" style="fill:#f0f0f0"></polygon><path d="M407.9,261.77l11.49-42.84c.16-.61-.15-1.14-.67-1.14H353.08a1.25,1.25,0,0,0-1.08,1L340.52,261.6c-.17.61.14,1.14.66,1.14h65.64A1.23,1.23,0,0,0,407.9,261.77Z" style="fill:#fff"></path><polygon points="390.1 265 389.81 267.73 311.19 267.73 311.48 265 390.1 265" style="fill:#f0f0f0"></polygon><rect x="266.36" y="86.44" width="173.22" height="106.91" style="fill:#f0f0f0"></rect><rect x="271.28" y="91.36" width="163.38" height="97.08" style="fill:#fff"></rect><rect x="439.58" y="86.44" width="1.77" height="106.91" transform="translate(880.93 279.8) rotate(180)" style="fill:#e6e6e6"></rect></g><g id="freepik--Shadow--inject-1"><ellipse id="freepik--path--inject-1" cx="250" cy="416.24" rx="193.89" ry="11.32" style="fill:#f5f5f5"></ellipse></g><g id="freepik--question-marks--inject-1"><path d="M210.43,70q7-6.23,18.13-8.16t23.53,2.45q12.36,4.38,22.61,15.82,9.53,10.64,12.88,22.29a40.89,40.89,0,0,1,.59,22.13A35.1,35.1,0,0,1,277.47,142a30.35,30.35,0,0,1-13.19,7.25,44.61,44.61,0,0,1-13.49,1.24q-6.53-.42-22.66-2.23a71.63,71.63,0,0,0-7.58-.42,21.53,21.53,0,0,0-5.15.59,20.45,20.45,0,0,0-3.88,1.42c-1.2.59-3.23,1.68-6.11,3.29q-8.88,5.43-15.44-1.9a12,12,0,0,1-3.25-8.65q.17-4.83,5.08-9.23a34.85,34.85,0,0,1,24.83-9.68A156.27,156.27,0,0,1,232.34,125c5.54.67,9.63,1.09,12.27,1.23a28.06,28.06,0,0,0,7.81-.65,15,15,0,0,0,6.85-3.55,17.42,17.42,0,0,0,6-13.23q.12-8-6-14.87-7.23-8.07-14.71-8.23T226.75,90q-10.51,4.93-16.75-2a12.47,12.47,0,0,1-3.31-9.52A12,12,0,0,1,210.43,70ZM162.09,177.69A15.48,15.48,0,0,1,158,167.28q-.09-5.92,5.11-10.59A14.05,14.05,0,0,1,173.78,153a14.63,14.63,0,0,1,10.24,5.1,14.44,14.44,0,0,1-1.15,20.71q-5.13,4.59-11,3.92A15,15,0,0,1,162.09,177.69Z" style="fill:#407BFF"></path><g style="opacity:0.5"><path d="M299.85,137.05a19,19,0,0,1,6.71-8.26,24.86,24.86,0,0,1,11.86-4.48,29.6,29.6,0,0,1,14.63,2.14A30.76,30.76,0,0,1,344.57,134a21.94,21.94,0,0,1,5.6,10.45,18.85,18.85,0,0,1-.9,11,16.23,16.23,0,0,1-4.58,6.64,23.89,23.89,0,0,1-6.16,3.84q-3.22,1.37-11.39,4.38a35,35,0,0,0-3.73,1.62,11.22,11.22,0,0,0-2.32,1.52,10.43,10.43,0,0,0-1.52,1.61c-.43.57-1.14,1.58-2.13,3q-3,4.74-7.85,2.8a6.45,6.45,0,0,1-3.64-3.36,7,7,0,0,1,.22-5.64,18.68,18.68,0,0,1,9.56-10.6,84.35,84.35,0,0,1,7.83-3.18c2.81-1,4.87-1.79,6.17-2.35a15.08,15.08,0,0,0,3.58-2.19,8.09,8.09,0,0,0,2.43-3.35,9.3,9.3,0,0,0-.31-7.77A11.45,11.45,0,0,0,329,136.8q-5.4-2.13-9-.41a23.22,23.22,0,0,0-7.48,6.32q-3.86,4.89-8.52,3a6.71,6.71,0,0,1-3.87-3.77A6.34,6.34,0,0,1,299.85,137.05Zm2.73,63.2a8.31,8.31,0,0,1-4.46-4A7.32,7.32,0,0,1,298,190a7.49,7.49,0,0,1,4.21-4.35,7.81,7.81,0,0,1,6.13,0,7.74,7.74,0,0,1,4.43,10.19,7.35,7.35,0,0,1-4.34,4.52A8,8,0,0,1,302.58,200.25Z" style="fill:#407BFF"></path></g><g style="opacity:0.1"><path d="M367.11,131.16a8.91,8.91,0,0,1-1.39-4.76,11.46,11.46,0,0,1,1.42-5.72,13.65,13.65,0,0,1,4.69-5,14.28,14.28,0,0,1,5.94-2.42,10.24,10.24,0,0,1,5.49.62,8.79,8.79,0,0,1,4,3.25,7.57,7.57,0,0,1,1.34,3.51,11.37,11.37,0,0,1-.16,3.37q-.33,1.61-1.34,5.52a18.44,18.44,0,0,0-.36,1.86,5.1,5.1,0,0,0,.18,2.3c.11.32.31.86.61,1.62a2.73,2.73,0,0,1-1,3.75,3,3,0,0,1-2.24.5,3.24,3.24,0,0,1-2.11-1.57,9.11,9.11,0,0,1-1.46-3.32,9,9,0,0,1-.07-3.14,37.52,37.52,0,0,1,.85-3.84c.36-1.35.6-2.34.73-3a7.52,7.52,0,0,0,.11-2,3.82,3.82,0,0,0-.65-1.82,4.34,4.34,0,0,0-3.06-1.93,5.3,5.3,0,0,0-3.88,1,5.22,5.22,0,0,0-2.54,3.34,10.84,10.84,0,0,0,.45,4.54c.57,1.85.2,3.2-1.09,4.07a3.13,3.13,0,0,1-2.46.49A3,3,0,0,1,367.11,131.16Zm24.95,15.66a3.91,3.91,0,0,1-2.71.65,3.39,3.39,0,0,1-2.44-1.63,3.5,3.5,0,0,1-.56-2.76,3.67,3.67,0,0,1,1.61-2.36,3.57,3.57,0,0,1,2.75-.57,3.52,3.52,0,0,1,2.33,1.57,3.45,3.45,0,0,1,.59,2.86A3.77,3.77,0,0,1,392.06,146.82Z" style="fill:#407BFF"></path></g></g><g id="freepik--Character--inject-1"><polygon points="185.79 409.62 178.23 407.66 182.74 390.37 190.3 392.33 185.79 409.62" style="fill:#ffc3bd"></polygon><path d="M178.15,405.66l8.44,2.67a.54.54,0,0,1,.39.67l-1.78,6.55a1.42,1.42,0,0,1-1.76.87c-2.92-1-4.27-1.58-8-2.76-2.29-.72-7.81-2.35-11-3.35s-2-4-.61-3.81c6.42.67,10.15.13,12.82-.8A2.33,2.33,0,0,1,178.15,405.66Z" style="fill:#263238"></path><polygon points="190.3 392.34 182.74 390.38 180.42 399.29 187.98 401.25 190.3 392.34" style="opacity:0.2"></polygon><path d="M209.35,215.53s-13.84,65.77-17.52,87.3c-4,23.58-12.79,91.09-12.79,91.09l12.85,4.67S212,327,215.05,304.33c6.39-22.16,22.58-88.8,22.58-88.8Z" style="fill:#407BFF"></path><path d="M227.12,237c-4.49,10.78-6.12,30.41-5.34,42.15,3.56-13.86,7.51-29.69,10.57-42.09C231.36,233.65,230,230.07,227.12,237Z" style="opacity:0.30000000000000004"></path><polygon points="191.63 400.11 177.85 396.13 178.37 390.3 194.77 394.91 191.63 400.11" style="fill:#263238"></polygon><path d="M175.05,406.08a10.25,10.25,0,0,0,2.09.37.17.17,0,0,0,.18-.09.17.17,0,0,0,0-.19c-.19-.24-1.84-2.31-2.87-2.25a.7.7,0,0,0-.58.35,1,1,0,0,0-.09,1A2.12,2.12,0,0,0,175.05,406.08Zm1.7,0c-1.44-.17-2.41-.52-2.65-1a.62.62,0,0,1,.08-.64.35.35,0,0,1,.28-.18C175,404.24,176.06,405.25,176.75,406.06Z" style="fill:#407BFF"></path><path d="M177.1,406.45h.09a.19.19,0,0,0,.14-.1c0-.09.92-2.12.4-3.06a1,1,0,0,0-.66-.47.72.72,0,0,0-.81.31c-.45.74.16,2.6.76,3.26A.16.16,0,0,0,177.1,406.45Zm0-3.26a.53.53,0,0,1,.32.27,3.77,3.77,0,0,1-.29,2.45c-.47-.74-.83-2.12-.53-2.6,0-.09.15-.19.41-.14Z" style="fill:#407BFF"></path><path d="M220.06,159.2c-.67,1.62-1.31,3.06-2,4.54s-1.43,2.93-2.18,4.38c-1.52,2.89-3.12,5.74-4.88,8.52a78.29,78.29,0,0,1-12.6,15.77l-.18.18a4.26,4.26,0,0,1-.84.59,7,7,0,0,1-2.69.81,11.35,11.35,0,0,1-1.62,0,16.77,16.77,0,0,1-2.4-.33c-1.42-.3-2.68-.67-3.92-1.06-2.46-.78-4.75-1.73-7-2.69s-4.47-2-6.65-3.13-4.32-2.26-6.44-3.54a2.42,2.42,0,0,1,1.82-4.42h0c4.64,1.12,9.27,2.37,13.83,3.48,2.27.57,4.54,1.07,6.72,1.49a28.09,28.09,0,0,0,3.11.45,10.18,10.18,0,0,0,1.18,0c.15,0,.21,0,.17,0a1.94,1.94,0,0,0-1,.31l-1,.77a66.71,66.71,0,0,0,5.37-6.78c1.68-2.43,3.27-5,4.8-7.58s3-5.29,4.39-8,2.77-5.5,4-8.11l.06-.13a5.46,5.46,0,0,1,10,4.45Z" style="fill:#ffc3bd"></path><path d="M218.52,148.62c-6.44.18-10.86,7.17-15.08,15.88A37.19,37.19,0,0,0,216.89,178S233.81,148.19,218.52,148.62Z" style="fill:#e0e0e0"></path><path d="M166.34,183.28l-5.8-1.48,4.52-5.81s5,.79,6.9,5l-2.06,1.47A4.39,4.39,0,0,1,166.34,183.28Z" style="fill:#ffc3bd"></path><path d="M159.13,175.86l1.12-1a2.59,2.59,0,0,1,3.33-.07l1.48,1.19-4.52,5.81-1.85-2.88A2.35,2.35,0,0,1,159.13,175.86Z" style="fill:#ffc3bd"></path><polygon points="253.46 408.72 245.55 408.72 243.66 391.1 251.57 391.1 253.46 408.72" style="fill:#ffc3bd"></polygon><path d="M244.86,407.84h8.89a.56.56,0,0,1,.59.52l.43,6.76a1.39,1.39,0,0,1-1.39,1.36c-3.09-.06-4.57-.23-8.48-.23-2.4,0-9,.24-12.35.24s-3.23-3.16-1.82-3.44c6.31-1.29,10.53-3.06,12.77-4.74A2.24,2.24,0,0,1,244.86,407.84Z" style="fill:#263238"></path><polygon points="251.57 391.1 243.66 391.1 244.64 400.19 252.55 400.19 251.57 391.1" style="opacity:0.2"></polygon><path d="M224.81,215.53s1.75,66.12,3,87.91c1.4,23.86,13.25,94.55,13.25,94.55h14.5s-3.18-71.59-5.58-95c1-25.64,1.66-87.48,1.66-87.48Z" style="fill:#407BFF"></path><polygon points="256.14 397.99 239.7 397.99 238.92 392.7 256.58 393 256.14 397.99" style="fill:#263238"></polygon><path d="M242.06,409.16a10.11,10.11,0,0,0,2.11-.27.16.16,0,0,0,.13-.14.16.16,0,0,0-.07-.18c-.25-.16-2.49-1.64-3.46-1.27a.68.68,0,0,0-.43.5.94.94,0,0,0,.23,1A2.21,2.21,0,0,0,242.06,409.16Zm1.6-.52c-1.42.27-2.46.22-2.83-.13a.63.63,0,0,1-.13-.63.33.33,0,0,1,.2-.25C241.42,407.43,242.74,408.07,243.66,408.64Z" style="fill:#407BFF"></path><path d="M244.12,408.9l.09,0a.21.21,0,0,0,.1-.15c0-.09.18-2.28-.62-3a.91.91,0,0,0-.78-.24.7.7,0,0,0-.67.53c-.18.83,1,2.42,1.79,2.87ZM243,405.81a.54.54,0,0,1,.4.16,3.81,3.81,0,0,1,.52,2.42c-.69-.56-1.48-1.77-1.36-2.31,0-.11.09-.23.36-.26Z" style="fill:#407BFF"></path><path d="M212.68,153.71a7.59,7.59,0,0,1,5.84-5.09,48.46,48.46,0,0,1,5.93-1,163.28,163.28,0,0,1,18,0c3.14.14,6.34.51,8.89.87l.09,0a4.86,4.86,0,0,1,4.23,5.64A230.81,230.81,0,0,0,251.75,185c-.62,15.06.22,26.88-.08,30.51H209.35C206.78,178.78,210.1,162.08,212.68,153.71Z" style="fill:#e0e0e0"></path><path d="M245.32,125.21a5.26,5.26,0,0,1-.79,9c1.71,2.83-2.84,7.83-7.42,4.69S239,122.54,245.32,125.21Z" style="fill:#263238"></path><path d="M226.38,122.17a3.63,3.63,0,0,1-3.35-5.26c-2.13-.83-1.75-5.48,2.09-5.68S230.94,121,226.38,122.17Z" style="fill:#263238"></path><path d="M225.13,151.55a2.24,2.24,0,0,1,.79-3.77c3.86-1.42,4.56-4.22,4.25-7.27a21.49,21.49,0,0,0-.42-2.55l6.55-5.23,4.82-3.84c-1.2,5-2.54,13.71,0,18.12a2.27,2.27,0,0,1-.46,2.92C239,151.4,235.6,153.3,230,153,227.43,152.87,226,152.28,225.13,151.55Z" style="fill:#ffc3bd"></path><path d="M210.51,153.89a8.81,8.81,0,0,1,6.41-5.82,54.23,54.23,0,0,1,5.73-.6A1.22,1.22,0,0,1,224,149c-3.35,12.44-8.13,37.33-6.65,68.16a1.41,1.41,0,0,1-1.44,1.46h-8.4a1.43,1.43,0,0,1-1.45-1.32C203.53,179.63,208,160.86,210.51,153.89Z" style="fill:#263238"></path><path d="M251.11,147.74A79.45,79.45,0,0,0,243,147h0a2.09,2.09,0,0,0-2.18,1.58c-3.11,13.7-5.88,44.14-6,68.63a1.42,1.42,0,0,0,1.45,1.39h15a1.42,1.42,0,0,0,1.45-1.36c.1-4.93-.58-16.48,0-30.82A215,215,0,0,1,256.56,156C257.08,153.19,254.08,148.16,251.11,147.74Z" style="fill:#263238"></path><path d="M256.38,152.09c3.21,4.84,6.13,9.69,8.89,14.78,1.36,2.55,2.7,5.14,3.91,7.86.6,1.36,1.19,2.75,1.74,4.22a29.7,29.7,0,0,1,1.4,4.9,11.88,11.88,0,0,1,.16,3.7,16,16,0,0,1-.77,2.93,29.59,29.59,0,0,1-2.09,4.48,68.51,68.51,0,0,1-4.91,7.48,121.7,121.7,0,0,1-11.32,13.06,2.72,2.72,0,0,1-4.24-3.35l0-.06c2.91-4.69,5.85-9.47,8.51-14.21,1.32-2.36,2.58-4.76,3.59-7.08s1.75-4.86,1.23-4.93a25.75,25.75,0,0,0-1.16-3.12c-.5-1.14-1.07-2.32-1.67-3.49-1.22-2.35-2.53-4.74-3.9-7.09-2.74-4.72-5.66-9.48-8.55-14.09l0-.06a5.46,5.46,0,0,1,9.18-5.93Z" style="fill:#ffc3bd"></path><path d="M250.16,147.61c6.44-.12,9.85,5.33,14.07,14-4.78,8.85-13.9,12.68-13.9,12.68S237.5,147.83,250.16,147.61Z" style="fill:#e0e0e0"></path><path d="M246.86,211.89l-3.71,1.18,6.87,5.22s5.62-2.92,3.86-5.57l-1.14-.51A8.33,8.33,0,0,0,246.86,211.89Z" style="fill:#ffc3bd"></path><path d="M241.07,217.65l4.17,4.19a1.36,1.36,0,0,0,2-.11l2.77-3.44-6.87-5.22L241,216A1.22,1.22,0,0,0,241.07,217.65Z" style="fill:#ffc3bd"></path><path d="M229.75,138a21.49,21.49,0,0,1,.42,2.55c2.48.63,6-2.21,6.33-4.62a15.36,15.36,0,0,0-.2-3.16Z" style="opacity:0.2"></path><path d="M245.23,121.79c-1.69,7.38-2.29,11.78-6.83,15.07a10.41,10.41,0,0,1-16.51-7.43c-.58-6.92,2.28-17.83,10.36-19.77S246.92,114.4,245.23,121.79Z" style="fill:#ffc3bd"></path><path d="M241.81,128.25c-2.14.11-4.42-7.44.3-11.08-.75.41-2.8-.34-2.44-1.75-1.39.58-7.47.33-6-2.14-3.09.8-9.83-.54-10.55-3.49s2.76-3.05,3.3-2.66c-1.53-2.14-1.5-5.28,2.56-6.42s10.18,4.73,10.18,4.73c-.64-1.55,1.61-2.8,3.94-1.47s3.42,5.11,3.42,5.11c0-1.14,5.44.39,2.86,5.17,2.67,1,3.89,2.42,3.72,4.89s-1.86,2.61-1.86,2.61a4.29,4.29,0,0,1-1.47,5.08C247,129.06,244.58,126.44,241.81,128.25Z" style="fill:#263238"></path><path d="M246.05,128.82a7.2,7.2,0,0,1-3.93,2.85c-2.06.55-2.76-1.29-1.92-3.21.76-1.73,2.74-4.11,4.68-3.81S247.21,127.1,246.05,128.82Z" style="fill:#ffc3bd"></path><path d="M233,121.49c-.1.6-.52,1.05-.93,1s-.67-.59-.57-1.2.52-1,.93-1S233.05,120.88,233,121.49Z" style="fill:#263238"></path><path d="M225.68,120.16c-.1.61-.51,1.06-.92,1s-.67-.59-.57-1.2.51-1,.92-1S225.78,119.56,225.68,120.16Z" style="fill:#263238"></path><path d="M228.57,121.52a22.45,22.45,0,0,1-3.87,4.77,3.75,3.75,0,0,0,2.93,1Z" style="fill:#ed847e"></path><path d="M228.93,130.27a5.5,5.5,0,0,0,4.09-1.2.19.19,0,0,0,0-.26.2.2,0,0,0-.26,0,5.27,5.27,0,0,1-4.49,1,.18.18,0,0,0-.22.14.17.17,0,0,0,.14.21A5.1,5.1,0,0,0,228.93,130.27Z" style="fill:#263238"></path><path d="M233.3,117.33a.37.37,0,0,0-.16.09.35.35,0,0,0,0,.51,3.62,3.62,0,0,0,3.14,1.18.35.35,0,0,0,.31-.41.37.37,0,0,0-.43-.3,2.89,2.89,0,0,1-2.45-1A.4.4,0,0,0,233.3,117.33Z" style="fill:#263238"></path><path d="M223.61,115.52a.43.43,0,0,0,.35,0,3.26,3.26,0,0,1,2.76-.07.38.38,0,0,0,.51-.13.38.38,0,0,0-.15-.5h0a4,4,0,0,0-3.46,0,.34.34,0,0,0-.16.48A.39.39,0,0,0,223.61,115.52Z" style="fill:#263238"></path></g></svg>