<svg width="289" height="330" viewBox="0 0 289 330" fill="none" xmlns="http://www.w3.org/2000/svg">
<path d="M80.0791 121.522L20.4705 139.851C19.6348 140.039 18.7703 140.06 17.9264 139.914C17.0825 139.767 16.2758 139.456 15.5524 138.997C14.8291 138.538 14.2033 137.941 13.7108 137.241C13.2184 136.54 12.869 135.749 12.6827 134.913L1.15681 83.2156C0.779855 81.5274 1.08882 79.7587 2.01575 78.2982C2.94269 76.8378 4.4117 75.8053 6.09976 75.4278L67.3438 65.3495C69.5226 64.9911 71.756 65.4801 73.5858 66.7161C75.4155 67.9521 76.7029 69.8415 77.1838 71.9966L85.9749 111.394C86.445 113.514 86.0994 115.733 85.0068 117.61C83.9143 119.487 82.1549 120.884 80.0791 121.522V121.522Z" stroke="#DADEEB" stroke-width="1.37431" stroke-miterlimit="10" stroke-linecap="round"/>
<path d="M100.053 239.388C91.9762 225.081 77.6054 195.286 73.7803 158.72" stroke="#DADEEB" stroke-width="1.37431" stroke-miterlimit="10" stroke-linecap="round"/>
<path d="M207.775 226.813C211.289 216.41 214.349 204.366 214.812 193.037" stroke="#DADEEB" stroke-width="1.37431" stroke-miterlimit="10" stroke-linecap="round"/>
<path d="M219.37 232.347C219.37 232.347 221.161 215.507 231.569 204.073L243.59 213.354C243.59 213.354 227.382 217.33 219.37 232.347Z" fill="#FFD550"/>
<path d="M245.907 242.473C266.012 243.914 281.165 259.958 279.856 278.222C278.547 296.486 261.26 310.204 241.155 308.763C221.049 307.322 205.896 291.278 207.205 273.014C208.514 254.75 225.801 241.032 245.907 242.473Z" stroke="#DADEEB"/>
<path d="M229.818 158.256C229.758 158.255 229.706 158.254 229.661 158.252C226.031 161.001 223.616 165.705 222.835 169.835C222.439 171.927 222.473 173.817 222.937 175.2C223.393 176.561 224.24 177.386 225.503 177.533C226.904 177.696 229.3 177.316 232.28 176.516C235.236 175.722 238.697 174.534 242.192 173.136C249.2 170.332 256.257 166.718 259.632 163.794C262.992 160.883 264.232 158.018 264.477 155.657C264.725 153.28 263.97 151.366 263.269 150.362C263.202 150.266 263.056 150.167 262.711 150.149C262.364 150.131 261.9 150.203 261.334 150.361C260.207 150.675 258.818 151.287 257.435 151.951C256.843 152.235 256.247 152.532 255.678 152.815C254.943 153.181 254.253 153.523 253.681 153.786C253.171 154.02 252.712 154.211 252.361 154.306C252.192 154.351 251.997 154.39 251.815 154.373C251.72 154.364 251.595 154.337 251.475 154.256C251.345 154.169 251.255 154.04 251.216 153.89M229.818 158.256L251.699 153.764M229.818 158.256C230.035 158.261 230.347 158.264 230.73 158.254C231.497 158.235 232.557 158.167 233.729 157.973C236.051 157.587 238.913 156.688 240.756 154.579M229.818 158.256L240.38 154.249M251.216 153.89C251.216 153.89 251.215 153.889 251.215 153.888L251.699 153.764M251.216 153.89C251.216 153.891 251.216 153.891 251.216 153.891L251.699 153.764M251.216 153.89C251.186 153.776 251.193 153.669 251.201 153.603C251.21 153.529 251.227 153.453 251.246 153.382C251.284 153.24 251.343 153.074 251.412 152.897C251.551 152.541 251.753 152.087 251.977 151.589C252.002 151.532 252.028 151.474 252.054 151.416C252.49 150.444 253.001 149.304 253.367 148.258C253.56 147.704 253.707 147.192 253.781 146.757C253.857 146.308 253.843 146.005 253.781 145.83C253.753 145.752 253.721 145.715 253.695 145.694C253.669 145.673 253.618 145.645 253.514 145.634C253.283 145.61 252.874 145.68 252.209 145.975C246.796 148.38 242.5 152.586 240.756 154.579M251.699 153.764C251.644 153.552 252.024 152.703 252.512 151.616C253.869 148.592 256.056 143.719 252.006 145.518C246.5 147.964 242.148 152.229 240.38 154.249M240.756 154.579C240.756 154.579 240.756 154.578 240.756 154.578L240.38 154.249M240.756 154.579L240.38 154.249" fill="white" stroke="black"/>
<path d="M250.723 154.391L246.623 158.262" stroke="#0D0F44" stroke-width="0.916209" stroke-miterlimit="10" stroke-linecap="round"/>
<path d="M74.8274 110.929L60.9832 127.959C60.8762 127.903 60.7465 127.834 60.5959 127.752C60.1156 127.493 59.4225 127.11 58.5741 126.616C56.8767 125.628 54.5604 124.197 52.0845 122.429C47.1132 118.877 41.5758 114.014 39.05 108.679C36.5247 103.343 36.7785 98.8773 38.0979 95.3958C39.424 91.8967 41.841 89.3578 43.6816 87.9361C44.1839 87.5491 44.6957 87.2546 45.2782 87.1206C45.8547 86.9879 46.5392 87.0036 47.4008 87.2996C49.1538 87.9018 51.5947 89.6472 55.19 93.5372C57.0075 95.5037 58.4402 96.7373 59.5756 97.4728C60.7048 98.2042 61.5875 98.4737 62.2889 98.4272C63.0205 98.3787 63.4713 97.9931 63.7246 97.6233C63.8476 97.4437 63.924 97.2694 63.97 97.1402C63.9932 97.075 64.0093 97.0196 64.02 96.9783C64.0253 96.9576 64.0294 96.9403 64.0323 96.927L64.036 96.9099L64.0372 96.9036L64.0377 96.9011L64.0379 96.9C64.038 96.8995 64.0381 96.899 63.5465 96.8077L64.0381 96.899L64.0478 96.8468L64.0463 96.7937C63.9032 91.6688 64.7069 88.8367 65.6778 87.3012C66.6294 85.7963 67.7564 85.5115 68.4207 85.5115C69.0075 85.5115 69.6226 85.97 70.2321 87.0448C70.8263 88.0925 71.3258 89.577 71.7327 91.2784C72.5444 94.6729 72.9565 98.7969 73.0748 101.666L73.0748 101.666C73.2048 104.739 73.6691 107.116 74.104 108.732C74.3214 109.539 74.5314 110.156 74.6885 110.575C74.7414 110.715 74.7883 110.834 74.8274 110.929Z" fill="white" stroke="black"/>
<path d="M43.5908 89.4504C43.5908 89.4504 48.9781 95.9784 52.0383 97.6963" stroke="#0D0F44" stroke-width="0.916209" stroke-miterlimit="10" stroke-linecap="round"/>
<path d="M41.3418 93.5781C41.3418 93.5781 46.7245 100.106 49.7892 101.824" stroke="#0D0F44" stroke-width="0.916209" stroke-miterlimit="10" stroke-linecap="round"/>
<path d="M39.3672 98.498C39.3672 98.498 44.7499 105.017 47.8146 106.744" stroke="#0D0F44" stroke-width="0.916209" stroke-miterlimit="10" stroke-linecap="round"/>
<path d="M39.3672 104.806C41.0596 106.839 42.8563 108.782 44.7499 110.629" stroke="#0D0F44" stroke-width="0.916209" stroke-miterlimit="10" stroke-linecap="round"/>
<path d="M86.2719 264.79L136.37 229.182C137.915 228.084 139.683 227.343 141.549 227.011C143.415 226.68 145.331 226.767 147.159 227.267L225.036 248.463C226.38 248.827 227.605 249.538 228.589 250.524C229.572 251.51 230.279 252.736 230.64 254.081C231 255.426 231.001 256.842 230.642 258.188C230.284 259.533 229.578 260.761 228.596 261.748L164.883 326.089C162.764 328.234 159.924 329.516 156.914 329.686C153.904 329.855 150.938 328.9 148.592 327.005L85.9008 276.188C85.0445 275.491 84.3608 274.606 83.903 273.601C83.4452 272.597 83.2257 271.5 83.2616 270.397C83.2975 269.294 83.5879 268.214 84.1101 267.241C84.6322 266.268 85.3721 265.43 86.2719 264.79Z" fill="#0D0F44"/>
<path d="M230.575 247.259L230.913 257.428L225.938 261.666L230.575 247.259Z" fill="#0D0F44"/>
<path d="M83.2627 263.998V271.634L90.9222 275.633L83.2627 263.998Z" fill="#0D0F44"/>
<path d="M86.2728 258.175L136.371 222.562C137.915 221.464 139.684 220.723 141.55 220.392C143.416 220.061 145.332 220.148 147.159 220.647L225.037 241.844C226.381 242.208 227.606 242.918 228.59 243.904C229.573 244.89 230.28 246.117 230.64 247.462C231.001 248.807 231.002 250.223 230.643 251.568C230.284 252.914 229.579 254.141 228.597 255.129L164.884 319.469C162.762 321.611 159.921 322.889 156.911 323.054C153.9 323.219 150.936 322.26 148.593 320.363L85.9017 269.568C85.0463 268.871 84.3634 267.987 83.9061 266.982C83.4488 265.978 83.2296 264.882 83.2655 263.78C83.3014 262.677 83.5915 261.598 84.1131 260.625C84.6348 259.653 85.3738 258.815 86.2728 258.175Z" fill="#22319E"/>
<path d="M216.181 256.508L193.276 279.628L192.515 276.421C191.347 271.24 187.701 254.785 184.521 237.57L213.181 245.357C214.31 245.661 215.339 246.256 216.166 247.083C216.993 247.91 217.588 248.939 217.892 250.068C218.196 251.197 218.198 252.387 217.897 253.517C217.597 254.647 217.005 255.678 216.181 256.508Z" fill="#DADEEB"/>
<path d="M126.594 291.686L128.046 294.223L96.4596 268.629C95.7417 268.045 95.1686 267.302 94.785 266.46C94.4015 265.618 94.2178 264.698 94.2484 263.773C94.279 262.848 94.523 261.942 94.9614 261.127C95.3999 260.312 96.0208 259.609 96.7757 259.073L111.545 248.578C114.937 263.464 119.985 277.923 126.594 291.686Z" fill="#DADEEB"/>
<path d="M160.554 46.2192C160.554 46.2192 174.902 43.805 177.618 70.3109C179.703 90.6507 181.636 93.8162 182.231 95.7128C182.827 97.6094 195.64 112.049 191.966 127.111C191.966 127.111 186.249 146.352 168.47 149.581C150.691 152.811 148.593 109.442 148.593 109.442C148.593 109.442 146.174 53.3106 160.554 46.2192Z" fill="#001466"/>
<path d="M61.2783 226.809C69.9411 226.809 76.9638 219.786 76.9638 211.123C76.9638 202.46 69.9411 195.438 61.2783 195.438C52.6154 195.438 45.5928 202.46 45.5928 211.123C45.5928 219.786 52.6154 226.809 61.2783 226.809Z" fill="#17003C"/>
<path d="M66.84 210.825L60.7976 218.613C60.6963 218.747 60.5601 218.85 60.404 218.912C60.2479 218.974 60.0778 218.991 59.9124 218.963C59.7469 218.935 59.5925 218.861 59.4658 218.751C59.3392 218.641 59.2452 218.498 59.1943 218.338L55.7447 207.884C55.6909 207.725 55.6817 207.555 55.7183 207.391C55.7548 207.227 55.8356 207.076 55.9519 206.955C56.0681 206.834 56.2154 206.748 56.3776 206.705C56.5398 206.662 56.7107 206.664 56.8717 206.711L66.359 209.359C66.5078 209.398 66.6445 209.473 66.7565 209.578C66.8686 209.683 66.9525 209.815 67.0004 209.961C67.0483 210.107 67.0587 210.262 67.0307 210.414C67.0027 210.565 66.9371 210.706 66.84 210.825Z" fill="white"/>
<path d="M284.073 110.221L241.863 123.478C241.162 123.699 240.424 123.779 239.692 123.714C238.959 123.649 238.247 123.44 237.595 123.1C236.943 122.759 236.365 122.294 235.893 121.73C235.421 121.166 235.065 120.515 234.845 119.814L226.407 92.9458C225.979 91.585 226.087 90.1123 226.709 88.8284C227.33 87.5445 228.418 86.5463 229.751 86.0376L271.471 70.0955C272.284 69.8398 273.14 69.7469 273.99 69.8222C274.839 69.8975 275.666 70.1394 276.422 70.5343C277.178 70.9291 277.849 71.469 278.396 72.1231C278.943 72.7773 279.356 73.5329 279.611 74.3467L288.315 102.076C288.832 103.718 288.676 105.499 287.88 107.026C287.085 108.554 285.715 109.703 284.073 110.221Z" fill="#17003C"/>
<path d="M264.613 100.33L258.781 102.699L251.355 96.9266L252.217 90.6964C252.262 90.3813 252.388 90.0833 252.583 89.8319C252.778 89.5805 253.036 89.3842 253.33 89.2625L266.762 83.8019C266.874 83.7565 266.997 83.7415 267.117 83.7585C267.237 83.7754 267.351 83.8237 267.446 83.8984C267.542 83.9732 267.616 84.0717 267.662 84.1842C267.707 84.2968 267.722 84.4193 267.705 84.5394L265.722 98.901C265.676 99.2148 265.55 99.5115 265.356 99.762C265.162 100.013 264.906 100.208 264.613 100.33V100.33Z" stroke="white" stroke-width="1.83242" stroke-miterlimit="10" stroke-linecap="round"/>
<path d="M258.818 102.726L254.004 108.915C253.514 109.543 252.469 109.548 251.667 108.915L247.114 105.37C246.312 104.747 246.06 103.73 246.546 103.102L251.356 96.9268L258.818 102.726Z" stroke="white" stroke-width="1.83242" stroke-miterlimit="10" stroke-linecap="round"/>
<path d="M267.449 83.8982L260.485 92.8541" stroke="white" stroke-width="1.83242" stroke-miterlimit="10" stroke-linecap="round"/>
<path d="M258.928 97.4582C260.345 97.4582 261.493 96.3096 261.493 94.8928C261.493 93.476 260.345 92.3274 258.928 92.3274C257.511 92.3274 256.362 93.476 256.362 94.8928C256.362 96.3096 257.511 97.4582 258.928 97.4582Z" stroke="white" stroke-width="1.83242" stroke-miterlimit="10" stroke-linecap="round"/>
<path d="M106.193 196.71C106.198 196.49 106.204 196.304 106.209 196.153L178.727 196.253C178.558 205.234 181.099 221.819 184.04 237.661C187.221 254.885 190.869 271.348 192.037 276.531L192.039 276.537L192.735 279.473L162.366 310.143C162.366 310.143 162.366 310.143 162.366 310.143C160.673 311.852 158.406 312.871 156.005 313.002C153.603 313.133 151.239 312.367 149.37 310.853L149.37 310.853L128.434 293.894L127.038 291.453C120.449 277.728 115.416 263.31 112.034 248.467L112.033 248.465C108.564 233.51 107.112 220.307 106.528 210.844C106.236 206.113 106.161 202.318 106.159 199.707C106.158 198.401 106.175 197.392 106.193 196.71Z" fill="white" stroke="black"/>
<path d="M134.218 228.879L140.805 231.399C140.805 231.399 141.002 252.293 165.286 305.873" stroke="#DADEEB" stroke-width="0.916209" stroke-miterlimit="10" stroke-linecap="round"/>
<path d="M140.896 99.5425C140.896 99.5425 121.198 100.66 113.868 114.939C104.876 132.347 94.0781 130.231 79.0019 112.255C78.4453 111.589 77.6718 111.14 76.8173 110.988C75.9628 110.835 75.0819 110.989 74.3292 111.421C68.7404 114.628 57.1274 122.704 62.533 131.761C69.542 143.498 90.7431 168.029 108.802 166.627C108.802 166.627 105.563 187.068 105.764 195.653C105.764 195.653 116.873 209.689 144.538 209.084C172.203 208.48 179.276 195.754 179.276 195.754C179.276 195.754 179.579 174.75 180.49 169.298C180.49 169.298 198.695 182.908 225.481 178.039C225.481 178.039 221.908 165.702 229.54 157.745C229.54 157.745 203.075 150.438 200.157 146.379C197.239 142.32 189.194 119.713 187.6 116.332C185.516 111.902 179.354 104.476 167.508 100.903C155.661 97.3299 140.896 99.5425 140.896 99.5425Z" fill="#113FFB"/>
<path d="M118.175 117.761C118.175 117.761 112.091 135.243 109.077 163.549" stroke="#DADEEB" stroke-width="0.916209" stroke-miterlimit="10" stroke-linecap="round"/>
<path d="M161.314 128.586C161.314 128.586 166.59 146.242 170.316 156.5C171.528 159.838 172.576 162.393 173.225 163.302C175.868 167.003 180.449 169.298 180.449 169.298" stroke="white" stroke-width="0.916209" stroke-miterlimit="10" stroke-linecap="round"/>
<path d="M224.607 156.329C224.607 156.329 216.751 160.406 220.136 176.742" stroke="white" stroke-width="0.916209" stroke-miterlimit="10" stroke-linecap="round"/>
<path d="M81.0776 114.678C81.0776 114.678 71.2421 119.571 66.4824 128.586" stroke="white" stroke-width="0.916209" stroke-miterlimit="10" stroke-linecap="round"/>
<path d="M135.807 51.0706C135.807 51.0706 127.231 54.9644 133.297 68.8129L140.878 55.4363L135.807 51.0706Z" fill="#001466"/>
<path d="M162.87 78.5947L162.761 79.1517C162.641 79.765 162.469 80.643 162.263 81.7023C161.852 83.8209 161.303 86.6647 160.754 89.5653C160.206 92.4655 159.657 95.4241 159.245 97.7717C159.039 98.9451 158.867 99.9684 158.746 100.756C158.629 101.515 158.553 102.099 158.551 102.376C158.548 102.384 158.539 102.403 158.515 102.435C158.467 102.499 158.379 102.585 158.233 102.687C157.942 102.891 157.492 103.112 156.897 103.321C155.712 103.739 154.041 104.084 152.15 104.203C148.456 104.435 144.046 103.799 140.82 101.301L140.923 101C141.063 100.595 141.264 100.011 141.507 99.2988C141.993 97.875 142.651 95.9385 143.337 93.8877C144.705 89.7981 146.196 85.2193 146.646 83.3706C146.826 82.6322 147.506 81.7851 148.643 80.9599C149.763 80.1471 151.256 79.4065 152.928 78.8564C156.15 77.796 159.925 77.4779 162.87 78.5947Z" fill="white" stroke="#001466"/>
<path d="M165.373 69.5962C165.373 74.2432 163.59 79.0986 160.702 82.7878C157.812 86.4787 153.866 88.9459 149.56 88.9459C144.175 88.9459 140.086 87.3531 137.415 84.2036C134.735 81.0435 133.406 76.227 133.741 69.6216C134.217 60.357 140.873 52.844 149.56 52.844C158.268 52.844 165.373 60.317 165.373 69.5962Z" fill="white" stroke="#001466"/>
<path d="M158.301 69.9581C148.593 70.8972 135.757 63.3889 135.808 51.0705C135.858 38.752 147.15 38.2939 148.859 38.2939C150.568 38.2939 165.498 40.5478 170.074 55.4729C174.65 70.3979 162.369 69.5642 158.301 69.9581Z" fill="#001466"/>
<path d="M167.002 77.0118C170.447 75.0231 172.253 71.7041 171.038 69.5985C169.822 67.4928 166.044 67.398 162.6 69.3866C159.156 71.3752 157.349 74.6943 158.564 76.7999C159.78 78.9055 163.558 79.0004 167.002 77.0118Z" fill="white"/>
<path d="M149.304 82.8538C149.304 82.8538 153.065 83.3348 154.599 80.041" stroke="#0D0F44" stroke-width="0.916209" stroke-miterlimit="10" stroke-linecap="round"/>
<path d="M163.422 73.9573L168.543 71.7446" stroke="#0D0F44" stroke-width="0.916209" stroke-miterlimit="10" stroke-linecap="round"/>
<path d="M142.134 71.5935L141.075 76.1058C141.045 76.2368 141.042 76.3726 141.066 76.5048C141.09 76.637 141.142 76.7628 141.217 76.8742C141.292 76.9856 141.39 77.0803 141.503 77.1522C141.617 77.2242 141.744 77.2719 141.877 77.2923L142.963 77.4664" stroke="#0D0F44" stroke-width="0.916209" stroke-miterlimit="10" stroke-linecap="round"/>
<path d="M139.164 69.4934C139.321 68.1872 138.902 67.0628 138.229 66.982C137.556 66.9013 136.883 67.8947 136.726 69.201C136.569 70.5072 136.988 71.6316 137.661 71.7124C138.335 71.7931 139.007 70.7997 139.164 69.4934Z" fill="#0D0F44"/>
<path d="M148.595 71.1148C148.751 69.8085 148.333 68.6841 147.659 68.6033C146.986 68.5226 146.313 69.5161 146.157 70.8223C146 72.1286 146.419 73.253 147.092 73.3337C147.765 73.4145 148.438 72.421 148.595 71.1148Z" fill="#0D0F44"/>
<path d="M88.6555 14.949C87.9957 11.746 86.5087 8.77166 84.3424 6.32186C82.1761 3.87205 79.4061 2.03221 76.308 0.985398C73.2098 -0.0614141 69.8916 -0.278702 66.6834 0.355153C63.4752 0.989009 60.4889 2.45191 58.0217 4.5983C55.5544 6.74469 53.6922 9.49973 52.6204 12.5893C51.5486 15.6789 51.3044 18.9953 51.9123 22.2085C52.5202 25.4217 53.9589 28.4197 56.0853 30.9042C58.2116 33.3888 60.9515 35.2732 64.0323 36.3699C64.7276 36.623 65.3458 37.051 65.8273 37.6128C66.3088 38.1745 66.6373 38.8509 66.781 39.5767L67.2391 41.7252C67.4432 42.7116 67.8396 43.6481 68.4057 44.4813C68.9718 45.3144 69.6964 46.0279 70.5383 46.5809C71.3802 47.134 72.3228 47.5157 73.3123 47.7044C74.3017 47.8931 75.3186 47.885 76.305 47.6805C77.2913 47.4765 78.2279 47.0801 79.061 46.514C79.8942 45.9479 80.6077 45.2232 81.1607 44.3813C81.7137 43.5394 82.0955 42.5968 82.2842 41.6074C82.4728 40.6179 82.4647 39.601 82.2603 38.6147L81.8022 36.4845C81.6487 35.7656 81.6818 35.0194 81.8983 34.317C82.1148 33.6145 82.5076 32.9792 83.0391 32.4715C85.4067 30.283 87.1682 27.5194 88.1523 24.449C89.1364 21.3787 89.3097 18.1061 88.6555 14.949Z" fill="#FFD550"/>
<path d="M70.7607 37.4876L81.7094 35.2246" stroke="#F66060" stroke-width="2.29052" stroke-miterlimit="10" stroke-linecap="round"/>
<path d="M72.2773 3.8811C72.2773 3.8811 80.0239 5.04469 82.264 11.8521" stroke="white" stroke-width="1.83242" stroke-miterlimit="10" stroke-linecap="round"/>
<path d="M49.4592 6.72607C49.4592 6.72607 43.229 13.7488 46.6602 24.3356" stroke="#F66060" stroke-width="2.29052" stroke-miterlimit="10" stroke-linecap="round"/>
<path d="M43.4993 1.93433C43.4993 1.93433 34.3372 12.2737 39.3764 27.863" stroke="#F66060" stroke-width="2.29052" stroke-miterlimit="10" stroke-linecap="round"/>
</svg>
