<svg width="251" height="316" viewBox="0 0 251 316" fill="none" xmlns="http://www.w3.org/2000/svg">
<path d="M171.176 314.264C171.094 314.635 171.017 314.945 170.951 315.189L128.669 285.344C130.985 278.592 131.926 271.313 132.289 265.701C132.473 262.842 132.508 260.409 132.496 258.691C132.491 257.832 132.473 257.151 132.458 256.683L164.194 266.93C162.251 277.464 164.369 285.65 169.175 296.201C171.559 301.435 171.953 306.352 171.751 309.962C171.65 311.767 171.399 313.242 171.176 314.264Z" fill="white" stroke="black"/>
<path d="M154.815 282.353L163.432 284.675" stroke="white" stroke-width="0.873046" stroke-miterlimit="10" stroke-linecap="round"/>
<path d="M216.283 221.997C218.624 225.545 221.072 227.593 223.513 228.644C226.175 229.793 228.443 229.937 230.056 229.786C230.861 229.71 231.502 229.562 231.945 229.43C232.166 229.364 232.339 229.302 232.459 229.256C232.518 229.233 232.565 229.213 232.598 229.199C232.609 229.194 232.619 229.19 232.627 229.186C239.678 226.741 244.098 227.606 246.731 229.002C248.057 229.705 248.952 230.555 249.514 231.223C249.786 231.547 249.98 231.828 250.105 232.029L215.031 263.011C212.874 262.384 210.654 260.848 208.51 258.826C206.29 256.733 204.193 254.157 202.379 251.644C200.567 249.132 199.046 246.695 197.978 244.884C197.444 243.98 197.024 243.232 196.737 242.712C196.628 242.514 196.539 242.348 196.47 242.22L216.283 221.997Z" fill="white" stroke="black"/>
<path d="M223.047 238.421L226.251 230.088" stroke="white" stroke-width="0.873046" stroke-miterlimit="10" stroke-linecap="round"/>
<path d="M234.625 158.964L199.644 143.133C197.241 142.045 194.411 143.112 193.324 145.515L177.493 180.496C176.405 182.898 177.472 185.728 179.874 186.815L214.855 202.647C217.258 203.734 220.088 202.668 221.175 200.265L237.006 165.284C238.094 162.881 237.028 160.052 234.625 158.964Z" stroke="#DADEEB" stroke-width="0.873046" stroke-miterlimit="10"/>
<path d="M195.957 110.07L164.662 114.872C164.411 114.91 164.155 114.891 163.912 114.818C163.669 114.745 163.445 114.619 163.257 114.449C163.068 114.279 162.919 114.07 162.821 113.836C162.723 113.602 162.678 113.349 162.689 113.095L167.626 92.0593C167.799 91.3247 168.19 90.6599 168.749 90.1531C169.308 89.6463 170.008 89.3215 170.756 89.2219L202.548 84.9702C202.792 84.9294 203.042 84.9513 203.274 85.0339C203.507 85.1165 203.715 85.257 203.878 85.4422C204.042 85.6275 204.155 85.8512 204.208 86.0925C204.261 86.3337 204.252 86.5844 204.181 86.821L197.672 108.582C197.557 108.967 197.335 109.312 197.031 109.576C196.727 109.839 196.354 110.011 195.957 110.07Z" fill="#BEDDFA"/>
<path d="M214.527 44.5C214.527 51.4154 208.921 57.0215 202.006 57.0215C195.09 57.0215 189.484 51.4154 189.484 44.5C189.484 37.5846 195.09 31.9785 202.006 31.9785C208.921 31.9785 214.527 37.5846 214.527 44.5Z" fill="white" stroke="black"/>
<path d="M205.778 46.2405L205.778 46.2405L205.769 46.244L198.527 49.1163L198.527 49.1163L198.521 49.1188C198.458 49.1448 198.388 49.153 198.321 49.1423C198.253 49.1316 198.19 49.1025 198.138 49.0582C198.085 49.0139 198.046 48.9561 198.025 48.8911C198.003 48.8261 198 48.7565 198.015 48.6898L198.015 48.6898L198.017 48.6836L199.868 40.1888L199.868 40.1889L199.87 40.1754C199.883 40.1079 199.914 40.0452 199.961 39.9942C200.007 39.9433 200.066 39.9061 200.132 39.8868C200.198 39.8675 200.268 39.8668 200.335 39.8849C200.401 39.9029 200.461 39.9389 200.508 39.9889L200.508 39.9889L200.511 39.9918L205.902 45.6185L205.902 45.6186L205.91 45.6269C205.955 45.671 205.987 45.7255 206.005 45.7854C206.022 45.8454 206.025 45.9088 206.012 45.9699C205.998 46.031 205.97 46.0878 205.929 46.1351L206.308 46.4619L205.929 46.1351C205.888 46.1823 205.836 46.2186 205.778 46.2405Z" fill="white" stroke="black"/>
<path d="M5.94213 116.605C1.95706 131.078 -0.0416103 146.027 0.00104961 161.039C-0.0259713 167.811 0.468764 174.575 1.48086 181.271C2.43508 187.648 4.19526 193.878 6.71914 199.811C9.17677 205.442 12.5293 210.802 16.9251 215.132C20.9845 219.136 25.828 222.257 31.1513 224.299C36.3695 226.351 42.0151 227.075 47.5821 226.408C50.2975 226.051 52.9453 225.295 55.4395 224.164C56.4915 223.688 57.5304 223.191 58.5956 222.737C61.092 221.717 63.5353 220.572 65.916 219.306C68.8895 217.725 71.6209 215.725 74.0266 213.369C76.7272 210.682 78.8046 207.435 80.1118 203.857C81.7531 199.287 82.0456 194.328 81.5305 189.53C81.011 184.628 79.7538 178.988 74.9826 176.531C70.5083 174.235 64.9426 175.308 60.9484 178.085C55.5399 181.852 52.864 188.09 51.7814 194.402C50.7989 199.717 50.891 205.174 52.0521 210.453C53.1259 215.176 55.1077 220.174 58.8618 223.422C60.9746 225.26 63.7072 226.242 66.322 227.141C70.4239 228.538 74.6706 229.467 78.9812 229.909C85.1082 230.545 91.2989 230.137 97.289 228.7C100.717 227.855 104.057 226.686 107.264 225.207C107.84 224.946 107.342 224.099 106.77 224.356C100.611 227.188 93.9673 228.818 87.1965 229.158C79.014 229.527 70.8509 228.087 63.2882 224.941C61.9147 224.394 60.6361 223.634 59.4992 222.689C57.7803 221.115 56.3837 219.221 55.3871 217.114C53.1783 212.675 52.1656 207.572 52.0521 202.635C52.0048 199.824 52.2432 197.016 52.7636 194.254C53.306 190.943 54.4182 187.751 56.0506 184.82C58.9055 179.918 64.0346 176.09 69.8971 176.251C71.8446 176.269 73.7477 176.835 75.3886 177.884C77.2918 179.159 78.549 181.175 79.3173 183.306C80.2602 185.986 80.5963 188.919 80.7404 191.744C80.8842 194.148 80.7627 196.56 80.3781 198.937C79.741 202.841 78.1981 206.541 75.8731 209.741C73.8371 212.439 71.3448 214.76 68.509 216.599C66.0528 218.191 63.465 219.57 60.7738 220.72C59.7043 221.191 58.6261 221.637 57.5566 222.095C56.3038 222.632 55.0903 223.269 53.8244 223.771C48.7747 225.7 43.2882 226.185 37.9786 225.173C32.534 224.149 27.3728 221.969 22.8443 218.777C18.1091 215.422 14.1199 211.122 11.128 206.149C7.91517 200.809 5.52945 195.013 4.05198 188.959C2.54754 182.832 1.61808 176.579 1.2757 170.28C0.842764 163.132 0.883595 155.963 1.39792 148.82C1.91865 141.53 2.92489 134.282 4.40993 127.125C5.12583 123.679 5.95231 120.26 6.88938 116.867C6.91179 116.745 6.88791 116.62 6.82244 116.516C6.75698 116.411 6.6547 116.335 6.53577 116.302C6.41684 116.269 6.28991 116.282 6.18001 116.338C6.07012 116.394 5.98524 116.489 5.94213 116.605Z" fill="#DADEEB"/>
<path d="M153.024 22.591L162.593 19.125" stroke="#DADEEB" stroke-width="0.873046" stroke-miterlimit="10" stroke-linecap="round"/>
<path d="M152.104 26.7991L162.213 27.9864" stroke="#DADEEB" stroke-width="0.873046" stroke-miterlimit="10" stroke-linecap="round"/>
<path d="M191.07 248.615C178.243 217.195 158.756 195.887 146.051 183.39L145.254 183.972C148.943 191.296 152.22 198.821 155.07 206.511L155.071 206.512C157.312 212.518 161.226 223.456 164.578 235.52C167.86 247.33 170.593 260.18 170.711 270.532L129.406 257.103C129.335 246.153 126.059 235.75 120.016 219.593C113.866 203.12 106.865 190.875 102.62 186.036L102.62 186.036C92.9279 175 89.7709 162.242 89.15 151.818C88.5766 142.192 90.1678 134.582 90.7523 132.214L127.16 141.667L127.172 141.804L127.767 141.62L154.843 133.239C154.871 133.524 154.912 133.897 154.971 134.34C155.114 135.407 155.364 136.887 155.79 138.542C156.638 141.835 158.204 145.885 161.086 148.727C161.862 149.569 164.074 151.692 165.853 153.398L166.199 153.037L165.853 153.398C177.507 164.568 200.703 186.829 218.696 219.931C218.695 219.93 218.695 219.929 218.695 219.929C218.693 219.93 218.722 220.031 218.61 220.333C218.497 220.638 218.281 221.039 217.957 221.532C217.312 222.514 216.295 223.78 215.013 225.238C212.451 228.149 208.882 231.767 205.255 235.304C201.629 238.839 197.953 242.284 195.181 244.847C193.301 246.586 191.823 247.932 191.07 248.615Z" fill="white" stroke="black"/>
<path d="M131.312 248.811L162.628 259.366" stroke="#DADEEB" stroke-width="0.873046" stroke-miterlimit="10" stroke-linecap="round"/>
<path d="M215.386 213.063C215.386 213.063 204.084 228.237 195.127 235.383" stroke="#DADEEB" stroke-width="0.873046" stroke-miterlimit="10" stroke-linecap="round"/>
<path d="M144.647 181.647C144.647 181.647 138.933 170.808 135.044 165.906L138.663 160.148" stroke="#DADEEB" stroke-width="0.873046" stroke-miterlimit="10" stroke-linecap="round"/>
<path d="M74.6465 54.5095L34.8137 76.3357C32.9922 77.333 30.8705 77.6349 28.8431 77.1853C26.8157 76.7356 25.0206 75.5651 23.7915 73.8912L3.92973 46.7918C3.27584 45.904 2.82012 44.8862 2.59338 43.8071C2.36663 42.7281 2.37414 41.6129 2.61539 40.537C2.85665 39.4611 3.32602 38.4495 3.99181 37.5705C4.6576 36.6916 5.50428 35.9658 6.47466 35.4422L58.6872 7.16425C59.5981 6.67217 60.6049 6.38352 61.6382 6.31821C62.6714 6.2529 63.7066 6.41248 64.6722 6.78595C65.6378 7.15942 66.5109 7.73788 67.2314 8.48146C67.9518 9.22503 68.5023 10.116 68.8451 11.093L79.5879 41.5841C80.4284 43.9748 80.393 46.5862 79.4881 48.9532C78.5831 51.3202 76.8674 53.2892 74.6465 54.5095Z" fill="#BEDDFA"/>
<path d="M33.2072 66.7366L31.0246 71.6693C30.9615 71.8161 30.8592 71.9429 30.7291 72.0356C30.5989 72.1284 30.4458 72.1836 30.2864 72.1953C30.127 72.207 29.9674 72.1748 29.8251 72.102C29.6828 72.0293 29.5631 71.9188 29.4793 71.7828L25.8998 66.8763C25.8296 66.7804 25.7866 66.6673 25.7754 66.5489C25.7642 66.4306 25.7852 66.3114 25.8362 66.2041C25.8872 66.0967 25.9663 66.0051 26.0651 65.939C26.1639 65.8729 26.2787 65.8348 26.3974 65.8286L32.4258 65.5012C32.5709 65.5034 32.7131 65.5416 32.8397 65.6126C32.9663 65.6835 33.0732 65.7849 33.1507 65.9075C33.2283 66.0301 33.2741 66.1701 33.2839 66.3149C33.2938 66.4596 33.2674 66.6046 33.2072 66.7366Z" fill="white"/>
<path d="M54.7981 54.8413L50.6643 57.133L37.132 64.6325C37.0317 64.6881 36.9214 64.7235 36.8075 64.7365C36.6935 64.7495 36.5781 64.7399 36.4678 64.7083C36.3576 64.6767 36.2546 64.6236 36.1648 64.5522C36.0751 64.4808 36.0003 64.3923 35.9447 64.292C35.8337 64.0898 35.8072 63.8519 35.871 63.6303C35.9348 63.4086 36.0837 63.2212 36.2852 63.109L49.8611 55.579L54.091 53.2349C54.4918 53.6813 54.7396 54.2441 54.7981 54.8413Z" fill="white"/>
<path d="M54.8106 55.125C54.8309 55.8109 54.5811 56.4775 54.1149 56.9811C53.6488 57.4848 53.0036 57.7854 52.3181 57.8183C51.6978 57.8169 51.1033 57.5706 50.6637 57.133C50.2329 56.7181 49.9532 56.1711 49.8692 55.5789C49.8055 55.2088 49.8197 54.8295 49.9108 54.4652C50.002 54.1008 50.168 53.7595 50.3985 53.4629C50.6289 53.1664 50.9186 52.9211 51.2491 52.7428C51.5797 52.5645 51.9437 52.457 52.3181 52.4272C52.655 52.4296 52.9876 52.5027 53.2944 52.6419C53.6012 52.781 53.8753 52.983 54.0991 53.2348C54.4968 53.6824 54.7415 54.2451 54.7975 54.8412C54.8063 54.9329 54.8106 55.0289 54.8106 55.125Z" fill="white"/>
<path d="M74.0618 44.1597L54.798 54.8414C54.742 54.2453 54.4973 53.6826 54.0996 53.235L73.215 42.6362C73.3154 42.5723 73.4278 42.5297 73.5453 42.5108C73.6628 42.4919 73.7829 42.4973 73.8983 42.5265C74.0136 42.5558 74.1218 42.6083 74.2161 42.6809C74.3104 42.7535 74.3889 42.8446 74.4467 42.9486C74.5046 43.0527 74.5405 43.1674 74.5523 43.2858C74.5642 43.4042 74.5517 43.5238 74.5157 43.6372C74.4796 43.7507 74.4208 43.8555 74.3427 43.9454C74.2647 44.0352 74.1691 44.1081 74.0618 44.1597Z" fill="#BEDDFA"/>
<path d="M136.145 59.3682C136.145 59.3682 141.658 62.9389 157.888 95.6214C161.009 101.903 165.614 106.997 182.185 109.664L166.317 127.902C166.317 127.902 141.055 120.543 138.895 108.355C136.734 96.1671 136.145 59.3682 136.145 59.3682Z" fill="#113FFB"/>
<path d="M149.235 91.0465C147.79 77.392 142.356 63.9122 134.001 57.5215C128.474 53.296 123.053 52.5408 115.627 52.5408C97.3633 52.5408 80.9064 72.8958 76.4713 95.0188C75.3369 98.9881 75.0206 103.146 75.5415 107.241C76.4495 117.522 82.1723 125.445 90.0297 130.6C110.59 145.551 145.817 136.58 145.817 136.58C150.754 116.937 150.562 101.423 149.235 91.0465Z" fill="#113FFB"/>
<path d="M137.57 68.8494C137.57 68.8494 148.92 87.2095 141.202 125.126" stroke="#DADEEB" stroke-width="0.873046" stroke-miterlimit="10" stroke-linecap="round"/>
<path d="M191.262 101.322C191.56 101.34 191.85 101.427 192.108 101.577C192.366 101.727 192.586 101.935 192.749 102.185C192.913 102.435 193.015 102.719 193.049 103.016C193.082 103.313 193.046 103.613 192.943 103.893L183.064 134.476C182.901 135.019 182.592 135.507 182.171 135.887C181.75 136.268 181.233 136.525 180.676 136.633L138.333 144.145C138.178 144.172 138.02 144.183 137.862 144.18C137.559 144.165 137.263 144.088 136.991 143.953C136.719 143.819 136.478 143.631 136.282 143.4C136.085 143.169 135.938 142.9 135.85 142.61C135.761 142.32 135.733 142.015 135.767 141.714L143.519 112.166C143.779 111.142 144.329 110.215 145.104 109.497C145.878 108.779 146.844 108.3 147.885 108.119L190.838 101.375C190.977 101.34 191.119 101.323 191.262 101.322Z" fill="#FFD550"/>
<path d="M190.25 100.58C190.01 100.45 189.742 100.378 189.469 100.371C189.322 100.365 189.176 100.376 189.032 100.406L146.078 107.15C145.038 107.331 144.072 107.81 143.298 108.528C142.523 109.246 141.973 110.173 141.713 111.196L133.965 140.745C133.92 141.188 134.006 141.635 134.213 142.029C134.421 142.424 134.74 142.748 135.13 142.962L136.925 143.914C136.533 143.7 136.214 143.376 136.007 142.981C135.799 142.587 135.713 142.14 135.759 141.696L143.512 112.148C143.771 111.124 144.322 110.198 145.096 109.48C145.871 108.762 146.836 108.283 147.877 108.101L190.831 101.357C191.241 101.275 191.668 101.335 192.04 101.527L190.25 100.58Z" fill="#FFD550"/>
<path d="M150.038 119.333C146.246 119.358 142.278 118.226 140.842 117.772L150.038 119.333ZM150.038 119.333C154.539 119.298 158.175 119.294 159.166 123.262L150.038 119.333ZM143.987 109.354L143.989 109.355C144.054 109.395 144.215 109.572 144.302 109.986C144.386 110.38 144.388 110.938 144.199 111.637C143.82 113.033 142.68 114.974 139.965 117.201L139.28 117.763L140.115 118.058L140.282 117.587C140.115 118.058 140.115 118.059 140.115 118.059L140.116 118.059L140.117 118.059L140.12 118.06L140.132 118.064L140.177 118.08C140.217 118.094 140.275 118.113 140.35 118.138C140.5 118.188 140.718 118.258 140.994 118.343C141.546 118.511 142.332 118.735 143.267 118.958C145.132 119.403 147.615 119.849 150.042 119.833L150.042 119.833C152.318 119.816 154.265 119.811 155.772 120.274C156.511 120.502 157.12 120.836 157.599 121.321C158.077 121.804 158.451 122.464 158.681 123.383L158.681 123.383C158.736 123.601 158.733 123.936 158.635 124.399C158.539 124.854 158.359 125.394 158.098 126.005C157.074 128.211 155.777 130.281 154.239 132.165L154.239 132.165L154.235 132.171C152.947 133.795 151.541 135.322 150.029 136.739C147.806 138.81 145.331 140.63 142.795 141.812C140.259 142.995 137.693 143.526 135.267 143.069C128.373 141.759 121.636 139.721 115.172 136.988L115.144 136.977L115.116 136.969L115.116 136.969L115.115 136.968L115.115 136.968L115.114 136.968L115.099 136.963C115.084 136.959 115.061 136.951 115.03 136.94C114.968 136.919 114.874 136.884 114.757 136.834C114.521 136.735 114.192 136.575 113.824 136.338C113.089 135.864 112.214 135.09 111.631 133.88C110.483 131.498 110.37 127.194 115.327 119.699L115.332 119.696C115.399 119.656 115.498 119.597 115.626 119.521C115.883 119.369 116.258 119.149 116.728 118.878C117.669 118.335 118.991 117.588 120.517 116.77C123.574 115.131 127.424 113.22 130.651 112.096C133.899 110.965 137.013 110.106 139.457 109.626C140.681 109.385 141.725 109.242 142.529 109.205C142.931 109.187 143.261 109.195 143.518 109.228C143.784 109.261 143.926 109.315 143.987 109.354Z" fill="white" stroke="black"/>
<path d="M151.413 127.413C150.208 127.419 149.003 127.346 147.807 127.195C147.75 127.187 147.695 127.168 147.645 127.139C147.595 127.11 147.551 127.072 147.516 127.026C147.445 126.933 147.414 126.815 147.43 126.7C147.445 126.584 147.506 126.479 147.599 126.408C147.692 126.337 147.809 126.306 147.925 126.322C147.978 126.322 153.163 127.029 157.319 125.785C157.374 125.769 157.432 125.763 157.489 125.769C157.546 125.775 157.601 125.793 157.652 125.82C157.702 125.847 157.747 125.884 157.783 125.929C157.819 125.974 157.846 126.025 157.863 126.08C157.879 126.135 157.884 126.193 157.878 126.25C157.872 126.307 157.855 126.362 157.828 126.413C157.801 126.463 157.763 126.508 157.719 126.544C157.674 126.58 157.623 126.607 157.568 126.623C155.563 127.173 153.492 127.439 151.413 127.413Z" fill="black"/>
<path d="M150.789 133.014C149.689 133.014 148.283 132.966 146.524 132.826C146.467 132.822 146.411 132.806 146.36 132.78C146.308 132.754 146.263 132.718 146.225 132.674C146.188 132.63 146.16 132.579 146.142 132.525C146.124 132.47 146.118 132.412 146.123 132.355C146.133 132.24 146.188 132.133 146.276 132.059C146.365 131.984 146.479 131.948 146.594 131.958C151.671 132.359 153.77 131.958 153.792 131.958C153.906 131.936 154.023 131.96 154.119 132.024C154.215 132.089 154.281 132.189 154.303 132.302C154.325 132.415 154.301 132.532 154.238 132.628C154.174 132.723 154.075 132.79 153.963 132.813C152.913 132.974 151.851 133.041 150.789 133.014Z" fill="black"/>
<path d="M144.053 137.388H142.905C142.789 137.388 142.678 137.342 142.597 137.26C142.515 137.178 142.469 137.067 142.469 136.951C142.469 136.836 142.515 136.725 142.597 136.643C142.678 136.561 142.789 136.515 142.905 136.515C147.707 136.602 149.274 136.139 149.287 136.135C149.398 136.1 149.518 136.111 149.62 136.165C149.723 136.218 149.8 136.31 149.835 136.421C149.87 136.532 149.859 136.651 149.806 136.754C149.752 136.857 149.66 136.934 149.549 136.969C149.488 136.978 148.122 137.388 144.053 137.388Z" fill="black"/>
<path d="M140.124 141.578C139.391 141.578 138.557 141.544 137.605 141.469C137.548 141.465 137.492 141.449 137.441 141.424C137.389 141.398 137.344 141.362 137.306 141.318C137.23 141.23 137.193 141.116 137.201 141C137.21 140.884 137.264 140.777 137.352 140.701C137.44 140.625 137.555 140.588 137.671 140.596C142.625 140.989 144.192 140.16 144.219 140.134C144.319 140.077 144.437 140.062 144.549 140.092C144.66 140.122 144.755 140.195 144.812 140.295C144.87 140.394 144.886 140.512 144.858 140.623C144.829 140.734 144.758 140.83 144.659 140.889C144.598 140.924 143.463 141.578 140.124 141.578Z" fill="black"/>
<path d="M94.399 61.8738C94.399 61.8738 73.9129 76.8291 67.7361 110.647C67.7361 110.647 66.1166 119.77 71.5601 124.332C77.0035 128.893 95.3157 138.379 118.622 138.924C118.622 138.924 108.066 133.45 114.972 119.329C114.972 119.329 100.838 114.178 97.0137 108.735C93.1898 103.291 104.548 87.4148 104.548 87.4148C104.548 87.4148 119.172 41.7894 94.399 61.8738Z" fill="#113FFB"/>
<path d="M100.746 85.9609C100.746 85.9609 93.0635 104.95 98.3804 110.149C100.323 112.052 103.889 115.169 113.973 118.949" stroke="#DADEEB" stroke-width="0.873046" stroke-miterlimit="10" stroke-linecap="round"/>
<path d="M167.512 119.097C169.695 118.787 171.441 120.59 171.393 123.118C171.345 125.645 169.516 127.954 167.32 128.264C165.124 128.574 163.391 126.767 163.444 124.235C163.496 121.703 165.321 119.407 167.512 119.097Z" fill="white"/>
<path d="M177.199 121.002C178.142 119.842 179.379 118.956 180.78 118.435C181.958 118.059 183.938 117.172 185.801 116.124C186.739 115.597 187.658 115.023 188.438 114.445C189.21 113.874 189.879 113.275 190.286 112.692C191.056 111.589 191.769 109.655 192.281 108.056C192.538 107.251 192.751 106.512 192.9 105.971C193.229 106.364 193.665 106.924 194.13 107.631C195.12 109.136 196.236 111.295 196.754 113.924C197.27 116.547 197.195 119.646 195.794 123.05C194.395 126.449 191.663 130.181 186.823 134.053C186.808 134.061 186.789 134.071 186.765 134.084C186.699 134.117 186.602 134.167 186.475 134.228C186.222 134.351 185.852 134.521 185.394 134.705C184.475 135.076 183.209 135.503 181.809 135.74C179.015 136.211 175.808 135.911 173.658 133.048C173.658 133.048 173.658 133.048 173.658 133.048C173.643 133.005 173.621 132.939 173.594 132.851C173.54 132.675 173.467 132.414 173.398 132.079C173.261 131.409 173.137 130.451 173.199 129.308C173.321 127.032 174.176 124.003 177.163 121.041L177.182 121.023L177.199 121.002Z" fill="white" stroke="black"/>
<path d="M178.711 124.13C177.932 124.169 177.16 123.964 176.502 123.545C176.196 123.334 175.943 123.054 175.762 122.729C175.582 122.403 175.48 122.04 175.463 121.668C175.463 121.553 175.509 121.442 175.591 121.36C175.673 121.278 175.784 121.232 175.899 121.232C176.015 121.232 176.126 121.278 176.208 121.36C176.29 121.442 176.336 121.553 176.336 121.668C176.352 121.903 176.422 122.13 176.54 122.333C176.658 122.536 176.821 122.709 177.017 122.838C177.715 123.319 179.265 123.633 182.648 122.402C186.315 121.044 186.983 120.481 187.044 120.42C187.114 120.337 187.212 120.283 187.319 120.269C187.426 120.254 187.535 120.28 187.624 120.341C187.72 120.407 187.786 120.508 187.807 120.621C187.828 120.735 187.803 120.853 187.738 120.948C187.603 121.153 186.865 121.778 182.936 123.218C181.59 123.76 180.161 124.069 178.711 124.13Z" fill="black"/>
<path d="M177.4 128.609C173.908 128.609 173.035 125.907 173.035 125.877C173.001 125.766 173.012 125.646 173.066 125.544C173.12 125.442 173.213 125.365 173.323 125.331C173.434 125.297 173.553 125.308 173.656 125.362C173.758 125.416 173.835 125.508 173.869 125.619C173.908 125.746 174.873 128.579 179.264 127.487C182.721 126.614 183.629 126.204 183.629 126.204C183.733 126.157 183.85 126.151 183.957 126.189C184.064 126.227 184.152 126.305 184.203 126.406C184.253 126.508 184.262 126.625 184.228 126.733C184.193 126.841 184.118 126.932 184.018 126.985C183.983 126.985 183.088 127.422 179.482 128.334C178.802 128.511 178.103 128.603 177.4 128.609Z" fill="black"/>
<path d="M177.518 133.359C176.582 133.372 175.653 133.196 174.786 132.843C173.919 132.49 173.132 131.966 172.472 131.303C172.435 131.259 172.406 131.209 172.389 131.154C172.371 131.1 172.364 131.042 172.369 130.985C172.373 130.928 172.389 130.872 172.415 130.821C172.441 130.77 172.476 130.724 172.52 130.687C172.608 130.613 172.721 130.577 172.835 130.586C172.95 130.595 173.056 130.648 173.131 130.735C173.245 130.862 175.886 133.791 180.705 131.8C180.812 131.756 180.932 131.755 181.04 131.8C181.147 131.844 181.232 131.929 181.277 132.036C181.321 132.143 181.321 132.263 181.277 132.371C181.233 132.478 181.148 132.563 181.041 132.608C179.928 133.089 178.731 133.344 177.518 133.359Z" fill="black"/>
<path d="M133.986 30.9241C131.765 35.8307 132.144 40.7983 134.838 42.0162C137.531 43.2341 142.407 40.0693 144.55 35.1235C147.008 29.4487 145.572 25.4589 142.878 24.241C140.185 23.0231 136.195 26.0133 133.986 30.9241Z" fill="#FFD550"/>
<path d="M144.556 35.1257C146.478 30.8801 146.153 26.5866 143.832 25.536C141.51 24.4853 138.07 27.0753 136.149 31.3209C134.228 35.5665 134.552 39.86 136.874 40.9107C139.195 41.9614 142.635 39.3714 144.556 35.1257Z" fill="#FFD550"/>
<path d="M108.168 50.9026L108.168 50.9023L113.861 36.6999L128.617 43.9194C128.551 44.1618 128.458 44.5038 128.351 44.9204C128.129 45.7802 127.842 46.9595 127.582 48.2362C127.322 49.5113 127.087 50.8921 126.971 52.1526C126.864 53.3189 126.854 54.4349 127.051 55.2747C127.044 55.2883 127.037 55.303 127.029 55.3189C126.972 55.4316 126.869 55.6015 126.692 55.7977C126.341 56.1869 125.683 56.7002 124.471 57.0647C120.32 58.308 112.561 58.5764 106.862 54.1538L108.168 50.9026Z" fill="white" stroke="black"/>
<path d="M143.17 26.7992C143.17 36.3293 135.926 44.0002 127.055 44.0002C118.185 44.0002 110.941 36.3293 110.941 26.7992C110.941 17.269 118.185 9.59814 127.055 9.59814C135.926 9.59814 143.17 17.269 143.17 26.7992Z" fill="white" stroke="black"/>
<path d="M111.239 21.1068C113.859 14.0395 119.769 9.09806 126.675 9.09806C135.982 9.09806 143.52 18.0642 143.52 29.1257C143.52 29.7107 143.52 30.2913 143.459 30.8718L144.232 31.1032C144.45 29.7566 144.56 28.3946 144.559 27.0304C144.559 14.8078 135.968 4.90308 125.352 4.90308C116.919 4.90308 110.803 8.177 108.358 20.2512L111.239 21.1068Z" fill="#FFD550"/>
<path d="M151.038 12.7168C151.038 7.58331 146.734 3.42324 141.434 3.42324C140.487 3.42413 139.545 3.55935 138.636 3.82485C136.473 1.79133 133.723 0.491476 130.779 0.110034C124.921 -0.605864 116.771 1.98708 113.27 13.3585C112.832 15.4749 112.685 17.6411 112.833 19.7972C112.833 19.7972 116.876 22.1675 120.752 17.9944C124.532 13.926 128.147 13.7601 130.098 15.2181C132.717 17.1956 134.088 21.3294 141.421 22.006C141.758 22.0771 142.107 22.0667 142.438 21.9755C143.4 24.7246 143.7 27.6621 143.311 30.5488C148.196 26.0046 149.069 20.7401 148.55 18.9373C150.143 17.2575 151.033 15.0319 151.038 12.7168Z" fill="#0D0F44"/>
<path d="M117.033 25.5027C117.347 30.8806 115.208 35.3768 112.262 35.5427C109.315 35.7086 105.893 31.0072 105.666 25.6249C105.404 19.4394 108.176 16.2396 111.127 16.065C114.077 15.8904 116.718 20.1247 117.033 25.5027Z" fill="#FFD550"/>
<path d="M110.76 33.7948C113.304 33.6468 115.147 29.7554 114.876 25.103C114.606 20.4507 112.324 16.7993 109.78 16.9473C107.236 17.0953 105.393 20.9868 105.664 25.6391C105.935 30.2914 108.216 33.9428 110.76 33.7948Z" fill="#FFD550"/>
<path d="M130.465 26.7526C130.891 25.5222 130.722 24.3472 130.089 24.1283C129.455 23.9093 128.597 24.7292 128.172 25.9596C127.746 27.1901 127.915 28.365 128.548 28.584C129.182 28.803 130.04 27.983 130.465 26.7526Z" fill="#0D0F44"/>
<path d="M140.363 29.3956C140.793 28.1588 140.625 26.9769 139.988 26.7557C139.351 26.5346 138.487 27.3579 138.057 28.5946C137.628 29.8314 137.795 31.0133 138.432 31.2345C139.069 31.4556 139.933 30.6323 140.363 29.3956Z" fill="#0D0F44"/>
<path d="M121.245 32.0112C120.42 33.1549 121.202 36.1058 124.436 36.2892" stroke="#0D0F44" stroke-width="0.873046" stroke-miterlimit="10" stroke-linecap="round"/>
<path d="M134.105 29.1694L133.001 34.0498C132.968 34.1905 132.908 34.3232 132.822 34.4395C132.736 34.5558 132.628 34.6532 132.503 34.7257C132.378 34.7982 132.24 34.8442 132.096 34.8608C131.953 34.8774 131.807 34.8644 131.669 34.8224L130.534 34.4776" stroke="#0D0F44" stroke-width="0.873046" stroke-miterlimit="10" stroke-linecap="round"/>
</svg>
