<svg width="241" height="367" viewBox="0 0 241 367" fill="none" xmlns="http://www.w3.org/2000/svg">
<path d="M33.8857 174.673C33.8857 174.673 50.2311 221.758 81.4305 238.889" stroke="#DADEEB" stroke-width="1.26741" stroke-miterlimit="10" stroke-linecap="round"/>
<path d="M225.51 242.095L173.267 211.931C172.156 211.288 171.233 210.364 170.591 209.252C169.95 208.139 169.612 206.878 169.612 205.594C169.612 204.31 169.95 203.049 170.591 201.936C171.233 200.824 172.156 199.9 173.267 199.257L225.51 169.097C226.622 168.452 227.885 168.113 229.171 168.112C230.456 168.111 231.72 168.448 232.833 169.091C233.947 169.733 234.872 170.658 235.514 171.771C236.157 172.885 236.495 174.148 236.494 175.434V235.737C236.497 237.024 236.161 238.289 235.52 239.405C234.878 240.521 233.954 241.448 232.84 242.092C231.726 242.737 230.462 243.077 229.175 243.077C227.888 243.078 226.624 242.739 225.51 242.095Z" stroke="#DADEEB" stroke-width="1.26741" stroke-miterlimit="10"/>
<path d="M82.8756 138.29C82.8756 138.29 79.8465 153.241 82.8756 163.034" stroke="black" stroke-width="1.68988" stroke-miterlimit="10" stroke-linecap="round"/>
<path d="M111.835 281.592L117.098 311.382L73.6758 333.397C72.2301 328.524 72.815 324.734 74.4478 321.103C75.6704 318.385 77.4645 315.779 79.4692 312.867C80.2848 311.682 81.1353 310.447 81.9964 309.132C85.0029 304.543 86.2151 298.798 86.6834 294.238C86.9182 291.951 86.9674 289.948 86.9578 288.517C86.9531 287.801 86.9336 287.227 86.9152 286.83C86.9123 286.767 86.9094 286.708 86.9066 286.654L111.835 281.592Z" fill="white" stroke="black"/>
<path d="M85.7529 303.736L95.8823 301.716" stroke="white" stroke-width="1.42936" stroke-miterlimit="10" stroke-linecap="round"/>
<path d="M158.512 305.649L168.877 335.472L127.795 365.351C125.488 360.575 125.462 356.573 126.544 352.558C127.353 349.559 128.769 346.579 130.35 343.251C130.994 341.895 131.665 340.482 132.334 338.987C134.667 333.771 134.962 327.661 134.687 322.892C134.549 320.501 134.267 318.432 134.019 316.961C133.896 316.225 133.78 315.638 133.696 315.233C133.68 315.162 133.666 315.095 133.653 315.035L158.512 305.649Z" fill="white" stroke="black"/>
<path d="M135.241 334.774L145.777 332.544" stroke="white" stroke-width="1.49021" stroke-miterlimit="10" stroke-linecap="round"/>
<path d="M125.038 93.9039L125.038 93.9039L125.038 93.9047L125.036 93.9089L125.031 93.9273C125.026 93.9439 125.019 93.9691 125.009 94.0025C124.989 94.0691 124.958 94.168 124.917 94.2949C124.836 94.5487 124.713 94.9139 124.55 95.3556C124.223 96.2401 123.736 97.4257 123.093 98.6358C122.448 99.8487 121.656 101.069 120.724 102.035C119.792 103.002 118.75 103.685 117.604 103.886C115.073 104.331 111.339 104.546 108.036 104.021C106.385 103.759 104.869 103.316 103.669 102.645C102.485 101.983 101.635 101.113 101.238 99.9933L101.237 99.9908C101.232 99.9659 101.225 99.9284 101.216 99.879C101.198 99.7802 101.171 99.6337 101.14 99.4451C101.076 99.0677 100.989 98.5219 100.901 97.8514C100.723 96.5095 100.535 94.6731 100.495 92.6913C100.455 90.7068 100.563 88.593 100.968 86.6901C101.375 84.7802 102.071 83.1345 103.166 82.0315C105.482 79.6985 108.541 78.0085 111.521 77.0003C114.511 75.9888 117.36 75.6848 119.249 76.0565C120.588 76.3238 122.035 76.748 123.216 77.9152C124.391 79.0768 125.37 81.0443 125.607 84.5394C125.848 88.0855 125.701 90.4342 125.499 91.8847C125.398 92.6097 125.284 93.1098 125.197 93.4224C125.154 93.5787 125.117 93.6882 125.093 93.7555C125.081 93.7891 125.072 93.8122 125.067 93.8254L125.062 93.8375L125.062 93.8378L125.061 93.8385L125.048 93.8689L125.038 93.9038L125.038 93.9039Z" fill="white" stroke="black"/>
<path d="M119.254 76.166C119.254 76.166 119.558 79.6049 119.926 84.9914" stroke="black" stroke-width="0.844939" stroke-miterlimit="10" stroke-linecap="round"/>
<path d="M112.685 77.425C112.685 77.425 113.272 82.3215 114.21 87.7375C114.877 91.5651 118.726 92.7396 120.31 89.5077" stroke="black" stroke-width="0.844939" stroke-miterlimit="10" stroke-linecap="round"/>
<path d="M107.307 80.3357C107.307 80.3357 108.152 86.9558 108.43 88.7851C108.709 90.6144 109.871 91.9156 111.147 91.9156C113.132 91.9156 113.948 91.0115 114.421 89.5075" stroke="black" stroke-width="0.844939" stroke-miterlimit="10" stroke-linecap="round"/>
<path d="M108.439 90.116C108.439 90.116 107.475 91.9579 106.512 92.2959C105.549 92.6339 103.618 92.7184 103.048 91.3834C102.566 90.2554 102.279 88.781 102.376 86.5208" stroke="black" stroke-width="0.844939" stroke-miterlimit="10" stroke-linecap="round"/>
<path d="M117.296 96.676L117.644 96.3294L117.305 95.9761L117.304 95.9759L117.304 95.9757L117.304 95.9756L117.304 95.9754L117.3 95.9712L117.279 95.9484C117.26 95.9272 117.23 95.8939 117.192 95.8492C117.116 95.7596 117.007 95.6243 116.879 95.4473C116.622 95.0927 116.292 94.5744 116.004 93.9251C115.429 92.6281 115.027 90.8239 115.688 88.7421C116.03 87.6643 116.393 87.0561 116.71 86.7267C117.011 86.4125 117.265 86.3549 117.451 86.3627C117.662 86.3716 117.869 86.4692 118.042 86.5908C118.126 86.6493 118.192 86.7073 118.237 86.7499C118.26 86.771 118.276 86.7877 118.286 86.798L118.296 86.8083C118.296 86.8084 118.296 86.8086 118.296 86.8087L118.312 86.8269L118.331 86.8448L118.671 86.4784L118.331 86.8448L118.331 86.845L118.332 86.8455L118.334 86.8476L118.344 86.8563L118.381 86.8908L118.522 87.0233C118.645 87.1383 118.822 87.3045 119.038 87.5089C119.471 87.9176 120.059 88.4786 120.683 89.0875C121.944 90.3182 123.309 91.7051 123.86 92.4425C124.274 92.9981 124.835 94.097 125.118 95.2875C125.405 96.4917 125.377 97.6542 124.799 98.4564C123.683 99.9669 122.266 101.23 120.637 102.165C120.564 102.203 120.486 102.248 120.402 102.296C120.094 102.471 119.707 102.691 119.162 102.823C118.494 102.985 117.595 103.001 116.455 102.475C116.456 102.475 116.456 102.475 116.456 102.475C116.456 102.474 116.418 102.451 116.344 102.391C116.261 102.324 116.153 102.225 116.037 102.097C115.805 101.84 115.557 101.473 115.425 101.006C115.173 100.117 115.295 98.6717 117.296 96.676Z" fill="white" stroke="black"/>
<path d="M148.01 266.646C149.62 274.795 154.038 286.623 162.842 306.95C162.82 306.989 162.795 307.034 162.766 307.084C162.637 307.307 162.441 307.632 162.172 308.035C161.635 308.841 160.812 309.954 159.672 311.173C157.393 313.611 153.855 316.468 148.816 318.147L148.816 318.147C144.071 319.734 139.279 320.154 135.665 320.173C133.86 320.183 132.353 320.094 131.3 320.002C130.773 319.956 130.36 319.909 130.079 319.874C130.037 319.869 129.997 319.864 129.961 319.859C128.541 315.374 127.199 311.295 125.934 307.524C124.955 304.602 124.026 301.871 123.15 299.297C118.884 286.757 115.883 277.938 114.548 268.816C112.805 256.909 113.316 249.629 114.767 244.452C115.928 240.309 117.688 237.5 119.453 234.683C119.897 233.974 120.342 233.264 120.777 232.533C122.069 230.368 124.13 226.965 131.723 217.439L131.069 216.702C128.252 218.445 125.464 220.124 123.849 220.958C122.144 221.836 118.603 223.512 115.479 224.973C113.918 225.702 112.465 226.376 111.402 226.868C110.87 227.114 110.436 227.315 110.135 227.454L109.788 227.614L109.697 227.656L109.674 227.666L109.668 227.669L109.667 227.67L109.666 227.67C109.666 227.67 109.666 227.67 109.875 228.124L109.666 227.67L109.652 227.676L109.639 227.683C107.114 229.038 105.804 230.936 105.273 233.201C104.75 235.432 104.989 237.991 105.475 240.68C106.922 248.685 109.451 260.224 111.635 269.871C112.727 274.697 113.734 279.051 114.477 282.257C114.564 282.634 114.648 282.995 114.728 283.338C115.207 285.404 115.54 286.842 115.671 287.436C111.498 290.599 106.665 292.781 101.529 293.817C95.2237 295.001 88.7058 294.015 83.0352 291.025C82.5538 288.219 78.0732 262.445 73.9425 243.417L73.9425 243.417C69.1136 221.18 79.4844 207.66 88.4377 203.099L88.4501 203.093L88.4622 203.086L124.17 182.313L189.792 194.491C188.778 199.836 186.242 205.069 183.913 209.02C182.716 211.051 181.578 212.735 180.74 213.91C180.321 214.498 179.978 214.958 179.739 215.271C179.62 215.427 179.527 215.546 179.465 215.626C179.433 215.666 179.41 215.696 179.394 215.716L179.378 215.736C175.053 220.606 170.063 225.791 165.429 230.607C163.994 232.099 162.593 233.555 161.256 234.955C158.432 237.914 155.893 240.626 153.935 242.891C151.995 245.135 150.574 246.996 150.044 248.24C148.841 251.051 147.918 253.597 147.507 256.476C147.096 259.358 147.199 262.545 148.01 266.646Z" fill="white" stroke="black"/>
<path d="M131.835 215.281L130.107 209.181" stroke="white" stroke-width="0.844939" stroke-miterlimit="10" stroke-linecap="round"/>
<path d="M127.835 314.857C127.835 314.857 144.21 318.659 157.07 306.851" stroke="white" stroke-width="0.844939" stroke-miterlimit="10" stroke-linecap="round"/>
<path d="M81.6592 286.066C81.6592 286.066 91.1774 291.376 102.115 287.79" stroke="white" stroke-width="0.844939" stroke-miterlimit="10" stroke-linecap="round"/>
<path d="M209.219 138.569C202.185 120.107 183.845 107.94 171.661 104.547C165.63 102.267 159.059 101.826 152.777 103.28C135.878 104.666 120.429 122.164 120.429 122.164C120.222 115.967 120.091 106.533 120.053 103.55C120.047 102.922 119.804 102.318 119.372 101.861C117.847 100.259 113.923 96.6895 109.575 97.2134C106.675 97.5886 103.929 98.7402 101.629 100.547C100.931 101.094 100.417 101.841 100.154 102.689C84.9158 152.308 89.3391 163.723 96.4746 168.311C103.213 172.645 108.578 168.26 114.772 164.509C114.282 168.404 113.88 172.535 113.601 176.95C113.601 176.95 112.642 185.543 119.977 189.308C135.494 197.263 149.228 204.863 189.346 196.608C189.346 196.608 190.702 193.583 192.35 188.484C194.902 189.018 197.541 188.968 200.071 188.34C202.602 187.712 204.957 186.52 206.963 184.855C214.994 179.688 217.17 159.435 209.219 138.569Z" fill="#113FFB"/>
<path d="M188.779 132.321C188.779 132.321 191.441 148.184 190.372 152.996" stroke="white" stroke-width="0.844939" stroke-miterlimit="10" stroke-linecap="round"/>
<path d="M135.338 116.034C135.338 116.034 123.716 124.243 115.634 160.537" stroke="white" stroke-width="0.844939" stroke-miterlimit="10" stroke-linecap="round"/>
<path d="M194.876 156.48C195.725 158.175 196.102 159.877 196.047 161.246C195.991 162.635 195.505 163.558 194.774 163.924C194.042 164.29 193.013 164.127 191.867 163.339C190.738 162.563 189.6 161.241 188.752 159.547C187.903 157.852 187.526 156.15 187.581 154.781C187.637 153.391 188.123 152.469 188.854 152.103C189.586 151.737 190.615 151.9 191.761 152.687C192.89 153.463 194.028 154.785 194.876 156.48Z" fill="white" stroke="black"/>
<path d="M228.377 47.7676C228.377 47.7676 232.357 62.6512 227.511 69.736C223.649 75.376 229.687 74.5986 229.687 74.5986C229.687 74.5986 235.914 74.6535 235.018 61.4302C234.211 49.4828 228.377 47.7676 228.377 47.7676Z" fill="#FFD550"/>
<path d="M196.036 1.42979L196.036 1.42957C198.019 0.15784 200.501 0.272747 202.744 1.27899L202.744 1.279C207.234 3.29324 216.757 8.73906 221.131 11.8794L221.131 11.8795C227.02 16.1037 231.717 19.5947 235.955 23.4967C238.47 25.8171 240.985 30.9951 239.035 35.941L239.035 35.9411C236.266 42.9699 231.301 53.0945 219.576 57.6992C218.003 58.3151 216.026 58.4312 214.104 58.093C212.182 57.7548 210.367 56.9717 209.107 55.8481L209.106 55.8476C205.077 52.2649 199.335 46.8107 194.299 41.0129C189.244 35.1939 184.971 29.1054 183.781 24.2449C183.563 23.3402 183.617 22.3916 183.934 21.5169L183.934 21.5156C184.03 21.2487 184.139 20.9403 184.259 20.5958C184.983 18.5319 186.161 15.175 187.872 11.7344C189.874 7.70781 192.567 3.65055 196.036 1.42979Z" fill="white" stroke="black"/>
<path d="M217.911 44.8216L217.908 44.8257C216.829 46.3177 215.457 47.9046 212.917 49.5926C210.419 51.2536 206.776 53.0215 201.147 54.8812L185.97 34.2002C186.017 34.06 186.092 33.8525 186.207 33.5828C186.445 33.0199 186.855 32.1858 187.532 31.1287C188.887 29.015 191.315 26.0054 195.593 22.4891C197.11 21.2436 199.098 20.5476 200.779 21.1683C204.89 22.7311 212.061 26.7449 218.432 39.2452C218.861 40.133 219.04 41.1214 218.949 42.1035C218.857 43.0872 218.499 44.0272 217.911 44.8216Z" fill="white" stroke="black"/>
<path d="M201.509 55.1782C203.563 53.533 201.59 47.6565 197.102 42.0527C192.615 36.4489 187.311 33.2399 185.257 34.8851C183.202 36.5303 185.175 42.4068 189.663 48.0106C194.151 53.6143 199.454 56.8234 201.509 55.1782Z" fill="#0D0F44"/>
<path d="M177.858 53.0317C177.858 53.0317 183.35 56.4411 183.127 64.9158C183.127 64.9158 185.767 63.9061 187.63 65.0003C190.549 66.6902 192.036 73.6567 187.964 81.2358C187.964 81.2358 183.773 93.7916 178.302 90.3316L162.079 71.3965L177.858 53.0317Z" fill="#001466"/>
<path d="M176.014 85.935L176.153 85.939C176.153 85.9394 176.153 85.9397 176.153 85.9401C176.243 86.2329 176.34 86.6231 176.434 87.1155C176.812 89.0884 177.135 92.607 176.948 97.8167L176.948 97.8173C176.906 99.0187 176.733 101.61 176.569 103.911C176.487 105.06 176.408 106.132 176.349 106.918C176.321 107.301 176.297 107.616 176.28 107.838C168.792 109.588 163.641 108.876 160.372 107.744C158.71 107.169 157.527 106.482 156.765 105.946C156.384 105.677 156.108 105.446 155.93 105.286C155.924 105.28 155.918 105.275 155.912 105.269C155.942 105.204 155.975 105.13 156.013 105.047C156.171 104.696 156.398 104.186 156.671 103.548C157.218 102.274 157.953 100.489 158.707 98.4461C160.154 94.5272 161.687 89.6132 162.069 85.5264L176.014 85.935Z" fill="white" stroke="black"/>
<path d="M183.438 77.7166C183.438 86.7874 176.085 94.1408 167.014 94.1408C157.943 94.1408 150.59 86.7874 150.59 77.7166C150.59 68.6458 157.943 61.2925 167.014 61.2925C176.085 61.2925 183.438 68.6458 183.438 77.7166Z" fill="white" stroke="black"/>
<path d="M183.554 81.6878C182.514 83.703 181.408 83.5044 181.091 82.8538C180.22 81.0456 180.934 79.474 180.009 73.5595C179.676 71.6165 178.649 69.8605 177.12 68.6166C172.586 64.6791 165.29 65.6382 165.151 65.6593C163.364 65.7564 161.636 66.3648 160.043 66.8168C147.255 70.4501 146.837 62.3006 146.837 58.7646C146.837 52.7824 151.56 47.9282 157.399 47.9282C159.238 47.9386 161.041 48.4314 162.63 49.3573C164.219 50.2833 165.537 51.61 166.452 53.2049C168.147 51.5783 170.406 50.67 172.755 50.6701C177.88 50.6701 182.05 54.937 182.05 60.1967C182.054 61.7597 181.68 63.3004 180.96 64.6876C183.266 66.2507 184.285 69.7995 184.618 71.1767C185.324 74.0706 184.813 79.2417 183.554 81.6878Z" fill="#001466"/>
<path d="M169.917 75.6413C170.07 74.3272 169.671 73.2012 169.027 73.1262C168.383 73.0512 167.737 74.0556 167.584 75.3697C167.431 76.6838 167.829 77.8098 168.473 77.8848C169.118 77.9598 169.764 76.9554 169.917 75.6413Z" fill="#0D0F44"/>
<path d="M161.135 74.6149C161.288 73.3009 160.889 72.1748 160.245 72.0998C159.601 72.0248 158.954 73.0293 158.801 74.3433C158.648 75.6574 159.047 76.7835 159.691 76.8585C160.335 76.9335 160.982 75.929 161.135 74.6149Z" fill="#0D0F44"/>
<path d="M168.758 85.9632C168.758 85.9632 171.842 87.1842 173.118 83.3059" stroke="#0D0F44" stroke-width="0.844939" stroke-miterlimit="10" stroke-linecap="round"/>
<path d="M185.254 85.0585C187.736 83.251 188.755 80.4219 187.53 78.7394C186.305 77.057 183.3 77.1582 180.818 78.9657C178.335 80.7731 177.316 83.6022 178.541 85.2847C179.767 86.9672 182.772 86.8659 185.254 85.0585Z" fill="white"/>
<path d="M181.09 82.8538L186.088 80.7161" stroke="#0D0F44" stroke-width="0.844939" stroke-miterlimit="10" stroke-linecap="round"/>
<path d="M164.306 75.5535L163.203 80.2682C163.171 80.4052 163.168 80.5473 163.194 80.6855C163.22 80.8237 163.275 80.9549 163.354 81.071C163.434 81.187 163.536 81.2852 163.656 81.3594C163.775 81.4335 163.909 81.4821 164.048 81.5018L165.18 81.6835" stroke="#0D0F44" stroke-width="0.844939" stroke-miterlimit="10" stroke-linecap="round"/>
<path d="M35.6311 132.616L41.4401 137.2C41.7484 137.446 42.1118 137.612 42.499 137.686C42.8861 137.76 43.2854 137.738 43.6622 137.623L50.7302 135.439C51.1636 135.304 51.6261 135.293 52.0653 135.407C52.5045 135.522 52.9029 135.757 53.2151 136.087C53.5274 136.416 53.7411 136.827 53.8321 137.271C53.923 137.716 53.8876 138.177 53.7297 138.603L51.1611 145.54C51.024 145.909 50.979 146.307 51.0298 146.697C51.0805 147.088 51.2257 147.461 51.4526 147.783L55.7153 153.833C55.9767 154.203 56.1292 154.64 56.1555 155.092C56.1817 155.545 56.0808 155.996 55.8641 156.394C55.6474 156.793 55.3235 157.122 54.9291 157.346C54.5347 157.57 54.0856 157.679 53.6325 157.66L46.2393 157.365C45.8452 157.349 45.4531 157.429 45.0968 157.598C44.7406 157.767 44.4309 158.021 44.1946 158.336L39.7586 164.251C39.4861 164.61 39.119 164.887 38.6982 165.05C38.2774 165.212 37.8197 165.254 37.3763 165.171C36.933 165.089 36.5214 164.884 36.1878 164.58C35.8542 164.277 35.6117 163.886 35.4875 163.453L33.4723 156.313C33.3649 155.934 33.1674 155.586 32.8967 155.3C32.626 155.014 32.2901 154.798 31.9176 154.669L24.9257 152.299C24.4961 152.154 24.1159 151.89 23.8282 151.539C23.5406 151.189 23.3568 150.764 23.2979 150.315C23.239 149.865 23.3072 149.407 23.4949 148.994C23.6825 148.581 23.9821 148.229 24.3596 147.977L30.515 143.871C30.8433 143.653 31.1133 143.358 31.3018 143.012C31.4903 142.666 31.5915 142.279 31.5965 141.885L31.6852 134.488C31.6901 134.033 31.8228 133.588 32.0682 133.204C32.3136 132.821 32.6619 132.514 33.0733 132.319C33.4846 132.124 33.9426 132.048 34.3948 132.101C34.8471 132.154 35.2755 132.332 35.6311 132.616Z" fill="#FFD550"/>
<path d="M73.4372 88.2105L14.6844 102.946C14.1444 103.084 13.5821 103.112 13.0313 103.027C12.4804 102.942 11.9524 102.747 11.4789 102.453C11.0054 102.159 10.5962 101.772 10.2758 101.316C9.95548 100.86 9.73063 100.344 9.61477 99.7989L0.0923084 55.241C-0.0269925 54.6855 -0.0306931 54.1115 0.0814366 53.5545C0.193566 52.9975 0.419127 52.4696 0.74408 52.0036C1.06903 51.5376 1.48643 51.1434 1.97028 50.8456C2.45413 50.5479 2.9941 50.3529 3.55656 50.2728L63.6275 41.7051C64.6677 41.5532 65.7267 41.8026 66.5897 42.4028C67.4527 43.003 68.0551 43.909 68.2747 44.937L76.4664 83.3268C76.6918 84.3746 76.5021 85.469 75.9371 86.3798C75.3722 87.2906 74.4761 87.9469 73.4372 88.2105Z" fill="#BEDDFA"/>
<path d="M76.5078 83.5084C76.5078 83.4493 76.5078 83.3902 76.4782 83.3268L76.4233 83.1578C76.3683 83.1578 71.1382 84.7505 63.0183 76.2546C53.9099 66.7322 46.3054 67.5095 40.6992 69.2501C39.135 69.7731 37.6614 70.5356 36.3309 71.5103C34.6431 69.6789 32.4589 68.3784 30.0445 67.7672C26.1452 66.6984 19.9306 68.2404 11.57 72.3552C8.93374 73.648 6.50032 75.0084 4.55273 76.1575L4.63723 76.5335C11.1264 72.7312 23.4118 66.3308 29.9474 68.1263C32.2807 68.7171 34.3935 69.9701 36.0309 71.7342C32.2541 74.5183 28.7391 78.9922 27.8773 83.5634C27.1675 87.3233 28.3716 90.5721 31.3627 92.9633C32.0907 93.5951 33.0365 93.918 33.9989 93.8632C34.3201 93.8359 34.6358 93.7633 34.9367 93.6477C37.4716 92.6803 39.3135 88.971 39.8332 85.8109C40.2949 82.7112 40.0597 79.5476 39.1445 76.5504C38.6054 74.8086 37.7298 73.1896 36.5675 71.7849C37.8561 70.8456 39.2808 70.1091 40.7922 69.6007C46.2843 67.8897 53.7662 67.1335 62.7606 76.5123C70.8551 84.9744 76.043 83.6479 76.5078 83.5084ZM38.8108 76.6602C39.713 79.6049 39.9454 82.7141 39.491 85.7602C38.9967 88.7175 37.1758 92.393 34.8185 93.3055C33.7285 93.728 32.647 93.5083 31.6035 92.676C30.226 91.6554 29.1738 90.2577 28.574 88.6517C27.9742 87.0457 27.8525 85.3004 28.2237 83.6267C29.0686 79.1274 32.5413 74.7253 36.2506 71.9961C37.4057 73.3651 38.276 74.9508 38.8108 76.6602Z" fill="white"/>
<path d="M177.132 197.035L126.28 188.805C124.358 188.494 122.626 187.465 121.434 185.925C120.243 184.385 119.681 182.45 119.863 180.512L123.179 145.024C123.538 141.222 126.863 138.806 130.686 138.637C138.633 138.29 147.686 138.007 158.497 138.987C168.903 139.934 176.744 141.129 182.777 142.156C189.87 143.36 192.468 147.399 191.949 152.933L188.657 188.116C188.531 189.477 188.126 190.797 187.468 191.995C186.81 193.192 185.913 194.242 184.832 195.078C183.751 195.915 182.51 196.52 181.185 196.856C179.861 197.193 178.481 197.254 177.132 197.035Z" fill="white"/>
<path d="M143.066 176.881L138.957 177.944C140.644 173.574 142.76 169.381 145.273 165.426L151.827 169.783C149.661 173.223 147.829 176.861 146.355 180.649L143.588 177.059L143.386 176.798L143.066 176.881Z" fill="white" stroke="black"/>
<path d="M157.224 181.243C155.935 175.716 155.402 169.832 155.265 168.097L163.139 167.579C163.196 168.304 163.322 169.711 163.535 171.452C163.813 173.725 164.244 176.601 164.877 179.331L160.686 177.791L160.364 177.673L160.138 177.93L157.224 181.243Z" fill="white" stroke="black"/>
<path d="M145.13 164.716C145.058 164.817 144.349 165.89 143.352 167.618C145.086 170.144 147.632 172 150.567 172.878C151.649 170.943 152.46 169.709 152.511 169.638L148.818 167.179L145.13 164.716Z" fill="#0D0F44"/>
<path d="M163.584 167.048L154.712 167.631C154.712 167.808 154.889 170.229 155.32 173.499C158.46 173.396 161.471 172.228 163.858 170.187C163.668 168.324 163.584 167.077 163.584 167.048Z" fill="#0D0F44"/>
<path d="M155.298 146.966C162.461 147.263 167.981 152.891 167.707 159.463C167.434 166.035 161.467 171.185 154.304 170.887C147.141 170.59 141.621 164.962 141.894 158.39C142.168 151.818 148.135 146.668 155.298 146.966Z" fill="white" stroke="black"/>
<path d="M156.128 153.356L157.032 155.992C157.082 156.131 157.164 156.257 157.272 156.359C157.38 156.46 157.511 156.534 157.653 156.575L160.34 157.318C160.504 157.365 160.653 157.456 160.768 157.582C160.883 157.708 160.961 157.863 160.992 158.031C161.024 158.199 161.008 158.372 160.947 158.531C160.885 158.69 160.78 158.829 160.644 158.932L158.418 160.622C158.299 160.711 158.204 160.828 158.141 160.962C158.078 161.096 158.048 161.243 158.055 161.391L158.177 164.175C158.184 164.346 158.143 164.515 158.06 164.664C157.976 164.813 157.852 164.935 157.702 165.017C157.552 165.099 157.382 165.138 157.212 165.129C157.041 165.119 156.877 165.063 156.736 164.965L154.455 163.364C154.333 163.279 154.193 163.225 154.046 163.206C153.898 163.188 153.749 163.206 153.61 163.258L150.999 164.23C150.839 164.289 150.666 164.302 150.499 164.268C150.332 164.234 150.178 164.155 150.054 164.038C149.93 163.921 149.84 163.772 149.796 163.608C149.752 163.443 149.755 163.269 149.804 163.106L150.619 160.445C150.664 160.302 150.674 160.15 150.647 160.003C150.619 159.855 150.556 159.717 150.463 159.6L148.71 157.399C148.604 157.265 148.538 157.104 148.519 156.935C148.5 156.766 148.529 156.594 148.602 156.44C148.675 156.286 148.789 156.156 148.932 156.063C149.075 155.97 149.241 155.919 149.411 155.916L152.199 155.865C152.348 155.861 152.494 155.82 152.624 155.747C152.753 155.673 152.863 155.569 152.943 155.443L154.485 153.119C154.579 152.972 154.714 152.855 154.873 152.782C155.033 152.709 155.209 152.684 155.382 152.709C155.556 152.734 155.718 152.808 155.85 152.923C155.982 153.037 156.079 153.188 156.128 153.356Z" fill="black"/>
<path d="M132.284 141.56C132.284 141.56 126.513 140.952 126.01 146.013L125.486 151.083" stroke="#DADEEB" stroke-width="1.26741" stroke-miterlimit="10" stroke-linecap="round"/>
<path d="M176.229 144.197C176.229 144.197 182.988 144.733 186.858 147.386" stroke="#DADEEB" stroke-width="1.26741" stroke-miterlimit="10" stroke-linecap="round"/>
<path d="M181.306 161.816C181.305 161.816 181.305 161.816 181.305 161.816C181.305 161.817 181.305 161.817 181.305 161.817L181.306 161.816ZM181.306 161.816L181.308 161.807C181.31 161.799 181.313 161.785 181.318 161.766C181.328 161.728 181.344 161.67 181.368 161.595C181.414 161.445 181.489 161.23 181.601 160.977C181.824 160.469 182.188 159.823 182.75 159.247C183.309 158.675 184.065 158.171 185.087 157.937C186.111 157.703 187.437 157.732 189.147 158.284C192.622 159.405 194.961 161.11 196.423 162.78C197.898 164.466 198.456 166.085 198.446 167.034L198.446 167.034V167.039C198.446 167.098 198.448 167.211 198.451 167.372C198.474 168.674 198.554 173.119 198.075 177.62C197.805 180.152 197.362 182.669 196.645 184.638C195.916 186.644 194.966 187.911 193.797 188.234L193.797 188.234C193.27 188.381 192.24 188.465 190.934 188.355C189.64 188.245 188.115 187.949 186.606 187.366C183.592 186.202 180.674 183.915 179.699 179.706C178.699 175.386 179.089 170.935 179.739 167.546C180.063 165.855 180.451 164.437 180.757 163.443C180.91 162.946 181.042 162.555 181.136 162.29C181.183 162.158 181.22 162.057 181.245 161.989C181.258 161.956 181.267 161.93 181.274 161.914L181.281 161.896L181.282 161.891L181.283 161.891L181.283 161.891M181.306 161.816L181.283 161.891M181.283 161.891L181.283 161.891M181.283 161.891L181.283 161.891M181.283 161.891L181.297 161.854M181.283 161.891L181.297 161.854M181.297 161.854L181.305 161.817M181.297 161.854L181.305 161.817M181.305 161.817L181.305 161.817L181.305 161.817ZM198.946 167.039C198.946 167.095 198.948 167.204 198.95 167.36C199 170.087 199.313 187.226 193.931 188.716C191.497 189.392 181.257 188.649 179.212 179.819L198.946 167.039Z" fill="white" stroke="black"/>
<path d="M182.215 160.994C182.215 160.994 187.382 161.737 189.925 163.854" stroke="black" stroke-width="0.844939" stroke-miterlimit="10" stroke-linecap="round"/>
<path d="M180.875 166.372C180.875 166.372 186.042 167.115 188.585 169.232" stroke="black" stroke-width="0.844939" stroke-miterlimit="10" stroke-linecap="round"/>
<path d="M180.275 171.268C180.275 171.268 185.463 172.012 187.998 174.124" stroke="black" stroke-width="0.844939" stroke-miterlimit="10" stroke-linecap="round"/>
<path d="M180.275 177.187C180.275 177.187 184.394 177.187 186.938 179.299" stroke="black" stroke-width="0.844939" stroke-miterlimit="10" stroke-linecap="round"/>
<path d="M200.853 22C203.632 23.5884 214.853 31 215.353 44C215.353 46 214.853 50.7 210.853 51.5L206.853 53" stroke="white" stroke-linecap="round"/>
</svg>
