<svg width="168" height="125" viewBox="0 0 168 125" fill="none" xmlns="http://www.w3.org/2000/svg">
<path d="M156.714 118.815L155.46 112.901C155.303 112.16 154.858 111.512 154.223 111.099C153.754 110.794 153.206 110.633 152.647 110.637C152.088 110.641 151.542 110.808 151.078 111.119L148.67 112.729C147.033 113.823 145.137 114.469 143.172 114.601L141.072 114.742L141.029 111.056C143.418 111.029 145.729 110.206 147.598 108.718L148.602 107.918C149.679 107.06 150.999 106.563 152.375 106.497C153.75 106.431 155.111 106.799 156.266 107.55C157.579 108.403 158.543 109.699 158.985 111.201L160.957 117.916L156.714 118.815Z" fill="#FFC431"/>
<path d="M146.365 72.9024L147.03 70.9689L151.016 72.3389L150.351 74.2724L146.365 72.9024Z" fill="#6173E8"/>
<path d="M153.999 51.1346L152.745 45.2205C152.588 44.4794 152.732 43.7062 153.145 43.071C153.449 42.6023 153.885 42.2334 154.397 42.0098C154.91 41.7863 155.476 41.7181 156.027 41.8135L158.881 42.3081C160.821 42.6444 162.816 42.4652 164.665 41.7885L166.643 41.065L165.186 37.6791C162.991 38.6232 160.545 38.8089 158.233 38.2069L156.991 37.8834C155.659 37.5364 154.251 37.6174 152.967 38.1151C151.683 38.6127 150.588 39.5018 149.837 40.6563C148.983 41.9693 148.627 43.5444 148.834 45.097L149.756 52.034L153.999 51.1346Z" fill="#6173E8"/>
<path d="M52.3635 9.60357L52.9773 6.70776C53.0543 6.34486 52.9839 5.96626 52.7817 5.65525C52.6324 5.42576 52.4192 5.24509 52.1683 5.13564C51.9174 5.02619 51.6398 4.99277 51.3701 5.03952L49.9729 5.28169C49.0228 5.44637 48.0461 5.35864 47.1405 5.02727L46.1723 4.67299L46.8856 3.0151C47.9601 3.47738 49.158 3.56831 50.29 3.27352L50.8982 3.11514C51.5507 2.94521 52.2401 2.9849 52.8688 3.22858C53.4975 3.47226 54.0336 3.90757 54.4012 4.47286C54.8192 5.1158 54.9934 5.88707 54.8924 6.64727L54.441 10.044L52.3635 9.60357Z" fill="#E861CA"/>
<path d="M80.5714 9.69424L84.772 5.10915L78.5151 3.47975L80.5714 9.69424Z" fill="#FFC431"/>
<path d="M16.0732 58.337L16.7378 56.4035L20.7238 57.7735L20.0593 59.707L16.0732 58.337Z" fill="#FB6A83"/>
<path d="M114.534 5.95993L113.078 2.57328L114.956 1.76569L116.412 5.15234L114.534 5.95993Z" fill="#D1E4FF"/>
<path d="M1.70652 95.987L4.2677 92.5188C5.09929 91.3925 6.31563 90.6359 7.67044 90.4023L7.74829 90.3889C8.91052 90.1903 9.9821 89.6211 10.8128 88.7611C11.6435 87.901 12.1916 86.7932 12.3803 85.593L12.3803 85.593C12.493 84.8742 12.7938 84.2014 13.2503 83.6473C13.7069 83.0932 14.3018 82.6789 14.9709 82.449L20.2245 80.6437L21.076 83.4545L17.3923 84.5219C16.6648 84.7328 16.0133 85.1581 15.5176 85.7458C15.0218 86.3336 14.7033 87.0584 14.601 87.8315L14.5873 87.9356C14.4152 89.2354 13.8421 90.4421 12.9529 91.3773C12.0637 92.3124 10.9055 92.9263 9.64962 93.1282L9.56853 93.1413C7.99262 93.3906 6.57758 94.2711 5.62994 95.592C4.78895 96.766 3.898 98.0072 3.898 98.0072L1.70652 95.987Z" fill="#FB6A83"/>
<path d="M39.6996 30.4181L34 27.9317L39.0576 23.9038L39.6996 30.4181Z" fill="#D1E4FF"/>
<path d="M33.124 111.446L33.7886 109.512L37.7746 110.882L37.1101 112.816L33.124 111.446Z" fill="#FB6A83"/>
<path d="M124.271 21.2435L124.227 17.5574L126.272 17.5334L126.315 21.2195L124.271 21.2435Z" fill="#FFC431"/>
<path d="M122.115 122.639L120.723 121.142L123.81 118.272L125.202 119.77L122.115 122.639Z" fill="#FB6A83"/>
</svg>
