<?xml version="1.0" encoding="UTF-8"?>
<svg xmlns="http://www.w3.org/2000/svg" xmlns:xlink="http://www.w3.org/1999/xlink" width="1683.75pt" height="1190.250009pt" viewBox="0 0 1683.75 1190.250009" version="1.2">
<defs>
<clipPath id="clip1">
  <path d="M 0.40625 0 L 1683.09375 0 L 1683.09375 1189.5 L 0.40625 1189.5 Z M 0.40625 0 "/>
</clipPath>
<clipPath id="clip2">
  <path d="M 1207 30 L 1683.09375 30 L 1683.09375 917 L 1207 917 Z M 1207 30 "/>
</clipPath>
<clipPath id="clip3">
  <path d="M 1149.992188 267.175781 L 1786.550781 30.390625 L 2036.144531 701.378906 L 1399.585938 938.164062 Z M 1149.992188 267.175781 "/>
</clipPath>
<clipPath id="clip4">
  <path d="M 1149.992188 267.175781 L 1786.550781 30.390625 L 2036.144531 701.378906 L 1399.585938 938.164062 Z M 1149.992188 267.175781 "/>
</clipPath>
<clipPath id="clip5">
  <path d="M 1149.992188 267.175781 L 1786.441406 30.429688 L 2036.007812 701.339844 L 1399.554688 938.085938 Z M 1149.992188 267.175781 "/>
</clipPath>
<clipPath id="clip6">
  <path d="M 1184 288 L 1477 288 L 1477 875 L 1184 875 Z M 1184 288 "/>
</clipPath>
<clipPath id="clip7">
  <path d="M 1149.992188 267.175781 L 1786.550781 30.390625 L 2036.144531 701.378906 L 1399.585938 938.164062 Z M 1149.992188 267.175781 "/>
</clipPath>
<clipPath id="clip8">
  <path d="M 1149.992188 267.175781 L 1786.550781 30.390625 L 2036.144531 701.378906 L 1399.585938 938.164062 Z M 1149.992188 267.175781 "/>
</clipPath>
<clipPath id="clip9">
  <path d="M 1149.992188 267.175781 L 1786.441406 30.429688 L 2036.007812 701.339844 L 1399.554688 938.085938 Z M 1149.992188 267.175781 "/>
</clipPath>
<clipPath id="clip10">
  <path d="M 1665 255 L 1683.09375 255 L 1683.09375 528 L 1665 528 Z M 1665 255 "/>
</clipPath>
<clipPath id="clip11">
  <path d="M 1149.992188 267.175781 L 1786.550781 30.390625 L 2036.144531 701.378906 L 1399.585938 938.164062 Z M 1149.992188 267.175781 "/>
</clipPath>
<clipPath id="clip12">
  <path d="M 1149.992188 267.175781 L 1786.550781 30.390625 L 2036.144531 701.378906 L 1399.585938 938.164062 Z M 1149.992188 267.175781 "/>
</clipPath>
<clipPath id="clip13">
  <path d="M 1149.992188 267.175781 L 1786.441406 30.429688 L 2036.007812 701.339844 L 1399.554688 938.085938 Z M 1149.992188 267.175781 "/>
</clipPath>
<clipPath id="clip14">
  <path d="M 1648 209 L 1683.09375 209 L 1683.09375 273 L 1648 273 Z M 1648 209 "/>
</clipPath>
<clipPath id="clip15">
  <path d="M 1149.992188 267.175781 L 1786.550781 30.390625 L 2036.144531 701.378906 L 1399.585938 938.164062 Z M 1149.992188 267.175781 "/>
</clipPath>
<clipPath id="clip16">
  <path d="M 1149.992188 267.175781 L 1786.550781 30.390625 L 2036.144531 701.378906 L 1399.585938 938.164062 Z M 1149.992188 267.175781 "/>
</clipPath>
<clipPath id="clip17">
  <path d="M 1149.992188 267.175781 L 1786.441406 30.429688 L 2036.007812 701.339844 L 1399.554688 938.085938 Z M 1149.992188 267.175781 "/>
</clipPath>
<clipPath id="clip18">
  <path d="M 1317 201 L 1477 201 L 1477 281 L 1317 281 Z M 1317 201 "/>
</clipPath>
<clipPath id="clip19">
  <path d="M 1149.992188 267.175781 L 1786.550781 30.390625 L 2036.144531 701.378906 L 1399.585938 938.164062 Z M 1149.992188 267.175781 "/>
</clipPath>
<clipPath id="clip20">
  <path d="M 1149.992188 267.175781 L 1786.550781 30.390625 L 2036.144531 701.378906 L 1399.585938 938.164062 Z M 1149.992188 267.175781 "/>
</clipPath>
<clipPath id="clip21">
  <path d="M 1149.992188 267.175781 L 1786.441406 30.429688 L 2036.007812 701.339844 L 1399.554688 938.085938 Z M 1149.992188 267.175781 "/>
</clipPath>
<clipPath id="clip22">
  <path d="M 1334 239 L 1518 239 L 1518 327 L 1334 327 Z M 1334 239 "/>
</clipPath>
<clipPath id="clip23">
  <path d="M 1149.992188 267.175781 L 1786.550781 30.390625 L 2036.144531 701.378906 L 1399.585938 938.164062 Z M 1149.992188 267.175781 "/>
</clipPath>
<clipPath id="clip24">
  <path d="M 1149.992188 267.175781 L 1786.550781 30.390625 L 2036.144531 701.378906 L 1399.585938 938.164062 Z M 1149.992188 267.175781 "/>
</clipPath>
<clipPath id="clip25">
  <path d="M 1149.992188 267.175781 L 1786.441406 30.429688 L 2036.007812 701.339844 L 1399.554688 938.085938 Z M 1149.992188 267.175781 "/>
</clipPath>
<clipPath id="clip26">
  <path d="M 1360 274 L 1636 274 L 1636 397 L 1360 397 Z M 1360 274 "/>
</clipPath>
<clipPath id="clip27">
  <path d="M 1149.992188 267.175781 L 1786.550781 30.390625 L 2036.144531 701.378906 L 1399.585938 938.164062 Z M 1149.992188 267.175781 "/>
</clipPath>
<clipPath id="clip28">
  <path d="M 1149.992188 267.175781 L 1786.550781 30.390625 L 2036.144531 701.378906 L 1399.585938 938.164062 Z M 1149.992188 267.175781 "/>
</clipPath>
<clipPath id="clip29">
  <path d="M 1149.992188 267.175781 L 1786.441406 30.429688 L 2036.007812 701.339844 L 1399.554688 938.085938 Z M 1149.992188 267.175781 "/>
</clipPath>
<clipPath id="clip30">
  <path d="M 1377 320 L 1653 320 L 1653 443 L 1377 443 Z M 1377 320 "/>
</clipPath>
<clipPath id="clip31">
  <path d="M 1149.992188 267.175781 L 1786.550781 30.390625 L 2036.144531 701.378906 L 1399.585938 938.164062 Z M 1149.992188 267.175781 "/>
</clipPath>
<clipPath id="clip32">
  <path d="M 1149.992188 267.175781 L 1786.550781 30.390625 L 2036.144531 701.378906 L 1399.585938 938.164062 Z M 1149.992188 267.175781 "/>
</clipPath>
<clipPath id="clip33">
  <path d="M 1149.992188 267.175781 L 1786.441406 30.429688 L 2036.007812 701.339844 L 1399.554688 938.085938 Z M 1149.992188 267.175781 "/>
</clipPath>
<clipPath id="clip34">
  <path d="M 1395 366 L 1670 366 L 1670 489 L 1395 489 Z M 1395 366 "/>
</clipPath>
<clipPath id="clip35">
  <path d="M 1149.992188 267.175781 L 1786.550781 30.390625 L 2036.144531 701.378906 L 1399.585938 938.164062 Z M 1149.992188 267.175781 "/>
</clipPath>
<clipPath id="clip36">
  <path d="M 1149.992188 267.175781 L 1786.550781 30.390625 L 2036.144531 701.378906 L 1399.585938 938.164062 Z M 1149.992188 267.175781 "/>
</clipPath>
<clipPath id="clip37">
  <path d="M 1149.992188 267.175781 L 1786.441406 30.429688 L 2036.007812 701.339844 L 1399.554688 938.085938 Z M 1149.992188 267.175781 "/>
</clipPath>
<clipPath id="clip38">
  <path d="M 1412 412 L 1683.09375 412 L 1683.09375 536 L 1412 536 Z M 1412 412 "/>
</clipPath>
<clipPath id="clip39">
  <path d="M 1149.992188 267.175781 L 1786.550781 30.390625 L 2036.144531 701.378906 L 1399.585938 938.164062 Z M 1149.992188 267.175781 "/>
</clipPath>
<clipPath id="clip40">
  <path d="M 1149.992188 267.175781 L 1786.550781 30.390625 L 2036.144531 701.378906 L 1399.585938 938.164062 Z M 1149.992188 267.175781 "/>
</clipPath>
<clipPath id="clip41">
  <path d="M 1149.992188 267.175781 L 1786.441406 30.429688 L 2036.007812 701.339844 L 1399.554688 938.085938 Z M 1149.992188 267.175781 "/>
</clipPath>
<clipPath id="clip42">
  <path d="M 1429 459 L 1683.09375 459 L 1683.09375 582 L 1429 582 Z M 1429 459 "/>
</clipPath>
<clipPath id="clip43">
  <path d="M 1149.992188 267.175781 L 1786.550781 30.390625 L 2036.144531 701.378906 L 1399.585938 938.164062 Z M 1149.992188 267.175781 "/>
</clipPath>
<clipPath id="clip44">
  <path d="M 1149.992188 267.175781 L 1786.550781 30.390625 L 2036.144531 701.378906 L 1399.585938 938.164062 Z M 1149.992188 267.175781 "/>
</clipPath>
<clipPath id="clip45">
  <path d="M 1149.992188 267.175781 L 1786.441406 30.429688 L 2036.007812 701.339844 L 1399.554688 938.085938 Z M 1149.992188 267.175781 "/>
</clipPath>
<clipPath id="clip46">
  <path d="M 1446 505 L 1683.09375 505 L 1683.09375 628 L 1446 628 Z M 1446 505 "/>
</clipPath>
<clipPath id="clip47">
  <path d="M 1149.992188 267.175781 L 1786.550781 30.390625 L 2036.144531 701.378906 L 1399.585938 938.164062 Z M 1149.992188 267.175781 "/>
</clipPath>
<clipPath id="clip48">
  <path d="M 1149.992188 267.175781 L 1786.550781 30.390625 L 2036.144531 701.378906 L 1399.585938 938.164062 Z M 1149.992188 267.175781 "/>
</clipPath>
<clipPath id="clip49">
  <path d="M 1149.992188 267.175781 L 1786.441406 30.429688 L 2036.007812 701.339844 L 1399.554688 938.085938 Z M 1149.992188 267.175781 "/>
</clipPath>
<clipPath id="clip50">
  <path d="M 1464 551 L 1683.09375 551 L 1683.09375 674 L 1464 674 Z M 1464 551 "/>
</clipPath>
<clipPath id="clip51">
  <path d="M 1149.992188 267.175781 L 1786.550781 30.390625 L 2036.144531 701.378906 L 1399.585938 938.164062 Z M 1149.992188 267.175781 "/>
</clipPath>
<clipPath id="clip52">
  <path d="M 1149.992188 267.175781 L 1786.550781 30.390625 L 2036.144531 701.378906 L 1399.585938 938.164062 Z M 1149.992188 267.175781 "/>
</clipPath>
<clipPath id="clip53">
  <path d="M 1149.992188 267.175781 L 1786.441406 30.429688 L 2036.007812 701.339844 L 1399.554688 938.085938 Z M 1149.992188 267.175781 "/>
</clipPath>
<clipPath id="clip54">
  <path d="M 1481 645 L 1629 645 L 1629 721 L 1481 721 Z M 1481 645 "/>
</clipPath>
<clipPath id="clip55">
  <path d="M 1149.992188 267.175781 L 1786.550781 30.390625 L 2036.144531 701.378906 L 1399.585938 938.164062 Z M 1149.992188 267.175781 "/>
</clipPath>
<clipPath id="clip56">
  <path d="M 1149.992188 267.175781 L 1786.550781 30.390625 L 2036.144531 701.378906 L 1399.585938 938.164062 Z M 1149.992188 267.175781 "/>
</clipPath>
<clipPath id="clip57">
  <path d="M 1149.992188 267.175781 L 1786.441406 30.429688 L 2036.007812 701.339844 L 1399.554688 938.085938 Z M 1149.992188 267.175781 "/>
</clipPath>
<clipPath id="clip58">
  <path d="M 294 678 L 1520 678 L 1520 1189.5 L 294 1189.5 Z M 294 678 "/>
</clipPath>
</defs>
<g id="surface1">
<g clip-path="url(#clip1)" clip-rule="nonzero">
<path style=" stroke:none;fill-rule:nonzero;fill:rgb(100%,100%,100%);fill-opacity:1;" d="M 0.40625 0 L 1683.34375 0 L 1683.34375 1197.171875 L 0.40625 1197.171875 Z M 0.40625 0 "/>
<path style=" stroke:none;fill-rule:nonzero;fill:rgb(100%,100%,100%);fill-opacity:1;" d="M 0.40625 0 L 1683.34375 0 L 1683.34375 1189.675781 L 0.40625 1189.675781 Z M 0.40625 0 "/>
<path style=" stroke:none;fill-rule:nonzero;fill:rgb(32.548523%,67.83905%,44.709778%);fill-opacity:1;" d="M 0.40625 0 L 1683.34375 0 L 1683.34375 1189.675781 L 0.40625 1189.675781 Z M 0.40625 0 "/>
</g>
<g clip-path="url(#clip2)" clip-rule="nonzero">
<g clip-path="url(#clip3)" clip-rule="nonzero">
<g clip-path="url(#clip4)" clip-rule="nonzero">
<g clip-path="url(#clip5)" clip-rule="nonzero">
<path style=" stroke:none;fill-rule:nonzero;fill:rgb(93.328857%,85.099792%,56.079102%);fill-opacity:1;" d="M 1786.285156 30.488281 L 1820.707031 123.03125 L 1774.441406 140.238281 L 1989.585938 718.609375 L 1457.542969 916.515625 L 1207.980469 245.605469 L 1786.285156 30.488281 "/>
</g>
</g>
</g>
</g>
<g clip-path="url(#clip6)" clip-rule="nonzero">
<g clip-path="url(#clip7)" clip-rule="nonzero">
<g clip-path="url(#clip8)" clip-rule="nonzero">
<g clip-path="url(#clip9)" clip-rule="nonzero">
<path style=" stroke:none;fill-rule:nonzero;fill:rgb(25.878906%,42.749023%,47.059631%);fill-opacity:1;" d="M 1268.21875 407.550781 C 1287.375 400.425781 1308.699219 410.1875 1315.828125 429.34375 L 1338.960938 420.742188 C 1327.09375 388.839844 1291.511719 372.550781 1259.613281 384.414062 C 1240.457031 391.539062 1219.132812 381.777344 1212.007812 362.621094 C 1204.882812 343.460938 1214.640625 322.136719 1233.796875 315.011719 C 1252.953125 307.886719 1274.277344 317.648438 1281.40625 336.804688 L 1304.535156 328.203125 C 1292.671875 296.300781 1257.089844 280.011719 1225.191406 291.875 C 1193.292969 303.742188 1177.007812 339.324219 1188.875 371.226562 C 1195.933594 390.203125 1211.476562 403.503906 1229.582031 408.753906 C 1219.308594 424.558594 1216.238281 444.785156 1223.296875 463.765625 C 1230.359375 482.742188 1245.902344 496.042969 1264.003906 501.292969 C 1253.734375 517.101562 1250.660156 537.324219 1257.722656 556.304688 C 1264.78125 575.28125 1280.324219 588.582031 1298.425781 593.832031 C 1288.15625 609.640625 1285.085938 629.863281 1292.144531 648.84375 C 1299.203125 667.820312 1314.746094 681.121094 1332.847656 686.375 C 1322.578125 702.179688 1319.507812 722.40625 1326.566406 741.382812 C 1333.625 760.359375 1349.167969 773.660156 1367.269531 778.914062 C 1357 794.71875 1353.929688 814.945312 1360.988281 833.921875 C 1372.855469 865.820312 1408.4375 882.113281 1440.332031 870.246094 L 1431.726562 847.113281 C 1412.570312 854.238281 1391.246094 844.476562 1384.121094 825.316406 C 1376.996094 806.160156 1386.753906 784.832031 1405.910156 777.707031 C 1425.066406 770.582031 1446.390625 780.34375 1453.515625 799.503906 L 1476.648438 790.898438 C 1464.78125 758.996094 1429.203125 742.707031 1397.304688 754.574219 C 1378.148438 761.699219 1356.824219 751.9375 1349.699219 732.777344 C 1342.570312 713.617188 1352.332031 692.292969 1371.488281 685.167969 C 1390.644531 678.042969 1411.96875 687.804688 1419.09375 706.964844 L 1442.226562 698.359375 C 1430.359375 666.457031 1394.78125 650.167969 1362.882812 662.035156 C 1343.726562 669.160156 1322.402344 659.398438 1315.277344 640.238281 C 1308.148438 621.078125 1317.910156 599.753906 1337.066406 592.628906 C 1356.222656 585.503906 1377.546875 595.265625 1384.671875 614.425781 L 1407.804688 605.820312 C 1395.9375 573.917969 1360.355469 557.628906 1328.460938 569.492188 C 1309.304688 576.621094 1287.980469 566.855469 1280.851562 547.699219 C 1273.726562 528.539062 1283.488281 507.214844 1302.644531 500.089844 C 1321.800781 492.964844 1343.121094 502.726562 1350.25 521.886719 L 1373.382812 513.28125 C 1361.515625 481.378906 1325.933594 465.089844 1294.039062 476.953125 C 1274.878906 484.082031 1253.558594 474.316406 1246.429688 455.160156 C 1239.304688 436 1249.0625 414.675781 1268.21875 407.550781 "/>
</g>
</g>
</g>
</g>
<g clip-path="url(#clip10)" clip-rule="nonzero">
<g clip-path="url(#clip11)" clip-rule="nonzero">
<g clip-path="url(#clip12)" clip-rule="nonzero">
<g clip-path="url(#clip13)" clip-rule="nonzero">
<path style=" stroke:none;fill-rule:nonzero;fill:rgb(86.268616%,42.349243%,32.939148%);fill-opacity:1;" d="M 1806.695312 510.113281 L 1760.433594 527.320312 L 1665.769531 272.839844 L 1712.035156 255.628906 L 1806.695312 510.113281 "/>
</g>
</g>
</g>
</g>
<g clip-path="url(#clip14)" clip-rule="nonzero">
<g clip-path="url(#clip15)" clip-rule="nonzero">
<g clip-path="url(#clip16)" clip-rule="nonzero">
<g clip-path="url(#clip17)" clip-rule="nonzero">
<path style=" stroke:none;fill-rule:nonzero;fill:rgb(95.689392%,95.689392%,90.19928%);fill-opacity:1;" d="M 1712.035156 255.628906 L 1665.769531 272.839844 L 1648.558594 226.570312 L 1694.824219 209.359375 L 1712.035156 255.628906 "/>
</g>
</g>
</g>
</g>
<g clip-path="url(#clip18)" clip-rule="nonzero">
<g clip-path="url(#clip19)" clip-rule="nonzero">
<g clip-path="url(#clip20)" clip-rule="nonzero">
<g clip-path="url(#clip21)" clip-rule="nonzero">
<path style=" stroke:none;fill-rule:nonzero;fill:rgb(95.689392%,95.689392%,90.19928%);fill-opacity:1;" d="M 1476.683594 224.660156 L 1326.328125 280.59375 L 1317.71875 257.457031 L 1468.078125 201.527344 L 1476.683594 224.660156 "/>
</g>
</g>
</g>
</g>
<g clip-path="url(#clip22)" clip-rule="nonzero">
<g clip-path="url(#clip23)" clip-rule="nonzero">
<g clip-path="url(#clip24)" clip-rule="nonzero">
<g clip-path="url(#clip25)" clip-rule="nonzero">
<path style=" stroke:none;fill-rule:nonzero;fill:rgb(95.689392%,95.689392%,90.19928%);fill-opacity:1;" d="M 1517.027344 262.328125 L 1343.539062 326.863281 L 1334.933594 303.726562 L 1508.421875 239.191406 L 1517.027344 262.328125 "/>
</g>
</g>
</g>
</g>
<g clip-path="url(#clip26)" clip-rule="nonzero">
<g clip-path="url(#clip27)" clip-rule="nonzero">
<g clip-path="url(#clip28)" clip-rule="nonzero">
<g clip-path="url(#clip29)" clip-rule="nonzero">
<path style=" stroke:none;fill-rule:nonzero;fill:rgb(95.689392%,95.689392%,90.19928%);fill-opacity:1;" d="M 1635.375 297.3125 L 1369.355469 396.265625 L 1360.75 373.132812 L 1626.769531 274.179688 L 1635.375 297.3125 "/>
</g>
</g>
</g>
</g>
<g clip-path="url(#clip30)" clip-rule="nonzero">
<g clip-path="url(#clip31)" clip-rule="nonzero">
<g clip-path="url(#clip32)" clip-rule="nonzero">
<g clip-path="url(#clip33)" clip-rule="nonzero">
<path style=" stroke:none;fill-rule:nonzero;fill:rgb(95.689392%,95.689392%,90.19928%);fill-opacity:1;" d="M 1652.585938 343.582031 L 1386.566406 442.535156 L 1377.960938 419.402344 L 1643.980469 320.449219 L 1652.585938 343.582031 "/>
</g>
</g>
</g>
</g>
<g clip-path="url(#clip34)" clip-rule="nonzero">
<g clip-path="url(#clip35)" clip-rule="nonzero">
<g clip-path="url(#clip36)" clip-rule="nonzero">
<g clip-path="url(#clip37)" clip-rule="nonzero">
<path style=" stroke:none;fill-rule:nonzero;fill:rgb(95.689392%,95.689392%,90.19928%);fill-opacity:1;" d="M 1669.796875 389.851562 L 1403.777344 488.804688 L 1395.171875 465.671875 L 1661.191406 366.71875 L 1669.796875 389.851562 "/>
</g>
</g>
</g>
</g>
<g clip-path="url(#clip38)" clip-rule="nonzero">
<g clip-path="url(#clip39)" clip-rule="nonzero">
<g clip-path="url(#clip40)" clip-rule="nonzero">
<g clip-path="url(#clip41)" clip-rule="nonzero">
<path style=" stroke:none;fill-rule:nonzero;fill:rgb(95.689392%,95.689392%,90.19928%);fill-opacity:1;" d="M 1687.007812 436.121094 L 1420.988281 535.074219 L 1412.382812 511.941406 L 1678.402344 412.988281 L 1687.007812 436.121094 "/>
</g>
</g>
</g>
</g>
<g clip-path="url(#clip42)" clip-rule="nonzero">
<g clip-path="url(#clip43)" clip-rule="nonzero">
<g clip-path="url(#clip44)" clip-rule="nonzero">
<g clip-path="url(#clip45)" clip-rule="nonzero">
<path style=" stroke:none;fill-rule:nonzero;fill:rgb(95.689392%,95.689392%,90.19928%);fill-opacity:1;" d="M 1704.21875 482.390625 L 1438.199219 581.34375 L 1429.59375 558.210938 L 1695.613281 459.257812 L 1704.21875 482.390625 "/>
</g>
</g>
</g>
</g>
<g clip-path="url(#clip46)" clip-rule="nonzero">
<g clip-path="url(#clip47)" clip-rule="nonzero">
<g clip-path="url(#clip48)" clip-rule="nonzero">
<g clip-path="url(#clip49)" clip-rule="nonzero">
<path style=" stroke:none;fill-rule:nonzero;fill:rgb(95.689392%,95.689392%,90.19928%);fill-opacity:1;" d="M 1721.429688 528.660156 L 1455.410156 627.613281 L 1446.804688 604.480469 L 1712.824219 505.527344 L 1721.429688 528.660156 "/>
</g>
</g>
</g>
</g>
<g clip-path="url(#clip50)" clip-rule="nonzero">
<g clip-path="url(#clip51)" clip-rule="nonzero">
<g clip-path="url(#clip52)" clip-rule="nonzero">
<g clip-path="url(#clip53)" clip-rule="nonzero">
<path style=" stroke:none;fill-rule:nonzero;fill:rgb(95.689392%,95.689392%,90.19928%);fill-opacity:1;" d="M 1738.640625 574.929688 L 1472.621094 673.882812 L 1464.015625 650.75 L 1730.035156 551.796875 L 1738.640625 574.929688 "/>
</g>
</g>
</g>
</g>
<g clip-path="url(#clip54)" clip-rule="nonzero">
<g clip-path="url(#clip55)" clip-rule="nonzero">
<g clip-path="url(#clip56)" clip-rule="nonzero">
<g clip-path="url(#clip57)" clip-rule="nonzero">
<path style=" stroke:none;fill-rule:nonzero;fill:rgb(95.689392%,95.689392%,90.19928%);fill-opacity:1;" d="M 1628.625 668.527344 L 1489.832031 720.152344 L 1481.226562 697.019531 L 1620.019531 645.390625 L 1628.625 668.527344 "/>
</g>
</g>
</g>
</g>
<g clip-path="url(#clip58)" clip-rule="nonzero">
<path style=" stroke:none;fill-rule:nonzero;fill:rgb(41.958618%,73.728943%,52.938843%);fill-opacity:1;" d="M 294.277344 1117.304688 L 1244.550781 678.714844 L 1519.367188 1274.144531 L 569.09375 1712.734375 Z M 294.277344 1117.304688 "/>
</g>
</g>
</svg>
