<?xml version="1.0" encoding="UTF-8"?>
<svg xmlns="http://www.w3.org/2000/svg" xmlns:xlink="http://www.w3.org/1999/xlink" width="750pt" height="149.999998pt" viewBox="0 0 750 149.999998" version="1.2">
<defs>
<filter id="alpha" filterUnits="objectBoundingBox" x="0%" y="0%" width="100%" height="100%">
  <feColorMatrix type="matrix" in="SourceGraphic" values="0 0 0 0 1 0 0 0 0 1 0 0 0 0 1 0 0 0 1 0"/>
</filter>
<mask id="mask0">
  <g filter="url(#alpha)">
<rect x="0" y="0" width="750" height="149.999998" style="fill:rgb(0%,0%,0%);fill-opacity:0.2863;stroke:none;"/>
  </g>
</mask>
<clipPath id="clip2">
  <path d="M 0.566406 0 L 74 0 L 74 59.671875 L 0.566406 59.671875 Z M 0.566406 0 "/>
</clipPath>
<clipPath id="clip1">
  <rect x="0" y="0" width="74" height="60"/>
</clipPath>
<g id="surface5" clip-path="url(#clip1)">
<g clip-path="url(#clip2)" clip-rule="nonzero">
<path style=" stroke:none;fill-rule:nonzero;fill:rgb(100%,100%,100%);fill-opacity:1;" d="M 0.566406 -15.328125 L 93.566406 -15.328125 L 93.566406 59.671875 L 0.566406 59.671875 Z M 0.566406 -15.328125 "/>
</g>
</g>
<clipPath id="clip3">
  <path d="M 15 16 L 40 16 L 40 40.5 L 15 40.5 Z M 15 16 "/>
</clipPath>
<clipPath id="clip4">
  <path d="M 16 15 L 41.25 15 L 41.25 40 L 16 40 Z M 16 15 "/>
</clipPath>
<clipPath id="clip5">
  <path d="M 534.625 56 L 589 56 L 589 105 L 534.625 105 Z M 534.625 56 "/>
</clipPath>
<clipPath id="clip6">
  <path d="M 581 84 L 628 84 L 628 135.410156 L 581 135.410156 Z M 581 84 "/>
</clipPath>
<clipPath id="clip7">
  <path d="M 589 36.410156 L 639 36.410156 L 639 83 L 589 83 Z M 589 36.410156 "/>
</clipPath>
<clipPath id="clip8">
  <path d="M 629 76 L 640.375 76 L 640.375 83 L 629 83 Z M 629 76 "/>
</clipPath>
<clipPath id="clip9">
  <path d="M 567 36.410156 L 588 36.410156 L 588 45 L 567 45 Z M 567 36.410156 "/>
</clipPath>
</defs>
<g id="surface1">
<rect x="0" y="0" width="750" height="149.999998" style="fill:rgb(100%,100%,100%);fill-opacity:1;stroke:none;"/>
<rect x="0" y="0" width="750" height="149.999998" style="fill:rgb(100%,100%,100%);fill-opacity:1;stroke:none;"/>
<rect x="0" y="0" width="750" height="149.999998" style="fill:rgb(29.798889%,41.958618%,85.879517%);fill-opacity:1;stroke:none;"/>
<use xlink:href="#surface5" transform="matrix(1,0,0,1,676,-0.000000000000007527)" mask="url(#mask0)"/>
<path style="fill:none;stroke-width:1;stroke-linecap:round;stroke-linejoin:miter;stroke:rgb(87.059021%,87.838745%,87.838745%);stroke-opacity:1;stroke-miterlimit:4;" d="M 0.500075 -0.000149488 L 12.664526 -0.000149488 " transform="matrix(6.723292,0,0,6.306569,175.75113,3.153287)"/>
<g clip-path="url(#clip3)" clip-rule="nonzero">
<path style=" stroke:none;fill-rule:nonzero;fill:rgb(94.898987%,95.689392%,97.24884%);fill-opacity:1;" d="M 27.097656 16.316406 C 33.78125 16.316406 39.195312 21.730469 39.195312 28.40625 C 39.195312 35.082031 33.78125 40.496094 27.097656 40.496094 C 20.417969 40.496094 15 35.082031 15 28.40625 C 15 21.730469 20.417969 16.316406 27.097656 16.316406 "/>
</g>
<g clip-path="url(#clip4)" clip-rule="nonzero">
<path style=" stroke:none;fill-rule:nonzero;fill:rgb(64.709473%,83.139038%,86.268616%);fill-opacity:1;" d="M 40.4375 27.492188 C 40.429688 29.921875 39.675781 32.277344 38.273438 34.265625 C 36.929688 36.179688 34.96875 37.660156 32.777344 38.464844 C 30.464844 39.3125 27.910156 39.394531 25.542969 38.730469 C 23.261719 38.09375 21.230469 36.730469 19.714844 34.914062 C 16.566406 31.144531 16.222656 25.617188 18.746094 21.433594 C 19.964844 19.414062 21.804688 17.816406 23.945312 16.835938 C 26.160156 15.820312 28.710938 15.5625 31.09375 16.046875 C 33.429688 16.519531 35.5625 17.722656 37.210938 19.433594 C 38.867188 21.15625 39.933594 23.375 40.308594 25.726562 C 40.398438 26.3125 40.433594 26.902344 40.4375 27.492188 C 40.4375 28.015625 41.253906 28.015625 41.25 27.492188 C 41.242188 25.023438 40.511719 22.597656 39.136719 20.542969 C 37.804688 18.554688 35.894531 16.964844 33.691406 16.019531 C 31.375 15.023438 28.800781 14.761719 26.324219 15.234375 C 23.949219 15.683594 21.734375 16.878906 20.003906 18.558594 C 16.421875 22.035156 15.277344 27.511719 17.136719 32.140625 C 18.039062 34.386719 19.585938 36.3125 21.558594 37.714844 C 23.558594 39.140625 25.988281 39.914062 28.441406 39.984375 C 33.382812 40.121094 38.054688 37.183594 40.113281 32.699219 C 40.863281 31.066406 41.246094 29.289062 41.25 27.492188 C 41.253906 26.96875 40.4375 26.96875 40.4375 27.492188 "/>
</g>
<g clip-path="url(#clip5)" clip-rule="nonzero">
<path style=" stroke:none;fill-rule:nonzero;fill:rgb(94.898987%,95.689392%,97.24884%);fill-opacity:1;" d="M 561.6875 58.585938 C 559.347656 58.585938 557 58.589844 554.648438 58.59375 C 544.84375 58.628906 536.847656 66.65625 536.835938 76.5 C 536.820312 77.355469 536.820312 78.183594 536.835938 79.03125 C 536.847656 88.894531 544.84375 96.929688 554.648438 96.957031 L 563.1875 96.957031 C 563.417969 96.957031 563.632812 97.03125 563.816406 97.164062 C 566.402344 99.09375 569.414062 101.207031 571.113281 102.25 C 570.867188 101.105469 570.410156 99.53125 569.953125 98.191406 C 569.851562 97.894531 569.890625 97.570312 570.058594 97.300781 C 570.226562 97.035156 570.503906 96.859375 570.816406 96.820312 C 579.769531 95.71875 586.53125 88.078125 586.542969 79.042969 L 586.542969 76.496094 C 586.53125 66.65625 578.535156 58.628906 568.730469 58.59375 C 566.378906 58.589844 564.035156 58.585938 561.6875 58.585938 Z M 572.289062 103.902344 L 572.304688 103.902344 Z M 572.257812 104.96875 C 571.515625 104.96875 569.707031 104.15625 562.839844 99.042969 L 554.648438 99.042969 C 543.6875 99.011719 534.761719 90.042969 534.742188 79.046875 C 534.726562 78.195312 534.726562 77.34375 534.742188 76.476562 C 534.761719 65.507812 543.6875 56.542969 554.644531 56.511719 C 559.351562 56.5 564.035156 56.5 568.734375 56.511719 C 579.691406 56.542969 588.621094 65.507812 588.636719 76.496094 L 588.636719 79.046875 C 588.621094 88.707031 581.691406 96.941406 572.320312 98.695312 C 572.835938 100.332031 573.535156 102.867188 573.363281 103.996094 C 573.304688 104.359375 573.011719 104.734375 572.671875 104.875 C 572.5625 104.921875 572.441406 104.96875 572.257812 104.96875 "/>
</g>
<path style=" stroke:none;fill-rule:nonzero;fill:rgb(94.898987%,95.689392%,97.24884%);fill-opacity:1;" d="M 567.164062 78.363281 C 567.164062 79.992188 568.488281 81.308594 570.125 81.308594 C 571.753906 81.308594 573.082031 79.992188 573.082031 78.363281 C 573.082031 76.734375 571.753906 75.414062 570.125 75.414062 C 568.488281 75.414062 567.164062 76.734375 567.164062 78.363281 "/>
<path style=" stroke:none;fill-rule:nonzero;fill:rgb(94.898987%,95.689392%,97.24884%);fill-opacity:1;" d="M 558.476562 79.585938 C 558.476562 80.6875 559.371094 81.578125 560.476562 81.578125 C 561.582031 81.578125 562.480469 80.6875 562.480469 79.585938 C 562.480469 78.484375 561.582031 77.59375 560.476562 77.59375 C 559.371094 77.59375 558.476562 78.484375 558.476562 79.585938 "/>
<path style=" stroke:none;fill-rule:nonzero;fill:rgb(94.898987%,95.689392%,97.24884%);fill-opacity:1;" d="M 550.871094 77.796875 C 550.871094 78.578125 551.507812 79.210938 552.292969 79.210938 C 553.070312 79.210938 553.707031 78.578125 553.707031 77.796875 C 553.707031 77.019531 553.070312 76.386719 552.292969 76.386719 C 551.507812 76.386719 550.871094 77.019531 550.871094 77.796875 "/>
<path style=" stroke:none;fill-rule:nonzero;fill:rgb(94.898987%,95.689392%,97.24884%);fill-opacity:1;" d="M 599.203125 108.132812 C 599.203125 109.761719 597.878906 111.078125 596.246094 111.078125 C 594.613281 111.078125 593.289062 109.761719 593.289062 108.132812 C 593.289062 106.503906 594.613281 105.183594 596.246094 105.183594 C 597.878906 105.183594 599.203125 106.503906 599.203125 108.132812 "/>
<path style=" stroke:none;fill-rule:nonzero;fill:rgb(94.898987%,95.689392%,97.24884%);fill-opacity:1;" d="M 607.890625 109.351562 C 607.890625 110.457031 606.996094 111.347656 605.890625 111.347656 C 604.785156 111.347656 603.890625 110.457031 603.890625 109.351562 C 603.890625 108.253906 604.785156 107.363281 605.890625 107.363281 C 606.996094 107.363281 607.890625 108.253906 607.890625 109.351562 "/>
<path style=" stroke:none;fill-rule:nonzero;fill:rgb(94.898987%,95.689392%,97.24884%);fill-opacity:1;" d="M 615.496094 107.566406 C 615.496094 108.347656 614.859375 108.980469 614.082031 108.980469 C 613.296875 108.980469 612.664062 108.347656 612.664062 107.566406 C 612.664062 106.789062 613.296875 106.15625 614.082031 106.15625 C 614.859375 106.15625 615.496094 106.789062 615.496094 107.566406 "/>
<g clip-path="url(#clip6)" clip-rule="nonzero">
<path style=" stroke:none;fill-rule:nonzero;fill:rgb(94.898987%,95.689392%,97.24884%);fill-opacity:1;" d="M 604.363281 86.328125 C 593.035156 86.328125 583.816406 95.511719 583.816406 106.792969 C 583.816406 115.109375 588.800781 122.535156 596.515625 125.714844 C 596.984375 125.910156 597.246094 126.410156 597.136719 126.902344 C 596.6875 128.925781 596.242188 131.269531 596.050781 132.753906 C 597.78125 131.722656 600.992188 129.492188 603.742188 127.464844 C 603.921875 127.328125 604.144531 127.261719 604.363281 127.261719 C 615.695312 127.261719 624.917969 118.082031 624.917969 106.792969 C 624.917969 95.511719 615.695312 86.328125 604.363281 86.328125 Z M 594.988281 135.414062 C 594.804688 135.414062 594.6875 135.363281 594.570312 135.316406 C 594.230469 135.179688 593.941406 134.800781 593.890625 134.4375 C 593.699219 133.226562 594.472656 129.332031 594.910156 127.292969 C 586.871094 123.613281 581.726562 115.664062 581.726562 106.792969 C 581.726562 94.359375 591.882812 84.246094 604.363281 84.246094 C 616.851562 84.246094 627.007812 94.359375 627.007812 106.792969 C 627.007812 119.109375 617.039062 129.152344 604.714844 129.339844 C 597.59375 134.582031 595.734375 135.414062 594.988281 135.414062 "/>
</g>
<path style=" stroke:none;fill-rule:nonzero;fill:rgb(94.898987%,95.689392%,97.24884%);fill-opacity:1;" d="M 608.636719 56.21875 C 608.636719 57.847656 607.308594 59.164062 605.675781 59.164062 C 604.042969 59.164062 602.71875 57.847656 602.71875 56.21875 C 602.71875 54.59375 604.042969 53.269531 605.675781 53.269531 C 607.308594 53.269531 608.636719 54.59375 608.636719 56.21875 "/>
<path style=" stroke:none;fill-rule:nonzero;fill:rgb(94.898987%,95.689392%,97.24884%);fill-opacity:1;" d="M 617.320312 57.445312 C 617.320312 58.542969 616.425781 59.433594 615.324219 59.433594 C 614.214844 59.433594 613.320312 58.542969 613.320312 57.445312 C 613.320312 56.339844 614.214844 55.449219 615.324219 55.449219 C 616.425781 55.449219 617.320312 56.339844 617.320312 57.445312 "/>
<path style=" stroke:none;fill-rule:nonzero;fill:rgb(94.898987%,95.689392%,97.24884%);fill-opacity:1;" d="M 624.925781 55.65625 C 624.925781 56.433594 624.289062 57.066406 623.511719 57.066406 C 622.730469 57.066406 622.097656 56.433594 622.097656 55.65625 C 622.097656 54.875 622.730469 54.242188 623.511719 54.242188 C 624.289062 54.242188 624.925781 54.875 624.925781 55.65625 "/>
<g clip-path="url(#clip7)" clip-rule="nonzero">
<path style=" stroke:none;fill-rule:nonzero;fill:rgb(94.898987%,95.689392%,97.24884%);fill-opacity:1;" d="M 602.503906 38.488281 C 599.570312 38.488281 596.75 39.730469 594.773438 41.894531 C 592.789062 44.058594 591.8125 46.972656 592.082031 49.894531 L 593.382812 63.847656 C 593.855469 68.925781 597.910156 72.890625 603.019531 73.269531 C 603.320312 73.292969 603.589844 73.4375 603.773438 73.671875 C 603.953125 73.90625 604.027344 74.207031 603.972656 74.5 C 603.675781 76.085938 603.324219 78.292969 603.175781 79.769531 C 605.007812 78.605469 608.492188 76.050781 611.59375 73.648438 C 611.773438 73.507812 611.996094 73.433594 612.226562 73.429688 L 623.992188 73.300781 C 629.207031 73.300781 633.558594 69.59375 634.347656 64.484375 L 636.53125 50.519531 C 637.003906 47.511719 636.132812 44.453125 634.140625 42.136719 C 632.148438 39.820312 629.25 38.488281 626.1875 38.488281 Z M 602.136719 82.46875 C 601.96875 82.46875 601.855469 82.425781 601.746094 82.378906 C 601.398438 82.242188 601.101562 81.871094 601.050781 81.503906 C 600.882812 80.371094 601.402344 77.046875 601.71875 75.210938 C 596.132812 74.285156 591.832031 69.75 591.296875 64.042969 L 589.996094 50.085938 C 589.671875 46.585938 590.847656 43.085938 593.226562 40.488281 C 595.601562 37.894531 598.980469 36.40625 602.503906 36.40625 L 626.1875 36.40625 C 629.863281 36.40625 633.335938 38 635.726562 40.78125 C 638.117188 43.5625 639.164062 47.230469 638.601562 50.839844 L 636.417969 64.804688 C 635.46875 70.933594 630.25 75.382812 624.003906 75.382812 L 612.601562 75.507812 C 604.78125 81.554688 602.898438 82.46875 602.136719 82.46875 "/>
</g>
<path style=" stroke:none;fill-rule:nonzero;fill:rgb(94.898987%,95.689392%,97.24884%);fill-opacity:1;" d="M 630.253906 100.816406 C 630.078125 100.816406 629.898438 100.777344 629.734375 100.683594 C 629.234375 100.398438 629.058594 99.757812 629.347656 99.257812 C 632.433594 93.875 634 87.730469 633.875 81.496094 C 633.863281 80.921875 634.320312 80.445312 634.902344 80.433594 C 634.90625 80.433594 634.914062 80.433594 634.921875 80.433594 C 635.492188 80.433594 635.957031 80.886719 635.96875 81.457031 C 636.097656 88.066406 634.441406 94.582031 631.160156 100.292969 C 630.96875 100.628906 630.617188 100.816406 630.253906 100.816406 "/>
<g clip-path="url(#clip8)" clip-rule="nonzero">
<path style=" stroke:none;fill-rule:nonzero;fill:rgb(94.898987%,95.689392%,97.24884%);fill-opacity:1;" d="M 630.808594 82.03125 C 630.546875 82.03125 630.289062 81.933594 630.085938 81.742188 C 629.671875 81.34375 629.65625 80.683594 630.058594 80.269531 L 633.289062 76.917969 C 633.691406 76.5 634.234375 76.261719 634.816406 76.25 C 635.375 76.25 635.949219 76.453125 636.371094 76.855469 L 639.734375 80.078125 C 640.148438 80.472656 640.164062 81.136719 639.761719 81.550781 C 639.359375 81.964844 638.699219 81.976562 638.285156 81.578125 L 634.921875 78.359375 C 634.917969 78.359375 634.800781 78.363281 634.800781 78.363281 L 631.566406 81.714844 C 631.363281 81.925781 631.089844 82.03125 630.808594 82.03125 "/>
</g>
<g clip-path="url(#clip9)" clip-rule="nonzero">
<path style=" stroke:none;fill-rule:nonzero;fill:rgb(94.898987%,95.689392%,97.24884%);fill-opacity:1;" d="M 568.675781 44.386719 C 568.339844 44.386719 568.003906 44.226562 567.804688 43.921875 C 567.484375 43.441406 567.613281 42.796875 568.097656 42.476562 C 573.636719 38.828125 580.054688 36.742188 586.648438 36.441406 C 587.222656 36.398438 587.714844 36.863281 587.746094 37.4375 C 587.769531 38.015625 587.320312 38.503906 586.75 38.527344 C 580.523438 38.808594 574.476562 40.773438 569.253906 44.214844 C 569.074219 44.332031 568.875 44.386719 568.675781 44.386719 "/>
</g>
<path style=" stroke:none;fill-rule:nonzero;fill:rgb(94.898987%,95.689392%,97.24884%);fill-opacity:1;" d="M 570.464844 48.109375 C 570.394531 48.109375 570.320312 48.101562 570.25 48.085938 L 565.679688 47.15625 C 565.113281 47.042969 564.617188 46.714844 564.300781 46.230469 C 563.976562 45.742188 563.867188 45.167969 563.980469 44.597656 L 564.914062 40.046875 C 565.03125 39.484375 565.582031 39.121094 566.148438 39.234375 C 566.714844 39.347656 567.078125 39.898438 566.964844 40.464844 L 566.03125 45.015625 C 566.023438 45.050781 566.058594 45.109375 566.097656 45.117188 L 570.671875 46.046875 C 571.234375 46.160156 571.601562 46.707031 571.484375 47.273438 C 571.382812 47.765625 570.949219 48.109375 570.464844 48.109375 "/>
<path style=" stroke:none;fill-rule:nonzero;fill:rgb(94.898987%,95.689392%,97.24884%);fill-opacity:1;" d="M 568.617188 118.878906 C 568.445312 118.878906 568.269531 118.839844 568.109375 118.75 C 562.296875 115.558594 557.464844 110.863281 554.132812 105.179688 C 553.84375 104.6875 554.011719 104.050781 554.511719 103.761719 C 555.007812 103.46875 555.652344 103.636719 555.941406 104.128906 C 559.082031 109.488281 563.636719 113.914062 569.125 116.925781 C 569.628906 117.203125 569.8125 117.835938 569.53125 118.339844 C 569.339844 118.683594 568.984375 118.878906 568.617188 118.878906 "/>
<path style=" stroke:none;fill-rule:nonzero;fill:rgb(94.898987%,95.689392%,97.24884%);fill-opacity:1;" d="M 567.136719 122.730469 C 566.683594 122.730469 566.261719 122.433594 566.132812 121.972656 C 565.972656 121.421875 566.289062 120.84375 566.847656 120.683594 L 571.328125 119.394531 C 571.371094 119.378906 571.398438 119.335938 571.386719 119.285156 L 570.09375 114.824219 C 569.929688 114.269531 570.246094 113.691406 570.808594 113.535156 C 571.363281 113.378906 571.9375 113.691406 572.101562 114.246094 L 573.394531 118.707031 C 573.558594 119.265625 573.492188 119.851562 573.210938 120.359375 C 572.929688 120.867188 572.464844 121.234375 571.90625 121.394531 L 567.425781 122.683594 C 567.328125 122.714844 567.230469 122.730469 567.136719 122.730469 "/>
</g>
</svg>
