<svg width="200" height="205" viewBox="0 0 200 205" fill="none" xmlns="http://www.w3.org/2000/svg">
<path d="M52.124 8.1406C53.8443 9.8444 55.6569 11.448 57.6729 12.7886C67.9563 19.6284 98.5528 36.086 147.08 29.36C207.712 20.9561 198.817 81.9188 190.092 98.1663C181.368 114.414 149.281 144.198 146.586 159.121C143.891 174.044 155.423 214.804 128.402 202.573C101.381 190.342 85.771 161.695 50.3037 165.025C14.8364 168.354 -10.2257 152.638 5.47429 124.558C21.1743 96.4778 39.9449 78.3577 15.9865 47.0801C-7.30687 16.6723 31.9284 -11.8604 52.124 8.1406Z" fill="#DEE9FF"/>
<path d="M113.647 39.6429C113.197 39.1902 112.94 38.5812 112.929 37.9432C112.918 37.3053 113.154 36.6877 113.588 36.2197L129.586 18.9521C129.813 18.7075 130.086 18.5112 130.391 18.3752C130.695 18.2391 131.024 18.1659 131.357 18.1602C131.691 18.1544 132.022 18.2161 132.331 18.3415C132.64 18.467 132.92 18.6536 133.155 18.8902L134.536 20.2809C134.771 20.5175 134.956 20.7992 135.079 21.109C135.202 21.4188 135.261 21.7504 135.253 22.0837C135.245 22.417 135.17 22.7453 135.032 23.0487C134.893 23.3522 134.695 23.6245 134.449 23.8494L117.07 39.7262C116.599 40.1567 115.98 40.3884 115.342 40.3729C114.704 40.3573 114.097 40.0958 113.647 39.6429Z" fill="#418DF9"/>
<path d="M103.521 33.757C103.138 33.5875 102.836 33.2767 102.677 32.8896C102.519 32.5025 102.516 32.0691 102.669 31.6799L108.331 17.3208C108.411 17.1174 108.532 16.9323 108.685 16.7767C108.839 16.6211 109.022 16.4981 109.225 16.4152C109.427 16.3323 109.644 16.2911 109.862 16.2942C110.081 16.2973 110.297 16.3446 110.497 16.4332L111.671 16.954C111.871 17.0426 112.051 17.1706 112.2 17.3305C112.349 17.4904 112.465 17.6788 112.539 17.8844C112.614 18.09 112.646 18.3085 112.633 18.5268C112.621 18.745 112.565 18.9586 112.468 19.1546L105.632 32.9929C105.447 33.3681 105.123 33.6572 104.73 33.7996C104.336 33.942 103.903 33.9267 103.521 33.757Z" fill="#418DF9"/>
<path d="M93.2178 36.104C91.913 36.3389 90.604 35.2193 90.2498 33.5661L83.9705 4.2103C83.5959 2.45596 84.4359 0.787445 85.8201 0.537965L87.749 0.190764C89.133 -0.0584362 90.5031 1.21276 90.763 2.98726L95.1139 32.6901C95.3589 34.3635 94.5226 35.869 93.2178 36.104Z" fill="#418DF9"/>
<path d="M194.712 63.7307L167.018 60.1607C166.552 60.1109 166.081 60.2045 165.67 60.4289C165.258 60.6534 164.924 60.998 164.714 61.4169L157.35 75.9571L126.524 137.608C126.196 138.259 125.647 138.772 124.976 139.055C124.304 139.338 123.553 139.373 122.858 139.152L39.188 112.445C38.9572 112.372 38.7122 112.354 38.4732 112.393C38.2342 112.433 38.008 112.528 37.8132 112.672C37.6183 112.816 37.4605 113.005 37.3526 113.221C37.2447 113.438 37.1898 113.678 37.1925 113.92L37.2309 117.394C37.2356 117.878 37.3926 118.347 37.6795 118.735C37.9665 119.124 38.3687 119.412 38.829 119.559L127.354 147.815C128.341 148.13 129.227 148.7 129.923 149.468C130.618 150.236 131.098 151.174 131.315 152.187L131.344 152.325C132.114 156.555 127.946 160.027 123.838 158.78L26.7673 127.756C26.2694 127.598 25.8404 127.274 25.5515 126.839C25.2626 126.404 25.131 125.883 25.1784 125.362L32.7754 42.4028C32.8136 41.9751 32.9413 41.5601 33.1503 41.185C33.3592 40.8098 33.6447 40.4828 33.9883 40.2251C34.3318 39.9674 34.7257 39.7849 35.1444 39.6893C35.5631 39.5938 35.9972 39.5873 36.4185 39.6704L152.708 62.4194L160.198 47.5341C160.414 47.1134 160.754 46.7692 161.172 46.5479C161.59 46.3267 162.066 46.239 162.536 46.2968L196.449 50.6396C196.75 50.6774 197.04 50.7745 197.303 50.9252C197.566 51.076 197.797 51.2774 197.981 51.5179C198.166 51.7583 198.301 52.033 198.379 52.3261C198.457 52.6191 198.476 52.9247 198.434 53.2251L197.278 61.755C197.198 62.3564 196.883 62.9017 196.402 63.2719C195.921 63.642 195.314 63.8069 194.712 63.7307Z" fill="#699CFF"/>
<path d="M37.4647 98.2416L46.9405 101.266L56.03 55.1744L41.4829 52.9407L37.4647 98.2416Z" fill="#DEE9FF"/>
<path d="M111.813 121.972L121.289 124.997L145.794 73.3843L135.357 70.8561L111.813 121.972Z" fill="#DEE9FF"/>
<path d="M75.3676 110.34L84.1145 113.131L102.851 64.4966L88.5361 61.5341L75.3676 110.34Z" fill="#DEE9FF"/>
<path d="M64.2806 57.0046L78.5951 59.9672L65.8919 107.315L56.4163 104.29L64.2806 57.0046Z" fill="#DEE9FF"/>
<path d="M126.377 68.7931L112.063 65.8304L94.3191 116.388L103.066 119.18L126.377 68.7931Z" fill="#DEE9FF"/>
<path d="M39.2932 157.708C45.4205 157.708 50.3876 152.741 50.3876 146.613C50.3876 140.486 45.4205 135.519 39.2932 135.519C33.1659 135.519 28.1987 140.486 28.1987 146.613C28.1987 152.741 33.1659 157.708 39.2932 157.708Z" fill="#A2BDFF"/>
<path d="M108.539 179.81C114.666 179.81 119.633 174.843 119.633 168.716C119.633 162.588 114.666 157.621 108.539 157.621C102.412 157.621 97.4446 162.588 97.4446 168.716C97.4446 174.843 102.412 179.81 108.539 179.81Z" fill="#A2BDFF"/>
<path d="M199.694 50.1807L170.466 46.5216C170.304 46.5013 170.156 46.6162 170.136 46.7783L168.365 60.9287C168.344 61.0908 168.459 61.2386 168.621 61.2589L197.849 64.918C198.011 64.9383 198.159 64.8234 198.179 64.6613L199.95 50.5108C199.971 50.3488 199.856 50.201 199.694 50.1807Z" fill="#A2BDFF"/>
</svg>
