<?xml version="1.0" encoding="UTF-8"?>
<svg xmlns="http://www.w3.org/2000/svg" xmlns:xlink="http://www.w3.org/1999/xlink" width="1384.5pt" height="149.999998pt" viewBox="0 0 1384.5 149.999998" version="1.2">
<defs>
<clipPath id="clip1">
  <path d="M 0 0.0273438 L 1384 0.0273438 L 1384 149.972656 L 0 149.972656 Z M 0 0.0273438 "/>
</clipPath>
<clipPath id="clip2">
  <path d="M 1169 38.046875 L 1231 38.046875 L 1231 133 L 1169 133 Z M 1169 38.046875 "/>
</clipPath>
<clipPath id="clip3">
  <path d="M 1094.304688 137 L 1305.804688 137 L 1305.804688 149.796875 L 1094.304688 149.796875 Z M 1094.304688 137 "/>
</clipPath>
<clipPath id="clip4">
  <path d="M 119 0.0273438 L 298 0.0273438 L 298 7 L 119 7 Z M 119 0.0273438 "/>
</clipPath>
<clipPath id="clip5">
  <path d="M 15 27 L 38 27 L 38 50.007812 L 15 50.007812 Z M 15 27 "/>
</clipPath>
<clipPath id="clip6">
  <path d="M 16 26.007812 L 39.75 26.007812 L 39.75 50 L 16 50 Z M 16 26.007812 "/>
</clipPath>
<clipPath id="clip7">
  <path d="M 1323 103 L 1331 103 L 1331 121 L 1323 121 Z M 1323 103 "/>
</clipPath>
<clipPath id="clip8">
  <path d="M 1322.695312 120.773438 L 1329.234375 103.203125 L 1333.449219 104.769531 L 1326.914062 122.34375 Z M 1322.695312 120.773438 "/>
</clipPath>
<clipPath id="clip9">
  <path d="M 1322.695312 120.773438 L 1329.234375 103.203125 L 1333.449219 104.769531 L 1326.914062 122.34375 Z M 1322.695312 120.773438 "/>
</clipPath>
<clipPath id="clip10">
  <path d="M 1325 104 L 1333 104 L 1333 122 L 1325 122 Z M 1325 104 "/>
</clipPath>
<clipPath id="clip11">
  <path d="M 1322.695312 120.773438 L 1329.234375 103.203125 L 1333.449219 104.769531 L 1326.914062 122.34375 Z M 1322.695312 120.773438 "/>
</clipPath>
<clipPath id="clip12">
  <path d="M 1322.695312 120.773438 L 1329.234375 103.203125 L 1333.449219 104.769531 L 1326.914062 122.34375 Z M 1322.695312 120.773438 "/>
</clipPath>
<clipPath id="clip13">
  <path d="M 1331 106 L 1339 106 L 1339 124 L 1331 124 Z M 1331 106 "/>
</clipPath>
<clipPath id="clip14">
  <path d="M 1328.605469 122.445312 L 1335.132812 104.867188 L 1339.351562 106.433594 L 1332.824219 124.011719 Z M 1328.605469 122.445312 "/>
</clipPath>
<clipPath id="clip15">
  <path d="M 1339.609375 106.679688 L 1333.082031 124.257812 L 1328.863281 122.691406 L 1335.390625 105.113281 Z M 1339.609375 106.679688 "/>
</clipPath>
<clipPath id="clip16">
  <path d="M 1329 105 L 1337 105 L 1337 123 L 1329 123 Z M 1329 105 "/>
</clipPath>
<clipPath id="clip17">
  <path d="M 1328.605469 122.445312 L 1335.132812 104.867188 L 1339.351562 106.433594 L 1332.824219 124.011719 Z M 1328.605469 122.445312 "/>
</clipPath>
<clipPath id="clip18">
  <path d="M 1339.609375 106.679688 L 1333.082031 124.257812 L 1328.863281 122.691406 L 1335.390625 105.113281 Z M 1339.609375 106.679688 "/>
</clipPath>
<clipPath id="clip19">
  <path d="M 1338 108 L 1345 108 L 1345 126 L 1338 126 Z M 1338 108 "/>
</clipPath>
<clipPath id="clip20">
  <path d="M 1334.894531 124.195312 L 1341.421875 106.621094 L 1345.640625 108.1875 L 1339.113281 125.765625 Z M 1334.894531 124.195312 "/>
</clipPath>
<clipPath id="clip21">
  <path d="M 1345.902344 108.433594 L 1339.371094 126.011719 L 1335.15625 124.441406 L 1341.683594 106.867188 Z M 1345.902344 108.433594 "/>
</clipPath>
<clipPath id="clip22">
  <path d="M 1336 107 L 1343 107 L 1343 125 L 1336 125 Z M 1336 107 "/>
</clipPath>
<clipPath id="clip23">
  <path d="M 1334.894531 124.195312 L 1341.421875 106.621094 L 1345.640625 108.1875 L 1339.113281 125.765625 Z M 1334.894531 124.195312 "/>
</clipPath>
<clipPath id="clip24">
  <path d="M 1345.902344 108.433594 L 1339.371094 126.011719 L 1335.15625 124.441406 L 1341.683594 106.867188 Z M 1345.902344 108.433594 "/>
</clipPath>
</defs>
<g id="surface1">
<g clip-path="url(#clip1)" clip-rule="nonzero">
<path style=" stroke:none;fill-rule:nonzero;fill:rgb(100%,100%,100%);fill-opacity:1;" d="M 0 0.0273438 L 1384.5 0.0273438 L 1384.5 157.527344 L 0 157.527344 Z M 0 0.0273438 "/>
<path style=" stroke:none;fill-rule:nonzero;fill:rgb(100%,100%,100%);fill-opacity:1;" d="M 0 0.0273438 L 1384.5 0.0273438 L 1384.5 150.027344 L 0 150.027344 Z M 0 0.0273438 "/>
<path style=" stroke:none;fill-rule:nonzero;fill:rgb(32.939148%,42.749023%,87.059021%);fill-opacity:1;" d="M 0 0.0273438 L 1384.5 0.0273438 L 1384.5 150.027344 L 0 150.027344 Z M 0 0.0273438 "/>
</g>
<g clip-path="url(#clip2)" clip-rule="nonzero">
<path style=" stroke:none;fill-rule:nonzero;fill:rgb(94.898987%,95.689392%,97.24884%);fill-opacity:1;" d="M 1208.859375 109.480469 C 1208.859375 110.671875 1207.890625 111.636719 1206.699219 111.636719 L 1196.042969 111.636719 C 1194.851562 111.636719 1193.886719 110.671875 1193.886719 109.480469 L 1193.886719 82.714844 L 1188.972656 84.941406 C 1188.375 85.210938 1187.695312 85.195312 1187.109375 84.902344 C 1186.527344 84.605469 1186.109375 84.066406 1185.972656 83.429688 L 1184.195312 75.167969 C 1183.976562 74.164062 1184.496094 73.152344 1185.433594 72.738281 L 1196.824219 67.71875 C 1197.101562 67.597656 1197.394531 67.535156 1197.695312 67.535156 L 1206.699219 67.535156 C 1207.890625 67.535156 1208.859375 68.5 1208.859375 69.691406 Z M 1230.222656 72.683594 L 1230.222656 38.078125 L 1169.886719 38.078125 L 1169.886719 132.695312 L 1230.222656 132.695312 L 1230.222656 72.683594 "/>
</g>
<g clip-path="url(#clip3)" clip-rule="nonzero">
<path style=" stroke:none;fill-rule:nonzero;fill:rgb(94.898987%,95.689392%,97.24884%);fill-opacity:1;" d="M 1167.726562 137.011719 L 1094.304688 137.011719 L 1094.304688 149.765625 L 1305.804688 149.765625 L 1305.804688 137.011719 L 1167.726562 137.011719 "/>
</g>
<path style=" stroke:none;fill-rule:nonzero;fill:rgb(94.898987%,95.689392%,97.24884%);fill-opacity:1;" d="M 1262.441406 126.492188 C 1257.136719 126.492188 1252.042969 125.320312 1248.824219 123.363281 C 1248.015625 122.871094 1247.625 121.910156 1247.855469 120.996094 L 1249.933594 112.726562 C 1250.09375 112.09375 1250.535156 111.566406 1251.128906 111.292969 C 1251.722656 111.023438 1252.410156 111.035156 1252.996094 111.328125 C 1254.597656 112.128906 1258.195312 113.488281 1261.523438 113.488281 C 1263.140625 113.488281 1265.855469 113.21875 1265.855469 111.417969 C 1265.855469 109.355469 1262.824219 108.804688 1261.03125 108.804688 L 1256.867188 108.804688 C 1255.675781 108.804688 1254.707031 107.835938 1254.707031 106.644531 L 1254.707031 98.8125 C 1254.707031 97.621094 1255.675781 96.65625 1256.867188 96.65625 L 1260.785156 96.65625 C 1262.75 96.65625 1264.875 96.097656 1264.875 95.199219 C 1264.875 94.367188 1263.234375 93.988281 1261.707031 93.988281 C 1258.726562 93.988281 1255.503906 95.300781 1254.21875 95.996094 C 1253.632812 96.308594 1252.941406 96.339844 1252.332031 96.078125 C 1251.726562 95.8125 1251.273438 95.285156 1251.105469 94.648438 L 1249.023438 86.75 C 1248.78125 85.828125 1249.171875 84.855469 1249.984375 84.359375 C 1252.691406 82.710938 1258.140625 81.046875 1264.21875 81.046875 C 1273.746094 81.046875 1280.402344 86.085938 1280.402344 93.304688 C 1280.402344 96.988281 1278.882812 100.042969 1276.039062 102.222656 C 1279.472656 104.320312 1281.625 107.914062 1281.625 112.03125 C 1281.625 120.679688 1273.917969 126.492188 1262.441406 126.492188 Z M 1294.875 74.839844 L 1234.539062 74.839844 L 1234.539062 132.695312 L 1294.875 132.695312 L 1294.875 74.839844 "/>
<path style=" stroke:none;fill-rule:nonzero;fill:rgb(94.898987%,95.689392%,97.24884%);fill-opacity:1;" d="M 1150.863281 120.6875 C 1150.863281 121.878906 1149.898438 122.847656 1148.707031 122.847656 L 1119.246094 122.847656 C 1118.050781 122.847656 1117.085938 121.878906 1117.085938 120.6875 L 1117.085938 114.015625 C 1117.085938 113.398438 1117.351562 112.804688 1117.820312 112.394531 L 1123.332031 107.5625 C 1130.941406 100.996094 1134.804688 97.097656 1134.851562 93.96875 C 1134.851562 93.308594 1134.851562 91.199219 1131.066406 91.199219 C 1128.859375 91.199219 1126.421875 92.15625 1123.820312 94.035156 C 1123.273438 94.429688 1122.578125 94.550781 1121.9375 94.355469 C 1121.292969 94.164062 1120.773438 93.683594 1120.535156 93.054688 L 1117.53125 85.15625 C 1117.1875 84.253906 1117.492188 83.230469 1118.269531 82.65625 C 1122.152344 79.785156 1127.761719 78.074219 1133.269531 78.074219 C 1143.550781 78.074219 1150.191406 83.964844 1150.191406 93.085938 C 1150.191406 98.789062 1147.15625 104.160156 1140.921875 109.472656 L 1148.707031 109.472656 C 1149.898438 109.472656 1150.863281 110.4375 1150.863281 111.628906 Z M 1105.234375 62.304688 L 1105.234375 132.695312 L 1165.570312 132.695312 L 1165.570312 62.304688 L 1105.234375 62.304688 "/>
<g clip-path="url(#clip4)" clip-rule="nonzero">
<path style="fill:none;stroke-width:1;stroke-linecap:round;stroke-linejoin:miter;stroke:rgb(87.059021%,87.838745%,87.838745%);stroke-opacity:1;stroke-miterlimit:4;" d="M 0.49995 0.0000445748 L 29.133153 0.0000445748 " transform="matrix(5.998418,0,0,5.999999,119.938589,3.027076)"/>
</g>
<g clip-path="url(#clip5)" clip-rule="nonzero">
<path style=" stroke:none;fill-rule:nonzero;fill:rgb(94.898987%,95.689392%,97.24884%);fill-opacity:1;" d="M 26.40625 27.246094 C 32.707031 27.246094 37.8125 32.34375 37.8125 38.625 C 37.8125 44.910156 32.707031 50.003906 26.40625 50.003906 C 20.105469 50.003906 15 44.910156 15 38.625 C 15 32.34375 20.105469 27.246094 26.40625 27.246094 "/>
</g>
<g clip-path="url(#clip6)" clip-rule="nonzero">
<path style=" stroke:none;fill-rule:nonzero;fill:rgb(64.709473%,83.139038%,86.268616%);fill-opacity:1;" d="M 38.984375 37.765625 C 38.976562 40.054688 38.265625 42.273438 36.945312 44.144531 C 35.675781 45.941406 33.828125 47.335938 31.761719 48.09375 C 29.578125 48.894531 27.175781 48.972656 24.941406 48.347656 C 22.789062 47.746094 20.875 46.464844 19.445312 44.753906 C 16.476562 41.203125 16.152344 36.003906 18.535156 32.0625 C 19.683594 30.164062 21.414062 28.660156 23.433594 27.734375 C 25.523438 26.78125 27.929688 26.535156 30.175781 26.992188 C 32.375 27.4375 34.390625 28.570312 35.941406 30.183594 C 37.503906 31.804688 38.507812 33.890625 38.859375 36.105469 C 38.949219 36.65625 38.980469 37.210938 38.984375 37.769531 C 38.984375 38.261719 39.753906 38.261719 39.75 37.769531 C 39.742188 35.445312 39.054688 33.160156 37.757812 31.226562 C 36.503906 29.351562 34.699219 27.855469 32.625 26.964844 C 30.4375 26.027344 28.015625 25.785156 25.679688 26.226562 C 23.4375 26.652344 21.351562 27.773438 19.71875 29.355469 C 16.339844 32.628906 15.261719 37.785156 17.015625 42.140625 C 17.867188 44.257812 19.324219 46.070312 21.183594 47.390625 C 23.070312 48.734375 25.359375 49.460938 27.671875 49.523438 C 32.332031 49.65625 36.738281 46.886719 38.679688 42.667969 C 39.386719 41.132812 39.746094 39.457031 39.75 37.765625 C 39.753906 37.273438 38.984375 37.273438 38.984375 37.765625 "/>
</g>
<g clip-path="url(#clip7)" clip-rule="nonzero">
<g clip-path="url(#clip8)" clip-rule="nonzero">
<g clip-path="url(#clip9)" clip-rule="nonzero">
<path style=" stroke:none;fill-rule:nonzero;fill:rgb(64.709473%,83.139038%,86.268616%);fill-opacity:1;" d="M 1324.8125 120.171875 C 1324.570312 120.445312 1324.3125 120.582031 1324.109375 120.539062 C 1323.90625 120.496094 1323.777344 120.300781 1323.734375 119.976562 C 1323.703125 119.570312 1323.757812 119.175781 1323.894531 118.789062 C 1324.292969 117.445312 1324.773438 116.101562 1325.214844 114.761719 C 1325.457031 114.011719 1325.691406 113.265625 1325.953125 112.519531 C 1326.210938 111.773438 1326.523438 110.9375 1326.796875 110.175781 C 1327.121094 109.304688 1327.417969 108.410156 1327.734375 107.542969 C 1328.054688 106.675781 1328.355469 105.808594 1328.675781 104.949219 C 1328.804688 104.558594 1329.003906 104.203125 1329.261719 103.882812 C 1329.503906 103.609375 1329.761719 103.472656 1329.964844 103.519531 C 1330.167969 103.5625 1330.296875 103.765625 1330.34375 104.082031 C 1330.378906 104.484375 1330.328125 104.882812 1330.183594 105.269531 C 1329.925781 105.96875 1329.65625 106.691406 1329.390625 107.40625 C 1329.125 108.117188 1328.859375 108.835938 1328.617188 109.558594 C 1328.085938 111.085938 1327.492188 112.59375 1327.007812 114.148438 C 1326.714844 115.054688 1326.417969 115.960938 1326.113281 116.863281 C 1325.859375 117.613281 1325.601562 118.363281 1325.378906 119.117188 L 1325.332031 119.25 C 1325.210938 119.589844 1325.039062 119.894531 1324.8125 120.171875 Z M 1324.8125 120.171875 "/>
</g>
</g>
</g>
<g clip-path="url(#clip10)" clip-rule="nonzero">
<g clip-path="url(#clip11)" clip-rule="nonzero">
<g clip-path="url(#clip12)" clip-rule="nonzero">
<path style=" stroke:none;fill-rule:nonzero;fill:rgb(64.709473%,83.139038%,86.268616%);fill-opacity:1;" d="M 1327.597656 119.808594 Z M 1327.597656 119.808594 Z M 1327.539062 120.238281 L 1327.554688 120.191406 Z M 1326.585938 121.910156 C 1326.429688 122 1326.269531 122.015625 1326.105469 121.960938 C 1325.941406 121.910156 1325.820312 121.800781 1325.746094 121.636719 C 1325.539062 121.210938 1325.800781 120.71875 1325.949219 120.296875 C 1326.46875 118.800781 1326.945312 117.285156 1327.457031 115.78125 C 1328.492188 112.722656 1329.550781 109.675781 1330.632812 106.636719 C 1330.796875 106.089844 1331.042969 105.585938 1331.375 105.128906 C 1331.625 104.820312 1332.113281 104.574219 1332.355469 104.871094 C 1332.4375 104.984375 1332.480469 105.113281 1332.480469 105.261719 C 1332.484375 105.800781 1332.378906 106.320312 1332.167969 106.824219 L 1327.371094 120.710938 C 1327.273438 121.050781 1327.121094 121.363281 1326.90625 121.648438 C 1326.816406 121.757812 1326.710938 121.84375 1326.585938 121.910156 Z M 1326.585938 121.910156 "/>
</g>
</g>
</g>
<g clip-path="url(#clip13)" clip-rule="nonzero">
<g clip-path="url(#clip14)" clip-rule="nonzero">
<g clip-path="url(#clip15)" clip-rule="nonzero">
<path style=" stroke:none;fill-rule:nonzero;fill:rgb(64.709473%,83.139038%,86.268616%);fill-opacity:1;" d="M 1337.496094 107.285156 C 1337.734375 107.011719 1337.992188 106.875 1338.195312 106.917969 C 1338.398438 106.960938 1338.527344 107.15625 1338.570312 107.480469 C 1338.601562 107.882812 1338.546875 108.28125 1338.410156 108.667969 C 1338.011719 110.011719 1337.535156 111.355469 1337.09375 112.695312 C 1336.851562 113.445312 1336.617188 114.191406 1336.359375 114.9375 C 1336.097656 115.683594 1335.785156 116.519531 1335.515625 117.28125 C 1335.191406 118.152344 1334.894531 119.046875 1334.578125 119.914062 C 1334.257812 120.78125 1333.957031 121.648438 1333.640625 122.507812 C 1333.507812 122.902344 1333.3125 123.257812 1333.050781 123.574219 C 1332.808594 123.847656 1332.550781 123.984375 1332.347656 123.941406 C 1332.148438 123.898438 1332.015625 123.695312 1331.972656 123.378906 C 1331.933594 122.972656 1331.984375 122.578125 1332.128906 122.191406 C 1332.390625 121.488281 1332.65625 120.765625 1332.921875 120.054688 C 1333.1875 119.34375 1333.453125 118.621094 1333.691406 117.902344 C 1334.226562 116.375 1334.820312 114.867188 1335.300781 113.308594 C 1335.59375 112.402344 1335.890625 111.5 1336.195312 110.59375 C 1336.445312 109.847656 1336.703125 109.09375 1336.925781 108.339844 L 1336.972656 108.210938 C 1337.09375 107.867188 1337.265625 107.5625 1337.496094 107.285156 Z M 1337.496094 107.285156 "/>
</g>
</g>
</g>
<g clip-path="url(#clip16)" clip-rule="nonzero">
<g clip-path="url(#clip17)" clip-rule="nonzero">
<g clip-path="url(#clip18)" clip-rule="nonzero">
<path style=" stroke:none;fill-rule:nonzero;fill:rgb(64.709473%,83.139038%,86.268616%);fill-opacity:1;" d="M 1334.707031 107.652344 Z M 1334.707031 107.652344 Z M 1334.765625 107.222656 L 1334.75 107.265625 Z M 1335.71875 105.546875 C 1335.875 105.460938 1336.035156 105.441406 1336.199219 105.496094 C 1336.363281 105.546875 1336.484375 105.65625 1336.558594 105.820312 C 1336.765625 106.25 1336.503906 106.738281 1336.359375 107.160156 C 1335.839844 108.65625 1335.363281 110.171875 1334.851562 111.675781 C 1333.820312 114.734375 1332.761719 117.785156 1331.679688 120.824219 C 1331.515625 121.371094 1331.269531 121.871094 1330.9375 122.332031 C 1330.6875 122.636719 1330.203125 122.882812 1329.957031 122.589844 C 1329.875 122.476562 1329.832031 122.347656 1329.832031 122.199219 C 1329.828125 121.660156 1329.933594 121.140625 1330.144531 120.636719 L 1334.933594 106.75 C 1335.03125 106.40625 1335.183594 106.09375 1335.398438 105.8125 C 1335.488281 105.699219 1335.59375 105.613281 1335.71875 105.546875 Z M 1335.71875 105.546875 "/>
</g>
</g>
</g>
<g clip-path="url(#clip19)" clip-rule="nonzero">
<g clip-path="url(#clip20)" clip-rule="nonzero">
<g clip-path="url(#clip21)" clip-rule="nonzero">
<path style=" stroke:none;fill-rule:nonzero;fill:rgb(64.709473%,83.139038%,86.268616%);fill-opacity:1;" d="M 1343.785156 109.035156 C 1344.027344 108.761719 1344.285156 108.628906 1344.488281 108.671875 C 1344.6875 108.714844 1344.820312 108.910156 1344.863281 109.234375 C 1344.894531 109.636719 1344.839844 110.03125 1344.703125 110.417969 C 1344.304688 111.765625 1343.824219 113.109375 1343.386719 114.449219 C 1343.140625 115.195312 1342.90625 115.945312 1342.648438 116.691406 C 1342.390625 117.4375 1342.078125 118.269531 1341.804688 119.03125 C 1341.480469 119.90625 1341.1875 120.800781 1340.867188 121.667969 C 1340.550781 122.535156 1340.25 123.402344 1339.929688 124.261719 C 1339.800781 124.652344 1339.601562 125.011719 1339.34375 125.328125 C 1339.101562 125.601562 1338.84375 125.738281 1338.640625 125.695312 C 1338.4375 125.652344 1338.308594 125.445312 1338.261719 125.128906 C 1338.226562 124.726562 1338.277344 124.332031 1338.417969 123.941406 C 1338.679688 123.242188 1338.949219 122.519531 1339.214844 121.808594 C 1339.476562 121.09375 1339.746094 120.375 1339.984375 119.652344 C 1340.515625 118.125 1341.109375 116.617188 1341.59375 115.0625 C 1341.886719 114.15625 1342.183594 113.25 1342.488281 112.347656 C 1342.738281 111.597656 1342.996094 110.847656 1343.21875 110.089844 L 1343.265625 109.960938 C 1343.386719 109.621094 1343.558594 109.3125 1343.785156 109.035156 Z M 1343.785156 109.035156 "/>
</g>
</g>
</g>
<g clip-path="url(#clip22)" clip-rule="nonzero">
<g clip-path="url(#clip23)" clip-rule="nonzero">
<g clip-path="url(#clip24)" clip-rule="nonzero">
<path style=" stroke:none;fill-rule:nonzero;fill:rgb(64.709473%,83.139038%,86.268616%);fill-opacity:1;" d="M 1341 109.402344 Z M 1341 109.402344 Z M 1341.058594 108.972656 L 1341.042969 109.019531 Z M 1342.007812 107.300781 C 1342.167969 107.210938 1342.328125 107.195312 1342.492188 107.25 C 1342.65625 107.300781 1342.773438 107.410156 1342.847656 107.570312 C 1343.058594 108 1342.796875 108.488281 1342.648438 108.914062 C 1342.132812 110.410156 1341.652344 111.925781 1341.144531 113.429688 C 1340.109375 116.488281 1339.054688 119.535156 1337.972656 122.574219 C 1337.808594 123.121094 1337.5625 123.625 1337.230469 124.085938 C 1336.980469 124.390625 1336.492188 124.636719 1336.246094 124.34375 C 1336.167969 124.230469 1336.125 124.097656 1336.121094 123.953125 C 1336.121094 123.414062 1336.222656 122.890625 1336.4375 122.390625 L 1341.226562 108.5 C 1341.320312 108.160156 1341.476562 107.847656 1341.6875 107.5625 C 1341.78125 107.453125 1341.886719 107.363281 1342.007812 107.300781 Z M 1342.007812 107.300781 "/>
</g>
</g>
</g>
</g>
</svg>
