<?xml version="1.0" standalone="no"?><svg xmlns="http://www.w3.org/2000/svg" viewBox="0 0 1440 320"><path fill="#3949ab" fill-opacity="1" d="M0,224L24,197.3C48,171,96,117,144,117.3C192,117,240,171,288,160C336,149,384,75,432,85.3C480,96,528,192,576,229.3C624,267,672,245,720,229.3C768,213,816,203,864,218.7C912,235,960,277,1008,272C1056,267,1104,213,1152,176C1200,139,1248,117,1296,122.7C1344,128,1392,160,1416,176L1440,192L1440,0L1416,0C1392,0,1344,0,1296,0C1248,0,1200,0,1152,0C1104,0,1056,0,1008,0C960,0,912,0,864,0C816,0,768,0,720,0C672,0,624,0,576,0C528,0,480,0,432,0C384,0,336,0,288,0C240,0,192,0,144,0C96,0,48,0,24,0L0,0Z"></path></svg>