<?xml version="1.0" encoding="UTF-8"?>
<svg xmlns="http://www.w3.org/2000/svg" xmlns:xlink="http://www.w3.org/1999/xlink" width="1188pt" height="296.999993pt" viewBox="0 0 1188 296.999993" version="1.2">
<defs>
<filter id="alpha" filterUnits="objectBoundingBox" x="0%" y="0%" width="100%" height="100%">
  <feColorMatrix type="matrix" in="SourceGraphic" values="0 0 0 0 1 0 0 0 0 1 0 0 0 0 1 0 0 0 1 0"/>
</filter>
<mask id="mask0">
  <g filter="url(#alpha)">
<rect x="0" y="0" width="1188" height="296.999993" style="fill:rgb(0%,0%,0%);fill-opacity:0.1765;stroke:none;"/>
  </g>
</mask>
<clipPath id="clip2">
  <path d="M 0.667969 0 L 262 0 L 262 187.777344 L 0.667969 187.777344 Z M 0.667969 0 "/>
</clipPath>
<clipPath id="clip1">
  <rect x="0" y="0" width="262" height="188"/>
</clipPath>
<g id="surface5" clip-path="url(#clip1)">
<g clip-path="url(#clip2)" clip-rule="nonzero">
<path style=" stroke:none;fill-rule:nonzero;fill:rgb(94.898987%,95.689392%,97.24884%);fill-opacity:1;" d="M 0.667969 -74.722656 L 303.667969 -74.722656 L 303.667969 187.777344 L 0.667969 187.777344 Z M 0.667969 -74.722656 "/>
</g>
</g>
<clipPath id="clip3">
  <path d="M 829.652344 162.878906 L 1023.933594 162.878906 L 1023.933594 173 L 829.652344 173 Z M 829.652344 162.878906 "/>
</clipPath>
<clipPath id="clip4">
  <path d="M 829.652344 176 L 1023.933594 176 L 1023.933594 186 L 829.652344 186 Z M 829.652344 176 "/>
</clipPath>
<clipPath id="clip5">
  <path d="M 829.652344 189 L 1023.933594 189 L 1023.933594 199.425781 L 829.652344 199.425781 Z M 829.652344 189 "/>
</clipPath>
<clipPath id="clip6">
  <path d="M 829.652344 202.5625 L 1023.933594 202.5625 L 1023.933594 212.375 L 829.652344 212.375 Z M 829.652344 202.5625 "/>
</clipPath>
<clipPath id="clip7">
  <path d="M 33.449219 31 L 76 31 L 76 73.949219 L 33.449219 73.949219 Z M 33.449219 31 "/>
</clipPath>
<clipPath id="clip8">
  <path d="M 35 29.699219 L 79.199219 29.699219 L 79.199219 73.949219 L 35 73.949219 Z M 35 29.699219 "/>
</clipPath>
<clipPath id="clip9">
  <path d="M 1115 240 L 1129 240 L 1129 274 L 1115 274 Z M 1115 240 "/>
</clipPath>
<clipPath id="clip10">
  <path d="M 1113.859375 273.605469 L 1126.410156 239.863281 L 1134.847656 243 L 1122.296875 276.742188 Z M 1113.859375 273.605469 "/>
</clipPath>
<clipPath id="clip11">
  <path d="M 1113.859375 273.605469 L 1126.410156 239.863281 L 1134.847656 243 L 1122.296875 276.742188 Z M 1113.859375 273.605469 "/>
</clipPath>
<clipPath id="clip12">
  <path d="M 1119 242 L 1133 242 L 1133 277 L 1119 277 Z M 1119 242 "/>
</clipPath>
<clipPath id="clip13">
  <path d="M 1113.859375 273.605469 L 1126.410156 239.863281 L 1134.847656 243 L 1122.296875 276.742188 Z M 1113.859375 273.605469 "/>
</clipPath>
<clipPath id="clip14">
  <path d="M 1113.859375 273.605469 L 1126.410156 239.863281 L 1134.847656 243 L 1122.296875 276.742188 Z M 1113.859375 273.605469 "/>
</clipPath>
<clipPath id="clip15">
  <path d="M 1131 247 L 1145 247 L 1145 280 L 1131 280 Z M 1131 247 "/>
</clipPath>
<clipPath id="clip16">
  <path d="M 1125.167969 276.800781 L 1137.703125 243.050781 L 1146.140625 246.1875 L 1133.605469 279.933594 Z M 1125.167969 276.800781 "/>
</clipPath>
<clipPath id="clip17">
  <path d="M 1146.25 246.628906 L 1133.71875 280.375 L 1125.28125 277.242188 L 1137.8125 243.492188 Z M 1146.25 246.628906 "/>
</clipPath>
<clipPath id="clip18">
  <path d="M 1127 244 L 1141 244 L 1141 278 L 1127 278 Z M 1127 244 "/>
</clipPath>
<clipPath id="clip19">
  <path d="M 1125.167969 276.800781 L 1137.703125 243.050781 L 1146.140625 246.1875 L 1133.605469 279.933594 Z M 1125.167969 276.800781 "/>
</clipPath>
<clipPath id="clip20">
  <path d="M 1146.25 246.628906 L 1133.71875 280.375 L 1125.28125 277.242188 L 1137.8125 243.492188 Z M 1146.25 246.628906 "/>
</clipPath>
<clipPath id="clip21">
  <path d="M 1143 250 L 1157 250 L 1157 284 L 1143 284 Z M 1143 250 "/>
</clipPath>
<clipPath id="clip22">
  <path d="M 1137.214844 280.15625 L 1149.746094 246.40625 L 1158.183594 249.539062 L 1145.652344 283.289062 Z M 1137.214844 280.15625 "/>
</clipPath>
<clipPath id="clip23">
  <path d="M 1158.296875 249.980469 L 1145.761719 283.730469 L 1137.324219 280.597656 L 1149.859375 246.847656 Z M 1158.296875 249.980469 "/>
</clipPath>
<clipPath id="clip24">
  <path d="M 1139 247 L 1153 247 L 1153 281 L 1139 281 Z M 1139 247 "/>
</clipPath>
<clipPath id="clip25">
  <path d="M 1137.214844 280.15625 L 1149.746094 246.40625 L 1158.183594 249.539062 L 1145.652344 283.289062 Z M 1137.214844 280.15625 "/>
</clipPath>
<clipPath id="clip26">
  <path d="M 1158.296875 249.980469 L 1145.761719 283.730469 L 1137.324219 280.597656 L 1149.859375 246.847656 Z M 1158.296875 249.980469 "/>
</clipPath>
</defs>
<g id="surface1">
<rect x="0" y="0" width="1188" height="296.999993" style="fill:rgb(100%,100%,100%);fill-opacity:1;stroke:none;"/>
<rect x="0" y="0" width="1188" height="296.999993" style="fill:rgb(100%,100%,100%);fill-opacity:1;stroke:none;"/>
<rect x="0" y="0" width="1188" height="296.999993" style="fill:rgb(25.878906%,41.178894%,84.709167%);fill-opacity:1;stroke:none;"/>
<use xlink:href="#surface5" transform="matrix(1,0,0,1,926,0)" mask="url(#mask0)"/>
<g clip-path="url(#clip3)" clip-rule="nonzero">
<path style=" stroke:none;fill-rule:nonzero;fill:rgb(94.898987%,95.689392%,97.24884%);fill-opacity:1;" d="M 1016.640625 166.640625 C 1015.210938 168.164062 1014.082031 169.367188 1011.742188 169.367188 C 1009.40625 169.367188 1008.273438 168.164062 1006.84375 166.640625 C 1005.269531 164.960938 1003.316406 162.878906 999.558594 162.878906 C 995.808594 162.878906 993.855469 164.960938 992.28125 166.632812 C 990.851562 168.164062 989.722656 169.367188 987.386719 169.367188 C 985.070312 169.367188 983.949219 168.164062 982.523438 166.640625 C 980.953125 164.960938 979.007812 162.878906 975.253906 162.878906 C 971.5 162.878906 969.546875 164.960938 967.972656 166.640625 C 966.550781 168.164062 965.425781 169.367188 963.101562 169.367188 C 960.777344 169.367188 959.652344 168.164062 958.226562 166.640625 C 956.65625 164.960938 954.707031 162.878906 950.957031 162.878906 C 947.210938 162.878906 945.261719 164.960938 943.691406 166.640625 C 942.273438 168.164062 941.148438 169.367188 938.832031 169.367188 C 936.503906 169.367188 935.382812 168.164062 933.957031 166.640625 C 932.382812 164.960938 930.4375 162.878906 926.6875 162.878906 C 922.945312 162.878906 920.996094 164.960938 919.433594 166.640625 C 918.015625 168.164062 916.894531 169.367188 914.578125 169.367188 C 912.261719 169.367188 911.136719 168.164062 909.710938 166.640625 C 908.140625 164.960938 906.191406 162.878906 902.445312 162.878906 C 898.695312 162.878906 896.746094 164.960938 895.175781 166.640625 C 893.75 168.164062 892.628906 169.367188 890.304688 169.367188 C 887.984375 169.367188 886.859375 168.164062 885.441406 166.640625 C 883.871094 164.960938 881.925781 162.878906 878.171875 162.878906 C 874.425781 162.878906 872.476562 164.960938 870.90625 166.640625 C 869.480469 168.164062 868.355469 169.367188 866.039062 169.367188 C 863.722656 169.367188 862.59375 168.164062 861.175781 166.640625 C 859.613281 164.960938 857.660156 162.878906 853.917969 162.878906 C 850.167969 162.878906 848.222656 164.960938 846.648438 166.640625 C 845.222656 168.164062 844.101562 169.367188 841.773438 169.367188 C 839.457031 169.367188 838.332031 168.164062 836.914062 166.640625 C 835.351562 164.960938 833.394531 162.878906 829.652344 162.878906 L 829.652344 166.121094 C 831.96875 166.121094 833.097656 167.328125 834.515625 168.847656 C 836.078125 170.53125 838.03125 172.613281 841.773438 172.613281 C 845.527344 172.613281 847.476562 170.53125 849.050781 168.847656 C 850.472656 167.328125 851.597656 166.121094 853.917969 166.121094 C 856.234375 166.121094 857.359375 167.328125 858.777344 168.847656 C 860.339844 170.53125 862.296875 172.613281 866.039062 172.613281 C 869.789062 172.613281 871.738281 170.53125 873.308594 168.847656 C 874.730469 167.328125 875.855469 166.121094 878.171875 166.121094 C 880.496094 166.121094 881.617188 167.328125 883.042969 168.847656 C 884.613281 170.53125 886.558594 172.613281 890.304688 172.613281 C 894.050781 172.613281 896.007812 170.53125 897.574219 168.847656 C 899 167.328125 900.125 166.121094 902.445312 166.121094 C 904.761719 166.121094 905.882812 167.328125 907.308594 168.847656 C 908.882812 170.53125 910.828125 172.613281 914.578125 172.613281 C 918.324219 172.613281 920.269531 170.53125 921.835938 168.847656 C 923.253906 167.328125 924.375 166.121094 926.6875 166.121094 C 929.007812 166.121094 930.132812 167.328125 931.554688 168.847656 C 933.128906 170.53125 935.082031 172.613281 938.832031 172.613281 C 942.574219 172.613281 944.523438 170.53125 946.09375 168.847656 C 947.519531 167.328125 948.640625 166.121094 950.957031 166.121094 C 953.277344 166.121094 954.402344 167.328125 955.828125 168.847656 C 957.394531 170.53125 959.351562 172.613281 963.101562 172.613281 C 966.851562 172.613281 968.804688 170.53125 970.367188 168.847656 C 971.796875 167.328125 972.925781 166.121094 975.253906 166.121094 C 977.570312 166.121094 978.699219 167.328125 980.125 168.847656 C 981.691406 170.53125 983.640625 172.613281 987.386719 172.613281 C 991.148438 172.613281 993.101562 170.53125 994.679688 168.847656 C 996.105469 167.328125 997.234375 166.121094 999.558594 166.121094 C 1001.894531 166.121094 1003.027344 167.328125 1004.457031 168.847656 C 1006.027344 170.53125 1007.988281 172.613281 1011.742188 172.613281 C 1015.5 172.613281 1017.457031 170.53125 1019.03125 168.847656 C 1020.460938 167.328125 1021.59375 166.121094 1023.929688 166.121094 L 1023.929688 162.878906 C 1020.175781 162.878906 1018.214844 164.960938 1016.640625 166.640625 "/>
</g>
<g clip-path="url(#clip4)" clip-rule="nonzero">
<path style=" stroke:none;fill-rule:nonzero;fill:rgb(94.898987%,95.689392%,97.24884%);fill-opacity:1;" d="M 1016.640625 179.894531 C 1015.210938 181.417969 1014.082031 182.621094 1011.742188 182.621094 C 1009.40625 182.621094 1008.273438 181.417969 1006.84375 179.894531 C 1005.269531 178.214844 1003.316406 176.125 999.558594 176.125 C 995.808594 176.125 993.855469 178.214844 992.28125 179.886719 C 990.851562 181.417969 989.722656 182.621094 987.386719 182.621094 C 985.070312 182.621094 983.949219 181.417969 982.523438 179.894531 C 980.953125 178.214844 979.007812 176.125 975.253906 176.125 C 971.5 176.125 969.546875 178.214844 967.972656 179.894531 C 966.550781 181.417969 965.425781 182.621094 963.101562 182.621094 C 960.777344 182.621094 959.652344 181.417969 958.226562 179.894531 C 956.65625 178.214844 954.707031 176.125 950.957031 176.125 C 947.210938 176.125 945.261719 178.214844 943.691406 179.894531 C 942.273438 181.417969 941.148438 182.621094 938.832031 182.621094 C 936.503906 182.621094 935.382812 181.417969 933.957031 179.894531 C 932.382812 178.214844 930.4375 176.125 926.6875 176.125 C 922.945312 176.125 920.996094 178.214844 919.433594 179.894531 C 918.015625 181.417969 916.894531 182.621094 914.578125 182.621094 C 912.261719 182.621094 911.136719 181.417969 909.710938 179.894531 C 908.140625 178.214844 906.191406 176.125 902.445312 176.125 C 898.695312 176.125 896.746094 178.214844 895.175781 179.894531 C 893.75 181.417969 892.628906 182.621094 890.304688 182.621094 C 887.984375 182.621094 886.859375 181.417969 885.441406 179.894531 C 883.871094 178.214844 881.925781 176.125 878.171875 176.125 C 874.425781 176.125 872.476562 178.214844 870.90625 179.894531 C 869.480469 181.417969 868.355469 182.621094 866.039062 182.621094 C 863.722656 182.621094 862.59375 181.417969 861.175781 179.894531 C 859.613281 178.214844 857.660156 176.125 853.917969 176.125 C 850.167969 176.125 848.222656 178.214844 846.648438 179.894531 C 845.222656 181.417969 844.101562 182.621094 841.773438 182.621094 C 839.457031 182.621094 838.332031 181.417969 836.914062 179.894531 C 835.351562 178.214844 833.394531 176.125 829.652344 176.125 L 829.652344 179.375 C 831.96875 179.375 833.097656 180.578125 834.515625 182.097656 C 836.078125 183.78125 838.03125 185.867188 841.773438 185.867188 C 845.527344 185.867188 847.476562 183.78125 849.050781 182.097656 C 850.472656 180.578125 851.597656 179.375 853.917969 179.375 C 856.234375 179.375 857.359375 180.578125 858.777344 182.097656 C 860.339844 183.78125 862.296875 185.867188 866.039062 185.867188 C 869.789062 185.867188 871.738281 183.78125 873.308594 182.097656 C 874.730469 180.578125 875.855469 179.375 878.171875 179.375 C 880.496094 179.375 881.617188 180.578125 883.042969 182.097656 C 884.613281 183.78125 886.558594 185.867188 890.304688 185.867188 C 894.050781 185.867188 896.007812 183.78125 897.574219 182.097656 C 899 180.578125 900.125 179.375 902.445312 179.375 C 904.761719 179.375 905.882812 180.578125 907.308594 182.097656 C 908.882812 183.78125 910.828125 185.867188 914.578125 185.867188 C 918.324219 185.867188 920.269531 183.78125 921.835938 182.097656 C 923.253906 180.578125 924.375 179.375 926.6875 179.375 C 929.007812 179.375 930.132812 180.578125 931.554688 182.097656 C 933.128906 183.78125 935.082031 185.867188 938.832031 185.867188 C 942.574219 185.867188 944.523438 183.78125 946.09375 182.097656 C 947.519531 180.578125 948.640625 179.375 950.957031 179.375 C 953.277344 179.375 954.402344 180.578125 955.828125 182.097656 C 957.394531 183.78125 959.351562 185.867188 963.101562 185.867188 C 966.851562 185.867188 968.804688 183.78125 970.367188 182.097656 C 971.796875 180.578125 972.925781 179.375 975.253906 179.375 C 977.570312 179.375 978.699219 180.578125 980.125 182.097656 C 981.691406 183.78125 983.640625 185.867188 987.386719 185.867188 C 991.148438 185.867188 993.101562 183.78125 994.679688 182.097656 C 996.105469 180.578125 997.234375 179.375 999.558594 179.375 C 1001.894531 179.375 1003.027344 180.578125 1004.457031 182.097656 C 1006.027344 183.78125 1007.988281 185.867188 1011.742188 185.867188 C 1015.5 185.867188 1017.457031 183.78125 1019.03125 182.097656 C 1020.460938 180.578125 1021.59375 179.375 1023.929688 179.375 L 1023.929688 176.125 C 1020.175781 176.125 1018.214844 178.214844 1016.640625 179.894531 "/>
</g>
<g clip-path="url(#clip5)" clip-rule="nonzero">
<path style=" stroke:none;fill-rule:nonzero;fill:rgb(94.898987%,95.689392%,97.24884%);fill-opacity:1;" d="M 1016.640625 193.144531 C 1015.210938 194.667969 1014.082031 195.871094 1011.742188 195.871094 C 1009.40625 195.871094 1008.273438 194.667969 1006.84375 193.144531 C 1005.269531 191.464844 1003.316406 189.378906 999.558594 189.378906 C 995.808594 189.378906 993.855469 191.464844 992.28125 193.140625 C 990.851562 194.667969 989.722656 195.871094 987.386719 195.871094 C 985.070312 195.871094 983.949219 194.667969 982.523438 193.144531 C 980.953125 191.464844 979.007812 189.378906 975.253906 189.378906 C 971.5 189.378906 969.546875 191.464844 967.972656 193.144531 C 966.550781 194.667969 965.425781 195.871094 963.101562 195.871094 C 960.777344 195.871094 959.652344 194.667969 958.226562 193.144531 C 956.65625 191.464844 954.707031 189.378906 950.957031 189.378906 C 947.210938 189.378906 945.261719 191.464844 943.691406 193.144531 C 942.273438 194.667969 941.148438 195.871094 938.832031 195.871094 C 936.503906 195.871094 935.382812 194.667969 933.957031 193.144531 C 932.382812 191.464844 930.4375 189.378906 926.6875 189.378906 C 922.945312 189.378906 920.996094 191.464844 919.433594 193.144531 C 918.015625 194.667969 916.894531 195.871094 914.578125 195.871094 C 912.261719 195.871094 911.136719 194.667969 909.710938 193.144531 C 908.140625 191.464844 906.191406 189.378906 902.445312 189.378906 C 898.695312 189.378906 896.746094 191.464844 895.175781 193.144531 C 893.75 194.667969 892.628906 195.871094 890.304688 195.871094 C 887.984375 195.871094 886.859375 194.667969 885.441406 193.144531 C 883.871094 191.464844 881.925781 189.378906 878.171875 189.378906 C 874.425781 189.378906 872.476562 191.464844 870.90625 193.144531 C 869.480469 194.667969 868.355469 195.871094 866.039062 195.871094 C 863.722656 195.871094 862.59375 194.667969 861.175781 193.144531 C 859.613281 191.464844 857.660156 189.378906 853.917969 189.378906 C 850.167969 189.378906 848.222656 191.464844 846.648438 193.144531 C 845.222656 194.667969 844.101562 195.871094 841.773438 195.871094 C 839.457031 195.871094 838.332031 194.667969 836.914062 193.144531 C 835.351562 191.464844 833.394531 189.378906 829.652344 189.378906 L 829.652344 192.628906 C 831.96875 192.628906 833.097656 193.832031 834.515625 195.351562 C 836.078125 197.03125 838.03125 199.117188 841.773438 199.117188 C 845.527344 199.117188 847.476562 197.03125 849.050781 195.351562 C 850.472656 193.832031 851.597656 192.628906 853.917969 192.628906 C 856.234375 192.628906 857.359375 193.832031 858.777344 195.351562 C 860.339844 197.03125 862.296875 199.117188 866.039062 199.117188 C 869.789062 199.117188 871.738281 197.03125 873.308594 195.351562 C 874.730469 193.832031 875.855469 192.628906 878.171875 192.628906 C 880.496094 192.628906 881.617188 193.832031 883.042969 195.351562 C 884.613281 197.03125 886.558594 199.117188 890.304688 199.117188 C 894.050781 199.117188 896.007812 197.03125 897.574219 195.351562 C 899 193.832031 900.125 192.628906 902.445312 192.628906 C 904.761719 192.628906 905.882812 193.832031 907.308594 195.351562 C 908.882812 197.03125 910.828125 199.117188 914.578125 199.117188 C 918.324219 199.117188 920.269531 197.03125 921.835938 195.351562 C 923.253906 193.832031 924.375 192.628906 926.6875 192.628906 C 929.007812 192.628906 930.132812 193.832031 931.554688 195.351562 C 933.128906 197.03125 935.082031 199.117188 938.832031 199.117188 C 942.574219 199.117188 944.523438 197.03125 946.09375 195.351562 C 947.519531 193.832031 948.640625 192.628906 950.957031 192.628906 C 953.277344 192.628906 954.402344 193.832031 955.828125 195.351562 C 957.394531 197.03125 959.351562 199.117188 963.101562 199.117188 C 966.851562 199.117188 968.804688 197.03125 970.367188 195.351562 C 971.796875 193.832031 972.925781 192.628906 975.253906 192.628906 C 977.570312 192.628906 978.699219 193.832031 980.125 195.351562 C 981.691406 197.03125 983.640625 199.117188 987.386719 199.117188 C 991.148438 199.117188 993.101562 197.03125 994.679688 195.351562 C 996.105469 193.832031 997.234375 192.628906 999.558594 192.628906 C 1001.894531 192.628906 1003.027344 193.832031 1004.457031 195.351562 C 1006.027344 197.03125 1007.988281 199.117188 1011.742188 199.117188 C 1015.5 199.117188 1017.457031 197.03125 1019.03125 195.351562 C 1020.460938 193.832031 1021.59375 192.628906 1023.929688 192.628906 L 1023.929688 189.378906 C 1020.175781 189.378906 1018.214844 191.464844 1016.640625 193.144531 "/>
</g>
<g clip-path="url(#clip6)" clip-rule="nonzero">
<path style=" stroke:none;fill-rule:nonzero;fill:rgb(94.898987%,95.689392%,97.24884%);fill-opacity:1;" d="M 1016.640625 206.402344 C 1015.210938 207.925781 1014.082031 209.132812 1011.742188 209.132812 C 1009.40625 209.132812 1008.273438 207.925781 1006.84375 206.402344 C 1005.269531 204.722656 1003.316406 202.636719 999.558594 202.636719 C 995.808594 202.636719 993.855469 204.722656 992.28125 206.398438 C 990.851562 207.925781 989.722656 209.132812 987.386719 209.132812 C 985.070312 209.132812 983.949219 207.925781 982.523438 206.402344 C 980.953125 204.722656 979.007812 202.636719 975.253906 202.636719 C 971.5 202.636719 969.546875 204.722656 967.972656 206.402344 C 966.550781 207.925781 965.425781 209.132812 963.101562 209.132812 C 960.777344 209.132812 959.652344 207.925781 958.226562 206.402344 C 956.65625 204.722656 954.707031 202.636719 950.957031 202.636719 C 947.210938 202.636719 945.261719 204.722656 943.691406 206.402344 C 942.273438 207.925781 941.148438 209.132812 938.832031 209.132812 C 936.503906 209.132812 935.382812 207.925781 933.957031 206.402344 C 932.382812 204.722656 930.4375 202.636719 926.6875 202.636719 C 922.945312 202.636719 920.996094 204.722656 919.433594 206.402344 C 918.015625 207.925781 916.894531 209.132812 914.578125 209.132812 C 912.261719 209.132812 911.136719 207.925781 909.710938 206.402344 C 908.140625 204.722656 906.191406 202.636719 902.445312 202.636719 C 898.695312 202.636719 896.746094 204.722656 895.175781 206.402344 C 893.75 207.925781 892.628906 209.132812 890.304688 209.132812 C 887.984375 209.132812 886.859375 207.925781 885.441406 206.402344 C 883.871094 204.722656 881.925781 202.636719 878.171875 202.636719 C 874.425781 202.636719 872.476562 204.722656 870.90625 206.402344 C 869.480469 207.925781 868.355469 209.132812 866.039062 209.132812 C 863.722656 209.132812 862.59375 207.925781 861.175781 206.402344 C 859.613281 204.722656 857.660156 202.636719 853.917969 202.636719 C 850.167969 202.636719 848.222656 204.722656 846.648438 206.402344 C 845.222656 207.925781 844.101562 209.132812 841.773438 209.132812 C 839.457031 209.132812 838.332031 207.925781 836.914062 206.402344 C 835.351562 204.722656 833.394531 202.636719 829.652344 202.636719 L 829.652344 205.886719 C 831.96875 205.886719 833.097656 207.089844 834.515625 208.609375 C 836.078125 210.289062 838.03125 212.375 841.773438 212.375 C 845.527344 212.375 847.476562 210.289062 849.050781 208.609375 C 850.472656 207.089844 851.597656 205.886719 853.917969 205.886719 C 856.234375 205.886719 857.359375 207.089844 858.777344 208.609375 C 860.339844 210.289062 862.296875 212.375 866.039062 212.375 C 869.789062 212.375 871.738281 210.289062 873.308594 208.609375 C 874.730469 207.089844 875.855469 205.886719 878.171875 205.886719 C 880.496094 205.886719 881.617188 207.089844 883.042969 208.609375 C 884.613281 210.289062 886.558594 212.375 890.304688 212.375 C 894.050781 212.375 896.007812 210.289062 897.574219 208.609375 C 899 207.089844 900.125 205.886719 902.445312 205.886719 C 904.761719 205.886719 905.882812 207.089844 907.308594 208.609375 C 908.882812 210.289062 910.828125 212.375 914.578125 212.375 C 918.324219 212.375 920.269531 210.289062 921.835938 208.609375 C 923.253906 207.089844 924.375 205.886719 926.6875 205.886719 C 929.007812 205.886719 930.132812 207.089844 931.554688 208.609375 C 933.128906 210.289062 935.082031 212.375 938.832031 212.375 C 942.574219 212.375 944.523438 210.289062 946.09375 208.609375 C 947.519531 207.089844 948.640625 205.886719 950.957031 205.886719 C 953.277344 205.886719 954.402344 207.089844 955.828125 208.609375 C 957.394531 210.289062 959.351562 212.375 963.101562 212.375 C 966.851562 212.375 968.804688 210.289062 970.367188 208.609375 C 971.796875 207.089844 972.925781 205.886719 975.253906 205.886719 C 977.570312 205.886719 978.699219 207.089844 980.125 208.609375 C 981.691406 210.289062 983.640625 212.375 987.386719 212.375 C 991.148438 212.375 993.101562 210.289062 994.679688 208.609375 C 996.105469 207.089844 997.234375 205.886719 999.558594 205.886719 C 1001.894531 205.886719 1003.027344 207.089844 1004.457031 208.609375 C 1006.027344 210.289062 1007.988281 212.375 1011.742188 212.375 C 1015.5 212.375 1017.457031 210.289062 1019.03125 208.609375 C 1020.460938 207.089844 1021.59375 205.886719 1023.929688 205.886719 L 1023.929688 202.636719 C 1020.175781 202.636719 1018.214844 204.722656 1016.640625 206.402344 "/>
</g>
<path style="fill:none;stroke-width:1;stroke-linecap:round;stroke-linejoin:miter;stroke:rgb(87.059021%,87.838745%,87.838745%);stroke-opacity:1;stroke-miterlimit:4;" d="M 0.499907 0.0000000108726 L 13.322979 0.0000000108726 " transform="matrix(11.232195,0,0,11.249999,252.166198,1.875)"/>
<g clip-path="url(#clip7)" clip-rule="nonzero">
<path style=" stroke:none;fill-rule:nonzero;fill:rgb(94.898987%,95.689392%,97.24884%);fill-opacity:1;" d="M 54.535156 31.988281 C 66.179688 31.988281 75.621094 41.378906 75.621094 52.960938 C 75.621094 64.546875 66.179688 73.9375 54.535156 73.9375 C 42.890625 73.9375 33.449219 64.546875 33.449219 52.960938 C 33.449219 41.378906 42.890625 31.988281 54.535156 31.988281 "/>
</g>
<g clip-path="url(#clip8)" clip-rule="nonzero">
<path style=" stroke:none;fill-rule:nonzero;fill:rgb(64.709473%,83.139038%,86.268616%);fill-opacity:1;" d="M 77.78125 51.378906 C 77.769531 55.597656 76.453125 59.683594 74.015625 63.128906 C 71.667969 66.449219 68.253906 69.015625 64.429688 70.414062 C 60.402344 71.886719 55.953125 72.03125 51.828125 70.878906 C 47.847656 69.769531 44.304688 67.40625 41.667969 64.257812 C 36.179688 57.710938 35.578125 48.125 39.980469 40.867188 C 42.105469 37.359375 45.308594 34.589844 49.039062 32.886719 C 52.898438 31.125 57.347656 30.679688 61.5 31.515625 C 65.566406 32.339844 69.289062 34.425781 72.160156 37.398438 C 75.046875 40.386719 76.90625 44.234375 77.558594 48.316406 C 77.71875 49.328125 77.78125 50.355469 77.78125 51.378906 C 77.785156 52.289062 79.203125 52.289062 79.199219 51.378906 C 79.1875 47.097656 77.914062 42.882812 75.519531 39.320312 C 73.195312 35.867188 69.867188 33.109375 66.027344 31.46875 C 61.988281 29.742188 57.503906 29.289062 53.1875 30.109375 C 49.046875 30.890625 45.191406 32.960938 42.171875 35.878906 C 35.925781 41.910156 33.929688 51.414062 37.175781 59.441406 C 38.75 63.339844 41.445312 66.683594 44.878906 69.117188 C 48.367188 71.589844 52.601562 72.933594 56.875 73.050781 C 65.492188 73.289062 73.632812 68.191406 77.21875 60.414062 C 78.527344 57.582031 79.191406 54.492188 79.199219 51.378906 C 79.203125 50.46875 77.785156 50.472656 77.78125 51.378906 "/>
</g>
<g clip-path="url(#clip9)" clip-rule="nonzero">
<g clip-path="url(#clip10)" clip-rule="nonzero">
<g clip-path="url(#clip11)" clip-rule="nonzero">
<path style=" stroke:none;fill-rule:nonzero;fill:rgb(64.709473%,83.139038%,86.268616%);fill-opacity:1;" d="M 1118.054688 272.496094 C 1117.582031 273.019531 1117.074219 273.273438 1116.671875 273.183594 C 1116.269531 273.097656 1116.003906 272.714844 1115.914062 272.089844 C 1115.839844 271.3125 1115.9375 270.550781 1116.203125 269.804688 C 1116.957031 267.21875 1117.878906 264.640625 1118.71875 262.0625 C 1119.1875 260.628906 1119.632812 259.191406 1120.128906 257.757812 C 1120.625 256.324219 1121.230469 254.726562 1121.75 253.261719 C 1122.375 251.585938 1122.9375 249.871094 1123.550781 248.207031 C 1124.164062 246.539062 1124.738281 244.875 1125.351562 243.226562 C 1125.605469 242.46875 1125.984375 241.789062 1126.496094 241.183594 C 1126.96875 240.660156 1127.476562 240.40625 1127.878906 240.492188 C 1128.28125 240.582031 1128.546875 240.980469 1128.644531 241.589844 C 1128.730469 242.371094 1128.636719 243.132812 1128.363281 243.878906 C 1127.859375 245.222656 1127.34375 246.613281 1126.835938 247.980469 C 1126.328125 249.347656 1125.8125 250.726562 1125.359375 252.113281 C 1124.332031 255.042969 1123.191406 257.9375 1122.269531 260.929688 C 1121.710938 262.671875 1121.140625 264.410156 1120.558594 266.144531 C 1120.074219 267.582031 1119.582031 269.023438 1119.160156 270.476562 L 1119.066406 270.726562 C 1118.835938 271.378906 1118.5 271.96875 1118.054688 272.496094 Z M 1118.054688 272.496094 "/>
</g>
</g>
</g>
<g clip-path="url(#clip12)" clip-rule="nonzero">
<g clip-path="url(#clip13)" clip-rule="nonzero">
<g clip-path="url(#clip14)" clip-rule="nonzero">
<path style=" stroke:none;fill-rule:nonzero;fill:rgb(64.709473%,83.139038%,86.268616%);fill-opacity:1;" d="M 1123.585938 271.863281 Z M 1123.585938 271.863281 Z M 1123.480469 272.6875 L 1123.511719 272.601562 Z M 1121.628906 275.894531 C 1121.480469 275.976562 1121.324219 276.023438 1121.15625 276.035156 C 1120.992188 276.050781 1120.828125 276.03125 1120.671875 275.980469 C 1120.515625 275.929688 1120.375 275.851562 1120.25 275.742188 C 1120.125 275.628906 1120.027344 275.5 1119.953125 275.347656 C 1119.523438 274.515625 1120.035156 273.578125 1120.316406 272.761719 C 1121.3125 269.890625 1122.226562 266.980469 1123.203125 264.09375 C 1125.179688 258.21875 1127.207031 252.363281 1129.285156 246.527344 C 1129.59375 245.480469 1130.074219 244.515625 1130.722656 243.636719 C 1131.214844 243.050781 1132.175781 242.589844 1132.667969 243.164062 C 1132.832031 243.386719 1132.917969 243.636719 1132.925781 243.917969 C 1132.945312 244.960938 1132.75 245.964844 1132.339844 246.929688 L 1123.15625 273.597656 C 1122.972656 274.253906 1122.675781 274.855469 1122.257812 275.394531 C 1122.082031 275.605469 1121.871094 275.773438 1121.628906 275.894531 Z M 1121.628906 275.894531 "/>
</g>
</g>
</g>
<g clip-path="url(#clip15)" clip-rule="nonzero">
<g clip-path="url(#clip16)" clip-rule="nonzero">
<g clip-path="url(#clip17)" clip-rule="nonzero">
<path style=" stroke:none;fill-rule:nonzero;fill:rgb(64.709473%,83.139038%,86.268616%);fill-opacity:1;" d="M 1142.054688 247.738281 C 1142.53125 247.214844 1143.039062 246.960938 1143.441406 247.046875 C 1143.84375 247.136719 1144.105469 247.515625 1144.199219 248.140625 C 1144.273438 248.921875 1144.175781 249.683594 1143.910156 250.425781 C 1143.15625 253.011719 1142.238281 255.589844 1141.398438 258.167969 C 1140.929688 259.605469 1140.484375 261.042969 1139.988281 262.476562 C 1139.492188 263.910156 1138.890625 265.511719 1138.371094 266.972656 C 1137.75 268.648438 1137.183594 270.363281 1136.574219 272.03125 C 1135.960938 273.695312 1135.386719 275.363281 1134.777344 277.011719 C 1134.523438 277.765625 1134.144531 278.449219 1133.632812 279.054688 C 1133.160156 279.578125 1132.652344 279.832031 1132.25 279.746094 C 1131.847656 279.65625 1131.582031 279.257812 1131.484375 278.648438 C 1131.398438 277.867188 1131.492188 277.105469 1131.765625 276.363281 C 1132.265625 275.015625 1132.78125 273.625 1133.289062 272.257812 C 1133.796875 270.890625 1134.308594 269.511719 1134.765625 268.125 C 1135.789062 265.191406 1136.929688 262.296875 1137.847656 259.304688 C 1138.40625 257.566406 1138.976562 255.828125 1139.558594 254.089844 C 1140.039062 252.652344 1140.53125 251.210938 1140.953125 249.757812 L 1141.042969 249.507812 C 1141.277344 248.855469 1141.613281 248.265625 1142.054688 247.738281 Z M 1142.054688 247.738281 "/>
</g>
</g>
</g>
<g clip-path="url(#clip18)" clip-rule="nonzero">
<g clip-path="url(#clip19)" clip-rule="nonzero">
<g clip-path="url(#clip20)" clip-rule="nonzero">
<path style=" stroke:none;fill-rule:nonzero;fill:rgb(64.709473%,83.139038%,86.268616%);fill-opacity:1;" d="M 1136.527344 248.375 Z M 1136.527344 248.375 Z M 1136.632812 247.546875 L 1136.601562 247.632812 Z M 1138.480469 244.339844 C 1138.628906 244.261719 1138.789062 244.214844 1138.953125 244.199219 C 1139.117188 244.183594 1139.28125 244.203125 1139.4375 244.253906 C 1139.59375 244.304688 1139.734375 244.382812 1139.859375 244.496094 C 1139.984375 244.605469 1140.085938 244.734375 1140.160156 244.886719 C 1140.585938 245.71875 1140.074219 246.65625 1139.796875 247.472656 C 1138.800781 250.34375 1137.890625 253.257812 1136.914062 256.144531 C 1134.9375 262.019531 1132.914062 267.875 1130.839844 273.710938 C 1130.53125 274.761719 1130.050781 275.726562 1129.402344 276.605469 C 1128.914062 277.1875 1127.953125 277.652344 1127.457031 277.078125 C 1127.292969 276.855469 1127.207031 276.605469 1127.199219 276.320312 C 1127.179688 275.28125 1127.375 274.277344 1127.785156 273.3125 L 1136.957031 246.640625 C 1137.136719 245.980469 1137.4375 245.382812 1137.851562 244.839844 C 1138.027344 244.628906 1138.238281 244.464844 1138.480469 244.339844 Z M 1138.480469 244.339844 "/>
</g>
</g>
</g>
<g clip-path="url(#clip21)" clip-rule="nonzero">
<g clip-path="url(#clip22)" clip-rule="nonzero">
<g clip-path="url(#clip23)" clip-rule="nonzero">
<path style=" stroke:none;fill-rule:nonzero;fill:rgb(64.709473%,83.139038%,86.268616%);fill-opacity:1;" d="M 1154.101562 251.089844 C 1154.574219 250.570312 1155.082031 250.3125 1155.484375 250.402344 C 1155.886719 250.488281 1156.152344 250.871094 1156.242188 251.496094 C 1156.316406 252.277344 1156.21875 253.039062 1155.957031 253.78125 C 1155.199219 256.367188 1154.28125 258.945312 1153.441406 261.523438 C 1152.972656 262.960938 1152.527344 264.398438 1152.035156 265.832031 C 1151.539062 267.261719 1150.9375 268.863281 1150.414062 270.328125 C 1149.792969 272.003906 1149.230469 273.71875 1148.617188 275.386719 C 1148.007812 277.050781 1147.433594 278.714844 1146.820312 280.367188 C 1146.566406 281.121094 1146.1875 281.804688 1145.675781 282.410156 C 1145.203125 282.929688 1144.695312 283.1875 1144.292969 283.097656 C 1143.890625 283.011719 1143.625 282.613281 1143.527344 282.003906 C 1143.441406 281.222656 1143.535156 280.460938 1143.808594 279.714844 C 1144.308594 278.367188 1144.824219 276.980469 1145.332031 275.613281 C 1145.839844 274.246094 1146.351562 272.863281 1146.808594 271.476562 C 1147.832031 268.546875 1148.972656 265.652344 1149.894531 262.660156 C 1150.449219 260.917969 1151.019531 259.179688 1151.601562 257.445312 C 1152.082031 256.007812 1152.574219 254.5625 1152.996094 253.109375 L 1153.089844 252.863281 C 1153.320312 252.207031 1153.65625 251.617188 1154.101562 251.089844 Z M 1154.101562 251.089844 "/>
</g>
</g>
</g>
<g clip-path="url(#clip24)" clip-rule="nonzero">
<g clip-path="url(#clip25)" clip-rule="nonzero">
<g clip-path="url(#clip26)" clip-rule="nonzero">
<path style=" stroke:none;fill-rule:nonzero;fill:rgb(64.709473%,83.139038%,86.268616%);fill-opacity:1;" d="M 1148.570312 251.726562 Z M 1148.570312 251.726562 Z M 1148.675781 250.902344 L 1148.644531 250.988281 Z M 1150.523438 247.695312 C 1150.675781 247.613281 1150.832031 247.566406 1150.996094 247.554688 C 1151.164062 247.539062 1151.324219 247.554688 1151.480469 247.609375 C 1151.640625 247.660156 1151.78125 247.738281 1151.90625 247.847656 C 1152.027344 247.957031 1152.128906 248.089844 1152.203125 248.238281 C 1152.628906 249.074219 1152.121094 250.011719 1151.839844 250.824219 C 1150.84375 253.699219 1149.933594 256.609375 1148.957031 259.5 C 1146.984375 265.371094 1144.957031 271.226562 1142.882812 277.066406 C 1142.574219 278.113281 1142.097656 279.078125 1141.449219 279.957031 C 1140.957031 280.542969 1139.996094 281.003906 1139.503906 280.429688 C 1139.335938 280.210938 1139.25 279.957031 1139.246094 279.675781 C 1139.222656 278.632812 1139.417969 277.628906 1139.832031 276.667969 L 1149 249.992188 C 1149.179688 249.335938 1149.480469 248.734375 1149.894531 248.195312 C 1150.074219 247.984375 1150.28125 247.816406 1150.523438 247.695312 Z M 1150.523438 247.695312 "/>
</g>
</g>
</g>
</g>
</svg>
