<?xml version="1.0" encoding="UTF-8"?>
<svg xmlns="http://www.w3.org/2000/svg" xmlns:xlink="http://www.w3.org/1999/xlink" width="1683.75pt" height="1190.250009pt" viewBox="0 0 1683.75 1190.250009" version="1.2">
<defs>
<clipPath id="clip1">
  <path d="M 0.40625 0 L 1683.09375 0 L 1683.09375 1189.5 L 0.40625 1189.5 Z M 0.40625 0 "/>
</clipPath>
<clipPath id="clip2">
  <path d="M 294 678 L 1521 678 L 1521 1189.5 L 294 1189.5 Z M 294 678 "/>
</clipPath>
<filter id="alpha" filterUnits="objectBoundingBox" x="0%" y="0%" width="100%" height="100%">
  <feColorMatrix type="matrix" in="SourceGraphic" values="0 0 0 0 1 0 0 0 0 1 0 0 0 0 1 0 0 0 1 0"/>
</filter>
<mask id="mask0">
  <g filter="url(#alpha)">
<rect x="0" y="0" width="1683.75" height="1190.250009" style="fill:rgb(0%,0%,0%);fill-opacity:0.3098;stroke:none;"/>
  </g>
</mask>
<clipPath id="clip4">
  <path d="M 0.21875 0.292969 L 1226 0.292969 L 1226 511.5 L 0.21875 511.5 Z M 0.21875 0.292969 "/>
</clipPath>
<clipPath id="clip3">
  <rect x="0" y="0" width="1227" height="512"/>
</clipPath>
<g id="surface5" clip-path="url(#clip3)">
<g clip-path="url(#clip4)" clip-rule="nonzero">
<path style=" stroke:none;fill-rule:nonzero;fill:rgb(100%,100%,100%);fill-opacity:1;" d="M 0.277344 439.304688 L 950.550781 0.714844 L 1225.367188 596.144531 L 275.09375 1034.734375 Z M 0.277344 439.304688 "/>
</g>
</g>
<clipPath id="clip5">
  <path d="M 120 511 L 791.511719 511 L 791.511719 906 L 120 906 Z M 120 511 "/>
</clipPath>
<clipPath id="clip6">
  <path d="M 562 447.773438 L 652 447.773438 L 652 583 L 562 583 Z M 562 447.773438 "/>
</clipPath>
</defs>
<g id="surface1">
<g clip-path="url(#clip1)" clip-rule="nonzero">
<path style=" stroke:none;fill-rule:nonzero;fill:rgb(100%,100%,100%);fill-opacity:1;" d="M 0.40625 0 L 1683.34375 0 L 1683.34375 1197.171875 L 0.40625 1197.171875 Z M 0.40625 0 "/>
<path style=" stroke:none;fill-rule:nonzero;fill:rgb(100%,100%,100%);fill-opacity:1;" d="M 0.40625 0 L 1683.34375 0 L 1683.34375 1189.675781 L 0.40625 1189.675781 Z M 0.40625 0 "/>
<path style=" stroke:none;fill-rule:nonzero;fill:rgb(54.119873%,69.40918%,98.429871%);fill-opacity:1;" d="M 0.40625 0 L 1683.34375 0 L 1683.34375 1189.675781 L 0.40625 1189.675781 Z M 0.40625 0 "/>
</g>
<g clip-path="url(#clip2)" clip-rule="nonzero">
<use xlink:href="#surface5" transform="matrix(1,0,0,1,294,678)" mask="url(#mask0)"/>
</g>
<g clip-path="url(#clip5)" clip-rule="nonzero">
<path style=" stroke:none;fill-rule:nonzero;fill:rgb(50.19989%,69.018555%,97.648621%);fill-opacity:1;" d="M 703.890625 551.332031 C 649.464844 511.445312 574.792969 500.375 511.710938 524.226562 C 431.03125 554.730469 375.023438 635.515625 291.65625 657.652344 C 261.96875 665.539062 230.304688 665.421875 201.546875 676.226562 C 154.757812 693.8125 121.042969 741.792969 120.296875 791.878906 C 119.550781 841.960938 151.820312 886.082031 198.070312 905.042969 L 706.636719 905.042969 C 758.878906 862.335938 791.339844 793.492188 791.339844 725.917969 C 791.3125 658.339844 758.304688 591.214844 703.875 551.332031 "/>
</g>
<path style=" stroke:none;fill-rule:nonzero;fill:rgb(94.898987%,94.898987%,94.898987%);fill-opacity:1;" d="M 633.792969 857.785156 C 619.648438 874.46875 594.71875 876.515625 578.070312 862.335938 L 485.085938 783.175781 C 468.441406 768.996094 466.398438 744.011719 480.542969 727.328125 C 494.660156 710.671875 519.589844 708.625 536.238281 722.773438 L 629.25 801.964844 C 645.867188 816.113281 647.910156 841.128906 633.792969 857.785156 "/>
<path style=" stroke:none;fill-rule:nonzero;fill:rgb(99.21875%,76.858521%,78.039551%);fill-opacity:1;" d="M 574.015625 590.511719 C 579.480469 590.511719 583.910156 594.941406 583.910156 600.410156 L 583.910156 646.601562 C 583.910156 652.070312 579.480469 656.5 574.015625 656.5 C 568.582031 656.5 564.15625 652.070312 564.15625 646.601562 L 564.15625 600.410156 C 564.15625 594.941406 568.582031 590.511719 574.015625 590.511719 "/>
<path style=" stroke:none;fill-rule:nonzero;fill:rgb(99.21875%,76.858521%,78.039551%);fill-opacity:1;" d="M 603.660156 871.757812 C 581.839844 871.757812 564.15625 854.039062 564.15625 832.164062 L 564.15625 709.835938 C 564.15625 687.976562 581.839844 670.242188 603.660156 670.242188 C 625.484375 670.242188 643.195312 687.976562 643.195312 709.835938 L 643.195312 832.164062 C 643.195312 854.039062 625.484375 871.757812 603.660156 871.757812 "/>
<path style=" stroke:none;fill-rule:nonzero;fill:rgb(99.21875%,76.858521%,78.039551%);fill-opacity:1;" d="M 643.195312 647.238281 L 643.195312 709.835938 L 564.15625 709.835938 L 564.15625 647.238281 C 564.15625 638.070312 571.574219 630.632812 580.714844 630.632812 L 626.605469 630.632812 C 635.75 630.632812 643.195312 638.070312 643.195312 647.238281 "/>
<path style=" stroke:none;fill-rule:nonzero;fill:rgb(99.21875%,63.919067%,65.879822%);fill-opacity:1;" d="M 593.800781 620.976562 C 599.234375 620.976562 603.660156 625.410156 603.660156 630.878906 L 603.660156 659.65625 C 603.660156 665.125 599.234375 669.558594 593.800781 669.558594 C 588.335938 669.558594 583.910156 665.125 583.910156 659.65625 L 583.910156 630.878906 C 583.910156 625.410156 588.335938 620.976562 593.800781 620.976562 "/>
<path style=" stroke:none;fill-rule:nonzero;fill:rgb(99.21875%,63.919067%,65.879822%);fill-opacity:1;" d="M 613.550781 620.976562 C 619.015625 620.976562 623.414062 625.410156 623.414062 630.878906 L 623.414062 659.65625 C 623.414062 665.125 619.015625 669.558594 613.550781 669.558594 C 608.089844 669.558594 603.660156 665.125 603.660156 659.65625 L 603.660156 630.878906 C 603.660156 625.410156 608.089844 620.976562 613.550781 620.976562 "/>
<path style=" stroke:none;fill-rule:nonzero;fill:rgb(99.21875%,63.919067%,65.879822%);fill-opacity:1;" d="M 633.304688 620.980469 C 638.765625 620.980469 643.195312 625.410156 643.195312 630.878906 L 643.195312 659.65625 C 643.195312 665.125 638.765625 669.5625 633.304688 669.5625 C 627.839844 669.5625 623.414062 665.125 623.414062 659.65625 L 623.414062 630.878906 C 623.414062 625.410156 627.839844 620.980469 633.304688 620.980469 "/>
<path style=" stroke:none;fill-rule:nonzero;fill:rgb(99.21875%,76.858521%,78.039551%);fill-opacity:1;" d="M 607.199219 632.539062 C 611.652344 637.019531 611.652344 644.277344 607.199219 648.753906 L 583.679688 672.316406 C 579.222656 676.792969 571.976562 676.792969 567.492188 672.316406 C 563.035156 667.839844 563.035156 660.578125 567.492188 656.105469 L 591.011719 632.539062 C 595.464844 628.0625 602.710938 628.0625 607.199219 632.539062 "/>
<path style=" stroke:none;fill-rule:nonzero;fill:rgb(94.898987%,94.898987%,94.898987%);fill-opacity:1;" d="M 528.675781 905.042969 L 285.488281 905.042969 L 285.488281 713.378906 L 511.308594 713.378906 L 528.675781 905.042969 "/>
<path style=" stroke:none;fill-rule:nonzero;fill:rgb(90.19928%,90.19928%,90.19928%);fill-opacity:1;" d="M 515.738281 770.351562 L 513.464844 745.308594 C 513.4375 744.933594 513.722656 744.5625 514.125 744.53125 C 514.53125 744.503906 514.875 744.792969 514.902344 745.195312 L 517.175781 770.207031 C 517.203125 770.613281 516.914062 770.957031 516.511719 770.984375 C 516.140625 771.042969 515.792969 770.753906 515.738281 770.351562 "/>
<path style=" stroke:none;fill-rule:nonzero;fill:rgb(1.568604%,16.079712%,36.859131%);fill-opacity:1;" d="M 409.179688 720.785156 L 398.253906 713.378906 L 387.273438 720.644531 L 391.183594 730.554688 L 405.300781 730.554688 L 409.179688 720.785156 "/>
<path style=" stroke:none;fill-rule:nonzero;fill:rgb(90.19928%,90.19928%,90.19928%);fill-opacity:1;" d="M 361.742188 713.378906 L 378.734375 728.652344 L 398.253906 713.378906 Z M 361.742188 713.378906 "/>
<path style=" stroke:none;fill-rule:nonzero;fill:rgb(78.819275%,87.449646%,100%);fill-opacity:1;" d="M 434.769531 713.378906 L 417.777344 728.652344 L 398.253906 713.378906 Z M 434.769531 713.378906 "/>
<path style=" stroke:none;fill-rule:nonzero;fill:rgb(1.568604%,16.079712%,36.859131%);fill-opacity:1;" d="M 373.296875 905.042969 L 391.269531 730.585938 L 405.355469 730.585938 L 427.4375 905.042969 L 373.296875 905.042969 "/>
<path style=" stroke:none;fill-rule:nonzero;fill:rgb(99.21875%,76.858521%,78.039551%);fill-opacity:1;" d="M 434.769531 662.105469 L 361.742188 662.105469 L 361.742188 713.378906 L 434.769531 713.378906 L 434.769531 662.105469 "/>
<path style=" stroke:none;fill-rule:nonzero;fill:rgb(99.21875%,63.919067%,65.879822%);fill-opacity:1;" d="M 361.742188 680.550781 C 372.550781 696.933594 392.074219 706.609375 412.804688 703.871094 C 420.914062 702.804688 428.332031 699.933594 434.769531 695.738281 L 434.769531 650.578125 L 361.742188 650.578125 L 361.742188 680.550781 "/>
<path style=" stroke:none;fill-rule:nonzero;fill:rgb(99.21875%,63.919067%,65.879822%);fill-opacity:1;" d="M 403.917969 705.601562 L 402.195312 713.726562 C 401.015625 719.257812 395.554688 722.804688 390.003906 721.59375 C 384.484375 720.414062 380.945312 714.9375 382.125 709.402344 L 383.878906 701.300781 C 385.058594 695.75 390.519531 692.214844 396.042969 693.40625 C 401.589844 694.597656 405.097656 700.0625 403.917969 705.601562 "/>
<path style=" stroke:none;fill-rule:nonzero;fill:rgb(99.21875%,76.858521%,78.039551%);fill-opacity:1;" d="M 415.277344 695.78125 C 387.820312 701.75 360.707031 684.265625 354.753906 656.722656 L 346.269531 617.488281 C 340.3125 589.953125 357.773438 562.789062 385.230469 556.820312 C 412.71875 550.855469 439.800781 568.339844 445.78125 595.878906 L 454.265625 635.113281 C 460.214844 662.652344 442.765625 689.8125 415.277344 695.78125 "/>
<path style=" stroke:none;fill-rule:nonzero;fill:rgb(1.568604%,16.079712%,36.859131%);fill-opacity:1;" d="M 338.40625 619.335938 L 343.429688 642.566406 L 353.027344 648.761719 L 357.570312 629.144531 L 353.691406 616.015625 L 346.089844 616.539062 L 338.40625 619.335938 "/>
<path style=" stroke:none;fill-rule:nonzero;fill:rgb(99.21875%,76.858521%,78.039551%);fill-opacity:1;" d="M 362.746094 638.371094 C 364.5 646.433594 359.382812 654.386719 351.332031 656.136719 C 343.292969 657.882812 335.359375 652.761719 333.613281 644.699219 C 331.871094 636.632812 336.980469 628.679688 345.023438 626.933594 C 353.058594 625.183594 360.992188 630.304688 362.746094 638.371094 "/>
<path style=" stroke:none;fill-rule:nonzero;fill:rgb(99.21875%,63.919067%,65.879822%);fill-opacity:1;" d="M 354.695312 640.117188 C 355.472656 643.722656 353.199219 647.277344 349.59375 648.058594 C 346 648.839844 342.449219 646.550781 341.671875 642.945312 C 340.890625 639.34375 343.175781 635.789062 346.773438 635.007812 C 350.367188 634.226562 353.917969 636.515625 354.695312 640.117188 "/>
<path style=" stroke:none;fill-rule:nonzero;fill:rgb(1.568604%,16.079712%,36.859131%);fill-opacity:1;" d="M 357.054688 630.742188 L 360.90625 648.589844 C 363.550781 648.019531 365.21875 645.421875 364.644531 642.785156 L 363.234375 636.253906 C 362.632812 633.402344 363.320312 630.425781 365.132812 628.140625 C 366.945312 625.855469 367.632812 622.875 367.003906 620.023438 L 365.59375 613.429688 L 353.691406 616.015625 L 357.054688 630.742188 "/>
<path style=" stroke:none;fill-rule:nonzero;fill:rgb(99.21875%,63.919067%,65.879822%);fill-opacity:1;" d="M 418.84375 647.324219 C 418.554688 647.34375 418.296875 647.226562 418.125 646.984375 C 417.894531 646.628906 417.980469 646.140625 418.324219 645.894531 L 420.105469 644.671875 C 421.488281 643.710938 422.40625 642.261719 422.722656 640.589844 C 423.011719 638.921875 422.636719 637.238281 421.6875 635.847656 L 412.285156 622.386719 C 412.058594 622.027344 412.144531 621.539062 412.488281 621.289062 C 412.832031 621.042969 413.320312 621.128906 413.582031 621.484375 L 422.953125 634.949219 C 424.160156 636.683594 424.648438 638.789062 424.246094 640.871094 C 423.875 642.953125 422.722656 644.765625 420.96875 645.964844 L 419.214844 647.183594 C 419.101562 647.269531 418.957031 647.3125 418.84375 647.324219 "/>
<path style=" stroke:none;fill-rule:nonzero;fill:rgb(99.21875%,63.919067%,65.879822%);fill-opacity:1;" d="M 407.425781 672.679688 C 404.464844 673.921875 401.160156 671.597656 401.417969 668.367188 C 401.792969 663.34375 404.925781 658.71875 409.871094 656.644531 C 414.84375 654.578125 420.308594 655.617188 424.160156 658.875 C 426.605469 660.964844 425.945312 664.949219 422.953125 666.195312 L 407.425781 672.679688 "/>
<path style=" stroke:none;fill-rule:nonzero;fill:rgb(1.568604%,16.079712%,36.859131%);fill-opacity:1;" d="M 357.199219 574.578125 L 344.835938 577.261719 C 336.644531 579.039062 331.445312 587.136719 333.222656 595.347656 L 338.40625 619.335938 L 365.59375 613.429688 L 357.199219 574.578125 "/>
<path style=" stroke:none;fill-rule:nonzero;fill:rgb(1.568604%,16.079712%,36.859131%);fill-opacity:1;" d="M 401.445312 616.847656 C 394.863281 615.550781 388.796875 616.875 383.332031 620.78125 C 383.015625 621.007812 382.585938 620.933594 382.355469 620.625 C 382.097656 620.296875 382.183594 619.835938 382.5 619.597656 C 388.277344 615.460938 394.746094 614.058594 401.707031 615.429688 C 402.109375 615.507812 402.367188 615.894531 402.28125 616.296875 C 402.195312 616.671875 401.820312 616.921875 401.445312 616.847656 "/>
<path style=" stroke:none;fill-rule:nonzero;fill:rgb(1.568604%,16.079712%,36.859131%);fill-opacity:1;" d="M 435.664062 609.414062 C 429.105469 608.117188 423.011719 609.441406 417.546875 613.347656 C 417.230469 613.574219 416.800781 613.5 416.570312 613.191406 C 416.3125 612.867188 416.398438 612.40625 416.742188 612.167969 C 422.492188 608.027344 428.964844 606.628906 435.921875 607.996094 C 436.324219 608.074219 436.582031 608.464844 436.496094 608.863281 C 436.410156 609.242188 436.035156 609.488281 435.664062 609.414062 "/>
<path style=" stroke:none;fill-rule:nonzero;fill:rgb(1.568604%,16.079712%,36.859131%);fill-opacity:1;" d="M 361.742188 553.054688 C 345.238281 560.652344 342.855469 569.164062 345.761719 582.621094 L 353.691406 599.222656 C 353.691406 599.222656 378.558594 611.140625 416.425781 596.09375 C 471.371094 574.253906 439.574219 525.101562 439.574219 525.101562 C 419.90625 558.378906 386.007812 541.878906 361.742188 553.054688 "/>
<path style=" stroke:none;fill-rule:nonzero;fill:rgb(1.568604%,16.079712%,36.859131%);fill-opacity:1;" d="M 399.148438 628.394531 C 398.628906 626.0625 396.328125 624.582031 394 625.089844 C 391.671875 625.59375 390.203125 627.894531 390.722656 630.226562 C 391.210938 632.558594 393.511719 634.042969 395.839844 633.535156 C 398.167969 633.03125 399.636719 630.726562 399.148438 628.394531 "/>
<path style=" stroke:none;fill-rule:nonzero;fill:rgb(1.568604%,16.079712%,36.859131%);fill-opacity:1;" d="M 433.363281 620.964844 C 432.84375 618.628906 430.574219 617.148438 428.242188 617.652344 C 425.914062 618.160156 424.421875 620.460938 424.9375 622.792969 C 425.425781 625.125 427.726562 626.605469 430.054688 626.101562 C 432.382812 625.597656 433.851562 623.296875 433.363281 620.964844 "/>
<path style=" stroke:none;fill-rule:nonzero;fill:rgb(78.819275%,87.449646%,100%);fill-opacity:1;" d="M 479.277344 894.84375 L 506.621094 765.683594 C 507.167969 763.089844 509.441406 761.246094 512.085938 761.246094 L 694.605469 761.246094 C 697.824219 761.246094 700.210938 764.183594 699.550781 767.328125 L 672.378906 895.707031 C 672.378906 900.863281 668.179688 905.042969 663.0625 905.042969 L 367.003906 905.042969 C 361.855469 905.042969 357.6875 900.863281 357.6875 895.707031 L 478.1875 895.707031 C 478.734375 895.707031 479.164062 895.359375 479.277344 894.84375 "/>
<path style=" stroke:none;fill-rule:nonzero;fill:rgb(67.83905%,79.998779%,97.648621%);fill-opacity:1;" d="M 506.621094 765.683594 L 479.277344 894.84375 C 479.164062 895.359375 478.734375 895.707031 478.214844 895.707031 L 476.546875 895.707031 L 504.0625 765.683594 C 504.609375 763.089844 506.910156 761.246094 509.554688 761.246094 L 512.085938 761.246094 C 509.441406 761.246094 507.167969 763.089844 506.621094 765.683594 "/>
<path style=" stroke:none;fill-rule:nonzero;fill:rgb(67.83905%,79.998779%,97.648621%);fill-opacity:1;" d="M 358.980469 900.375 L 671.085938 900.375 C 669.472656 903.171875 666.484375 905.042969 663.0625 905.042969 L 367.003906 905.042969 C 363.582031 905.042969 360.617188 903.171875 358.980469 900.375 "/>
<path style=" stroke:none;fill-rule:nonzero;fill:rgb(1.568604%,16.079712%,36.859131%);fill-opacity:1;" d="M 579.105469 830.378906 C 578.300781 834.355469 579.078125 838.074219 581.347656 840.839844 C 583.535156 843.519531 586.871094 844.988281 590.695312 844.988281 C 598.886719 844.988281 606.882812 838.304688 608.550781 830.117188 C 609.355469 826.140625 608.578125 822.425781 606.304688 819.660156 C 604.121094 816.976562 600.816406 815.480469 596.960938 815.480469 C 588.765625 815.480469 580.773438 822.164062 579.105469 830.378906 Z M 590.695312 846.257812 C 586.46875 846.257812 582.785156 844.613281 580.371094 841.617188 C 577.871094 838.5625 576.980469 834.46875 577.871094 830.117188 C 579.652344 821.359375 588.222656 814.242188 596.960938 814.242188 C 601.1875 814.242188 604.867188 815.882812 607.285156 818.851562 C 609.785156 821.933594 610.675781 826 609.785156 830.378906 C 608.003906 839.136719 599.433594 846.257812 590.695312 846.257812 "/>
<path style=" stroke:none;fill-rule:nonzero;fill:rgb(94.898987%,94.898987%,94.898987%);fill-opacity:1;" d="M 349.980469 901.816406 C 329.917969 910.433594 306.6875 901.09375 298.101562 881.011719 L 250.082031 768.566406 C 241.492188 748.449219 250.792969 725.167969 270.859375 716.550781 C 290.925781 707.964844 314.152344 717.269531 322.742188 737.386719 L 370.769531 849.828125 C 379.335938 869.945312 370.050781 893.226562 349.980469 901.816406 "/>
<path style=" stroke:none;fill-rule:nonzero;fill:rgb(90.19928%,90.19928%,90.19928%);fill-opacity:1;" d="M 297.699219 880 L 282.875 845.421875 C 282.71875 845.074219 282.886719 844.644531 283.253906 844.46875 C 283.613281 844.324219 284.039062 844.5 284.195312 844.875 L 299.019531 879.453125 C 299.175781 879.800781 299.007812 880.230469 298.640625 880.40625 C 298.277344 880.550781 297.855469 880.375 297.699219 880 "/>
<path style=" stroke:none;fill-rule:nonzero;fill:rgb(90.19928%,90.19928%,90.19928%);fill-opacity:1;" d="M 343.09375 787.210938 L 326.230469 747.703125 C 326.074219 747.328125 326.242188 746.925781 326.609375 746.75 C 326.96875 746.605469 327.394531 746.78125 327.550781 747.15625 L 344.414062 786.632812 C 344.574219 786.980469 344.402344 787.410156 344.039062 787.585938 C 343.671875 787.730469 343.25 787.554688 343.09375 787.210938 "/>
<path style=" stroke:none;fill-rule:nonzero;fill:rgb(90.19928%,90.19928%,90.19928%);fill-opacity:1;" d="M 346.15625 853.058594 C 352.941406 859.570312 353.230469 870.347656 346.742188 877.175781 C 340.265625 883.976562 329.503906 884.238281 322.703125 877.753906 C 315.902344 871.269531 315.640625 860.464844 322.121094 853.664062 C 328.59375 846.832031 339.355469 846.574219 346.15625 853.058594 "/>
<path style=" stroke:none;fill-rule:nonzero;fill:rgb(94.898987%,94.898987%,94.898987%);fill-opacity:1;" d="M 298.464844 740.496094 C 305.265625 746.980469 305.53125 757.757812 299.050781 764.589844 C 292.578125 771.390625 281.8125 771.648438 275.011719 765.164062 C 268.214844 758.679688 267.953125 747.875 274.429688 741.074219 C 280.90625 734.246094 291.667969 733.984375 298.464844 740.496094 "/>
<path style=" stroke:none;fill-rule:nonzero;fill:rgb(99.21875%,76.858521%,78.039551%);fill-opacity:1;" d="M 419.734375 727.90625 C 401.1875 716.347656 376.804688 722.054688 365.304688 740.613281 L 300.871094 844.5 C 289.34375 863.085938 295.03125 887.492188 313.566406 899.050781 C 332.101562 910.605469 356.480469 904.898438 367.980469 886.3125 L 432.414062 782.457031 C 443.941406 763.867188 438.25 739.460938 419.734375 727.90625 "/>
<path style=" stroke:none;fill-rule:nonzero;fill:rgb(99.21875%,76.858521%,78.039551%);fill-opacity:1;" d="M 343.476562 850.808594 C 335.441406 845.824219 324.875 848.300781 319.878906 856.34375 C 314.882812 864.410156 317.347656 874.988281 325.382812 880 C 333.417969 884.988281 343.984375 882.539062 348.984375 874.46875 C 353.976562 866.429688 351.503906 855.824219 343.476562 850.808594 "/>
<path style=" stroke:none;fill-rule:nonzero;fill:rgb(99.21875%,76.858521%,78.039551%);fill-opacity:1;" d="M 465.335938 729.402344 L 432.355469 782.570312 L 365.21875 740.726562 L 398.199219 687.570312 C 403.027344 679.78125 413.265625 677.390625 421.027344 682.234375 L 460.015625 706.523438 C 467.777344 711.363281 470.164062 721.59375 465.335938 729.402344 "/>
<path style=" stroke:none;fill-rule:nonzero;fill:rgb(99.21875%,63.919067%,65.879822%);fill-opacity:1;" d="M 426.835938 686.601562 L 415.304688 705.167969 C 415.132812 705.457031 414.730469 705.570312 414.441406 705.371094 C 414.15625 705.195312 414.070312 704.792969 414.242188 704.503906 L 425.769531 685.933594 C 425.945312 685.636719 426.347656 685.550781 426.632812 685.734375 C 426.921875 685.914062 427.007812 686.304688 426.835938 686.601562 "/>
<path style=" stroke:none;fill-rule:nonzero;fill:rgb(99.21875%,63.919067%,65.879822%);fill-opacity:1;" d="M 391.785156 697.820312 C 391.441406 697.613281 391.328125 697.171875 391.527344 696.832031 L 397.308594 687.316406 C 402.253906 679.152344 412.917969 676.550781 421.054688 681.515625 L 432.097656 688.234375 C 432.414062 688.441406 432.527344 688.882812 432.328125 689.222656 C 432.125 689.5625 431.695312 689.671875 431.347656 689.464844 L 420.308594 682.746094 C 412.863281 678.191406 403.085938 680.578125 398.542969 688.0625 L 392.765625 697.578125 C 392.5625 697.917969 392.101562 698.027344 391.785156 697.820312 "/>
<path style=" stroke:none;fill-rule:nonzero;fill:rgb(99.21875%,63.919067%,65.879822%);fill-opacity:1;" d="M 443.484375 696.96875 L 431.980469 715.542969 C 431.78125 715.832031 431.40625 715.917969 431.121094 715.742188 C 430.804688 715.570312 430.714844 715.167969 430.917969 714.878906 L 442.417969 696.304688 C 442.621094 696.007812 442.992188 695.921875 443.28125 696.101562 C 443.570312 696.285156 443.683594 696.675781 443.484375 696.96875 "/>
<path style=" stroke:none;fill-rule:nonzero;fill:rgb(99.21875%,63.919067%,65.879822%);fill-opacity:1;" d="M 458.375 706.234375 L 446.847656 724.820312 C 446.644531 725.109375 446.273438 725.195312 445.984375 725.023438 C 445.695312 724.820312 445.582031 724.445312 445.78125 724.160156 L 457.285156 705.570312 C 457.484375 705.28125 457.859375 705.195312 458.144531 705.371094 C 458.460938 705.542969 458.550781 705.945312 458.375 706.234375 "/>
<path style=" stroke:none;fill-rule:nonzero;fill:rgb(1.568604%,16.079712%,36.859131%);fill-opacity:1;" d="M 750.871094 905.675781 L 147.566406 905.675781 C 147.207031 905.675781 146.925781 905.390625 146.925781 905.042969 C 146.925781 904.699219 147.207031 904.410156 147.554688 904.410156 L 750.859375 904.410156 C 751.207031 904.410156 751.492188 904.699219 751.492188 905.042969 C 751.492188 905.390625 751.207031 905.675781 750.859375 905.675781 "/>
<g clip-path="url(#clip6)" clip-rule="nonzero">
<path style=" stroke:none;fill-rule:nonzero;fill:rgb(1.568604%,16.079712%,36.859131%);fill-opacity:1;" d="M 606.390625 582.832031 C 602.769531 582.832031 599.605469 581.65625 596.902344 579.304688 C 594.203125 576.957031 592.878906 573.671875 592.878906 569.449219 C 592.878906 565.703125 594.171875 562.550781 596.789062 559.992188 C 599.40625 557.4375 602.597656 556.15625 606.390625 556.15625 C 610.128906 556.15625 613.292969 557.4375 615.824219 559.992188 C 618.382812 562.550781 619.648438 565.703125 619.648438 569.449219 C 619.648438 573.613281 618.324219 576.886719 615.652344 579.261719 C 612.976562 581.640625 609.898438 582.832031 606.390625 582.832031 Z M 562.949219 485.058594 C 562.949219 479.40625 564.757812 473.683594 568.382812 467.882812 C 572.003906 462.082031 577.296875 457.28125 584.222656 453.476562 C 591.183594 449.667969 599.261719 447.765625 608.519531 447.765625 C 617.144531 447.765625 624.734375 449.359375 631.320312 452.539062 C 637.90625 455.722656 642.992188 460.050781 646.589844 465.519531 C 650.183594 470.992188 651.964844 476.9375 651.964844 483.363281 C 651.964844 488.417969 650.957031 492.847656 648.886719 496.652344 C 646.847656 500.460938 644.429688 503.746094 641.613281 506.511719 C 638.765625 509.273438 633.734375 513.929688 626.433594 520.472656 C 624.390625 522.316406 622.78125 523.9375 621.574219 525.335938 C 620.367188 526.730469 619.445312 528.007812 618.871094 529.171875 C 618.265625 530.328125 617.808594 531.488281 617.492188 532.648438 C 617.144531 533.808594 616.65625 535.847656 615.996094 538.761719 C 614.875 544.949219 611.335938 548.035156 605.414062 548.035156 C 602.339844 548.035156 599.722656 547.027344 597.621094 545.003906 C 595.523438 542.980469 594.460938 539.980469 594.460938 535.992188 C 594.460938 530.996094 595.238281 526.675781 596.789062 523.015625 C 598.3125 519.355469 600.382812 516.144531 602.914062 513.378906 C 605.472656 510.613281 608.921875 507.328125 613.265625 503.519531 C 617.058594 500.191406 619.789062 497.679688 621.488281 495.984375 C 623.183594 494.285156 624.59375 492.402344 625.742188 490.320312 C 626.921875 488.234375 627.496094 485.976562 627.496094 483.539062 C 627.496094 478.785156 625.714844 474.769531 622.207031 471.496094 C 618.667969 468.226562 614.097656 466.589844 608.519531 466.589844 C 601.992188 466.589844 597.191406 468.238281 594.113281 471.542969 C 591.039062 474.839844 588.421875 479.703125 586.292969 486.125 C 584.253906 492.847656 580.429688 496.207031 574.792969 496.207031 C 571.457031 496.207031 568.667969 495.035156 566.398438 492.683594 C 564.097656 490.335938 562.949219 487.792969 562.949219 485.058594 "/>
</g>
<path style=" stroke:none;fill-rule:nonzero;fill:rgb(67.83905%,79.998779%,97.648621%);fill-opacity:1;" d="M 283.671875 492.460938 L 218.917969 492.460938 C 203.171875 492.460938 190.410156 505.25 190.410156 521.035156 L 190.410156 556.824219 C 190.410156 572.609375 203.171875 585.402344 218.917969 585.402344 L 253.09375 585.402344 L 282.296875 606.425781 C 286.398438 609.378906 291.921875 605.515625 290.570312 600.636719 L 286.3125 585.28125 C 300.820312 583.945312 312.1875 571.71875 312.1875 556.824219 L 312.1875 521.035156 C 312.1875 505.25 299.421875 492.460938 283.671875 492.460938 "/>
<path style=" stroke:none;fill-rule:nonzero;fill:rgb(100%,100%,100%);fill-opacity:1;" d="M 259.601562 538.929688 C 259.601562 543.527344 255.878906 547.253906 251.296875 547.253906 C 246.707031 547.253906 242.992188 543.527344 242.992188 538.929688 C 242.992188 534.335938 246.707031 530.609375 251.296875 530.609375 C 255.878906 530.609375 259.601562 534.335938 259.601562 538.929688 "/>
<path style=" stroke:none;fill-rule:nonzero;fill:rgb(100%,100%,100%);fill-opacity:1;" d="M 287.710938 538.929688 C 287.710938 543.527344 283.992188 547.253906 279.40625 547.253906 C 274.820312 547.253906 271.101562 543.527344 271.101562 538.929688 C 271.101562 534.335938 274.820312 530.609375 279.40625 530.609375 C 283.992188 530.609375 287.710938 534.335938 287.710938 538.929688 "/>
<path style=" stroke:none;fill-rule:nonzero;fill:rgb(100%,100%,100%);fill-opacity:1;" d="M 231.492188 538.929688 C 231.492188 543.527344 227.773438 547.253906 223.1875 547.253906 C 218.601562 547.253906 214.882812 543.527344 214.882812 538.929688 C 214.882812 534.335938 218.601562 530.609375 223.1875 530.609375 C 227.773438 530.609375 231.492188 534.335938 231.492188 538.929688 "/>
</g>
</svg>
