<?xml version="1.0" encoding="UTF-8"?>
<svg xmlns="http://www.w3.org/2000/svg" xmlns:xlink="http://www.w3.org/1999/xlink" width="750pt" height="149.999998pt" viewBox="0 0 750 149.999998" version="1.2">
<defs>
<filter id="alpha" filterUnits="objectBoundingBox" x="0%" y="0%" width="100%" height="100%">
  <feColorMatrix type="matrix" in="SourceGraphic" values="0 0 0 0 1 0 0 0 0 1 0 0 0 0 1 0 0 0 1 0"/>
</filter>
<mask id="mask0">
  <g filter="url(#alpha)">
<rect x="0" y="0" width="750" height="149.999998" style="fill:rgb(0%,0%,0%);fill-opacity:0.2863;stroke:none;"/>
  </g>
</mask>
<clipPath id="clip2">
  <path d="M 0.566406 0 L 74 0 L 74 59.671875 L 0.566406 59.671875 Z M 0.566406 0 "/>
</clipPath>
<clipPath id="clip1">
  <rect x="0" y="0" width="74" height="60"/>
</clipPath>
<g id="surface5" clip-path="url(#clip1)">
<g clip-path="url(#clip2)" clip-rule="nonzero">
<path style=" stroke:none;fill-rule:nonzero;fill:rgb(100%,100%,100%);fill-opacity:1;" d="M 0.566406 -15.328125 L 93.566406 -15.328125 L 93.566406 59.671875 L 0.566406 59.671875 Z M 0.566406 -15.328125 "/>
</g>
</g>
<clipPath id="clip3">
  <path d="M 15 16 L 40 16 L 40 40.5 L 15 40.5 Z M 15 16 "/>
</clipPath>
<clipPath id="clip4">
  <path d="M 16 15 L 41.25 15 L 41.25 40 L 16 40 Z M 16 15 "/>
</clipPath>
<clipPath id="clip5">
  <path d="M 600 77 L 656.882812 77 L 656.882812 134 L 600 134 Z M 600 77 "/>
</clipPath>
<clipPath id="clip6">
  <path d="M 551.132812 50 L 629 50 L 629 150 L 551.132812 150 Z M 551.132812 50 "/>
</clipPath>
</defs>
<g id="surface1">
<rect x="0" y="0" width="750" height="149.999998" style="fill:rgb(100%,100%,100%);fill-opacity:1;stroke:none;"/>
<rect x="0" y="0" width="750" height="149.999998" style="fill:rgb(100%,100%,100%);fill-opacity:1;stroke:none;"/>
<rect x="0" y="0" width="750" height="149.999998" style="fill:rgb(29.798889%,41.958618%,85.879517%);fill-opacity:1;stroke:none;"/>
<use xlink:href="#surface5" transform="matrix(1,0,0,1,676,-0.000000000000007527)" mask="url(#mask0)"/>
<path style="fill:none;stroke-width:1;stroke-linecap:round;stroke-linejoin:miter;stroke:rgb(87.059021%,87.838745%,87.838745%);stroke-opacity:1;stroke-miterlimit:4;" d="M 0.500075 -0.000149488 L 12.664526 -0.000149488 " transform="matrix(6.723292,0,0,6.306569,175.75113,3.153287)"/>
<g clip-path="url(#clip3)" clip-rule="nonzero">
<path style=" stroke:none;fill-rule:nonzero;fill:rgb(94.898987%,95.689392%,97.24884%);fill-opacity:1;" d="M 27.097656 16.316406 C 33.78125 16.316406 39.195312 21.730469 39.195312 28.40625 C 39.195312 35.082031 33.78125 40.496094 27.097656 40.496094 C 20.417969 40.496094 15 35.082031 15 28.40625 C 15 21.730469 20.417969 16.316406 27.097656 16.316406 "/>
</g>
<g clip-path="url(#clip4)" clip-rule="nonzero">
<path style=" stroke:none;fill-rule:nonzero;fill:rgb(64.709473%,83.139038%,86.268616%);fill-opacity:1;" d="M 40.4375 27.492188 C 40.429688 29.921875 39.675781 32.277344 38.273438 34.265625 C 36.929688 36.179688 34.96875 37.660156 32.777344 38.464844 C 30.464844 39.3125 27.910156 39.394531 25.542969 38.730469 C 23.261719 38.09375 21.230469 36.730469 19.714844 34.914062 C 16.566406 31.144531 16.222656 25.617188 18.746094 21.433594 C 19.964844 19.414062 21.804688 17.816406 23.945312 16.835938 C 26.160156 15.820312 28.710938 15.5625 31.09375 16.046875 C 33.429688 16.519531 35.5625 17.722656 37.210938 19.433594 C 38.867188 21.15625 39.933594 23.375 40.308594 25.726562 C 40.398438 26.3125 40.433594 26.902344 40.4375 27.492188 C 40.4375 28.015625 41.253906 28.015625 41.25 27.492188 C 41.242188 25.023438 40.511719 22.597656 39.136719 20.542969 C 37.804688 18.554688 35.894531 16.964844 33.691406 16.019531 C 31.375 15.023438 28.800781 14.761719 26.324219 15.234375 C 23.949219 15.683594 21.734375 16.878906 20.003906 18.558594 C 16.421875 22.035156 15.277344 27.511719 17.136719 32.140625 C 18.039062 34.386719 19.585938 36.3125 21.558594 37.714844 C 23.558594 39.140625 25.988281 39.914062 28.441406 39.984375 C 33.382812 40.121094 38.054688 37.183594 40.113281 32.699219 C 40.863281 31.066406 41.246094 29.289062 41.25 27.492188 C 41.253906 26.96875 40.4375 26.96875 40.4375 27.492188 "/>
</g>
<g clip-path="url(#clip5)" clip-rule="nonzero">
<path style=" stroke:none;fill-rule:nonzero;fill:rgb(94.898987%,95.689392%,97.24884%);fill-opacity:1;" d="M 628.753906 77.402344 C 627.832031 77.402344 626.910156 77.445312 625.988281 77.535156 C 625.070312 77.625 624.15625 77.761719 623.25 77.941406 C 622.34375 78.121094 621.449219 78.347656 620.566406 78.613281 C 619.679688 78.882812 618.8125 79.195312 617.957031 79.546875 C 617.105469 79.902344 616.269531 80.296875 615.453125 80.734375 C 614.640625 81.167969 613.847656 81.644531 613.078125 82.160156 C 612.3125 82.671875 611.570312 83.222656 610.855469 83.8125 C 610.140625 84.398438 609.457031 85.019531 608.800781 85.675781 C 608.148438 86.328125 607.527344 87.015625 606.941406 87.730469 C 606.355469 88.445312 605.804688 89.1875 605.292969 89.957031 C 604.777344 90.730469 604.304688 91.523438 603.867188 92.339844 C 603.429688 93.15625 603.035156 93.992188 602.683594 94.847656 C 602.328125 95.703125 602.015625 96.574219 601.746094 97.460938 C 601.480469 98.347656 601.253906 99.246094 601.074219 100.152344 C 600.894531 101.0625 600.757812 101.976562 600.664062 102.898438 C 600.574219 103.820312 600.527344 104.746094 600.527344 105.671875 C 600.527344 106.597656 600.570312 107.523438 600.664062 108.445312 C 600.753906 109.367188 600.886719 110.28125 601.066406 111.191406 C 601.246094 112.097656 601.46875 112.996094 601.738281 113.882812 C 602.003906 114.769531 602.316406 115.640625 602.667969 116.496094 C 603.023438 117.355469 603.414062 118.191406 603.851562 119.007812 C 604.285156 119.824219 604.761719 120.617188 605.273438 121.390625 C 605.785156 122.160156 606.335938 122.902344 606.921875 123.621094 C 607.507812 124.335938 608.125 125.023438 608.777344 125.679688 C 609.429688 126.332031 610.113281 126.957031 610.828125 127.542969 C 611.542969 128.132812 612.285156 128.683594 613.050781 129.199219 C 613.820312 129.714844 614.609375 130.191406 615.425781 130.628906 C 616.238281 131.0625 617.074219 131.460938 617.925781 131.816406 C 618.78125 132.171875 619.648438 132.484375 620.53125 132.753906 C 621.417969 133.023438 622.3125 133.246094 623.21875 133.429688 C 624.125 133.609375 625.035156 133.746094 625.957031 133.835938 C 626.875 133.929688 627.796875 133.972656 628.71875 133.976562 C 629.644531 133.976562 630.566406 133.929688 631.484375 133.839844 C 632.40625 133.75 633.316406 133.613281 634.222656 133.433594 C 635.128906 133.253906 636.027344 133.03125 636.910156 132.761719 C 637.792969 132.492188 638.664062 132.183594 639.515625 131.828125 C 640.371094 131.472656 641.207031 131.078125 642.019531 130.644531 C 642.835938 130.207031 643.628906 129.730469 644.394531 129.21875 C 645.164062 128.703125 645.90625 128.152344 646.621094 127.566406 C 647.335938 126.976562 648.019531 126.355469 648.671875 125.703125 C 649.328125 125.046875 649.945312 124.363281 650.53125 123.644531 C 651.121094 122.929688 651.667969 122.1875 652.183594 121.417969 C 652.695312 120.648438 653.171875 119.855469 653.609375 119.039062 C 654.042969 118.21875 654.4375 117.382812 654.792969 116.527344 C 655.148438 115.671875 655.457031 114.800781 655.726562 113.914062 C 655.996094 113.027344 656.21875 112.132812 656.402344 111.222656 C 656.582031 110.316406 656.71875 109.398438 656.808594 108.476562 C 656.898438 107.554688 656.945312 106.632812 656.945312 105.703125 C 656.945312 104.777344 656.898438 103.855469 656.808594 102.933594 C 656.71875 102.011719 656.582031 101.097656 656.402344 100.1875 C 656.222656 99.28125 655.996094 98.382812 655.730469 97.496094 C 655.460938 96.609375 655.148438 95.738281 654.796875 94.882812 C 654.441406 94.027344 654.046875 93.191406 653.613281 92.375 C 653.179688 91.558594 652.703125 90.765625 652.191406 89.996094 C 651.679688 89.226562 651.128906 88.480469 650.542969 87.765625 C 649.957031 87.050781 649.339844 86.363281 648.6875 85.707031 C 648.035156 85.054688 647.351562 84.429688 646.636719 83.84375 C 645.921875 83.253906 645.183594 82.703125 644.414062 82.1875 C 643.648438 81.671875 642.855469 81.195312 642.042969 80.757812 C 641.230469 80.320312 640.394531 79.925781 639.542969 79.570312 C 638.691406 79.214844 637.820312 78.902344 636.9375 78.632812 C 636.054688 78.363281 635.160156 78.136719 634.253906 77.953125 C 633.347656 77.773438 632.4375 77.632812 631.519531 77.542969 C 630.597656 77.449219 629.679688 77.402344 628.753906 77.402344 Z M 644.398438 99.285156 L 623.484375 119.222656 C 622.761719 119.910156 621.902344 120.253906 620.902344 120.257812 L 620.746094 120.257812 L 620.644531 120.246094 C 619.648438 120.179688 618.808594 119.777344 618.132812 119.035156 L 611.214844 111.402344 C 610.515625 110.636719 610.191406 109.738281 610.25 108.703125 C 610.269531 108.332031 610.339844 107.96875 610.464844 107.621094 C 610.585938 107.269531 610.761719 106.945312 610.980469 106.644531 C 611.199219 106.347656 611.460938 106.085938 611.757812 105.867188 C 612.054688 105.644531 612.378906 105.46875 612.726562 105.34375 C 613.078125 105.21875 613.4375 105.148438 613.804688 105.128906 C 614.175781 105.113281 614.542969 105.148438 614.902344 105.238281 C 615.261719 105.328125 615.597656 105.46875 615.917969 105.660156 C 616.234375 105.851562 616.519531 106.085938 616.765625 106.363281 L 621.09375 111.140625 L 639.238281 93.847656 C 639.597656 93.496094 640.011719 93.226562 640.476562 93.039062 C 640.941406 92.855469 641.425781 92.765625 641.925781 92.777344 C 642.429688 92.785156 642.90625 92.890625 643.367188 93.09375 C 643.824219 93.296875 644.226562 93.578125 644.574219 93.941406 C 644.917969 94.308594 645.179688 94.722656 645.359375 95.195312 C 645.539062 95.664062 645.617188 96.152344 645.601562 96.652344 C 645.585938 97.15625 645.472656 97.636719 645.265625 98.09375 C 645.054688 98.550781 644.765625 98.949219 644.398438 99.289062 Z M 644.398438 99.285156 "/>
</g>
<g clip-path="url(#clip6)" clip-rule="nonzero">
<path style=" stroke:none;fill-rule:nonzero;fill:rgb(94.898987%,95.689392%,97.24884%);fill-opacity:1;" d="M 598.863281 105.703125 C 598.863281 104.722656 598.914062 103.746094 599.011719 102.769531 C 599.105469 101.789062 599.25 100.820312 599.441406 99.859375 C 599.632812 98.894531 599.871094 97.945312 600.15625 97.007812 C 600.441406 96.066406 600.769531 95.144531 601.144531 94.238281 C 601.519531 93.332031 601.9375 92.445312 602.398438 91.578125 C 602.859375 90.710938 603.363281 89.871094 603.90625 89.054688 C 604.449219 88.238281 605.03125 87.453125 605.652344 86.691406 C 606.273438 85.933594 606.929688 85.207031 607.621094 84.511719 C 608.316406 83.820312 609.039062 83.160156 609.796875 82.539062 C 610.550781 81.914062 611.335938 81.328125 612.148438 80.785156 C 612.964844 80.238281 613.800781 79.734375 614.664062 79.269531 C 615.527344 78.804688 616.410156 78.386719 617.316406 78.011719 C 618.21875 77.632812 619.140625 77.300781 620.074219 77.015625 C 621.011719 76.730469 621.960938 76.492188 622.917969 76.296875 C 623.878906 76.105469 624.847656 75.960938 625.820312 75.863281 C 626.792969 75.765625 627.769531 75.714844 628.75 75.714844 L 628.75 55.351562 C 628.75 55 628.714844 54.652344 628.648438 54.308594 C 628.578125 53.964844 628.476562 53.632812 628.34375 53.308594 C 628.210938 52.984375 628.046875 52.675781 627.855469 52.386719 C 627.660156 52.09375 627.441406 51.824219 627.191406 51.578125 C 626.945312 51.328125 626.679688 51.109375 626.386719 50.914062 C 626.097656 50.71875 625.792969 50.554688 625.46875 50.417969 C 625.144531 50.285156 624.8125 50.183594 624.472656 50.113281 C 624.128906 50.042969 623.785156 50.007812 623.433594 50.007812 L 556.496094 50.007812 C 556.148438 50.007812 555.800781 50.042969 555.457031 50.113281 C 555.117188 50.179688 554.785156 50.28125 554.460938 50.417969 C 554.136719 50.550781 553.832031 50.714844 553.542969 50.910156 C 553.25 51.105469 552.984375 51.328125 552.734375 51.574219 C 552.488281 51.824219 552.269531 52.09375 552.074219 52.382812 C 551.882812 52.675781 551.71875 52.984375 551.585938 53.308594 C 551.449219 53.632812 551.351562 53.964844 551.28125 54.308594 C 551.214844 54.652344 551.179688 55 551.179688 55.351562 L 551.179688 151.246094 C 551.179688 151.597656 551.214844 151.945312 551.28125 152.289062 C 551.351562 152.632812 551.453125 152.964844 551.585938 153.289062 C 551.71875 153.609375 551.882812 153.917969 552.074219 154.210938 C 552.269531 154.5 552.488281 154.769531 552.738281 155.015625 C 552.984375 155.265625 553.253906 155.484375 553.542969 155.679688 C 553.832031 155.875 554.140625 156.039062 554.460938 156.171875 C 554.785156 156.308594 555.117188 156.40625 555.460938 156.476562 C 555.800781 156.542969 556.148438 156.578125 556.496094 156.578125 L 623.433594 156.578125 C 623.78125 156.578125 624.128906 156.542969 624.472656 156.472656 C 624.8125 156.40625 625.144531 156.304688 625.46875 156.171875 C 625.789062 156.035156 626.097656 155.871094 626.386719 155.679688 C 626.675781 155.484375 626.945312 155.261719 627.191406 155.015625 C 627.4375 154.769531 627.660156 154.5 627.851562 154.207031 C 628.046875 153.917969 628.210938 153.609375 628.34375 153.285156 C 628.476562 152.964844 628.578125 152.628906 628.648438 152.289062 C 628.714844 151.945312 628.75 151.597656 628.75 151.246094 L 628.75 135.660156 C 627.769531 135.660156 626.796875 135.613281 625.820312 135.515625 C 624.847656 135.417969 623.882812 135.273438 622.921875 135.082031 C 621.964844 134.890625 621.015625 134.648438 620.078125 134.363281 C 619.144531 134.078125 618.222656 133.75 617.320312 133.375 C 616.417969 132.996094 615.535156 132.578125 614.671875 132.117188 C 613.808594 131.652344 612.96875 131.148438 612.15625 130.605469 C 611.34375 130.058594 610.558594 129.476562 609.800781 128.851562 C 609.046875 128.230469 608.320312 127.574219 607.628906 126.878906 C 606.9375 126.1875 606.28125 125.460938 605.660156 124.703125 C 605.039062 123.945312 604.457031 123.15625 603.914062 122.339844 C 603.371094 121.527344 602.867188 120.6875 602.40625 119.820312 C 601.945312 118.957031 601.527344 118.070312 601.148438 117.164062 C 600.773438 116.257812 600.445312 115.335938 600.160156 114.398438 C 599.875 113.460938 599.636719 112.507812 599.445312 111.546875 C 599.253906 110.585938 599.109375 109.617188 599.011719 108.640625 C 598.914062 107.664062 598.867188 106.6875 598.863281 105.703125 Z M 583.289062 62.871094 L 618.65625 62.871094 C 618.890625 62.871094 619.085938 62.953125 619.25 63.121094 C 619.414062 63.285156 619.496094 63.484375 619.496094 63.714844 C 619.496094 63.949219 619.414062 64.148438 619.25 64.3125 C 619.085938 64.476562 618.890625 64.558594 618.65625 64.558594 L 583.289062 64.558594 C 583.054688 64.558594 582.855469 64.476562 582.691406 64.3125 C 582.527344 64.148438 582.445312 63.949219 582.445312 63.714844 C 582.445312 63.484375 582.527344 63.285156 582.691406 63.121094 C 582.855469 62.953125 583.054688 62.871094 583.289062 62.871094 Z M 583.289062 87.261719 L 599.109375 87.261719 C 599.34375 87.261719 599.542969 87.34375 599.707031 87.511719 C 599.871094 87.675781 599.953125 87.875 599.953125 88.105469 C 599.953125 88.339844 599.871094 88.539062 599.707031 88.703125 C 599.542969 88.867188 599.34375 88.949219 599.109375 88.949219 L 583.289062 88.949219 C 583.054688 88.949219 582.855469 88.867188 582.691406 88.703125 C 582.527344 88.539062 582.445312 88.339844 582.445312 88.105469 C 582.445312 87.875 582.527344 87.675781 582.691406 87.511719 C 582.855469 87.34375 583.054688 87.261719 583.289062 87.261719 Z M 583.289062 111.640625 L 594.960938 111.640625 C 595.195312 111.640625 595.390625 111.726562 595.554688 111.890625 C 595.71875 112.054688 595.800781 112.253906 595.800781 112.484375 C 595.800781 112.71875 595.71875 112.917969 595.554688 113.082031 C 595.390625 113.246094 595.195312 113.328125 594.960938 113.328125 L 583.289062 113.328125 C 583.054688 113.328125 582.855469 113.246094 582.691406 113.082031 C 582.527344 112.917969 582.445312 112.71875 582.445312 112.484375 C 582.445312 112.253906 582.527344 112.054688 582.691406 111.890625 C 582.855469 111.726562 583.054688 111.640625 583.289062 111.640625 Z M 572.285156 143.105469 C 572.285156 143.464844 572.21875 143.8125 572.082031 144.144531 C 571.941406 144.476562 571.746094 144.769531 571.496094 145.023438 C 571.242188 145.277344 570.949219 145.472656 570.617188 145.609375 C 570.285156 145.746094 569.941406 145.816406 569.582031 145.816406 L 563.148438 145.816406 C 562.789062 145.816406 562.445312 145.746094 562.113281 145.609375 C 561.78125 145.472656 561.488281 145.277344 561.234375 145.023438 C 560.984375 144.769531 560.789062 144.476562 560.648438 144.144531 C 560.511719 143.8125 560.445312 143.464844 560.445312 143.105469 L 560.445312 136.652344 C 560.445312 136.292969 560.511719 135.945312 560.648438 135.613281 C 560.789062 135.28125 560.984375 134.988281 561.234375 134.734375 C 561.488281 134.480469 561.78125 134.285156 562.113281 134.148438 C 562.445312 134.011719 562.789062 133.941406 563.148438 133.941406 L 569.582031 133.941406 C 569.941406 133.941406 570.285156 134.011719 570.617188 134.148438 C 570.949219 134.285156 571.242188 134.480469 571.496094 134.734375 C 571.746094 134.988281 571.941406 135.28125 572.082031 135.613281 C 572.21875 135.945312 572.285156 136.292969 572.285156 136.652344 Z M 572.285156 118.726562 C 572.285156 119.085938 572.21875 119.433594 572.082031 119.765625 C 571.941406 120.097656 571.746094 120.390625 571.496094 120.644531 C 571.242188 120.898438 570.949219 121.09375 570.617188 121.230469 C 570.285156 121.367188 569.941406 121.4375 569.582031 121.4375 L 563.148438 121.4375 C 562.789062 121.4375 562.445312 121.367188 562.113281 121.230469 C 561.78125 121.09375 561.488281 120.898438 561.234375 120.644531 C 560.984375 120.390625 560.789062 120.097656 560.648438 119.765625 C 560.511719 119.433594 560.445312 119.085938 560.445312 118.726562 L 560.445312 112.273438 C 560.445312 111.914062 560.511719 111.566406 560.648438 111.234375 C 560.789062 110.902344 560.984375 110.609375 561.234375 110.355469 C 561.488281 110.101562 561.78125 109.90625 562.113281 109.769531 C 562.445312 109.632812 562.789062 109.5625 563.148438 109.5625 L 569.582031 109.5625 C 569.941406 109.5625 570.285156 109.632812 570.617188 109.769531 C 570.949219 109.90625 571.242188 110.101562 571.496094 110.355469 C 571.746094 110.609375 571.941406 110.902344 572.082031 111.234375 C 572.21875 111.566406 572.285156 111.914062 572.285156 112.273438 Z M 572.285156 94.347656 C 572.285156 94.707031 572.21875 95.050781 572.082031 95.382812 C 571.941406 95.714844 571.746094 96.007812 571.496094 96.261719 C 571.242188 96.519531 570.949219 96.714844 570.617188 96.851562 C 570.285156 96.988281 569.941406 97.058594 569.582031 97.058594 L 563.148438 97.058594 C 562.789062 97.058594 562.445312 96.988281 562.113281 96.851562 C 561.78125 96.714844 561.488281 96.519531 561.234375 96.261719 C 560.984375 96.007812 560.789062 95.714844 560.648438 95.382812 C 560.511719 95.050781 560.445312 94.707031 560.445312 94.347656 L 560.445312 87.894531 C 560.445312 87.535156 560.511719 87.1875 560.648438 86.855469 C 560.789062 86.523438 560.984375 86.230469 561.234375 85.976562 C 561.488281 85.722656 561.78125 85.527344 562.113281 85.390625 C 562.445312 85.25 562.789062 85.183594 563.148438 85.183594 L 569.582031 85.183594 C 569.941406 85.183594 570.285156 85.25 570.617188 85.390625 C 570.949219 85.527344 571.242188 85.722656 571.496094 85.976562 C 571.746094 86.230469 571.941406 86.523438 572.082031 86.855469 C 572.21875 87.1875 572.285156 87.535156 572.285156 87.894531 Z M 572.285156 69.96875 C 572.285156 70.328125 572.21875 70.671875 572.082031 71.003906 C 571.941406 71.335938 571.746094 71.628906 571.496094 71.882812 C 571.242188 72.136719 570.949219 72.335938 570.617188 72.472656 C 570.285156 72.609375 569.941406 72.679688 569.582031 72.679688 L 563.148438 72.679688 C 562.789062 72.679688 562.445312 72.609375 562.113281 72.472656 C 561.78125 72.335938 561.488281 72.136719 561.234375 71.882812 C 560.984375 71.628906 560.789062 71.335938 560.648438 71.003906 C 560.511719 70.671875 560.445312 70.328125 560.445312 69.96875 L 560.445312 63.511719 C 560.445312 63.152344 560.511719 62.808594 560.648438 62.476562 C 560.789062 62.144531 560.984375 61.851562 561.234375 61.597656 C 561.488281 61.34375 561.78125 61.148438 562.113281 61.011719 C 562.445312 60.871094 562.789062 60.804688 563.148438 60.804688 L 569.582031 60.804688 C 569.941406 60.804688 570.285156 60.871094 570.617188 61.011719 C 570.949219 61.148438 571.242188 61.34375 571.496094 61.597656 C 571.746094 61.851562 571.941406 62.144531 572.082031 62.476562 C 572.21875 62.808594 572.285156 63.152344 572.285156 63.511719 Z M 614.710938 136.84375 C 614.710938 137.074219 614.628906 137.273438 614.464844 137.4375 C 614.300781 137.605469 614.101562 137.6875 613.867188 137.6875 L 583.289062 137.6875 C 583.054688 137.6875 582.855469 137.605469 582.691406 137.4375 C 582.527344 137.273438 582.445312 137.074219 582.445312 136.84375 C 582.445312 136.609375 582.527344 136.410156 582.691406 136.246094 C 582.855469 136.082031 583.054688 136 583.289062 136 L 613.867188 136 C 614.101562 136 614.296875 136.082031 614.460938 136.246094 C 614.625 136.414062 614.707031 136.609375 614.710938 136.84375 Z M 614.710938 136.84375 "/>
</g>
</g>
</svg>
