<svg width="90" height="100" viewBox="0 0 90 100" fill="none" xmlns="http://www.w3.org/2000/svg">
<g opacity="0.5">
<rect width="1.46309" height="1.47783" fill="#404852"/>
<rect x="9.75401" width="1.46309" height="1.47783" fill="#404852"/>
<rect x="19.5078" width="1.46309" height="1.47783" fill="#404852"/>
<rect x="29.2618" width="1.46309" height="1.47783" fill="#404852"/>
<rect x="39.0158" width="1.46309" height="1.47783" fill="#404852"/>
<rect x="48.7696" width="1.46309" height="1.47783" fill="#404852"/>
<rect x="58.5237" width="1.46309" height="1.47783" fill="#404852"/>
<rect x="68.2777" width="1.46309" height="1.47783" fill="#404852"/>
<rect x="78.0315" width="1.46309" height="1.47783" fill="#404852"/>
<rect x="87.7855" width="1.46309" height="1.47783" fill="#404852"/>
<rect y="9.85223" width="1.46309" height="1.47783" fill="#404852"/>
<rect x="9.75401" y="9.85217" width="1.46309" height="1.47783" fill="#404852"/>
<rect x="19.5078" y="9.85217" width="1.46309" height="1.47783" fill="#404852"/>
<rect x="29.2618" y="9.85217" width="1.46309" height="1.47783" fill="#404852"/>
<rect x="39.0158" y="9.85217" width="1.46309" height="1.47783" fill="#404852"/>
<rect x="48.7696" y="9.85217" width="1.46309" height="1.47783" fill="#404852"/>
<rect x="58.5237" y="9.85217" width="1.46309" height="1.47783" fill="#404852"/>
<rect x="68.2777" y="9.85217" width="1.46309" height="1.47783" fill="#404852"/>
<rect x="78.0315" y="9.85217" width="1.46309" height="1.47783" fill="#404852"/>
<rect x="87.7855" y="9.85217" width="1.46309" height="1.47783" fill="#404852"/>
<rect y="19.7044" width="1.46309" height="1.47783" fill="#404852"/>
<rect x="9.75401" y="19.7045" width="1.46309" height="1.47783" fill="#404852"/>
<rect x="19.5078" y="19.7045" width="1.46309" height="1.47783" fill="#404852"/>
<rect x="29.2618" y="19.7045" width="1.46309" height="1.47783" fill="#404852"/>
<rect x="39.0158" y="19.7045" width="1.46309" height="1.47783" fill="#404852"/>
<rect x="48.7696" y="19.7045" width="1.46309" height="1.47783" fill="#404852"/>
<rect x="58.5237" y="19.7045" width="1.46309" height="1.47783" fill="#404852"/>
<rect x="68.2777" y="19.7045" width="1.46309" height="1.47783" fill="#404852"/>
<rect x="78.0315" y="19.7045" width="1.46309" height="1.47783" fill="#404852"/>
<rect x="87.7855" y="19.7045" width="1.46309" height="1.47783" fill="#404852"/>
<rect y="29.5566" width="1.46309" height="1.47783" fill="#404852"/>
<rect x="9.75401" y="29.5566" width="1.46309" height="1.47783" fill="#404852"/>
<rect x="19.5078" y="29.5566" width="1.46309" height="1.47783" fill="#404852"/>
<rect x="29.2618" y="29.5566" width="1.46309" height="1.47783" fill="#404852"/>
<rect x="39.0158" y="29.5566" width="1.46309" height="1.47783" fill="#404852"/>
<rect x="48.7696" y="29.5566" width="1.46309" height="1.47783" fill="#404852"/>
<rect x="58.5237" y="29.5566" width="1.46309" height="1.47783" fill="#404852"/>
<rect x="68.2777" y="29.5566" width="1.46309" height="1.47783" fill="#404852"/>
<rect x="78.0315" y="29.5566" width="1.46309" height="1.47783" fill="#404852"/>
<rect x="87.7855" y="29.5566" width="1.46309" height="1.47783" fill="#404852"/>
<rect y="39.4089" width="1.46309" height="1.47783" fill="#404852"/>
<rect x="9.75401" y="39.4088" width="1.46309" height="1.47783" fill="#404852"/>
<rect x="19.5078" y="39.4088" width="1.46309" height="1.47783" fill="#404852"/>
<rect x="29.2618" y="39.4088" width="1.46309" height="1.47783" fill="#404852"/>
<rect x="39.0158" y="39.4088" width="1.46309" height="1.47783" fill="#404852"/>
<rect x="48.7696" y="39.4088" width="1.46309" height="1.47783" fill="#404852"/>
<rect x="58.5237" y="39.4088" width="1.46309" height="1.47783" fill="#404852"/>
<rect x="68.2777" y="39.4088" width="1.46309" height="1.47783" fill="#404852"/>
<rect x="78.0315" y="39.4088" width="1.46309" height="1.47783" fill="#404852"/>
<rect x="87.7855" y="39.4088" width="1.46309" height="1.47783" fill="#404852"/>
<rect y="49.2611" width="1.46309" height="1.47783" fill="#404852"/>
<rect x="9.75401" y="49.2611" width="1.46309" height="1.47783" fill="#404852"/>
<rect x="19.5078" y="49.2611" width="1.46309" height="1.47783" fill="#404852"/>
<rect x="29.2618" y="49.2611" width="1.46309" height="1.47783" fill="#404852"/>
<rect x="39.0158" y="49.2611" width="1.46309" height="1.47783" fill="#404852"/>
<rect x="48.7696" y="49.2611" width="1.46309" height="1.47783" fill="#404852"/>
<rect x="58.5237" y="49.2611" width="1.46309" height="1.47783" fill="#404852"/>
<rect x="68.2777" y="49.2611" width="1.46309" height="1.47783" fill="#404852"/>
<rect x="78.0315" y="49.2611" width="1.46309" height="1.47783" fill="#404852"/>
<rect x="87.7855" y="49.2611" width="1.46309" height="1.47783" fill="#404852"/>
<rect y="59.1133" width="1.46309" height="1.47783" fill="#404852"/>
<rect x="9.75401" y="59.1133" width="1.46309" height="1.47783" fill="#404852"/>
<rect x="19.5078" y="59.1133" width="1.46309" height="1.47783" fill="#404852"/>
<rect x="29.2618" y="59.1133" width="1.46309" height="1.47783" fill="#404852"/>
<rect x="39.0158" y="59.1133" width="1.46309" height="1.47783" fill="#404852"/>
<rect x="48.7696" y="59.1133" width="1.46309" height="1.47783" fill="#404852"/>
<rect x="58.5237" y="59.1133" width="1.46309" height="1.47783" fill="#404852"/>
<rect x="68.2777" y="59.1133" width="1.46309" height="1.47783" fill="#404852"/>
<rect x="78.0315" y="59.1133" width="1.46309" height="1.47783" fill="#404852"/>
<rect x="87.7855" y="59.1133" width="1.46309" height="1.47783" fill="#404852"/>
<rect y="68.9655" width="1.46309" height="1.47783" fill="#404852"/>
<rect x="9.75401" y="68.9656" width="1.46309" height="1.47783" fill="#404852"/>
<rect x="19.5078" y="68.9656" width="1.46309" height="1.47783" fill="#404852"/>
<rect x="29.2618" y="68.9656" width="1.46309" height="1.47783" fill="#404852"/>
<rect x="39.0158" y="68.9656" width="1.46309" height="1.47783" fill="#404852"/>
<rect x="48.7696" y="68.9656" width="1.46309" height="1.47783" fill="#404852"/>
<rect x="58.5237" y="68.9656" width="1.46309" height="1.47783" fill="#404852"/>
<rect x="68.2777" y="68.9656" width="1.46309" height="1.47783" fill="#404852"/>
<rect x="78.0315" y="68.9656" width="1.46309" height="1.47783" fill="#404852"/>
<rect x="87.7855" y="68.9656" width="1.46309" height="1.47783" fill="#404852"/>
<rect y="78.8177" width="1.46309" height="1.47783" fill="#404852"/>
<rect x="9.75401" y="78.8177" width="1.46309" height="1.47783" fill="#404852"/>
<rect x="19.5078" y="78.8177" width="1.46309" height="1.47783" fill="#404852"/>
<rect x="29.2618" y="78.8177" width="1.46309" height="1.47783" fill="#404852"/>
<rect x="39.0158" y="78.8177" width="1.46309" height="1.47783" fill="#404852"/>
<rect x="48.7696" y="78.8177" width="1.46309" height="1.47783" fill="#404852"/>
<rect x="58.5237" y="78.8177" width="1.46309" height="1.47783" fill="#404852"/>
<rect x="68.2777" y="78.8177" width="1.46309" height="1.47783" fill="#404852"/>
<rect x="78.0315" y="78.8177" width="1.46309" height="1.47783" fill="#404852"/>
<rect x="87.7855" y="78.8177" width="1.46309" height="1.47783" fill="#404852"/>
<rect y="88.6699" width="1.46309" height="1.47783" fill="#404852"/>
<rect x="9.75401" y="88.6699" width="1.46309" height="1.47783" fill="#404852"/>
<rect x="19.5078" y="88.6699" width="1.46309" height="1.47783" fill="#404852"/>
<rect x="29.2618" y="88.6699" width="1.46309" height="1.47783" fill="#404852"/>
<rect x="39.0158" y="88.6699" width="1.46309" height="1.47783" fill="#404852"/>
<rect x="48.7696" y="88.6699" width="1.46309" height="1.47783" fill="#404852"/>
<rect x="58.5237" y="88.6699" width="1.46309" height="1.47783" fill="#404852"/>
<rect x="68.2777" y="88.6699" width="1.46309" height="1.47783" fill="#404852"/>
<rect x="78.0315" y="88.6699" width="1.46309" height="1.47783" fill="#404852"/>
<rect x="87.7855" y="88.6699" width="1.46309" height="1.47783" fill="#404852"/>
<rect y="98.5222" width="1.46309" height="1.47783" fill="#404852"/>
<rect x="9.75401" y="98.5222" width="1.46309" height="1.47783" fill="#404852"/>
<rect x="19.5078" y="98.5222" width="1.46309" height="1.47783" fill="#404852"/>
<rect x="29.2618" y="98.5222" width="1.46309" height="1.47783" fill="#404852"/>
<rect x="39.0158" y="98.5222" width="1.46309" height="1.47783" fill="#404852"/>
<rect x="48.7696" y="98.5222" width="1.46309" height="1.47783" fill="#404852"/>
<rect x="58.5237" y="98.5222" width="1.46309" height="1.47783" fill="#404852"/>
<rect x="68.2777" y="98.5222" width="1.46309" height="1.47783" fill="#404852"/>
<rect x="78.0315" y="98.5222" width="1.46309" height="1.47783" fill="#404852"/>
<rect x="87.7855" y="98.5222" width="1.46309" height="1.47783" fill="#404852"/>
</g>
</svg>
