<svg width="65" height="65" viewBox="0 0 65 65" fill="none" xmlns="http://www.w3.org/2000/svg">
<path d="M63.3665 2.48249C63.2269 1.97921 62.8336 1.58619 62.3306 1.44645C56.9071 -0.0587922 51.0326 0.234073 45.3419 2.29291C40.9324 3.88834 36.6439 6.56282 33.576 9.63091L28.9484 14.2584L12.184 16.8771C11.8724 16.9257 11.5844 17.0721 11.3613 17.2951L0.639122 28.0172C0.221551 28.435 0.0902968 29.0598 0.304738 29.61C0.519178 30.1602 1.03884 30.5315 1.62874 30.5563L12.2054 31.0011L9.55456 33.6519C8.97344 34.233 8.97344 35.1753 9.55456 35.7566L11.1018 37.3037L6.48066 44.3871C6.09613 44.9765 6.17693 45.7546 6.67471 46.2524L18.5607 58.1382C19.0584 58.6358 19.8366 58.7171 20.4262 58.3322L27.5093 53.711L29.0565 55.2582C29.6376 55.8392 30.5799 55.8392 31.1612 55.2582L33.812 52.6074L34.2568 63.1837C34.2816 63.7738 34.6529 64.2933 35.2031 64.5077C35.3787 64.5762 35.5617 64.6093 35.7433 64.6093C36.1308 64.6093 36.5115 64.4577 36.7958 64.1735L47.518 53.4513C47.7411 53.2282 47.8874 52.9401 47.9362 52.6287L50.555 35.8643L55.1824 31.2368C58.2503 28.1689 60.9249 23.8804 62.5204 19.471C64.5789 13.7805 64.8716 7.90586 63.3665 2.48249ZM19.8113 55.1796L9.63328 45.0016L13.2526 39.4542L18.2534 44.4549L17.6652 45.043C17.084 45.6241 17.084 46.5664 17.6652 47.1477C18.2464 47.7287 19.1886 47.7287 19.7699 47.1477L20.358 46.5596L25.3588 51.5603L19.8113 55.1796ZM53.0776 29.1325L48.107 34.1031C48.1064 34.1037 48.1058 34.1043 48.1052 34.1049L42.9334 39.2768C42.3522 39.8579 42.3522 40.8002 42.9334 41.3815C43.5145 41.9624 44.4568 41.9624 45.038 41.3815L46.9848 39.4347L45.0703 51.6901L37.088 59.6726L36.6707 49.7488L40.829 45.5905C41.4101 45.0094 41.4101 44.0671 40.829 43.4858C40.2479 42.9049 39.3056 42.9049 38.7243 43.4858L34.108 48.1022C34.1054 48.1047 34.1031 48.1071 34.1005 48.1096L30.1087 52.1013L28.7818 50.7743C28.7666 50.7587 28.7514 50.7433 28.7356 50.7283L22.4624 44.4549L40.4607 26.4568C41.0418 25.8757 41.0419 24.9334 40.4607 24.3521C39.8797 23.7713 38.9374 23.7711 38.3561 24.3521L20.3579 42.3505L14.0843 36.077C14.0695 36.0615 14.0543 36.0463 14.0387 36.0313L12.7117 34.7042L16.7035 30.7124C16.706 30.71 16.7084 30.7076 16.7108 30.7051L21.3271 26.0888C21.9084 25.5077 21.9084 24.5654 21.3271 23.9841C20.7461 23.4031 19.8037 23.4031 19.2226 23.9841L15.0643 28.1424L5.14044 27.725L13.1229 19.7426L25.3783 17.8283L23.4315 19.7749L25.536 21.8796L30.6922 16.7233C30.7034 16.7125 30.7146 16.7015 30.7254 16.6901L35.6803 11.7352C39.8215 7.59424 49.6545 1.45851 60.7112 4.10159C63.3543 15.1584 57.2186 24.9916 53.0776 29.1325Z" fill="#DEE6ED"/>
</svg>
