<svg width="81" height="62" viewBox="0 0 81 62" fill="none" xmlns="http://www.w3.org/2000/svg">
<path d="M77.7062 17.185L46.048 1.71972C43.3188 0.355145 38.6792 0.355145 35.9501 1.71972L3.56397 17.185C1.28967 18.2766 0.925781 19.8232 0.925781 20.6419C0.925781 21.4607 1.28967 22.9162 3.56397 24.0988L6.20216 25.3725V39.928C4.56466 40.5648 3.38202 42.2023 3.38202 44.0217C3.38202 45.8412 4.56466 47.4787 6.11118 48.1155L2.01744 61.1245H13.48L9.38618 48.1155C11.0237 47.4787 12.1154 45.8412 12.1154 44.0217C12.1154 42.1113 10.9328 40.5648 9.2952 39.928V26.919L14.1168 29.2843V48.2064C14.1168 48.4794 14.2077 48.7523 14.3897 49.0252C14.8445 49.571 23.3049 61.1245 40.5896 61.1245C57.8743 61.1245 66.3347 49.48 66.6986 49.0252C66.8806 48.7523 66.9715 48.4794 66.9715 48.2064V29.3752L77.7062 24.0988C79.9805 23.0072 80.3444 21.4607 80.3444 20.6419C80.2534 19.8232 79.9805 18.2766 77.7062 17.185ZM64.0604 47.7516C62.6049 49.571 54.7813 58.3043 40.5896 58.3043C26.398 58.3043 18.5744 49.571 17.1189 47.7516V30.5579L35.9501 39.5641C37.3146 40.2009 39.1341 40.5648 40.9535 40.5648C42.8639 40.5648 44.6834 40.2009 46.048 39.4731L64.0604 30.6488V47.7516ZM76.4326 21.5516L65.516 26.919C65.0611 26.919 64.6972 27.1009 64.5153 27.4648L44.7744 37.0169C42.8639 38.0176 39.1341 38.0176 37.1327 37.0169L12.8432 25.3725L40.7716 22.0975C41.5903 22.0065 42.1362 21.2787 42.0452 20.5509C41.9542 19.7322 41.2264 19.1864 40.4987 19.2773L8.11257 23.0982L4.83757 21.5516C4.01883 21.1877 3.83688 20.7329 3.83688 20.7329C3.83688 20.6419 4.01883 20.278 4.83757 19.9141L37.2237 4.35791C38.2244 3.90305 39.5889 3.63014 40.9535 3.63014C42.4091 3.63014 43.8646 3.90305 44.7744 4.35791L76.4326 19.8232C77.2514 20.187 77.4333 20.5509 77.4333 20.7329C77.4333 20.7329 77.1604 21.1877 76.4326 21.5516Z" fill="#DEE6ED"/>
</svg>
