<svg width="81" height="82" viewBox="0 0 81 82" fill="none" xmlns="http://www.w3.org/2000/svg">
<path d="M79.2873 51.3166H77.0067V7.16012C77.0067 6.84603 76.8819 6.54481 76.6598 6.32271C76.4377 6.10062 76.1365 5.97585 75.8224 5.97585H43.5899V2.08466C43.5899 1.77058 43.4651 1.46935 43.243 1.24726C43.0209 1.02516 42.7197 0.900391 42.4056 0.900391H38.3452C38.0312 0.900391 37.7299 1.02516 37.5078 1.24726C37.2857 1.46935 37.161 1.77058 37.161 2.08466V5.97585H4.92842C4.61433 5.97585 4.3131 6.10062 4.09101 6.32271C3.86892 6.54481 3.74414 6.84603 3.74414 7.16012V51.3166H1.46357C1.14948 51.3166 0.848257 51.4414 0.626163 51.6635C0.404068 51.8856 0.279297 52.1868 0.279297 52.5009V58.5914C0.279297 58.9055 0.404068 59.2067 0.626163 59.4288C0.848257 59.6509 1.14948 59.7757 1.46357 59.7757H28.6349L20.2536 76.434C19.8704 77.1957 19.8055 78.0783 20.0731 78.8878C20.3407 79.6973 20.9189 80.3674 21.6805 80.7505C22.4421 81.1337 23.3247 81.1987 24.1342 80.9311C24.9438 80.6635 25.6138 80.0853 25.997 79.3237L35.8332 59.7757H44.9176L54.7545 79.325C54.9445 79.7021 55.2068 80.038 55.5265 80.3136C55.8462 80.5893 56.2171 80.7993 56.618 80.9316C57.0189 81.0639 57.4419 81.1159 57.8629 81.0848C58.284 81.0536 58.6947 80.9398 59.0717 80.7499C59.4488 80.56 59.7847 80.2977 60.0603 79.9779C60.336 79.6582 60.546 79.2873 60.6783 78.8864C60.8106 78.4855 60.8626 78.0625 60.8315 77.6415C60.8003 77.2205 60.6865 76.8097 60.4966 76.4327L52.116 59.7757H79.2873C79.6014 59.7757 79.9026 59.6509 80.1247 59.4288C80.3468 59.2067 80.4715 58.9055 80.4715 58.5914V52.5009C80.4715 52.1868 80.3468 51.8856 80.1247 51.6635C79.9026 51.4414 79.6014 51.3166 79.2873 51.3166ZM39.5295 3.26894H41.2213V5.97585H39.5295V3.26894ZM6.11269 8.3444H74.6382V51.3166H6.11269V8.3444ZM23.8815 78.2585C23.8315 78.3577 23.7625 78.4461 23.6783 78.5187C23.5942 78.5912 23.4966 78.6465 23.3911 78.6813C23.2856 78.7161 23.1742 78.7298 23.0634 78.7216C22.9526 78.7134 22.8445 78.6834 22.7453 78.6334C22.6461 78.5834 22.5577 78.5144 22.4851 78.4302C22.4126 78.3461 22.3573 78.2485 22.3225 78.1429C22.2877 78.0374 22.274 77.9261 22.2822 77.8153C22.2905 77.7045 22.3204 77.5964 22.3704 77.4972L31.2863 59.7757H33.1811L23.8815 78.2585ZM58.3818 77.4985C58.4468 77.6275 58.4776 77.771 58.4714 77.9153C58.4652 78.0596 58.4221 78.2 58.3462 78.3229C58.2703 78.4458 58.1642 78.5472 58.038 78.6174C57.9118 78.6877 57.7697 78.7244 57.6252 78.7241C57.4688 78.7233 57.3156 78.6795 57.1824 78.5975C57.0492 78.5155 56.9411 78.3985 56.87 78.2592L47.569 59.7757H49.4639L58.3818 77.4985ZM78.103 57.4072H2.64784V53.6852H78.103V57.4072Z" fill="#DEE6ED"/>
</svg>
