<svg width="311" height="105" viewBox="0 0 311 105" fill="none" xmlns="http://www.w3.org/2000/svg">
<path d="M1.65244 81.3106C1.32563 81.3106 0.99712 81.2136 0.707516 81.0129C-0.0415714 80.4887 -0.224341 79.4598 0.296622 78.7107C0.296622 78.7107 1.3418 77.2093 3.28328 74.6756C3.83822 73.9492 4.88173 73.8133 5.6017 74.365C6.32652 74.9199 6.46566 75.9603 5.9091 76.6851C4.03719 79.1297 3.02278 80.5874 3.00984 80.602C2.6895 81.0647 2.17502 81.3106 1.65244 81.3106Z" fill="#292C3D"/>
<path d="M181.64 105C179.735 105 177.858 104.832 176.059 104.502C175.161 104.333 174.567 103.471 174.732 102.573C174.9 101.675 175.743 101.098 176.661 101.246C179.547 101.78 182.652 101.976 185.887 101.114C186.787 100.873 187.674 101.405 187.91 102.29C188.143 103.172 187.619 104.076 186.734 104.312C185.015 104.767 183.302 105 181.64 105ZM167.049 100.991C166.757 100.991 166.468 100.916 166.199 100.758C163.382 99.0752 160.727 96.9201 158.077 94.1713C157.445 93.5161 157.464 92.4693 158.123 91.8334C158.781 91.2073 159.825 91.217 160.461 91.8787C162.904 94.4108 165.335 96.3878 167.896 97.9151C168.678 98.3876 168.938 99.4004 168.469 100.185C168.159 100.704 167.608 100.991 167.049 100.991ZM195.31 99.9893C194.787 99.9893 194.27 99.7401 193.946 99.2758C193.43 98.5235 193.621 97.4928 194.37 96.9719C196.745 95.3378 199.272 93.2281 201.895 90.7025C202.55 90.0699 203.602 90.0829 204.229 90.7446C204.867 91.3998 204.848 92.4466 204.189 93.0792C201.4 95.7698 198.805 97.9345 196.25 99.6981C195.964 99.8971 195.637 99.9893 195.31 99.9893ZM152.929 86.873C152.408 86.873 151.899 86.627 151.575 86.1676C149.834 83.6906 148.042 80.8738 146.09 77.5603C145.624 76.7724 145.89 75.758 146.674 75.2969C147.454 74.8342 148.472 75.0898 148.938 75.881C150.844 79.12 152.591 81.8623 154.28 84.2698C154.806 85.0156 154.626 86.0495 153.877 86.572C153.591 86.7759 153.258 86.873 152.929 86.873ZM209.955 86.2177C209.569 86.2177 209.18 86.0818 208.866 85.8116C208.177 85.2098 208.108 84.163 208.708 83.4754C210.688 81.2119 212.779 78.6912 215.097 75.7758C215.665 75.0591 216.715 74.9458 217.424 75.5105C218.135 76.0783 218.257 77.1219 217.687 77.837C215.333 80.7929 213.214 83.3508 211.201 85.6531C210.873 86.0268 210.413 86.2177 209.955 86.2177ZM222.588 70.4966C222.237 70.4966 221.881 70.3866 221.582 70.1536C220.858 69.5987 220.722 68.5616 221.277 67.8352L223.24 65.2757C224.644 63.4345 226.039 61.6127 227.419 59.833C227.98 59.1066 229.021 58.9836 229.739 59.5353C230.461 60.0935 230.593 61.1338 230.037 61.8538C228.66 63.6302 227.272 65.4488 225.867 67.2835L223.902 69.8478C223.573 70.2733 223.083 70.4966 222.588 70.4966ZM142.57 69.589C141.986 69.589 141.421 69.2783 141.12 68.7266L139.484 65.7287C138.428 63.7839 137.365 61.8328 136.289 59.888C135.847 59.0904 136.137 58.0825 136.935 57.6408C137.735 57.2039 138.737 57.4855 139.184 58.2863C140.266 60.2375 141.327 62.1984 142.387 64.1464L144.018 67.1443C144.456 67.9452 144.163 68.9499 143.359 69.3867C143.113 69.5243 142.838 69.589 142.57 69.589ZM10.902 69.4919C10.5282 69.4919 10.1464 69.3657 9.83737 69.1036C9.14005 68.5114 9.05105 67.4695 9.63997 66.7722C11.8209 64.1819 14.0779 61.6192 16.351 59.1551C16.9691 58.4805 18.0175 58.4449 18.6873 59.0613C19.3588 59.6777 19.4008 60.7245 18.7827 61.3959C16.5435 63.8244 14.319 66.3483 12.1671 68.903C11.8419 69.2913 11.3728 69.4919 10.902 69.4919ZM24.5619 54.6784C24.1364 54.6784 23.7109 54.5134 23.3857 54.1866C22.7434 53.5378 22.7498 52.491 23.4002 51.8487C25.8449 49.4283 28.3381 47.0905 30.8102 44.8917C31.4913 44.2899 32.5382 44.3465 33.1432 45.0293C33.7516 45.7104 33.6901 46.7572 33.0074 47.3655C30.5789 49.5222 28.1278 51.8228 25.7236 54.1995C25.4032 54.5198 24.9825 54.6784 24.5619 54.6784ZM235.016 54.6169C234.643 54.6169 234.267 54.4907 233.958 54.2319C233.256 53.6478 233.164 52.6043 233.748 51.9037C236.277 48.8702 238.518 46.3867 240.602 44.3077C241.247 43.667 242.297 43.6654 242.943 44.3109C243.585 44.9597 243.585 46.0065 242.939 46.652C240.927 48.6582 238.749 51.0673 236.287 54.0232C235.96 54.4131 235.489 54.6169 235.016 54.6169ZM132.712 52.0008C132.152 52.0008 131.607 51.716 131.296 51.2032C129.403 48.0822 127.62 45.3642 125.841 42.892C125.307 42.1526 125.475 41.1188 126.216 40.5849C126.96 40.0461 127.994 40.216 128.523 40.9602C130.355 43.502 132.189 46.2928 134.126 49.4898C134.598 50.268 134.349 51.2857 133.568 51.7597C133.299 51.9231 133.006 52.0008 132.712 52.0008ZM39.6359 41.3097C39.1456 41.3097 38.6587 41.0929 38.3335 40.6771C37.7688 39.9604 37.895 38.9201 38.615 38.3538C41.3719 36.1907 44.145 34.1716 46.8533 32.353C47.6105 31.8402 48.6394 32.044 49.1474 32.806C49.6555 33.5616 49.4533 34.589 48.6977 35.0986C46.0573 36.8718 43.3522 38.8424 40.6567 40.9586C40.3526 41.1932 39.9918 41.3097 39.6359 41.3097ZM120.828 35.7765C120.387 35.7765 119.945 35.5985 119.618 35.2507C117.287 32.751 114.85 30.5604 112.375 28.7483C111.637 28.2096 111.477 27.1725 112.017 26.4364C112.556 25.6954 113.593 25.5417 114.328 26.0804C116.971 28.0155 119.565 30.3436 122.037 32.9953C122.662 33.6635 122.623 34.7103 121.955 35.33C121.637 35.6277 121.231 35.7765 120.828 35.7765ZM56.3762 30.1268C55.7922 30.1268 55.2259 29.8161 54.9266 29.2677C54.4882 28.4668 54.7811 27.4621 55.5819 27.022C58.6834 25.3232 61.7962 23.8332 64.8347 22.5971C65.6776 22.2509 66.6434 22.6553 66.9897 23.5047C67.3359 24.3509 66.9282 25.3135 66.0836 25.6598C63.1601 26.8522 60.1605 28.2856 57.169 29.923C56.9182 30.0621 56.6448 30.1268 56.3762 30.1268ZM104.64 24.126C104.429 24.126 104.213 24.0872 104.006 23.9998C101.25 22.8527 98.3267 22.0292 95.3158 21.5519L94.7431 21.4613C93.8403 21.3287 93.219 20.4857 93.3517 19.5846C93.4876 18.6834 94.3337 18.054 95.2317 18.1932L95.8449 18.287C99.1034 18.8064 102.279 19.7027 105.274 20.9452C106.117 21.2979 106.518 22.2622 106.167 23.1051C105.903 23.741 105.287 24.126 104.64 24.126ZM75.0128 22.6456C74.2702 22.6456 73.5956 22.1425 73.4095 21.3902C73.1895 20.5019 73.7315 19.6072 74.6181 19.3872C78.0707 18.5346 81.5119 17.9958 84.8448 17.7855C85.7492 17.6916 86.5403 18.4213 86.5986 19.3322C86.6536 20.2431 85.9628 21.0277 85.0503 21.086C81.9148 21.2834 78.6725 21.793 75.4124 22.5971C75.2781 22.6294 75.1455 22.6456 75.0128 22.6456Z" fill="#292C3D"/>
<path d="M302.378 9.30133L246.149 44.0311L248.715 23.7378L302.378 9.30133Z" fill="#0254E4"/>
<path d="M302.378 9.30133L246.149 44.0311L253.213 29.5784L302.378 9.30133Z" fill="#292C3D"/>
<path d="M269.475 50.8538L234.47 7.99242L310.268 0L269.475 50.8538Z" fill="white"/>
<path d="M307.89 1.30882L248.442 25.1016L252.744 30.3695L307.89 1.30882Z" fill="#0254E4"/>
</svg>
