<svg width="76" height="144" viewBox="0 0 76 144" fill="none" xmlns="http://www.w3.org/2000/svg">
<g filter="url(#filter0_d)">
<path d="M42.7467 11.9286H39.1961H35.6456C35.6456 11.9286 34.6227 21.602 32.7703 22.7541C32.7703 22.7541 30.4843 34.1818 39.1961 34.1818C49.7381 34.1818 45.6219 22.7541 45.6219 22.7541C43.7709 21.6033 42.7467 11.9286 42.7467 11.9286Z" fill="#E76F59"/>
<path d="M48.4305 13.8228C47.4468 12.6915 46.2646 14.4132 46.2646 14.4132C46.2646 14.4132 47.8884 8.01748 46.2646 5.21151C44.6409 2.40553 39.3751 3.88169 39.3751 3.88169C39.3751 3.88169 34.1093 2.40553 32.4856 5.21151C30.8618 8.01748 32.4856 14.4132 32.4856 14.4132C32.4856 14.4132 31.3047 12.6915 30.3197 13.8228C29.336 14.9554 31.9434 17.8097 32.5339 18.1532C32.5339 18.1532 36.3235 25.24 39.3738 25.24C42.4241 25.24 46.2137 18.1532 46.2137 18.1532C46.8067 17.8084 49.4142 14.9554 48.4305 13.8228Z" fill="#F9A57E"/>
<path d="M38.0504 6.41728C38.0504 6.41728 34.0648 7.11876 33.6219 9.25982C33.4064 10.2997 33.6441 11.4257 33.8349 12.4512C33.9355 12.9933 34.3182 15.9077 34.1758 15.9769C34.0348 16.0462 33.7657 15.9717 33.6585 15.8881C33.119 15.4622 32.6971 14.8234 32.3117 14.2604C31.5528 13.1514 30.4659 13.3382 30.1524 14.0383C30.1524 14.0383 29.2667 3.53815 33.6598 3.16977C38.0504 2.80008 38.0504 6.41728 38.0504 6.41728Z" fill="#292C3D"/>
<path d="M40.6461 6.41728C40.6461 6.41728 44.6317 7.11876 45.0745 9.25982C45.2901 10.2997 45.0523 11.4257 44.8616 12.4512C44.761 12.9933 44.3782 15.9077 44.5219 15.9769C44.6617 16.0462 44.9308 15.9717 45.0392 15.8881C45.5788 15.4622 46.0007 14.8234 46.3861 14.2604C47.145 13.1514 48.2319 13.3382 48.5454 14.0383C48.5454 14.0383 49.4311 3.53815 45.038 3.16977C40.6461 2.80008 40.6461 6.41728 40.6461 6.41728Z" fill="#292C3D"/>
<path d="M46.5036 3.79024C46.5036 3.79024 46.5977 2.062 44.6304 0.990813C42.663 -0.0790633 38.7519 -0.559789 35.6507 0.990813C32.5508 2.54142 31.6089 2.89151 30.705 2.37551C29.801 1.85821 30.3732 1.34089 30.3732 1.34089C30.3732 1.34089 28.3431 1.32261 28.4411 4.47215C28.5391 7.62169 32.4124 11.5341 37.4704 11.5341C45.1986 11.5354 47.6989 6.13378 46.5036 3.79024Z" fill="#292C3D"/>
<path d="M45.6231 22.7541C45.2495 32.4705 39.196 31.4672 39.196 31.4672C39.196 31.4672 33.1438 32.4705 32.7715 22.7541C32.7715 22.7541 23.1034 25.4268 18.3902 28.5855C18.3902 28.5855 20.3967 37.074 20.5247 46.4912L26.0505 67.8979L39.196 68.5485L52.3415 67.8979L57.8685 46.4912C57.9965 37.074 60.0031 28.5855 60.0031 28.5855C55.2872 25.4268 45.6231 22.7541 45.6231 22.7541Z" fill="#AFEAF0"/>
<path d="M56.915 34.2001C50.906 37.4032 47.985 44.7708 42.1484 48.3802C36.1106 52.115 31.8363 44.5697 28.8997 40.6442C26.3668 37.2595 23.1532 34.5358 19.2355 32.9512C19.7999 36.3137 20.4517 41.2555 20.5223 46.49L26.048 67.8966L39.1935 68.5471L52.339 67.8966L57.8648 46.49C57.934 41.3574 58.561 36.5136 59.1175 33.1576C58.3572 33.4907 57.6113 33.8291 56.915 34.2001Z" fill="#5AC4E0"/>
<path d="M63.5695 76.568C63.5695 69.0567 54.2528 64.1149 54.2528 64.1149H22.9468C22.9468 64.1149 13.6288 69.0567 13.6288 76.568C13.6288 77.7894 13.9123 79.826 14.3813 82.3668H24.7809C24.3589 83.1296 23.9749 83.8416 23.6718 84.4425C23.5791 84.6267 23.4746 84.7874 23.3779 84.9611C24.9298 84.9611 26.4804 84.9611 28.031 84.9611C29.0016 84.9611 29.9722 84.9611 30.9428 84.9611C31.5137 84.9611 32.594 85.2001 32.4333 84.3576C32.2047 83.1649 31.4627 82.4843 32.1903 81.2303C32.7612 80.2466 34.2909 79.4419 35.4157 79.4171C35.6613 79.4106 35.9068 79.4132 36.1472 79.4184C37.7827 79.455 39.4169 79.455 41.0524 79.4184C41.7487 79.4027 42.2098 79.6091 42.8773 79.7188C43.4064 79.8064 44.1027 79.8103 44.4018 80.3446C44.7611 80.9834 44.8172 81.9892 44.9466 82.6999C44.9858 82.9167 44.8434 84.9598 44.7742 84.9598H55.3815C54.6512 84.035 54.0686 83.1793 53.5643 82.3654H62.817C63.2873 79.826 63.5695 77.7881 63.5695 76.568Z" fill="#0254E4"/>
<path opacity="0.65" d="M63.5695 76.568C63.5695 69.0567 54.2528 64.1149 54.2528 64.1149H22.9468C22.9468 64.1149 13.6288 69.0567 13.6288 76.568C13.6288 77.7894 13.9123 79.826 14.3813 82.3668H24.7809C24.3589 83.1297 23.9749 83.8416 23.6718 84.4425C23.5791 84.6267 23.4746 84.7874 23.3779 84.9611H32.4242C32.6593 84.9611 32.0558 83.6574 32.0022 83.5385C31.7789 83.05 31.7135 82.5183 31.8468 81.9788C31.9735 81.4654 32.4895 80.9167 32.8814 80.5876C34.3641 79.3387 36.4215 79.2904 38.2621 79.3426C40.0609 79.3949 42.0426 79.1467 43.6089 80.1996C43.9394 80.4217 44.1719 80.5863 44.4149 80.8867C45.5017 82.2322 44.9322 83.4667 44.7742 84.9611H55.3815C54.6512 84.0362 54.0686 83.1806 53.5643 82.3668H62.817C63.2873 79.826 63.5695 77.7881 63.5695 76.568Z" fill="#00A1CC"/>
<path d="M18.3892 28.5855C18.3892 28.5855 6.43371 54.4219 7.30241 57.8601C7.52057 58.7197 22.0612 67.5021 28.9076 66.2415L31.6927 65.7281C31.6927 65.7294 21.5322 28.4013 18.3892 28.5855Z" fill="#AFEAF0"/>
<path d="M59.9784 28.5855C59.9784 28.5855 71.9338 54.4219 71.0651 57.8601C70.847 58.7197 56.3063 67.5021 49.4599 66.2415L46.6735 65.7281C46.6735 65.7294 56.8354 28.4013 59.9784 28.5855Z" fill="#AFEAF0"/>
<path d="M23.0487 37.6226C23.0304 38.8127 22.8932 40.0615 22.5915 41.3966C21.5333 46.0641 19.8678 50.938 21.6156 55.6799C22.9376 59.2658 25.0578 62.9091 27.0107 66.3525C27.6887 66.38 28.3262 66.3499 28.9062 66.2428L31.6913 65.7294C31.6926 65.7294 27.0343 48.6179 23.0487 37.6226Z" fill="#5AC4E0"/>
<path d="M53.4416 66.1109C54.3129 63.9424 54.8472 61.6603 54.7649 59.2266C54.6042 54.4559 54.5781 49.6839 54.6552 44.9119C54.6878 42.8493 54.7414 40.8506 54.8629 38.895C50.987 49.8877 46.6735 65.7295 46.6735 65.7295L49.4599 66.2429C50.6055 66.4532 51.9693 66.3787 53.4416 66.1109Z" fill="#5AC4E0"/>
<path d="M27.2629 121.281C27.2629 121.281 19.6797 130.305 18.7927 132.225C17.9057 134.147 20.0729 136.558 23.0278 135.573C25.9827 134.588 27.7057 132.57 27.7553 131.29C27.805 130.01 29.3804 129.326 30.0701 129.224C30.7599 129.123 34.6984 124.642 34.3052 123.411C33.912 122.179 31.9343 120.83 31.9343 120.83L27.2629 121.281Z" fill="#292C3D"/>
<path d="M49.9353 121.281C49.9353 121.281 57.5199 130.305 58.4055 132.225C59.2912 134.147 57.1253 136.558 54.1704 135.573C51.2155 134.588 49.4925 132.57 49.4428 131.29C49.3932 130.01 47.8178 129.326 47.1294 129.224C46.4409 129.123 42.4998 124.642 42.8943 123.411C43.2888 122.179 45.2652 120.83 45.2652 120.83L49.9353 121.281Z" fill="#292C3D"/>
<path d="M11.544 83.6378H9.07117V135.803H11.544V83.6378Z" fill="#AFEAF0"/>
<path d="M68.6706 83.6378H66.1978V135.803H68.6706V83.6378Z" fill="#AFEAF0"/>
<path d="M71.8815 79.4341H4.2207V86.1172H71.8815V79.4341Z" fill="#292C3D"/>
<path d="M29.9186 76.1722C29.0159 74.0233 28.8317 69.4786 22.7495 69.4786C11.0344 69.4786 13.7803 78.8671 13.9592 80.2701C15.7319 94.2477 24.2322 122.134 24.2322 122.134H35.9642C35.9642 122.134 31.6965 87.9656 31.0381 82.6959C30.9479 81.9709 30.5391 77.6483 29.9186 76.1722Z" fill="#0254E4"/>
<path d="M47.307 76.1722C48.2097 74.0233 48.3939 69.4786 54.4761 69.4786C66.199 69.4786 63.4453 78.8671 63.2663 80.2701C61.4923 94.2477 52.9934 122.134 52.9934 122.134H41.2614C41.2614 122.134 45.5291 87.9656 46.1875 82.6959C46.2777 81.9709 46.6865 77.6483 47.307 76.1722Z" fill="#0254E4"/>
<path d="M56.4226 66.0247H21.9697V68.0665H56.4226V66.0247Z" fill="#292C3D"/>
<path d="M61.4897 42.14H16.9037C16.9037 42.14 14.4974 42.1387 14.9102 44.8245C15.323 47.5103 20.9429 66.2886 22.0767 66.2886C24.1851 66.2886 39.1974 66.2886 39.1974 66.2886C39.1974 66.2886 54.2096 66.2886 56.318 66.2886C57.3147 66.2886 63.0717 47.5103 63.4845 44.8245C63.896 42.1387 61.4897 42.14 61.4897 42.14Z" fill="#292C3D"/>
<path d="M39.196 56.9837C40.2147 56.9837 41.0406 56.1579 41.0406 55.1392C41.0406 54.1205 40.2147 53.2946 39.196 53.2946C38.1773 53.2946 37.3515 54.1205 37.3515 55.1392C37.3515 56.1579 38.1773 56.9837 39.196 56.9837Z" fill="white"/>
</g>
<defs>
<filter id="filter0_d" x="0.220703" y="0" width="75.6608" height="143.803" filterUnits="userSpaceOnUse" color-interpolation-filters="sRGB">
<feFlood flood-opacity="0" result="BackgroundImageFix"/>
<feColorMatrix in="SourceAlpha" type="matrix" values="0 0 0 0 0 0 0 0 0 0 0 0 0 0 0 0 0 0 127 0"/>
<feOffset dy="4"/>
<feGaussianBlur stdDeviation="2"/>
<feColorMatrix type="matrix" values="0 0 0 0 0 0 0 0 0 0 0 0 0 0 0 0 0 0 0.25 0"/>
<feBlend mode="normal" in2="BackgroundImageFix" result="effect1_dropShadow"/>
<feBlend mode="normal" in="SourceGraphic" in2="effect1_dropShadow" result="shape"/>
</filter>
</defs>
</svg>
