<svg width="1200" height="800" viewBox="0 0 1200 800" fill="none" xmlns="http://www.w3.org/2000/svg">
<path d="M957.843 217.897L957.844 217.9C965.604 247.045 969.547 292.411 971.525 330.848C972.51 349.991 973.003 367.29 973.25 379.802C973.373 386.057 973.434 391.114 973.465 394.603C973.481 396.348 973.488 397.701 973.492 398.616C973.494 399.074 973.495 399.422 973.495 399.655L973.496 399.917L973.496 399.982V399.998V400.001C973.496 400.002 973.496 400.002 978.496 400.002L974.498 400.002C973.496 400.002 973.496 400.002 973.496 400.003V400.006V400.022L973.496 400.087L973.495 400.349C973.495 400.582 973.494 400.93 973.492 401.388C973.488 402.303 973.481 403.656 973.465 405.401C973.434 408.89 973.373 413.946 973.25 420.201C973.003 432.714 972.51 450.012 971.525 469.155C969.547 507.592 965.604 552.958 957.844 582.106L957.844 582.108C949.593 613.166 925.283 637.623 894.451 645.919L894.448 645.919C880.213 649.759 854.801 652.723 824.268 654.964C793.877 657.195 758.834 658.685 725.587 659.679C692.349 660.673 660.948 661.17 637.854 661.419C626.308 661.543 616.841 661.605 610.261 661.636C606.971 661.651 604.404 661.659 602.66 661.663C601.788 661.665 601.121 661.666 600.673 661.667L600.167 661.667L600.04 661.667H600.008H600C599.999 661.667 599.998 661.667 599.998 666.667C599.998 661.667 599.997 661.667 599.996 661.667H599.988H599.956L599.829 661.667L599.322 661.667C599.114 661.666 598.857 661.666 598.555 661.665C598.209 661.665 597.802 661.664 597.336 661.663C595.592 661.659 593.024 661.651 589.735 661.636C583.156 661.605 573.688 661.543 562.142 661.419C539.049 661.17 507.648 660.673 474.41 659.679C441.164 658.685 406.121 657.195 375.73 654.964C345.198 652.723 319.786 649.759 305.551 645.919L305.548 645.919C274.716 637.623 250.404 613.17 242.155 582.106L242.155 582.103C234.396 552.958 230.453 507.593 228.475 469.156C227.489 450.013 226.997 432.714 226.75 420.202C226.627 413.947 226.565 408.89 226.535 405.401C226.519 403.656 226.512 402.303 226.508 401.388C226.506 400.93 226.505 400.582 226.504 400.349L226.504 400.087L226.504 400.022L226.504 400.006L226.504 400.003C226.504 400.002 226.504 400.002 221.504 400.002C226.504 400.002 226.504 400.002 226.504 400.001L226.504 399.998L226.504 399.982L226.504 399.917L226.504 399.655C226.505 399.422 226.506 399.074 226.508 398.616C226.512 397.701 226.519 396.348 226.535 394.603C226.565 391.114 226.627 386.057 226.75 379.802C226.997 367.29 227.489 349.991 228.475 330.848C230.453 292.411 234.396 247.045 242.155 217.9L242.155 217.897C250.404 186.833 274.716 162.378 305.548 154.084L305.551 154.083C319.787 150.244 345.198 147.279 375.73 145.037C406.121 142.805 441.165 141.315 474.41 140.321C507.648 139.327 539.049 138.83 562.142 138.582C573.688 138.457 583.156 138.395 589.735 138.364C593.024 138.349 595.592 138.341 597.336 138.337C598.208 138.335 598.875 138.334 599.322 138.333L599.829 138.333L599.956 138.333L599.988 138.333L599.996 138.333C599.997 138.333 599.998 138.333 599.998 133.333C599.998 138.333 599.999 138.333 600 138.333L600.008 138.333L600.04 138.333L600.167 138.333L600.673 138.333C601.121 138.334 601.788 138.335 602.66 138.337C604.404 138.341 606.971 138.349 610.261 138.364C616.841 138.395 626.308 138.457 637.854 138.582C660.948 138.83 692.349 139.327 725.587 140.321C758.834 141.315 793.877 142.805 824.268 145.037C854.801 147.279 880.212 150.244 894.448 154.083L894.451 154.084C925.283 162.378 949.593 186.833 957.843 217.897Z" stroke="#DEE6ED" stroke-width="10"/>
<path d="M522.578 512.553L720.43 400.005L522.578 287.447V512.553Z" fill="#DEE6ED"/>
</svg>
