<svg width="82" height="82" viewBox="0 0 82 82" fill="none" xmlns="http://www.w3.org/2000/svg">
<path d="M28.8281 17.6172C28.8281 13.2017 25.2358 9.60938 20.8203 9.60938C16.4048 9.60938 12.8125 13.2017 12.8125 17.6172C12.8125 22.0327 16.4048 25.625 20.8203 25.625C25.2358 25.625 28.8281 22.0327 28.8281 17.6172ZM20.8203 22.4219C18.171 22.4219 16.0156 20.2665 16.0156 17.6172C16.0156 14.9679 18.171 12.8125 20.8203 12.8125C23.4696 12.8125 25.625 14.9679 25.625 17.6172C25.625 20.2665 23.4696 22.4219 20.8203 22.4219Z" fill="#1D006E"/>
<path d="M20.8203 41.6406C32.4408 41.6406 41.6406 32.1672 41.6406 20.8203C41.6406 9.33999 32.3008 0 20.8203 0C9.33983 0 0 9.33999 0 20.8203C0 32.1664 9.19825 41.6406 20.8203 41.6406ZM12.8205 36.5175C12.9885 32.2492 16.5115 28.8281 20.8203 28.8281C25.1292 28.8281 28.6521 32.2492 28.8201 36.5175C26.3569 37.7748 23.6107 38.4375 20.8203 38.4375C18.0299 38.4375 15.2837 37.7748 12.8205 36.5175ZM20.8203 3.20312C30.5344 3.20312 38.4375 11.1062 38.4375 20.8203C38.4375 26.2027 35.9479 31.2724 31.8048 34.5889C30.7614 29.4804 26.2326 25.625 20.8203 25.625C15.408 25.625 10.8793 29.4804 9.83584 34.5889C5.69291 31.2726 3.20312 26.2028 3.20312 20.8203C3.20312 11.1062 11.1062 3.20312 20.8203 3.20312Z" fill="#1D006E"/>
<path d="M69.1875 57.9766C69.1875 53.5611 65.5952 49.9688 61.1797 49.9688C56.7642 49.9688 53.1719 53.5611 53.1719 57.9766C53.1719 62.3921 56.7642 65.9844 61.1797 65.9844C65.5952 65.9844 69.1875 62.3921 69.1875 57.9766ZM61.1797 62.7812C58.5304 62.7812 56.375 60.6259 56.375 57.9766C56.375 55.3273 58.5304 53.1719 61.1797 53.1719C63.829 53.1719 65.9844 55.3273 65.9844 57.9766C65.9844 60.6259 63.829 62.7812 61.1797 62.7812Z" fill="#1D006E"/>
<path d="M61.1797 40.3594C49.6992 40.3594 40.3594 49.6994 40.3594 61.1797C40.3594 72.5268 49.5575 82 61.1797 82C72.8 82 82 72.5266 82 61.1797C82 49.6994 72.6602 40.3594 61.1797 40.3594ZM53.1799 76.8769C53.3479 72.6086 56.8708 69.1875 61.1797 69.1875C65.4885 69.1875 69.0115 72.6086 69.1795 76.8769C66.7163 78.1341 63.9701 78.7969 61.1797 78.7969C58.3893 78.7969 55.6431 78.1341 53.1799 76.8769ZM72.1642 74.9483C71.1207 69.8398 66.592 65.9844 61.1797 65.9844C55.7674 65.9844 51.2386 69.8398 50.1952 74.9483C46.0523 71.632 43.5625 66.5622 43.5625 61.1797C43.5625 51.4656 51.4656 43.5625 61.1797 43.5625C70.8938 43.5625 78.7969 51.4656 78.7969 61.1797C78.7969 66.5621 76.3072 71.6318 72.1642 74.9483Z" fill="#1D006E"/>
<path d="M37.7969 74.6328C31.615 74.6328 26.586 69.6036 26.586 63.4219V61.8203H28.1875C28.7942 61.8203 29.3487 61.4776 29.62 60.935C29.8913 60.3924 29.8327 59.7431 29.4688 59.2578L19.8594 46.4453C19.5569 46.042 19.0822 45.8047 18.5781 45.8047C18.0741 45.8047 17.5994 46.042 17.2969 46.4453L7.68752 59.2578C7.32365 59.7431 7.26487 60.3924 7.53634 60.935C7.8078 61.4776 8.3621 61.8203 8.96877 61.8203H10.5703V63.4219C10.5703 71.3698 17.0365 77.8359 24.9844 77.8359H37.7969C38.6813 77.8359 39.3985 77.1189 39.3985 76.2344C39.3985 75.3498 38.6813 74.6328 37.7969 74.6328ZM24.9844 74.6328C18.8025 74.6328 13.7735 69.6036 13.7735 63.4219V60.2188C13.7735 59.3342 13.0563 58.6172 12.1719 58.6172L18.5781 50.0756L24.9844 58.6172C24.1 58.6172 23.3828 59.3342 23.3828 60.2188V63.4219C23.3828 67.945 25.4769 71.9882 28.7466 74.6328H24.9844Z" fill="#1D006E"/>
<path d="M44.2031 7.36719C50.385 7.36719 55.4141 12.3964 55.4141 18.5781V20.1797H53.8125C53.2058 20.1797 52.6514 20.5224 52.3801 21.065C52.1088 21.6076 52.1674 22.2569 52.5312 22.7422L62.1406 35.5547C62.4432 35.958 62.9179 36.1953 63.4219 36.1953C63.9259 36.1953 64.4006 35.958 64.7031 35.5547L74.3125 22.7422C74.6764 22.2569 74.7352 21.6076 74.4637 21.065C74.1922 20.5224 73.6379 20.1797 73.0312 20.1797H71.4297V18.5781C71.4297 18.1463 71.4103 17.7102 71.372 17.2818C71.2934 16.4008 70.5155 15.7506 69.6343 15.829C68.7533 15.9077 68.1029 16.6857 68.1817 17.5667C68.2115 17.9007 68.2266 18.241 68.2266 18.578V21.7811C68.2266 22.6656 68.9437 23.3827 69.8281 23.3827L63.4219 31.9243L57.0156 23.3828C57.9 23.3828 58.6172 22.6658 58.6172 21.7812V18.5781C58.6172 14.055 56.5231 10.0118 53.2534 7.36719H57.0156C58.2964 7.36719 59.5517 7.581 60.7465 8.00269C61.5812 8.29657 62.4954 7.85935 62.7897 7.02525C63.0841 6.19116 62.6466 5.27635 61.8125 4.98198C60.2743 4.43921 58.6606 4.16406 57.0156 4.16406H44.2031C43.3187 4.16406 42.6016 4.88108 42.6016 5.76562C42.6016 6.65017 43.3187 7.36719 44.2031 7.36719Z" fill="#1D006E"/>
<path d="M67.1055 12.332C67.99 12.332 68.707 11.615 68.707 10.7305C68.707 9.84595 67.99 9.12891 67.1055 9.12891C66.2209 9.12891 65.5039 9.84595 65.5039 10.7305C65.5039 11.615 66.2209 12.332 67.1055 12.332Z" fill="#1D006E"/>
</svg>
