<svg width="24" height="21" viewBox="0 0 24 21" fill="none" xmlns="http://www.w3.org/2000/svg">
<path d="M1.637 0C0.732 0 0 0.732 0 1.636V19.09C0 19.994 0.732 20.726 1.637 20.726H22.363C23.268 20.726 24 19.994 24 19.09V1.636C24 0.732 23.268 0 22.363 0H1.637ZM2.182 2.181H21.818V18.545H19.092V17.455H14.182V18.545H2.182V2.181ZM12 6.545C11.566 6.545 11.1497 6.71742 10.8428 7.02432C10.5359 7.33122 10.3635 7.74747 10.3635 8.1815C10.3635 8.61553 10.5359 9.03178 10.8428 9.33868C11.1497 9.64558 11.566 9.818 12 9.818C12.434 9.818 12.8503 9.64558 13.1572 9.33868C13.4641 9.03178 13.6365 8.61553 13.6365 8.1815C13.6365 7.74747 13.4641 7.33122 13.1572 7.02432C12.8503 6.71742 12.434 6.545 12 6.545ZM7.637 8.455C6.959 8.455 6.408 9.005 6.408 9.681C6.41712 10.0005 6.55044 10.3038 6.77965 10.5266C7.00886 10.7493 7.31588 10.874 7.6355 10.874C7.95512 10.874 8.26214 10.7493 8.49135 10.5266C8.72056 10.3038 8.85388 10.0005 8.863 9.681C8.863 9.004 8.314 8.455 7.637 8.455ZM16.363 8.455C16.199 8.45032 16.0357 8.47858 15.8828 8.53811C15.7299 8.59764 15.5905 8.68723 15.4728 8.80158C15.3552 8.91594 15.2616 9.05273 15.1978 9.20387C15.1339 9.35501 15.101 9.51742 15.101 9.6815C15.101 9.84558 15.1339 10.008 15.1978 10.1591C15.2616 10.3103 15.3552 10.4471 15.4728 10.5614C15.5905 10.6758 15.7299 10.7654 15.8828 10.8249C16.0357 10.8844 16.199 10.9127 16.363 10.908C16.6822 10.8989 16.9853 10.7657 17.2079 10.5366C17.4305 10.3076 17.555 10.0009 17.555 9.6815C17.555 9.36214 17.4305 9.05537 17.2079 8.82635C16.9853 8.59733 16.6822 8.46412 16.363 8.455ZM12 10.908C10.821 10.908 9.587 11.309 8.852 11.914C8.45863 11.7912 8.0491 11.7278 7.637 11.726C6.323 11.726 4.908 12.421 4.908 13.285V14.181H19.092V13.285C19.092 12.421 17.677 11.726 16.363 11.726C15.953 11.726 15.533 11.794 15.148 11.914C14.413 11.309 13.179 10.908 12 10.908Z" fill="#42607D"/>
</svg>
