<svg width="74" height="74" viewBox="0 0 74 74" fill="none" xmlns="http://www.w3.org/2000/svg">
<path d="M36.9999 30.8332C36.9814 30.8332 36.9598 30.8332 36.9413 30.8332C36.4788 30.8147 36.0441 30.5865 35.7666 30.2165L31.6041 24.6665H23.125C20.5751 24.6665 18.5 22.5915 18.5 20.0415V4.62497C18.5 2.07507 20.5751 0 23.125 0H50.8748C53.4247 0 55.4998 2.07507 55.4998 4.62497V20.0415C55.4998 22.5915 53.4247 24.6665 50.8748 24.6665H43.0956L38.1592 30.3059C37.8663 30.642 37.4439 30.8332 36.9999 30.8332ZM23.125 3.08332C22.274 3.08332 21.5833 3.77398 21.5833 4.62497V20.0415C21.5833 20.8925 22.274 21.5832 23.125 21.5832H32.3749C32.859 21.5832 33.3184 21.8114 33.6082 22.1999L37.0924 26.8433L41.2364 22.1074C41.5293 21.7744 41.9517 21.5832 42.3957 21.5832H50.8748C51.7258 21.5832 52.4165 20.8925 52.4165 20.0415V4.62497C52.4165 3.77398 51.7258 3.08332 50.8748 3.08332H23.125Z" fill="#1D006E"/>
<path d="M61.6668 33.9165C61.6483 33.9165 61.6267 33.9165 61.6051 33.9165C61.1396 33.898 60.7079 33.6698 60.4304 33.2967L57.9946 30.0284C57.4858 29.3439 57.6277 28.3788 58.3091 27.8701C58.9905 27.3583 59.9556 27.5001 60.4674 28.1846L61.7624 29.9236L65.9002 25.1938C66.1962 24.8577 66.6186 24.6665 67.0626 24.6665H69.3751C70.2261 24.6665 70.9168 23.9759 70.9168 23.1249V7.70829C70.9168 6.85729 70.2261 6.16663 69.3751 6.16663H63.2085C62.3575 6.16663 61.6668 5.47597 61.6668 4.62497C61.6668 3.77398 62.3575 3.08331 63.2085 3.08331H69.3751C71.925 3.08331 74.0001 5.15838 74.0001 7.70829V23.1249C74.0001 25.6748 71.925 27.7498 69.3751 27.7498H67.7625L62.8261 33.3892C62.5332 33.7253 62.1108 33.9165 61.6668 33.9165Z" fill="#1D006E"/>
<path d="M12.3333 33.9165C11.8893 33.9165 11.4668 33.7253 11.1739 33.3892L6.23755 27.7498H4.62497C2.07507 27.7498 0 25.6748 0 23.1249V7.70829C0 5.15838 2.07507 3.08331 4.62497 3.08331H10.7916C11.6426 3.08331 12.3333 3.77398 12.3333 4.62497C12.3333 5.47597 11.6426 6.16663 10.7916 6.16663H4.62497C3.77398 6.16663 3.08331 6.85729 3.08331 7.70829V23.1249C3.08331 23.9759 3.77398 24.6665 4.62497 24.6665H6.93746C7.38146 24.6665 7.80387 24.8577 8.09678 25.1938L12.2346 29.9236L13.5296 28.1846C14.0383 27.5032 15.0065 27.3613 15.6879 27.8701C16.3693 28.3788 16.5112 29.3439 16.0024 30.0284L13.5666 33.2967C13.2922 33.6698 12.8574 33.898 12.3949 33.9165C12.3733 33.9165 12.3518 33.9165 12.3333 33.9165Z" fill="#1D006E"/>
<path d="M61.6664 52.4163C58.2655 52.4163 55.4998 49.6505 55.4998 46.2496C55.4998 42.8487 58.2655 40.083 61.6664 40.083C65.0673 40.083 67.833 42.8487 67.833 46.2496C67.833 49.6505 65.0673 52.4163 61.6664 52.4163ZM61.6664 43.1663C59.9675 43.1663 58.5831 44.5507 58.5831 46.2496C58.5831 47.9485 59.9675 49.333 61.6664 49.333C63.3653 49.333 64.7497 47.9485 64.7497 46.2496C64.7497 44.5507 63.3653 43.1663 61.6664 43.1663Z" fill="#1D006E"/>
<path d="M72.458 67.833C71.607 67.833 70.9163 67.1423 70.9163 66.2913V63.208C70.9163 60.6581 68.8413 58.583 66.2914 58.583H57.0414C56.1904 58.583 55.4998 57.8923 55.4998 57.0414C55.4998 56.1904 56.1904 55.4997 57.0414 55.4997H66.2914C70.5402 55.4997 73.9996 58.9592 73.9996 63.208V66.2913C73.9996 67.1423 73.309 67.833 72.458 67.833Z" fill="#1D006E"/>
<path d="M12.3334 52.4163C8.93248 52.4163 6.16675 49.6505 6.16675 46.2496C6.16675 42.8487 8.93248 40.083 12.3334 40.083C15.7343 40.083 18.5 42.8487 18.5 46.2496C18.5 49.6505 15.7343 52.4163 12.3334 52.4163ZM12.3334 43.1663C10.6345 43.1663 9.25006 44.5507 9.25006 46.2496C9.25006 47.9485 10.6345 49.333 12.3334 49.333C14.0323 49.333 15.4167 47.9485 15.4167 46.2496C15.4167 44.5507 14.0323 43.1663 12.3334 43.1663Z" fill="#1D006E"/>
<path d="M1.54166 67.833C0.690663 67.833 0 67.1423 0 66.2913V63.208C0 58.9592 3.45948 55.4997 7.70829 55.4997H16.9582C17.8092 55.4997 18.4999 56.1904 18.4999 57.0414C18.4999 57.8923 17.8092 58.583 16.9582 58.583H7.70829C5.15839 58.583 3.08332 60.6581 3.08332 63.208V66.2913C3.08332 67.1423 2.39265 67.833 1.54166 67.833Z" fill="#1D006E"/>
<path d="M36.9999 53.958C31.9001 53.958 27.75 49.8078 27.75 44.708C27.75 39.6082 31.9001 35.4581 36.9999 35.4581C42.0997 35.4581 46.2499 39.6082 46.2499 44.708C46.2499 49.8078 42.0997 53.958 36.9999 53.958ZM36.9999 38.5414C33.599 38.5414 30.8333 41.3071 30.8333 44.708C30.8333 48.1089 33.599 50.8746 36.9999 50.8746C40.4008 50.8746 43.1666 48.1089 43.1666 44.708C43.1666 41.3071 40.4008 38.5414 36.9999 38.5414Z" fill="#1D006E"/>
<path d="M52.4163 73.9995C51.5653 73.9995 50.8746 73.3089 50.8746 72.4579V66.2912C50.8746 63.7413 48.7996 61.6663 46.2497 61.6663H27.7498C25.1999 61.6663 23.1248 63.7413 23.1248 66.2912V72.4579C23.1248 73.3089 22.4342 73.9995 21.5832 73.9995C20.7322 73.9995 20.0415 73.3089 20.0415 72.4579V66.2912C20.0415 62.0424 23.501 58.5829 27.7498 58.5829H46.2497C50.4985 58.5829 53.958 62.0424 53.958 66.2912V72.4579C53.958 73.3089 53.2673 73.9995 52.4163 73.9995Z" fill="#1D006E"/>
</svg>
