<svg width="24" height="24" viewBox="0 0 24 24" fill="none" xmlns="http://www.w3.org/2000/svg">
<path d="M6.76 4.83999L4.96 3.04999L3.55 4.45999L5.34 6.24999L6.76 4.83999ZM4 10.5H1V12.5H4V10.5ZM13 0.549988H11V3.49999H13V0.549988ZM20.45 4.45999L19.04 3.04999L17.25 4.83999L18.66 6.24999L20.45 4.45999ZM17.24 18.16L19.03 19.96L20.44 18.55L18.64 16.76L17.24 18.16ZM20 10.5V12.5H23V10.5H20ZM12 5.49999C8.69 5.49999 6 8.18999 6 11.5C6 14.81 8.69 17.5 12 17.5C15.31 17.5 18 14.81 18 11.5C18 8.18999 15.31 5.49999 12 5.49999ZM11 22.45H13V19.5H11V22.45ZM3.55 18.54L4.96 19.95L6.75 18.15L5.34 16.74L3.55 18.54Z" fill="#42607D"/>
</svg>
