<svg width="75" height="74" viewBox="0 0 75 74" fill="none" xmlns="http://www.w3.org/2000/svg">
<mask id="path-1-outside-1" maskUnits="userSpaceOnUse" x="0" y="0.118896" width="75" height="74" fill="black">
<rect fill="white" y="0.118896" width="75" height="74"/>
<path d="M20.6331 49.5403H19.8344C21.519 48.0159 22.5793 45.8135 22.5793 43.368C22.5793 38.7775 18.8447 35.043 14.2542 35.043C9.66375 35.043 5.92919 38.7775 5.92919 43.368C5.92919 45.8135 6.98948 48.0159 8.67406 49.5403H7.8754C4.08415 49.5403 1 52.6246 1 56.4157V62.7946C1 63.389 1.48178 63.871 2.07637 63.871H26.432C27.0266 63.871 27.5083 63.389 27.5083 62.7946V56.4157C27.5083 52.6246 24.4242 49.5403 20.6331 49.5403ZM8.08192 43.368C8.08192 39.9646 10.8508 37.1957 14.2542 37.1957C17.6577 37.1957 20.4266 39.9646 20.4266 43.368C20.4266 46.7714 17.6577 49.5403 14.2542 49.5403C10.8508 49.5403 8.08192 46.7715 8.08192 43.368ZM25.3556 61.7182H21.4194V59.895C21.4194 59.3006 20.9376 58.8186 20.343 58.8186C19.7484 58.8186 19.2667 59.3006 19.2667 59.895V61.7182H9.24167V59.895C9.24167 59.3006 8.75989 58.8186 8.1653 58.8186C7.57072 58.8186 7.08893 59.3006 7.08893 59.895V61.7182H3.15273V56.4157C3.15273 53.8117 5.27131 51.6931 7.87526 51.6931H20.6331C23.2372 51.6931 25.3556 53.8117 25.3556 56.4157V61.7182Z"/>
<path d="M67.6036 58.5294H66.8046C68.4897 57.005 69.5502 54.8023 69.5502 52.3564C69.5502 47.7659 65.8157 44.0313 61.2252 44.0313C56.6347 44.0313 52.9001 47.7659 52.9001 52.3564C52.9001 54.8023 53.9607 57.0048 55.6457 58.5294H54.8464C51.055 58.5294 47.9705 61.6133 47.9705 65.4038V71.7831C47.9705 72.3775 48.4523 72.8594 49.0469 72.8594H58.7141C59.3087 72.8594 59.7905 72.3775 59.7905 71.7831C59.7905 71.1886 59.3087 70.7067 58.7141 70.7067H56.2128V68.8835C56.2128 68.289 55.731 67.8071 55.1364 67.8071C54.5418 67.8071 54.06 68.289 54.06 68.8835V70.7067H50.1234V65.4038C50.1234 62.8003 52.2423 60.6821 54.8465 60.6821H67.6036C70.2078 60.6821 72.3267 62.8003 72.3267 65.4038V70.7067H68.3905V68.8835C68.3905 68.289 67.9087 67.8071 67.3141 67.8071C66.7195 67.8071 66.2378 68.289 66.2378 68.8835V70.7067H63.7373C63.1427 70.7067 62.6609 71.1886 62.6609 71.7831C62.6609 72.3775 63.1427 72.8594 63.7373 72.8594H73.4031C73.9976 72.8594 74.4794 72.3775 74.4794 71.7831V65.4038C74.4794 61.6133 71.395 58.5294 67.6036 58.5294ZM55.053 52.3564C55.053 48.953 57.8219 46.1841 61.2253 46.1841C64.6288 46.1841 67.3977 48.9529 67.3977 52.3564C67.3977 55.7598 64.6288 58.5287 61.2253 58.5287C57.8219 58.5287 55.053 55.7598 55.053 52.3564Z"/>
<path d="M70.5046 10.1073H57.8609C57.2663 10.1073 56.7845 10.5892 56.7845 11.1836C56.7845 11.7781 57.2663 12.26 57.8609 12.26H70.5046C71.5097 12.26 72.3273 13.0776 72.3273 14.0827V37.2791C72.3273 38.2841 71.5097 39.1017 70.5046 39.1017H49.9173C49.3227 39.1017 48.8409 39.5837 48.8409 40.1781V43.3785L44.8805 39.417C44.6787 39.2151 44.4049 39.1017 44.1193 39.1017H35.7107C34.7048 39.1017 33.8866 38.2841 33.8866 37.2791V14.0827C33.8866 13.0776 34.7048 12.26 35.7107 12.26H52.8378C53.4324 12.26 53.9142 11.7781 53.9142 11.1836C53.9142 10.5892 53.4324 10.1073 52.8378 10.1073H43.7461V5.09428C43.7461 2.90236 41.9621 1.1189 39.7693 1.1189H4.97538C2.78347 1.1189 1 2.90222 1 5.09428V28.2907C1 30.4828 2.78347 32.2661 4.97538 32.2661H11.0131C11.6077 32.2661 12.0895 31.7842 12.0895 31.1897C12.0895 30.5953 11.6077 30.1134 11.0131 30.1134H4.97538C3.97034 30.1134 3.15273 29.2957 3.15273 28.2907V5.09428C3.15273 4.08938 3.97034 3.27163 4.97538 3.27163H39.7693C40.7752 3.27163 41.5934 4.08924 41.5934 5.09428V10.1073H35.7107C33.5179 10.1073 31.7339 11.8906 31.7339 14.0827V30.1134H31.3606C31.0751 30.1134 30.8013 30.2269 30.5994 30.4287L26.6391 34.3901V31.1897C26.6391 30.5953 26.1573 30.1134 25.5627 30.1134H16.0361C15.4415 30.1134 14.9598 30.5953 14.9598 31.1897C14.9598 31.7842 15.4415 32.2661 16.0361 32.2661H24.4865V36.9892C24.4865 37.4246 24.7487 37.8171 25.151 37.9836C25.2843 38.0387 25.4239 38.0656 25.5626 38.0656C25.8427 38.0656 26.1181 37.9562 26.3241 37.7503L31.734 32.3389V37.2791C31.734 39.4711 33.5181 41.2545 35.7108 41.2545H43.6734L49.1561 46.7385C49.362 46.9444 49.6374 47.0539 49.9176 47.0538C50.0562 47.0538 50.196 47.027 50.3292 46.9718C50.7315 46.8052 50.9937 46.4127 50.9937 45.9774V41.2543H70.5046C72.6965 41.2543 74.48 39.471 74.48 37.2789V14.0827C74.48 11.8906 72.6965 10.1073 70.5046 10.1073Z"/>
</mask>
<path d="M20.6331 49.5403H19.8344C21.519 48.0159 22.5793 45.8135 22.5793 43.368C22.5793 38.7775 18.8447 35.043 14.2542 35.043C9.66375 35.043 5.92919 38.7775 5.92919 43.368C5.92919 45.8135 6.98948 48.0159 8.67406 49.5403H7.8754C4.08415 49.5403 1 52.6246 1 56.4157V62.7946C1 63.389 1.48178 63.871 2.07637 63.871H26.432C27.0266 63.871 27.5083 63.389 27.5083 62.7946V56.4157C27.5083 52.6246 24.4242 49.5403 20.6331 49.5403ZM8.08192 43.368C8.08192 39.9646 10.8508 37.1957 14.2542 37.1957C17.6577 37.1957 20.4266 39.9646 20.4266 43.368C20.4266 46.7714 17.6577 49.5403 14.2542 49.5403C10.8508 49.5403 8.08192 46.7715 8.08192 43.368ZM25.3556 61.7182H21.4194V59.895C21.4194 59.3006 20.9376 58.8186 20.343 58.8186C19.7484 58.8186 19.2667 59.3006 19.2667 59.895V61.7182H9.24167V59.895C9.24167 59.3006 8.75989 58.8186 8.1653 58.8186C7.57072 58.8186 7.08893 59.3006 7.08893 59.895V61.7182H3.15273V56.4157C3.15273 53.8117 5.27131 51.6931 7.87526 51.6931H20.6331C23.2372 51.6931 25.3556 53.8117 25.3556 56.4157V61.7182Z" fill="#1D006E"/>
<path d="M67.6036 58.5294H66.8046C68.4897 57.005 69.5502 54.8023 69.5502 52.3564C69.5502 47.7659 65.8157 44.0313 61.2252 44.0313C56.6347 44.0313 52.9001 47.7659 52.9001 52.3564C52.9001 54.8023 53.9607 57.0048 55.6457 58.5294H54.8464C51.055 58.5294 47.9705 61.6133 47.9705 65.4038V71.7831C47.9705 72.3775 48.4523 72.8594 49.0469 72.8594H58.7141C59.3087 72.8594 59.7905 72.3775 59.7905 71.7831C59.7905 71.1886 59.3087 70.7067 58.7141 70.7067H56.2128V68.8835C56.2128 68.289 55.731 67.8071 55.1364 67.8071C54.5418 67.8071 54.06 68.289 54.06 68.8835V70.7067H50.1234V65.4038C50.1234 62.8003 52.2423 60.6821 54.8465 60.6821H67.6036C70.2078 60.6821 72.3267 62.8003 72.3267 65.4038V70.7067H68.3905V68.8835C68.3905 68.289 67.9087 67.8071 67.3141 67.8071C66.7195 67.8071 66.2378 68.289 66.2378 68.8835V70.7067H63.7373C63.1427 70.7067 62.6609 71.1886 62.6609 71.7831C62.6609 72.3775 63.1427 72.8594 63.7373 72.8594H73.4031C73.9976 72.8594 74.4794 72.3775 74.4794 71.7831V65.4038C74.4794 61.6133 71.395 58.5294 67.6036 58.5294ZM55.053 52.3564C55.053 48.953 57.8219 46.1841 61.2253 46.1841C64.6288 46.1841 67.3977 48.9529 67.3977 52.3564C67.3977 55.7598 64.6288 58.5287 61.2253 58.5287C57.8219 58.5287 55.053 55.7598 55.053 52.3564Z" fill="#1D006E"/>
<path d="M70.5046 10.1073H57.8609C57.2663 10.1073 56.7845 10.5892 56.7845 11.1836C56.7845 11.7781 57.2663 12.26 57.8609 12.26H70.5046C71.5097 12.26 72.3273 13.0776 72.3273 14.0827V37.2791C72.3273 38.2841 71.5097 39.1017 70.5046 39.1017H49.9173C49.3227 39.1017 48.8409 39.5837 48.8409 40.1781V43.3785L44.8805 39.417C44.6787 39.2151 44.4049 39.1017 44.1193 39.1017H35.7107C34.7048 39.1017 33.8866 38.2841 33.8866 37.2791V14.0827C33.8866 13.0776 34.7048 12.26 35.7107 12.26H52.8378C53.4324 12.26 53.9142 11.7781 53.9142 11.1836C53.9142 10.5892 53.4324 10.1073 52.8378 10.1073H43.7461V5.09428C43.7461 2.90236 41.9621 1.1189 39.7693 1.1189H4.97538C2.78347 1.1189 1 2.90222 1 5.09428V28.2907C1 30.4828 2.78347 32.2661 4.97538 32.2661H11.0131C11.6077 32.2661 12.0895 31.7842 12.0895 31.1897C12.0895 30.5953 11.6077 30.1134 11.0131 30.1134H4.97538C3.97034 30.1134 3.15273 29.2957 3.15273 28.2907V5.09428C3.15273 4.08938 3.97034 3.27163 4.97538 3.27163H39.7693C40.7752 3.27163 41.5934 4.08924 41.5934 5.09428V10.1073H35.7107C33.5179 10.1073 31.7339 11.8906 31.7339 14.0827V30.1134H31.3606C31.0751 30.1134 30.8013 30.2269 30.5994 30.4287L26.6391 34.3901V31.1897C26.6391 30.5953 26.1573 30.1134 25.5627 30.1134H16.0361C15.4415 30.1134 14.9598 30.5953 14.9598 31.1897C14.9598 31.7842 15.4415 32.2661 16.0361 32.2661H24.4865V36.9892C24.4865 37.4246 24.7487 37.8171 25.151 37.9836C25.2843 38.0387 25.4239 38.0656 25.5626 38.0656C25.8427 38.0656 26.1181 37.9562 26.3241 37.7503L31.734 32.3389V37.2791C31.734 39.4711 33.5181 41.2545 35.7108 41.2545H43.6734L49.1561 46.7385C49.362 46.9444 49.6374 47.0539 49.9176 47.0538C50.0562 47.0538 50.196 47.027 50.3292 46.9718C50.7315 46.8052 50.9937 46.4127 50.9937 45.9774V41.2543H70.5046C72.6965 41.2543 74.48 39.471 74.48 37.2789V14.0827C74.48 11.8906 72.6965 10.1073 70.5046 10.1073Z" fill="#1D006E"/>
<path d="M20.6331 49.5403H19.8344C21.519 48.0159 22.5793 45.8135 22.5793 43.368C22.5793 38.7775 18.8447 35.043 14.2542 35.043C9.66375 35.043 5.92919 38.7775 5.92919 43.368C5.92919 45.8135 6.98948 48.0159 8.67406 49.5403H7.8754C4.08415 49.5403 1 52.6246 1 56.4157V62.7946C1 63.389 1.48178 63.871 2.07637 63.871H26.432C27.0266 63.871 27.5083 63.389 27.5083 62.7946V56.4157C27.5083 52.6246 24.4242 49.5403 20.6331 49.5403ZM8.08192 43.368C8.08192 39.9646 10.8508 37.1957 14.2542 37.1957C17.6577 37.1957 20.4266 39.9646 20.4266 43.368C20.4266 46.7714 17.6577 49.5403 14.2542 49.5403C10.8508 49.5403 8.08192 46.7715 8.08192 43.368ZM25.3556 61.7182H21.4194V59.895C21.4194 59.3006 20.9376 58.8186 20.343 58.8186C19.7484 58.8186 19.2667 59.3006 19.2667 59.895V61.7182H9.24167V59.895C9.24167 59.3006 8.75989 58.8186 8.1653 58.8186C7.57072 58.8186 7.08893 59.3006 7.08893 59.895V61.7182H3.15273V56.4157C3.15273 53.8117 5.27131 51.6931 7.87526 51.6931H20.6331C23.2372 51.6931 25.3556 53.8117 25.3556 56.4157V61.7182Z" stroke="#1D006E" mask="url(#path-1-outside-1)"/>
<path d="M67.6036 58.5294H66.8046C68.4897 57.005 69.5502 54.8023 69.5502 52.3564C69.5502 47.7659 65.8157 44.0313 61.2252 44.0313C56.6347 44.0313 52.9001 47.7659 52.9001 52.3564C52.9001 54.8023 53.9607 57.0048 55.6457 58.5294H54.8464C51.055 58.5294 47.9705 61.6133 47.9705 65.4038V71.7831C47.9705 72.3775 48.4523 72.8594 49.0469 72.8594H58.7141C59.3087 72.8594 59.7905 72.3775 59.7905 71.7831C59.7905 71.1886 59.3087 70.7067 58.7141 70.7067H56.2128V68.8835C56.2128 68.289 55.731 67.8071 55.1364 67.8071C54.5418 67.8071 54.06 68.289 54.06 68.8835V70.7067H50.1234V65.4038C50.1234 62.8003 52.2423 60.6821 54.8465 60.6821H67.6036C70.2078 60.6821 72.3267 62.8003 72.3267 65.4038V70.7067H68.3905V68.8835C68.3905 68.289 67.9087 67.8071 67.3141 67.8071C66.7195 67.8071 66.2378 68.289 66.2378 68.8835V70.7067H63.7373C63.1427 70.7067 62.6609 71.1886 62.6609 71.7831C62.6609 72.3775 63.1427 72.8594 63.7373 72.8594H73.4031C73.9976 72.8594 74.4794 72.3775 74.4794 71.7831V65.4038C74.4794 61.6133 71.395 58.5294 67.6036 58.5294ZM55.053 52.3564C55.053 48.953 57.8219 46.1841 61.2253 46.1841C64.6288 46.1841 67.3977 48.9529 67.3977 52.3564C67.3977 55.7598 64.6288 58.5287 61.2253 58.5287C57.8219 58.5287 55.053 55.7598 55.053 52.3564Z" stroke="#1D006E" mask="url(#path-1-outside-1)"/>
<path d="M70.5046 10.1073H57.8609C57.2663 10.1073 56.7845 10.5892 56.7845 11.1836C56.7845 11.7781 57.2663 12.26 57.8609 12.26H70.5046C71.5097 12.26 72.3273 13.0776 72.3273 14.0827V37.2791C72.3273 38.2841 71.5097 39.1017 70.5046 39.1017H49.9173C49.3227 39.1017 48.8409 39.5837 48.8409 40.1781V43.3785L44.8805 39.417C44.6787 39.2151 44.4049 39.1017 44.1193 39.1017H35.7107C34.7048 39.1017 33.8866 38.2841 33.8866 37.2791V14.0827C33.8866 13.0776 34.7048 12.26 35.7107 12.26H52.8378C53.4324 12.26 53.9142 11.7781 53.9142 11.1836C53.9142 10.5892 53.4324 10.1073 52.8378 10.1073H43.7461V5.09428C43.7461 2.90236 41.9621 1.1189 39.7693 1.1189H4.97538C2.78347 1.1189 1 2.90222 1 5.09428V28.2907C1 30.4828 2.78347 32.2661 4.97538 32.2661H11.0131C11.6077 32.2661 12.0895 31.7842 12.0895 31.1897C12.0895 30.5953 11.6077 30.1134 11.0131 30.1134H4.97538C3.97034 30.1134 3.15273 29.2957 3.15273 28.2907V5.09428C3.15273 4.08938 3.97034 3.27163 4.97538 3.27163H39.7693C40.7752 3.27163 41.5934 4.08924 41.5934 5.09428V10.1073H35.7107C33.5179 10.1073 31.7339 11.8906 31.7339 14.0827V30.1134H31.3606C31.0751 30.1134 30.8013 30.2269 30.5994 30.4287L26.6391 34.3901V31.1897C26.6391 30.5953 26.1573 30.1134 25.5627 30.1134H16.0361C15.4415 30.1134 14.9598 30.5953 14.9598 31.1897C14.9598 31.7842 15.4415 32.2661 16.0361 32.2661H24.4865V36.9892C24.4865 37.4246 24.7487 37.8171 25.151 37.9836C25.2843 38.0387 25.4239 38.0656 25.5626 38.0656C25.8427 38.0656 26.1181 37.9562 26.3241 37.7503L31.734 32.3389V37.2791C31.734 39.4711 33.5181 41.2545 35.7108 41.2545H43.6734L49.1561 46.7385C49.362 46.9444 49.6374 47.0539 49.9176 47.0538C50.0562 47.0538 50.196 47.027 50.3292 46.9718C50.7315 46.8052 50.9937 46.4127 50.9937 45.9774V41.2543H70.5046C72.6965 41.2543 74.48 39.471 74.48 37.2789V14.0827C74.48 11.8906 72.6965 10.1073 70.5046 10.1073Z" stroke="#1D006E" mask="url(#path-1-outside-1)"/>
</svg>
