<svg width="157" height="202" viewBox="0 0 157 202" fill="none" xmlns="http://www.w3.org/2000/svg">
<ellipse cx="78.25" cy="79.0454" rx="78.25" ry="78.0869" fill="#F1F1F1"/>
<rect x="0.955438" y="1.04248" width="76.7896" height="107.223" rx="7" transform="matrix(0.999144 0.0435326 -0.0437063 0.998952 46.5532 76.2746)" fill="#EEEEEE" stroke="#999999" stroke-width="2"/>
<rect x="-1.12227" y="-0.861151" width="80.7944" height="111.216" rx="9" transform="matrix(0.99148 -0.130259 0.130794 0.991409 3.34013 71.8385)" fill="#FAFAFA" stroke="#999999" stroke-width="2"/>
<path d="M4.28366 79.9233C3.70577 75.543 6.78851 71.5255 11.1691 70.95L73.4285 62.7705C77.8092 62.195 81.8289 65.2794 82.4067 69.6597L84.6459 86.6324L6.52282 96.896L4.28366 79.9233Z" fill="#EEEEEE"/>
<rect width="3.27649" height="10.9437" rx="1.63824" transform="matrix(0.130794 0.991409 -0.99148 0.130259 98.3501 65.004)" fill="#999999"/>
<rect width="3.2831" height="10.9216" rx="1.64155" transform="matrix(0.99148 -0.130259 0.130794 0.991409 68.3669 46.9121)" fill="#999999"/>
<rect width="3.2798" height="10.9327" rx="1.6399" transform="matrix(0.794181 0.608126 -0.609396 0.792525 87.604 49.8925)" fill="#999999"/>
<rect width="63.4733" height="4.36865" rx="2" transform="matrix(0.99148 -0.130259 0.130794 0.991409 14.6892 100.229)" fill="#DCDCDC"/>
<rect width="63.4733" height="4.36865" rx="2" transform="matrix(0.99148 -0.130259 0.130794 0.991409 17.5464 121.885)" fill="#DCDCDC"/>
<rect width="63.4733" height="4.36865" rx="2" transform="matrix(0.99148 -0.130259 0.130794 0.991409 20.4033 143.54)" fill="#DCDCDC"/>
<rect width="22.9817" height="4.36865" rx="2" transform="matrix(0.99148 -0.130259 0.130794 0.991409 15.832 108.891)" fill="#EEEEEE"/>
<rect width="22.9817" height="4.36865" rx="2" transform="matrix(0.99148 -0.130259 0.130794 0.991409 18.689 130.547)" fill="#EEEEEE"/>
<rect width="22.9817" height="4.36865" rx="2" transform="matrix(0.99148 -0.130259 0.130794 0.991409 21.5461 152.203)" fill="#EEEEEE"/>
</svg>
