<svg width="20" height="21" viewBox="0 0 20 21" fill="none" xmlns="http://www.w3.org/2000/svg">
<path d="M18 0.306152H2C0.9 0.306152 0 1.19619 0 2.28401V18.1069C0 19.1947 0.9 20.0847 2 20.0847H18C19.1 20.0847 20 19.1947 20 18.1069V2.28401C20 1.19619 19.1 0.306152 18 0.306152ZM6 18.1069H2V14.1512H6V18.1069ZM6 12.1733H2V8.21759H6V12.1733ZM6 6.23973H2V2.28401H6V6.23973ZM12 18.1069H8V14.1512H12V18.1069ZM12 12.1733H8V8.21759H12V12.1733ZM12 6.23973H8V2.28401H12V6.23973ZM18 18.1069H14V14.1512H18V18.1069ZM18 12.1733H14V8.21759H18V12.1733ZM18 6.23973H14V2.28401H18V6.23973Z" fill="#3740A1"/>
</svg>
