<svg version="1.1" xmlns="http://www.w3.org/2000/svg" xmlns:xlink="http://www.w3.org/1999/xlink" viewBox="0 0 172 172"><g fill="none" fill-rule="nonzero" stroke="none" stroke-width="1" stroke-linecap="butt" stroke-linejoin="miter" stroke-miterlimit="10" stroke-dasharray="" stroke-dashoffset="0" font-family="none" font-weight="none" font-size="none" text-anchor="none" style="mix-blend-mode: normal"><path d="M0,172v-172h172v172z" fill="none"></path><path d="M85.14,86.86v-1.72h1.72v1.72z" fill="#cccccc"></path><path d="" fill="none"></path><path d="" fill="none"></path><g><path d="M86.00813,51.82524c-11.72649,0 -21.23268,9.5062 -21.23268,21.23268c0,11.72649 9.5062,21.23268 21.23268,21.23268c11.72649,0 21.23268,-9.5062 21.23268,-21.23268c0,-11.72649 -9.5062,-21.23268 -21.23268,-21.23268z" fill="#ffffff"></path><path d="M86.00813,97.47551c-13.48275,0 -24.41759,-10.93483 -24.41759,-24.41759c0,-13.48275 10.93483,-24.41759 24.41759,-24.41759c13.48275,0 24.41759,10.93483 24.41759,24.41759c0,13.48275 -10.93483,24.41759 -24.41759,24.41759zM86.00813,55.01014c-9.97936,0 -18.04778,8.06842 -18.04778,18.04778c0,9.97936 8.06842,18.04778 18.04778,18.04778c9.97936,0 18.04778,-8.06842 18.04778,-18.04778c0,-9.97936 -8.06842,-18.04778 -18.04778,-18.04778z" fill="#444b54"></path><path d="M145.56581,29.95557c-3.29107,-1.27396 -7.00679,0.42465 -8.17458,3.71572l-19.95872,52.76322c-4.98968,13.0581 -17.4108,21.65734 -31.42437,21.65734v0c-14.01357,0 -26.43469,-8.59924 -31.42437,-21.65734l-19.85256,-52.55089c-1.1678,-3.07874 -4.3527,-4.88352 -7.5376,-4.14037c-3.82188,0.95547 -5.83899,4.88352 -4.45886,8.49307l18.15395,48.30436c4.3527,11.67798 8.7054,23.67444 10.72251,35.9894c1.69861,10.29785 5.62666,28.13331 5.62666,28.13331h57.11592c0,0 4.3527,-17.83545 6.15748,-28.13331c2.01711,-12.20879 6.26364,-24.31142 10.72251,-35.9894l18.15395,-48.30436c1.1678,-3.39723 -0.53082,-7.00679 -3.82188,-8.28075z" fill="#ffffff"></path><path d="M107.66547,111.27675h-51.59542c-1.80478,0 -3.1849,-1.38012 -3.1849,-3.1849c0,-1.80478 1.38012,-3.1849 3.1849,-3.1849h51.59542c1.80478,0 3.1849,1.38012 3.1849,3.1849c0,1.80478 -1.48629,3.1849 -3.1849,3.1849z" fill="#444b54"></path><path d="M57.344,150.55722l-6.79446,-38.74965c-0.31849,-1.91094 1.1678,-3.71572 3.1849,-3.71572h64.65352c2.01711,0 3.50339,1.80478 3.1849,3.71572l-6.90062,38.74965z" fill="#c1d2e5"></path><path d="M141.21311,153.74212c-0.21233,0 -0.42465,0 -0.63698,-0.10616c-0.21233,0 -0.42465,-0.10616 -0.63698,-0.21233c-0.21233,-0.10616 -0.31849,-0.21233 -0.53082,-0.31849c-0.21233,-0.10616 -0.31849,-0.21233 -0.53082,-0.42465c-0.63698,-0.63698 -0.95547,-1.38012 -0.95547,-2.22943c0,-0.21233 0,-0.42465 0.10616,-0.63698c0,-0.21233 0.10616,-0.42465 0.21233,-0.63698c0.10616,-0.21233 0.21233,-0.31849 0.31849,-0.53082c0.10616,-0.21233 0.21233,-0.31849 0.42465,-0.53082c0.21233,-0.21233 0.31849,-0.31849 0.53082,-0.42465c0.21233,-0.10616 0.31849,-0.21233 0.53082,-0.31849c0.21233,-0.10616 0.42465,-0.10616 0.63698,-0.21233c1.06163,-0.21233 2.12327,0.10616 2.86641,0.84931c0.63698,0.63698 0.95547,1.38012 0.95547,2.22943c0,0.21233 0,0.42465 -0.10616,0.63698c0,0.21233 -0.10616,0.42465 -0.21233,0.63698c-0.10616,0.21233 -0.21233,0.42465 -0.31849,0.53082c-0.10616,0.21233 -0.21233,0.31849 -0.42465,0.42465c-0.53082,0.95547 -1.38012,1.27396 -2.22943,1.27396zM125.28859,153.74212h-78.03011c-1.80478,0 -3.1849,-1.38012 -3.1849,-3.1849c0,-1.80478 1.38012,-3.1849 3.1849,-3.1849h78.03011c1.80478,0 3.1849,1.38012 3.1849,3.1849c0,1.80478 -1.38012,3.1849 -3.1849,3.1849z" fill="#444b54"></path><path d="M86.00813,124.01636c-2.93162,0 -5.30817,2.37655 -5.30817,5.30817c0,2.93162 2.37655,5.30817 5.30817,5.30817c2.93162,0 5.30817,-2.37655 5.30817,-5.30817c0,-2.93162 -2.37655,-5.30817 -5.30817,-5.30817z" fill="#ffffff"></path><path d="M114.67225,153.74212c-0.21233,0 -0.31849,0 -0.53082,0c-1.69861,-0.31849 -2.86641,-1.91094 -2.54792,-3.71572l6.6883,-38.74965h-64.54736l6.79446,38.74965c0.31849,1.69861 -0.84931,3.39723 -2.54792,3.71572c-1.69861,0.31849 -3.39723,-0.84931 -3.71572,-2.54792l-6.79446,-38.85581c-0.31849,-1.91094 0.21233,-3.71572 1.38012,-5.20201c1.1678,-1.48629 2.97258,-2.22943 4.88352,-2.22943h64.65352c1.91094,0 3.71572,0.84931 4.88352,2.22943c1.1678,1.48629 1.69861,3.29107 1.38012,5.20201l-6.79446,38.74965c-0.31849,1.59245 -1.69861,2.65409 -3.1849,2.65409zM61.48438,100.66041c-0.84931,0 -1.69861,-0.31849 -2.3356,-0.95547c-3.29107,-3.50339 -5.83899,-7.64377 -7.5376,-12.10263l-19.85256,-52.65706c-0.63698,-1.59245 -2.22943,-2.54792 -3.82188,-2.22943c-0.95547,0.21233 -1.69861,0.74314 -2.12327,1.59245c-0.42465,0.84931 -0.53082,1.80478 -0.21233,2.65409l18.15395,48.30436c1.38012,3.60956 2.65409,7.32528 3.82188,11.041c0.53082,1.69861 -0.42465,3.50339 -2.12327,4.03421c-1.69861,0.53082 -3.50339,-0.42465 -4.03421,-2.12327c-1.06163,-3.60956 -2.3356,-7.21911 -3.60956,-10.72251l-18.04778,-48.19819c-0.95547,-2.54792 -0.74314,-5.41433 0.53082,-7.85609c1.27396,-2.44176 3.50339,-4.14037 6.26364,-4.77735c4.67119,-1.1678 9.44854,1.48629 11.25332,6.15748l19.85256,52.55089c1.38012,3.71572 3.50339,7.11295 6.26364,10.08553c1.1678,1.27396 1.1678,3.29107 -0.10616,4.45886c-0.74314,0.42465 -1.48629,0.74314 -2.3356,0.74314zM127.41186,100.66041c-0.31849,0 -0.63698,0 -0.95547,-0.10616c-1.69861,-0.53082 -2.65409,-2.3356 -2.12327,-4.03421c1.1678,-3.71572 2.44176,-7.5376 3.82188,-11.14716l18.15395,-48.30436c0.31849,-0.84931 0.31849,-1.69861 -0.10616,-2.44176c-0.42465,-0.74314 -0.95547,-1.38012 -1.80478,-1.69861c-0.84931,-0.31849 -1.69861,-0.31849 -2.44176,0.10616c-0.74314,0.31849 -1.38012,0.95547 -1.69861,1.80478l-19.85256,52.65706c-1.69861,4.3527 -4.14037,8.38691 -7.32528,11.8903c-1.1678,1.27396 -3.1849,1.38012 -4.45886,0.21233c-1.27396,-1.1678 -1.38012,-3.1849 -0.21233,-4.45886c2.65409,-2.86641 4.67119,-6.15748 6.05132,-9.76703l19.95872,-52.76322c0.84931,-2.3356 2.65409,-4.24654 4.98968,-5.30817c2.3356,-1.06163 4.88352,-1.1678 7.32528,-0.21233c2.3356,0.84931 4.24654,2.65409 5.30817,4.98968c1.06163,2.3356 1.1678,4.88352 0.21233,7.32528l-18.15395,48.30436c-1.38012,3.50339 -2.54792,7.21911 -3.71572,10.82867c-0.42465,1.27396 -1.59245,2.12327 -2.97258,2.12327z" fill="#444b54"></path></g><path d="" fill="none"></path><path d="" fill="none"></path></g></svg>