<svg width="20" height="20" viewBox="0 0 20 20" fill="none" xmlns="http://www.w3.org/2000/svg">
<path d="M0 2.91671C0 1.30669 1.12 0 2.5 0H17.5C18.88 0 20 1.30669 20 2.91671V6.56177C19.7423 6.34848 19.458 6.18265 19.1571 6.0701L18.5714 5.85343V2.91671C18.5714 2.58519 18.4585 2.26724 18.2576 2.03282C18.0567 1.79839 17.7842 1.66669 17.5 1.66669H2.5C2.21584 1.66669 1.94332 1.79839 1.74239 2.03282C1.54145 2.26724 1.42857 2.58519 1.42857 2.91671V13.7502C1.42857 14.4402 1.90857 15.0002 2.5 15.0002H5.71429V13.3335C5.71429 12.8915 5.8648 12.4676 6.13271 12.155C6.40061 11.8425 6.76398 11.6669 7.14286 11.6669H12.8571C13.236 11.6669 13.5994 11.8425 13.8673 12.155C14.1352 12.4676 14.2857 12.8915 14.2857 13.3335V13.6752C13.7792 13.6624 13.2812 13.8285 12.8571 14.1519V13.3335H7.14286V15.0002H12.12L11.4414 16.1636L11.3386 16.3636L11.32 16.4003C11.2802 16.4871 11.2439 16.5761 11.2114 16.6669H2.5C1.83696 16.6669 1.20107 16.3596 0.732233 15.8126C0.263392 15.2657 0 14.5238 0 13.7502V2.91671Z" fill="#42607D"/>
<path d="M19.8855 9.17515C19.9597 9.55849 19.9983 9.96183 19.9997 10.3835V10.4302C19.9955 11.8869 19.5497 13.5652 18.6626 15.4636C18.4769 15.8636 18.2883 16.2369 18.0955 16.5836C17.0997 18.3853 16.0269 19.4953 14.8755 19.9153C14.6133 20.0099 14.3349 20.0255 14.0661 19.9608C13.7974 19.8962 13.547 19.7532 13.3383 19.5453L13.224 19.4237L12.7826 18.907C12.5964 18.6835 12.4761 18.3966 12.4391 18.0879C12.4021 17.7792 12.4504 17.4648 12.5769 17.1903L12.6426 17.0669L13.3097 15.9236C13.4198 15.732 13.5713 15.5777 13.7489 15.4765C13.9266 15.3752 14.124 15.3305 14.3212 15.3469C14.364 15.3503 14.4083 15.3586 14.4526 15.3686L14.5697 15.4069L15.7997 15.8853C16.2912 15.4519 16.6997 14.9052 17.0283 14.2486C17.3097 13.6852 17.4926 13.1136 17.5797 12.5335L17.6155 12.2435L16.5912 11.1102C16.4254 10.9224 16.3074 10.6847 16.2504 10.4234C16.1934 10.1622 16.1996 9.88757 16.2683 9.63016L16.3112 9.48849L16.7769 8.21014C16.8727 7.92689 17.0504 7.6916 17.2792 7.54492C17.5079 7.39824 17.7734 7.34938 18.0297 7.40679L18.1397 7.44013L18.7212 7.6568C19.2997 7.87347 19.7412 8.45014 19.884 9.17349L19.8855 9.17515Z" fill="#42607D"/>
<path d="M9.99997 10.0002C10.7577 10.0002 11.4845 9.64897 12.0203 9.02384C12.5561 8.3987 12.8571 7.55085 12.8571 6.66678C12.8571 5.78271 12.5561 4.93485 12.0203 4.30972C11.4845 3.68458 10.7577 3.33339 9.99997 3.33339C9.2422 3.33339 8.51548 3.68458 7.97966 4.30972C7.44384 4.93485 7.14282 5.78271 7.14282 6.66678C7.14282 7.55085 7.44384 8.3987 7.97966 9.02384C8.51548 9.64897 9.2422 10.0002 9.99997 10.0002ZM9.99997 8.33347C9.62108 8.33347 9.25772 8.15787 8.98981 7.84531C8.7219 7.53274 8.57139 7.10881 8.57139 6.66678C8.57139 6.22474 8.7219 5.80081 8.98981 5.48825C9.25772 5.17568 9.62108 5.00008 9.99997 5.00008C10.3788 5.00008 10.7422 5.17568 11.0101 5.48825C11.278 5.80081 11.4285 6.22474 11.4285 6.66678C11.4285 7.10881 11.278 7.53274 11.0101 7.84531C10.7422 8.15787 10.3788 8.33347 9.99997 8.33347Z" fill="#42607D"/>
</svg>
