<svg width="19" height="16" viewBox="0 0 19 16" fill="none" xmlns="http://www.w3.org/2000/svg">
<path d="M1.54054 6.21776C0.688108 6.21776 0 6.88034 0 7.70116C0 8.52197 0.688108 9.18455 1.54054 9.18455C2.39297 9.18455 3.08108 8.52197 3.08108 7.70116C3.08108 6.88034 2.39297 6.21776 1.54054 6.21776ZM1.54054 0.28418C0.688108 0.28418 0 0.946763 0 1.76758C0 2.58839 0.688108 3.25097 1.54054 3.25097C2.39297 3.25097 3.08108 2.58839 3.08108 1.76758C3.08108 0.946763 2.39297 0.28418 1.54054 0.28418ZM1.54054 12.1513C0.688108 12.1513 0 12.8238 0 13.6347C0 14.4457 0.698378 15.1181 1.54054 15.1181C2.3827 15.1181 3.08108 14.4457 3.08108 13.6347C3.08108 12.8238 2.39297 12.1513 1.54054 12.1513ZM4.62162 14.6237H19V12.6458H4.62162V14.6237ZM4.62162 8.69009H19V6.71223H4.62162V8.69009ZM4.62162 0.778645V2.75651H19V0.778645H4.62162Z" fill="#3740A1"/>
</svg>
