<svg width="80" height="64" viewBox="0 0 80 64" fill="none" xmlns="http://www.w3.org/2000/svg">
<path d="M75.5164 46.5463H4.0641C1.82319 46.5463 0 44.724 0 42.4834V4.06313C0 1.82271 1.82319 0 4.0641 0H75.5164C77.7565 0 79.58 1.82271 79.58 4.06313V42.4834C79.58 44.724 77.7565 46.5463 75.5164 46.5463ZM4.0641 3.28211C3.63307 3.28211 3.28178 3.63242 3.28178 4.06313V42.4834C3.28178 42.9141 3.63307 43.2646 4.0641 43.2646H75.5164C75.9473 43.2646 76.2981 42.9141 76.2981 42.4834V4.06313C76.2981 3.63242 75.9474 3.28211 75.5164 3.28211H4.0641Z" fill="#1D006E"/>
<path d="M31.2941 35.7446C30.7553 35.4498 30.4048 34.9004 30.4048 34.2864V12.2608C30.4048 11.6466 30.7481 11.0842 31.2941 10.8024C31.8398 10.5208 32.4966 10.5677 32.9972 10.9237L48.4841 21.9364C48.9174 22.2444 49.174 22.7426 49.174 23.2737C49.174 23.8049 48.9174 24.3032 48.4841 24.6111C48.4841 24.6111 36.8683 32.8702 32.9972 35.6236C32.7142 35.8248 32.1044 36.1881 31.2941 35.7446ZM33.6872 15.4414V31.1058L44.7013 23.2737L33.6872 15.4414Z" fill="#1D006E"/>
<path d="M77.9392 55.8618H46.5733C45.8449 53.0717 43.3029 51.0068 40.2878 51.0068C37.273 51.0068 34.7316 53.0717 34.0031 55.8618H1.64097C0.734897 55.8618 0 56.5967 0 57.5028C0 58.4092 0.734897 59.1438 1.64097 59.1438H34.0032C34.7318 61.934 37.2733 63.9991 40.2879 63.9991C43.3031 63.9991 45.8451 61.9338 46.5735 59.1438H77.9392C78.8446 59.1438 79.58 58.4094 79.58 57.5028C79.58 56.5967 78.8446 55.8618 77.9392 55.8618ZM40.2878 60.7169C38.5162 60.7169 37.0741 59.275 37.0741 57.5027C37.0741 55.7306 38.5162 54.2889 40.2878 54.2889C42.0601 54.2889 43.502 55.7306 43.502 57.5027C43.502 59.2752 42.0601 60.7169 40.2878 60.7169Z" fill="#1D006E"/>
</svg>
