<svg width="78" height="78" viewBox="0 0 78 78" fill="none" xmlns="http://www.w3.org/2000/svg">
<mask id="path-1-outside-1" maskUnits="userSpaceOnUse" x="0" y="-0.010437" width="78" height="78" fill="black">
<rect fill="white" y="-0.010437" width="78" height="78"/>
<path d="M39.0234 40.429C38.3463 40.429 37.7974 40.9779 37.7974 41.655V52.442L28.5351 58.6167C27.9718 58.9924 27.8194 59.7536 28.1951 60.3169C28.4314 60.6714 28.82 60.863 29.2163 60.863C29.4501 60.863 29.6862 60.7963 29.8953 60.657L39.0236 54.5716L48.1518 60.657C48.3609 60.7963 48.5971 60.863 48.8308 60.863C49.2269 60.863 49.6157 60.6713 49.8521 60.3169C50.2277 59.7536 50.0755 58.9922 49.512 58.6167L40.2496 52.4418V41.6548C40.2494 40.9779 39.7006 40.429 39.0234 40.429Z"/>
<path d="M25.9047 36.5377L38.9954 36.5364C39.0049 36.5365 39.014 36.5377 39.0235 36.5377C39.033 36.5377 39.0422 36.5365 39.0517 36.5364L52.1424 36.5348C53.7016 36.5348 54.9701 35.3557 54.9701 33.9064V32.5822C54.9701 30.1873 53.4485 27.3366 50.5407 26.5219C50.5332 26.5198 50.5257 26.518 50.5182 26.5158L45.9496 25.3293C45.5625 25.2153 45.2565 25.0148 45.1906 24.91L45.1874 22.4251C45.1912 22.4205 45.1952 22.4164 45.199 22.412C46.7654 20.5397 47.6281 18.1139 47.6281 15.5814V13.7306C49.1908 8.6396 48.0895 4.22571 47.5243 2.94098C47.5223 2.93654 47.5199 2.93255 47.5179 2.92811C47.5075 2.90512 47.4958 2.88274 47.484 2.86052C47.4764 2.84596 47.4689 2.83125 47.4607 2.81715C47.4499 2.79845 47.4379 2.78068 47.4261 2.76275C47.4152 2.74604 47.4045 2.72918 47.3928 2.71309C47.3832 2.69991 47.3729 2.6875 47.3628 2.67478C47.3475 2.65547 47.3322 2.636 47.3158 2.61761C47.3084 2.60934 47.3003 2.60168 47.2926 2.59355C47.2727 2.5724 47.2526 2.55156 47.2313 2.5321C47.2253 2.52658 47.2189 2.52168 47.2128 2.51616C47.1893 2.49547 47.1654 2.47524 47.1406 2.45639C47.1342 2.45149 47.1273 2.4472 47.1207 2.4426C47.0957 2.42451 47.0704 2.40689 47.0442 2.3908C47.035 2.38513 47.0253 2.38038 47.016 2.37486C46.9919 2.36091 46.9677 2.34712 46.9427 2.33486C46.9296 2.32842 46.9159 2.32291 46.9026 2.31693C46.8805 2.30712 46.8586 2.29701 46.8361 2.28842C46.8198 2.28229 46.8031 2.27739 46.7866 2.27187C46.7659 2.26498 46.7453 2.25777 46.7243 2.2521C46.7072 2.24735 46.6896 2.24398 46.6721 2.24C46.6506 2.23509 46.6295 2.23003 46.6077 2.22636C46.5916 2.2236 46.5752 2.22206 46.5588 2.21992C46.5349 2.21685 46.5112 2.21364 46.4871 2.21195C46.473 2.21103 46.4586 2.21103 46.4444 2.21042C46.4177 2.2095 46.391 2.20888 46.3641 2.20965C46.3512 2.21011 46.3382 2.21134 46.3253 2.21226C46.2974 2.21394 46.2695 2.21609 46.2416 2.21977C46.2373 2.22038 46.233 2.22038 46.2287 2.22099C45.0473 2.38988 43.6059 2.04475 42.0801 1.67939C39.3812 1.03312 36.3371 0.306077 33.6703 2.22865C31.0915 2.45026 29.2632 4.61728 29.2632 7.54628C29.2632 9.67621 30.2515 13.4804 30.4782 14.3246V15.3485C30.4782 17.992 31.3929 20.4354 32.8593 22.2581L32.856 24.9126C32.7901 25.0174 32.4843 25.2179 32.097 25.3319L27.5285 26.5184C27.521 26.5204 27.5134 26.5224 27.5059 26.5245C24.5981 27.3392 23.0766 30.1899 23.0766 32.5848V33.909C23.0769 35.3587 24.3454 36.5377 25.9047 36.5377ZM32.9305 14.9299C32.9305 13.7114 33.4462 11.9292 33.8317 10.8019C39.3867 10.9294 43.5782 12.2635 45.1765 12.8549V13.5349C45.1765 13.539 45.1765 13.5431 45.1765 13.5473V15.5811C45.1765 17.7425 44.3638 19.7225 43.0959 21.0928C43.0925 21.0961 43.0893 21.0998 43.0859 21.1032C41.996 22.2763 40.572 23 39.0373 23C35.7841 23 32.9307 19.4244 32.9307 15.3483L32.9305 14.9299ZM35.309 24.4041C36.4433 25.0726 37.7104 25.4524 39.0371 25.4524C40.3395 25.4524 41.5963 25.1152 42.7382 24.4771L42.7388 24.9264C42.7388 25.5344 42.958 26.0441 43.2982 26.4609L39.0288 28.9808L34.7771 26.4297C35.1012 26.0196 35.3084 25.5213 35.3084 24.9309L35.309 24.4041ZM52.5181 32.5822V33.9064C52.5181 33.9401 52.3929 34.0828 52.1424 34.0828L40.2495 34.0841V31.1076L45.8093 27.8263L49.8895 28.886C51.6153 29.3752 52.5181 31.1142 52.5181 32.5822ZM34.11 4.6608C34.119 4.6608 34.1276 4.65973 34.1366 4.65942C34.1676 4.65881 34.1987 4.65774 34.2297 4.65483C34.2453 4.65329 34.2605 4.65038 34.276 4.64839C34.3003 4.64517 34.3245 4.64195 34.3487 4.63736C34.3668 4.63383 34.3843 4.62893 34.4019 4.62463C34.4231 4.61942 34.4442 4.61467 34.4651 4.60839C34.4841 4.60257 34.5023 4.59567 34.5209 4.58908C34.54 4.58234 34.5592 4.57605 34.578 4.56824C34.5975 4.56011 34.6163 4.55077 34.6352 4.54172C34.6523 4.5336 34.6695 4.52594 34.6864 4.51705C34.7074 4.50586 34.7274 4.4933 34.7475 4.48088C34.7615 4.4723 34.7759 4.46464 34.7895 4.45529C34.8142 4.43874 34.8378 4.42065 34.8612 4.40242C34.8694 4.39613 34.8778 4.39092 34.8857 4.38433C36.6897 2.91033 39.0308 3.47078 41.5094 4.06434C42.8436 4.38372 44.2136 4.71107 45.5438 4.71582C45.8635 5.89695 46.1778 7.98995 45.8402 10.4829C43.8447 9.75606 39.1625 8.33891 32.9782 8.33891C32.975 8.33891 32.9719 8.33937 32.9687 8.33937C32.9411 8.33952 32.9138 8.34152 32.8864 8.34351C32.8723 8.34458 32.858 8.34504 32.8441 8.34657C32.8217 8.34903 32.7998 8.35301 32.7777 8.35669C32.759 8.35975 32.7402 8.36221 32.7218 8.36619C32.7069 8.36941 32.6925 8.3737 32.678 8.37738C32.6533 8.38366 32.6285 8.38964 32.6044 8.3973C32.5967 8.39975 32.5895 8.40297 32.582 8.40558C32.552 8.41584 32.5221 8.42657 32.493 8.43899C32.4887 8.44082 32.4847 8.44312 32.4804 8.44512C32.449 8.45906 32.418 8.47393 32.388 8.49033C32.3784 8.49569 32.3692 8.50197 32.3595 8.50764C32.3357 8.52159 32.3118 8.53538 32.2892 8.55086C32.2689 8.56465 32.2496 8.57998 32.2302 8.595C32.219 8.60358 32.2073 8.6114 32.1964 8.62044C32.1722 8.64052 32.1492 8.66212 32.1264 8.68419C32.121 8.6894 32.1152 8.694 32.11 8.69937C32.0892 8.72021 32.0695 8.74258 32.0502 8.76511C32.0436 8.77277 32.0366 8.77982 32.0302 8.78749C32.015 8.80588 32.0012 8.82565 31.9871 8.84496C31.9774 8.85829 31.9672 8.87132 31.958 8.88511C31.9482 8.89998 31.9393 8.91561 31.9301 8.93093C31.918 8.95086 31.9057 8.97063 31.8947 8.99147C31.8884 9.00327 31.883 9.01568 31.8772 9.02779C31.8691 9.04419 31.8607 9.06043 31.8533 9.07729C31.7684 8.49891 31.7152 7.96758 31.7152 7.54643C31.7155 6.21542 32.3426 4.6608 34.11 4.6608ZM25.529 32.5852C25.529 31.1171 26.4318 29.3783 28.1573 28.889L32.3112 27.81L37.7974 31.1018V34.0844L25.9044 34.0857C25.654 34.0857 25.5288 33.943 25.5288 33.9093L25.529 32.5852Z"/>
<path d="M28.4641 66.99C28.4566 66.9879 28.4491 66.9859 28.4416 66.9839L23.8731 65.7974C23.486 65.6834 23.1799 65.4829 23.114 65.3781L23.1108 62.8932C23.1146 62.8886 23.1186 62.8845 23.1224 62.8799C24.6888 61.0077 25.5515 58.5819 25.5515 56.0493V54.1986C27.1143 49.1077 26.013 44.6938 25.4478 43.4092C25.4459 43.4048 25.4435 43.4009 25.4415 43.3965C25.4308 43.3727 25.4188 43.3499 25.4067 43.3271C25.3995 43.3134 25.3924 43.2995 25.3848 43.2861C25.3731 43.2662 25.3606 43.2472 25.3478 43.2281C25.3377 43.2126 25.3278 43.1969 25.317 43.1821C25.3063 43.1674 25.2947 43.1533 25.2833 43.1392C25.2692 43.1215 25.2553 43.1036 25.2403 43.0869C25.2309 43.0765 25.2208 43.0668 25.2111 43.0567C25.1931 43.0379 25.1751 43.019 25.156 43.0015C25.1472 42.9936 25.138 42.9862 25.1291 42.9786C25.1083 42.9605 25.0875 42.9425 25.0655 42.926C25.0556 42.9185 25.045 42.9117 25.0347 42.9045C25.0131 42.8892 24.9917 42.874 24.9693 42.8602C24.9561 42.852 24.9422 42.8449 24.9285 42.8372C24.9085 42.8259 24.8885 42.8144 24.8678 42.8042C24.8504 42.7954 24.8324 42.7882 24.8145 42.7804C24.7967 42.7727 24.7793 42.7645 24.7612 42.7576C24.7411 42.7499 24.7204 42.7436 24.6999 42.737C24.683 42.7317 24.6665 42.7257 24.6495 42.7211C24.6291 42.7154 24.6082 42.7113 24.5875 42.7068C24.5693 42.7028 24.5511 42.6982 24.5327 42.6952C24.5143 42.692 24.4956 42.6901 24.4769 42.6878C24.4551 42.6851 24.4335 42.6822 24.4116 42.6806C24.396 42.6796 24.3802 42.6796 24.3646 42.6789C24.3391 42.6782 24.3138 42.6774 24.2882 42.6782C24.2746 42.6786 24.261 42.6799 24.2472 42.6808C24.2197 42.6826 24.1923 42.6846 24.1649 42.6883C24.1606 42.6888 24.1563 42.6887 24.152 42.6894C22.9706 42.8586 21.529 42.5133 20.0034 42.1479C17.3046 41.5016 14.2603 40.7744 11.5936 42.6972C9.0149 42.9188 7.18642 45.0858 7.18642 48.0148C7.18642 50.1447 8.17476 53.949 8.40142 54.7931V55.817C8.40142 58.4605 9.3162 60.9038 10.7825 62.7266L10.7793 65.3811C10.7134 65.486 10.4074 65.6864 10.0201 65.8004L5.45174 66.9869C5.44423 66.9889 5.43672 66.9909 5.42921 66.9931C2.52136 67.8075 1 70.6583 1 73.0532V74.3773C1 75.8267 2.26849 77.0058 3.82785 77.0058L16.9182 77.0044C16.9277 77.0046 16.9371 77.0058 16.9467 77.0058C16.9564 77.0058 16.9657 77.0046 16.9754 77.0044L30.0658 77.0029C31.625 77.0029 32.8935 75.8237 32.8935 74.3744V73.0503C32.8933 70.6554 31.372 67.8047 28.4641 66.99ZM16.9518 69.449L12.7001 66.8979C13.0242 66.4876 13.2314 65.9896 13.2314 65.3989L13.232 64.8722C14.3661 65.5407 15.6333 65.9204 16.9601 65.9204C18.2624 65.9204 19.5193 65.5833 20.6613 64.9451L20.6619 65.3946C20.6619 66.0026 20.8811 66.5123 21.2213 66.9292L16.9518 69.449ZM10.8536 55.3981C10.8536 54.1795 11.3693 52.3974 11.7548 51.2701C17.3098 51.3976 21.5013 52.7317 23.0996 53.3232V54.0037C23.0996 54.0074 23.0996 54.0112 23.0996 54.0149V56.0493C23.0996 58.2107 22.2867 60.1909 21.0189 61.5611C21.0155 61.5643 21.0124 61.5679 21.0092 61.5712C19.9193 62.7445 18.4951 63.4684 16.9602 63.4684C13.7072 63.4684 10.8536 59.8928 10.8536 55.8167V55.3981ZM12.0331 45.129C12.0426 45.129 12.0516 45.1278 12.061 45.1276C12.0915 45.127 12.1221 45.126 12.1526 45.123C12.1686 45.1215 12.1841 45.1186 12.1998 45.1165C12.2239 45.1132 12.2478 45.1102 12.2717 45.1054C12.2899 45.1019 12.3076 45.0968 12.3257 45.0925C12.3465 45.0875 12.3675 45.0827 12.388 45.0766C12.4072 45.0708 12.4256 45.0637 12.4443 45.057C12.4631 45.0502 12.4821 45.0441 12.5008 45.0363C12.5204 45.0282 12.5393 45.0187 12.5583 45.0096C12.5753 45.0015 12.5926 44.994 12.6093 44.9851C12.6303 44.9739 12.6504 44.9614 12.6705 44.9489C12.6844 44.9404 12.6988 44.9325 12.7125 44.9234C12.7371 44.907 12.7607 44.8887 12.7842 44.8706C12.7923 44.8643 12.8007 44.859 12.8087 44.8526C14.6127 43.3785 16.9538 43.939 19.4325 44.5324C20.7666 44.8518 22.1367 45.1791 23.4669 45.184C23.7866 46.3652 24.101 48.4582 23.7633 50.9512C21.7678 50.2243 17.0856 48.8071 10.9013 48.8071C10.8984 48.8071 10.8955 48.8076 10.8926 48.8076C10.8642 48.8077 10.836 48.8097 10.8078 48.8119C10.7945 48.8128 10.7812 48.8133 10.768 48.8148C10.7448 48.8174 10.7222 48.8214 10.6993 48.8252C10.6814 48.8283 10.6632 48.8306 10.6455 48.8344C10.6302 48.8376 10.6152 48.8422 10.5999 48.8462C10.5758 48.8523 10.5516 48.8582 10.528 48.8657C10.5199 48.8683 10.5122 48.8716 10.5041 48.8744C10.4745 48.8845 10.4451 48.8951 10.4164 48.9074C10.4118 48.9093 10.4075 48.9118 10.4031 48.9138C10.3718 48.9277 10.341 48.9423 10.3113 48.9587C10.3021 48.9638 10.2934 48.9699 10.2843 48.9751C10.2599 48.9892 10.2356 49.0034 10.2124 49.0192C10.1931 49.0323 10.1747 49.0471 10.1562 49.0614C10.1442 49.0706 10.1315 49.0792 10.1199 49.0888C10.0961 49.1083 10.0737 49.1296 10.0515 49.1509C10.0455 49.1565 10.0393 49.1618 10.0334 49.1676C10.0129 49.1881 9.99358 49.2102 9.97443 49.2324C9.96768 49.2404 9.96017 49.2477 9.95358 49.2557C9.93857 49.2741 9.92493 49.2936 9.91083 49.3129C9.90102 49.3264 9.8906 49.3394 9.88125 49.3533C9.87144 49.3682 9.86271 49.3838 9.85336 49.3992C9.84125 49.4191 9.82899 49.439 9.81795 49.4597C9.81167 49.4715 9.80631 49.4841 9.80048 49.496C9.79236 49.5126 9.78393 49.5287 9.77658 49.5457C9.69167 48.9673 9.63849 48.4359 9.63849 48.0148C9.63865 46.6835 10.2658 45.129 12.0331 45.129ZM3.8277 74.5539C3.57728 74.5539 3.45207 74.4112 3.45207 74.3775V73.0534C3.45207 71.5855 4.35489 69.8465 6.08039 69.3572L10.2343 68.2783L15.7207 71.57V74.5527L3.8277 74.5539ZM30.4413 74.3746C30.4413 74.4083 30.316 74.551 30.0655 74.551L18.1726 74.5523V71.5758L23.7324 68.2944L27.8128 69.3541C29.5383 69.8435 30.4411 71.5824 30.4411 73.0503L30.4413 74.3746Z"/>
<path d="M72.6006 66.9898C72.5931 66.9877 72.5856 66.9857 72.5781 66.9837L68.0096 65.7972C67.6225 65.6832 67.3164 65.4827 67.2505 65.3779L67.2473 62.893C67.2511 62.8884 67.2551 62.8843 67.259 62.8797C68.8254 61.0075 69.688 58.5817 69.688 56.0491V54.1984C71.2508 49.1075 70.1495 44.6936 69.5843 43.409C69.5825 43.4046 69.58 43.4007 69.578 43.3963C69.5673 43.3727 69.5555 43.3498 69.5434 43.3272C69.536 43.3132 69.529 43.2991 69.521 43.2856C69.5097 43.2662 69.4971 43.2473 69.4847 43.2285C69.4743 43.2127 69.4641 43.1967 69.4533 43.1816C69.4428 43.1672 69.4315 43.1537 69.4205 43.1399C69.4061 43.1216 69.3918 43.1036 69.3765 43.0864C69.3676 43.0764 69.3581 43.0672 69.3489 43.0576C69.3303 43.0381 69.3118 43.0188 69.2922 43.0007C69.2842 42.9934 69.2756 42.9866 69.2674 42.9794C69.2459 42.9607 69.2243 42.9422 69.2018 42.9252C69.1926 42.9183 69.1828 42.912 69.1734 42.9053C69.1512 42.8893 69.1288 42.8735 69.1055 42.8593C69.0931 42.8516 69.0801 42.845 69.0675 42.8378C69.0467 42.8259 69.0258 42.8139 69.0042 42.8032C68.9875 42.7949 68.9704 42.788 68.9533 42.7805C68.9348 42.7724 68.9166 42.764 68.8976 42.7567C68.8781 42.7494 68.858 42.7433 68.8381 42.7368C68.8206 42.7312 68.8035 42.725 68.7858 42.7203C68.7659 42.7148 68.7454 42.7106 68.7251 42.7062C68.7064 42.702 68.6879 42.6976 68.6691 42.6944C68.6508 42.6912 68.6323 42.6893 68.6139 42.687C68.592 42.6843 68.5702 42.6813 68.5481 42.6798C68.5325 42.6787 68.5169 42.6787 68.5011 42.6781C68.4756 42.6774 68.4504 42.6766 68.4248 42.6774C68.4111 42.6778 68.3973 42.679 68.3835 42.68C68.3563 42.6818 68.329 42.6838 68.3016 42.6875C68.2971 42.6879 68.2928 42.6879 68.2885 42.6885C67.1069 42.8577 65.6656 42.5125 64.1399 42.1471C61.441 41.5008 58.3969 40.7736 55.7301 42.6964C53.1514 42.918 51.323 45.085 51.323 48.014C51.323 50.1439 52.3113 53.9482 52.538 54.7923V55.8162C52.538 58.4597 53.4527 60.903 54.9191 62.7258L54.9158 65.3803C54.8499 65.4852 54.5439 65.6856 54.1566 65.7996L49.5883 66.9861C49.5808 66.9881 49.5732 66.9901 49.5657 66.9923C46.6579 67.8073 45.1365 70.6581 45.1365 73.053V74.3771C45.1365 75.8265 46.405 77.0056 47.9644 77.0056L61.0548 77.0042C61.0643 77.0044 61.0736 77.0056 61.0833 77.0056C61.0929 77.0056 61.1023 77.0044 61.1119 77.0042L74.2023 77.0027C75.7615 77.0027 77.03 75.8236 77.03 74.3742V73.0501C77.0299 70.6552 75.5085 67.8045 72.6006 66.9898ZM61.0883 69.4488L56.8366 66.8977C57.1607 66.4874 57.3679 65.9894 57.3679 65.3987L57.3685 64.872C58.5026 65.5405 59.7699 65.9202 61.0966 65.9202C62.399 65.9202 63.6558 65.5831 64.7978 64.9449L64.7985 65.3944C64.7985 66.0024 65.0176 66.5121 65.3578 66.929L61.0883 69.4488ZM54.9902 55.3979C54.9902 54.1793 55.5059 52.3972 55.8913 51.2699C61.4463 51.3974 65.6378 52.7315 67.2361 53.323V54.0035C67.2361 54.0072 67.2361 54.011 67.2361 54.0147V56.0491C67.2361 58.2105 66.4233 60.1907 65.1554 61.5609C65.152 61.5641 65.149 61.5677 65.1457 61.571C64.0558 62.7444 62.6316 63.4682 61.0968 63.4682C57.8438 63.4682 54.9902 59.8926 54.9902 55.8165V55.3979ZM56.1696 45.1288C56.1791 45.1288 56.1882 45.1276 56.1975 45.1274C56.228 45.1268 56.2587 45.1258 56.2892 45.1228C56.3051 45.1213 56.3206 45.1184 56.3364 45.1163C56.3604 45.113 56.3843 45.11 56.4082 45.1052C56.4265 45.1017 56.4441 45.0966 56.4622 45.0923C56.483 45.0873 56.504 45.0825 56.5246 45.0764C56.5437 45.0706 56.5621 45.0635 56.5808 45.0568C56.5997 45.05 56.6187 45.0439 56.6374 45.0361C56.657 45.028 56.6758 45.0185 56.6948 45.0094C56.7118 45.0013 56.7292 44.9938 56.7459 44.9849C56.7669 44.9737 56.7869 44.9612 56.807 44.9487C56.821 44.9402 56.8354 44.9323 56.849 44.9232C56.8737 44.9068 56.8973 44.8885 56.9207 44.8704C56.9288 44.8642 56.9373 44.8588 56.9452 44.8524C58.7492 43.3783 61.0903 43.9388 63.569 44.5322C64.9031 44.8516 66.2732 45.1789 67.6035 45.1838C67.9232 46.365 68.2375 48.458 67.8999 50.951C65.9043 50.2241 61.2221 48.8069 55.0378 48.8069C55.0348 48.8069 55.032 48.8074 55.0289 48.8074C55.0004 48.8075 54.9721 48.8095 54.9439 48.8117C54.9307 48.8128 54.9175 48.8131 54.9045 48.8146C54.8811 48.8172 54.8579 48.8213 54.8348 48.8252C54.8172 48.8281 54.7995 48.8304 54.7822 48.8341C54.7661 48.8376 54.7503 48.8423 54.7342 48.8465C54.7109 48.8524 54.6875 48.858 54.6647 48.8653C54.6553 48.8684 54.6464 48.8722 54.6371 48.8754C54.6087 48.8852 54.5805 48.8952 54.5531 48.907C54.5467 48.9098 54.5405 48.9133 54.5342 48.9162C54.505 48.9294 54.476 48.943 54.448 48.9583C54.4363 48.9646 54.4254 48.9721 54.4141 48.9789C54.3922 48.9918 54.3701 49.0045 54.3491 49.0189C54.3278 49.0333 54.3074 49.0494 54.287 49.0653C54.2769 49.0731 54.2664 49.0803 54.2564 49.0885C54.2316 49.109 54.208 49.1311 54.1847 49.1537C54.1799 49.1583 54.1747 49.1626 54.17 49.1672C54.1488 49.1884 54.129 49.2111 54.1094 49.2339C54.1031 49.2413 54.0962 49.248 54.0901 49.2557C54.0749 49.2742 54.061 49.294 54.0467 49.3136C54.0371 49.3268 54.027 49.3396 54.0179 49.3533C54.008 49.3681 53.9992 49.3841 53.9899 49.3994C53.9778 49.4193 53.9655 49.4389 53.9546 49.4596C53.9484 49.4714 53.943 49.484 53.9372 49.496C53.929 49.5125 53.9206 49.5286 53.9133 49.5456C53.8284 48.9672 53.7752 48.4359 53.7752 48.0148C53.7752 46.6833 54.4023 45.1288 56.1696 45.1288ZM47.9642 74.5537C47.7138 74.5537 47.5886 74.411 47.5886 74.3773V73.0532C47.5886 71.5853 48.4914 69.8463 50.2169 69.357L54.3709 68.2781L59.8572 71.5698V74.5525L47.9642 74.5537ZM74.5778 74.3744C74.5778 74.4081 74.4526 74.5508 74.202 74.5508L62.3092 74.5522V71.5756L67.8689 68.2942L71.9493 69.3539C73.6748 69.8433 74.5776 71.5822 74.5776 73.0501L74.5778 74.3744Z"/>
</mask>
<path d="M39.0234 40.429C38.3463 40.429 37.7974 40.9779 37.7974 41.655V52.442L28.5351 58.6167C27.9718 58.9924 27.8194 59.7536 28.1951 60.3169C28.4314 60.6714 28.82 60.863 29.2163 60.863C29.4501 60.863 29.6862 60.7963 29.8953 60.657L39.0236 54.5716L48.1518 60.657C48.3609 60.7963 48.5971 60.863 48.8308 60.863C49.2269 60.863 49.6157 60.6713 49.8521 60.3169C50.2277 59.7536 50.0755 58.9922 49.512 58.6167L40.2496 52.4418V41.6548C40.2494 40.9779 39.7006 40.429 39.0234 40.429Z" fill="#1D006E"/>
<path d="M25.9047 36.5377L38.9954 36.5364C39.0049 36.5365 39.014 36.5377 39.0235 36.5377C39.033 36.5377 39.0422 36.5365 39.0517 36.5364L52.1424 36.5348C53.7016 36.5348 54.9701 35.3557 54.9701 33.9064V32.5822C54.9701 30.1873 53.4485 27.3366 50.5407 26.5219C50.5332 26.5198 50.5257 26.518 50.5182 26.5158L45.9496 25.3293C45.5625 25.2153 45.2565 25.0148 45.1906 24.91L45.1874 22.4251C45.1912 22.4205 45.1952 22.4164 45.199 22.412C46.7654 20.5397 47.6281 18.1139 47.6281 15.5814V13.7306C49.1908 8.6396 48.0895 4.22571 47.5243 2.94098C47.5223 2.93654 47.5199 2.93255 47.5179 2.92811C47.5075 2.90512 47.4958 2.88274 47.484 2.86052C47.4764 2.84596 47.4689 2.83125 47.4607 2.81715C47.4499 2.79845 47.4379 2.78068 47.4261 2.76275C47.4152 2.74604 47.4045 2.72918 47.3928 2.71309C47.3832 2.69991 47.3729 2.6875 47.3628 2.67478C47.3475 2.65547 47.3322 2.636 47.3158 2.61761C47.3084 2.60934 47.3003 2.60168 47.2926 2.59355C47.2727 2.5724 47.2526 2.55156 47.2313 2.5321C47.2253 2.52658 47.2189 2.52168 47.2128 2.51616C47.1893 2.49547 47.1654 2.47524 47.1406 2.45639C47.1342 2.45149 47.1273 2.4472 47.1207 2.4426C47.0957 2.42451 47.0704 2.40689 47.0442 2.3908C47.035 2.38513 47.0253 2.38038 47.016 2.37486C46.9919 2.36091 46.9677 2.34712 46.9427 2.33486C46.9296 2.32842 46.9159 2.32291 46.9026 2.31693C46.8805 2.30712 46.8586 2.29701 46.8361 2.28842C46.8198 2.28229 46.8031 2.27739 46.7866 2.27187C46.7659 2.26498 46.7453 2.25777 46.7243 2.2521C46.7072 2.24735 46.6896 2.24398 46.6721 2.24C46.6506 2.23509 46.6295 2.23003 46.6077 2.22636C46.5916 2.2236 46.5752 2.22206 46.5588 2.21992C46.5349 2.21685 46.5112 2.21364 46.4871 2.21195C46.473 2.21103 46.4586 2.21103 46.4444 2.21042C46.4177 2.2095 46.391 2.20888 46.3641 2.20965C46.3512 2.21011 46.3382 2.21134 46.3253 2.21226C46.2974 2.21394 46.2695 2.21609 46.2416 2.21977C46.2373 2.22038 46.233 2.22038 46.2287 2.22099C45.0473 2.38988 43.6059 2.04475 42.0801 1.67939C39.3812 1.03312 36.3371 0.306077 33.6703 2.22865C31.0915 2.45026 29.2632 4.61728 29.2632 7.54628C29.2632 9.67621 30.2515 13.4804 30.4782 14.3246V15.3485C30.4782 17.992 31.3929 20.4354 32.8593 22.2581L32.856 24.9126C32.7901 25.0174 32.4843 25.2179 32.097 25.3319L27.5285 26.5184C27.521 26.5204 27.5134 26.5224 27.5059 26.5245C24.5981 27.3392 23.0766 30.1899 23.0766 32.5848V33.909C23.0769 35.3587 24.3454 36.5377 25.9047 36.5377ZM32.9305 14.9299C32.9305 13.7114 33.4462 11.9292 33.8317 10.8019C39.3867 10.9294 43.5782 12.2635 45.1765 12.8549V13.5349C45.1765 13.539 45.1765 13.5431 45.1765 13.5473V15.5811C45.1765 17.7425 44.3638 19.7225 43.0959 21.0928C43.0925 21.0961 43.0893 21.0998 43.0859 21.1032C41.996 22.2763 40.572 23 39.0373 23C35.7841 23 32.9307 19.4244 32.9307 15.3483L32.9305 14.9299ZM35.309 24.4041C36.4433 25.0726 37.7104 25.4524 39.0371 25.4524C40.3395 25.4524 41.5963 25.1152 42.7382 24.4771L42.7388 24.9264C42.7388 25.5344 42.958 26.0441 43.2982 26.4609L39.0288 28.9808L34.7771 26.4297C35.1012 26.0196 35.3084 25.5213 35.3084 24.9309L35.309 24.4041ZM52.5181 32.5822V33.9064C52.5181 33.9401 52.3929 34.0828 52.1424 34.0828L40.2495 34.0841V31.1076L45.8093 27.8263L49.8895 28.886C51.6153 29.3752 52.5181 31.1142 52.5181 32.5822ZM34.11 4.6608C34.119 4.6608 34.1276 4.65973 34.1366 4.65942C34.1676 4.65881 34.1987 4.65774 34.2297 4.65483C34.2453 4.65329 34.2605 4.65038 34.276 4.64839C34.3003 4.64517 34.3245 4.64195 34.3487 4.63736C34.3668 4.63383 34.3843 4.62893 34.4019 4.62463C34.4231 4.61942 34.4442 4.61467 34.4651 4.60839C34.4841 4.60257 34.5023 4.59567 34.5209 4.58908C34.54 4.58234 34.5592 4.57605 34.578 4.56824C34.5975 4.56011 34.6163 4.55077 34.6352 4.54172C34.6523 4.5336 34.6695 4.52594 34.6864 4.51705C34.7074 4.50586 34.7274 4.4933 34.7475 4.48088C34.7615 4.4723 34.7759 4.46464 34.7895 4.45529C34.8142 4.43874 34.8378 4.42065 34.8612 4.40242C34.8694 4.39613 34.8778 4.39092 34.8857 4.38433C36.6897 2.91033 39.0308 3.47078 41.5094 4.06434C42.8436 4.38372 44.2136 4.71107 45.5438 4.71582C45.8635 5.89695 46.1778 7.98995 45.8402 10.4829C43.8447 9.75606 39.1625 8.33891 32.9782 8.33891C32.975 8.33891 32.9719 8.33937 32.9687 8.33937C32.9411 8.33952 32.9138 8.34152 32.8864 8.34351C32.8723 8.34458 32.858 8.34504 32.8441 8.34657C32.8217 8.34903 32.7998 8.35301 32.7777 8.35669C32.759 8.35975 32.7402 8.36221 32.7218 8.36619C32.7069 8.36941 32.6925 8.3737 32.678 8.37738C32.6533 8.38366 32.6285 8.38964 32.6044 8.3973C32.5967 8.39975 32.5895 8.40297 32.582 8.40558C32.552 8.41584 32.5221 8.42657 32.493 8.43899C32.4887 8.44082 32.4847 8.44312 32.4804 8.44512C32.449 8.45906 32.418 8.47393 32.388 8.49033C32.3784 8.49569 32.3692 8.50197 32.3595 8.50764C32.3357 8.52159 32.3118 8.53538 32.2892 8.55086C32.2689 8.56465 32.2496 8.57998 32.2302 8.595C32.219 8.60358 32.2073 8.6114 32.1964 8.62044C32.1722 8.64052 32.1492 8.66212 32.1264 8.68419C32.121 8.6894 32.1152 8.694 32.11 8.69937C32.0892 8.72021 32.0695 8.74258 32.0502 8.76511C32.0436 8.77277 32.0366 8.77982 32.0302 8.78749C32.015 8.80588 32.0012 8.82565 31.9871 8.84496C31.9774 8.85829 31.9672 8.87132 31.958 8.88511C31.9482 8.89998 31.9393 8.91561 31.9301 8.93093C31.918 8.95086 31.9057 8.97063 31.8947 8.99147C31.8884 9.00327 31.883 9.01568 31.8772 9.02779C31.8691 9.04419 31.8607 9.06043 31.8533 9.07729C31.7684 8.49891 31.7152 7.96758 31.7152 7.54643C31.7155 6.21542 32.3426 4.6608 34.11 4.6608ZM25.529 32.5852C25.529 31.1171 26.4318 29.3783 28.1573 28.889L32.3112 27.81L37.7974 31.1018V34.0844L25.9044 34.0857C25.654 34.0857 25.5288 33.943 25.5288 33.9093L25.529 32.5852Z" fill="#1D006E"/>
<path d="M28.4641 66.99C28.4566 66.9879 28.4491 66.9859 28.4416 66.9839L23.8731 65.7974C23.486 65.6834 23.1799 65.4829 23.114 65.3781L23.1108 62.8932C23.1146 62.8886 23.1186 62.8845 23.1224 62.8799C24.6888 61.0077 25.5515 58.5819 25.5515 56.0493V54.1986C27.1143 49.1077 26.013 44.6938 25.4478 43.4092C25.4459 43.4048 25.4435 43.4009 25.4415 43.3965C25.4308 43.3727 25.4188 43.3499 25.4067 43.3271C25.3995 43.3134 25.3924 43.2995 25.3848 43.2861C25.3731 43.2662 25.3606 43.2472 25.3478 43.2281C25.3377 43.2126 25.3278 43.1969 25.317 43.1821C25.3063 43.1674 25.2947 43.1533 25.2833 43.1392C25.2692 43.1215 25.2553 43.1036 25.2403 43.0869C25.2309 43.0765 25.2208 43.0668 25.2111 43.0567C25.1931 43.0379 25.1751 43.019 25.156 43.0015C25.1472 42.9936 25.138 42.9862 25.1291 42.9786C25.1083 42.9605 25.0875 42.9425 25.0655 42.926C25.0556 42.9185 25.045 42.9117 25.0347 42.9045C25.0131 42.8892 24.9917 42.874 24.9693 42.8602C24.9561 42.852 24.9422 42.8449 24.9285 42.8372C24.9085 42.8259 24.8885 42.8144 24.8678 42.8042C24.8504 42.7954 24.8324 42.7882 24.8145 42.7804C24.7967 42.7727 24.7793 42.7645 24.7612 42.7576C24.7411 42.7499 24.7204 42.7436 24.6999 42.737C24.683 42.7317 24.6665 42.7257 24.6495 42.7211C24.6291 42.7154 24.6082 42.7113 24.5875 42.7068C24.5693 42.7028 24.5511 42.6982 24.5327 42.6952C24.5143 42.692 24.4956 42.6901 24.4769 42.6878C24.4551 42.6851 24.4335 42.6822 24.4116 42.6806C24.396 42.6796 24.3802 42.6796 24.3646 42.6789C24.3391 42.6782 24.3138 42.6774 24.2882 42.6782C24.2746 42.6786 24.261 42.6799 24.2472 42.6808C24.2197 42.6826 24.1923 42.6846 24.1649 42.6883C24.1606 42.6888 24.1563 42.6887 24.152 42.6894C22.9706 42.8586 21.529 42.5133 20.0034 42.1479C17.3046 41.5016 14.2603 40.7744 11.5936 42.6972C9.0149 42.9188 7.18642 45.0858 7.18642 48.0148C7.18642 50.1447 8.17476 53.949 8.40142 54.7931V55.817C8.40142 58.4605 9.3162 60.9038 10.7825 62.7266L10.7793 65.3811C10.7134 65.486 10.4074 65.6864 10.0201 65.8004L5.45174 66.9869C5.44423 66.9889 5.43672 66.9909 5.42921 66.9931C2.52136 67.8075 1 70.6583 1 73.0532V74.3773C1 75.8267 2.26849 77.0058 3.82785 77.0058L16.9182 77.0044C16.9277 77.0046 16.9371 77.0058 16.9467 77.0058C16.9564 77.0058 16.9657 77.0046 16.9754 77.0044L30.0658 77.0029C31.625 77.0029 32.8935 75.8237 32.8935 74.3744V73.0503C32.8933 70.6554 31.372 67.8047 28.4641 66.99ZM16.9518 69.449L12.7001 66.8979C13.0242 66.4876 13.2314 65.9896 13.2314 65.3989L13.232 64.8722C14.3661 65.5407 15.6333 65.9204 16.9601 65.9204C18.2624 65.9204 19.5193 65.5833 20.6613 64.9451L20.6619 65.3946C20.6619 66.0026 20.8811 66.5123 21.2213 66.9292L16.9518 69.449ZM10.8536 55.3981C10.8536 54.1795 11.3693 52.3974 11.7548 51.2701C17.3098 51.3976 21.5013 52.7317 23.0996 53.3232V54.0037C23.0996 54.0074 23.0996 54.0112 23.0996 54.0149V56.0493C23.0996 58.2107 22.2867 60.1909 21.0189 61.5611C21.0155 61.5643 21.0124 61.5679 21.0092 61.5712C19.9193 62.7445 18.4951 63.4684 16.9602 63.4684C13.7072 63.4684 10.8536 59.8928 10.8536 55.8167V55.3981ZM12.0331 45.129C12.0426 45.129 12.0516 45.1278 12.061 45.1276C12.0915 45.127 12.1221 45.126 12.1526 45.123C12.1686 45.1215 12.1841 45.1186 12.1998 45.1165C12.2239 45.1132 12.2478 45.1102 12.2717 45.1054C12.2899 45.1019 12.3076 45.0968 12.3257 45.0925C12.3465 45.0875 12.3675 45.0827 12.388 45.0766C12.4072 45.0708 12.4256 45.0637 12.4443 45.057C12.4631 45.0502 12.4821 45.0441 12.5008 45.0363C12.5204 45.0282 12.5393 45.0187 12.5583 45.0096C12.5753 45.0015 12.5926 44.994 12.6093 44.9851C12.6303 44.9739 12.6504 44.9614 12.6705 44.9489C12.6844 44.9404 12.6988 44.9325 12.7125 44.9234C12.7371 44.907 12.7607 44.8887 12.7842 44.8706C12.7923 44.8643 12.8007 44.859 12.8087 44.8526C14.6127 43.3785 16.9538 43.939 19.4325 44.5324C20.7666 44.8518 22.1367 45.1791 23.4669 45.184C23.7866 46.3652 24.101 48.4582 23.7633 50.9512C21.7678 50.2243 17.0856 48.8071 10.9013 48.8071C10.8984 48.8071 10.8955 48.8076 10.8926 48.8076C10.8642 48.8077 10.836 48.8097 10.8078 48.8119C10.7945 48.8128 10.7812 48.8133 10.768 48.8148C10.7448 48.8174 10.7222 48.8214 10.6993 48.8252C10.6814 48.8283 10.6632 48.8306 10.6455 48.8344C10.6302 48.8376 10.6152 48.8422 10.5999 48.8462C10.5758 48.8523 10.5516 48.8582 10.528 48.8657C10.5199 48.8683 10.5122 48.8716 10.5041 48.8744C10.4745 48.8845 10.4451 48.8951 10.4164 48.9074C10.4118 48.9093 10.4075 48.9118 10.4031 48.9138C10.3718 48.9277 10.341 48.9423 10.3113 48.9587C10.3021 48.9638 10.2934 48.9699 10.2843 48.9751C10.2599 48.9892 10.2356 49.0034 10.2124 49.0192C10.1931 49.0323 10.1747 49.0471 10.1562 49.0614C10.1442 49.0706 10.1315 49.0792 10.1199 49.0888C10.0961 49.1083 10.0737 49.1296 10.0515 49.1509C10.0455 49.1565 10.0393 49.1618 10.0334 49.1676C10.0129 49.1881 9.99358 49.2102 9.97443 49.2324C9.96768 49.2404 9.96017 49.2477 9.95358 49.2557C9.93857 49.2741 9.92493 49.2936 9.91083 49.3129C9.90102 49.3264 9.8906 49.3394 9.88125 49.3533C9.87144 49.3682 9.86271 49.3838 9.85336 49.3992C9.84125 49.4191 9.82899 49.439 9.81795 49.4597C9.81167 49.4715 9.80631 49.4841 9.80048 49.496C9.79236 49.5126 9.78393 49.5287 9.77658 49.5457C9.69167 48.9673 9.63849 48.4359 9.63849 48.0148C9.63865 46.6835 10.2658 45.129 12.0331 45.129ZM3.8277 74.5539C3.57728 74.5539 3.45207 74.4112 3.45207 74.3775V73.0534C3.45207 71.5855 4.35489 69.8465 6.08039 69.3572L10.2343 68.2783L15.7207 71.57V74.5527L3.8277 74.5539ZM30.4413 74.3746C30.4413 74.4083 30.316 74.551 30.0655 74.551L18.1726 74.5523V71.5758L23.7324 68.2944L27.8128 69.3541C29.5383 69.8435 30.4411 71.5824 30.4411 73.0503L30.4413 74.3746Z" fill="#1D006E"/>
<path d="M72.6006 66.9898C72.5931 66.9877 72.5856 66.9857 72.5781 66.9837L68.0096 65.7972C67.6225 65.6832 67.3164 65.4827 67.2505 65.3779L67.2473 62.893C67.2511 62.8884 67.2551 62.8843 67.259 62.8797C68.8254 61.0075 69.688 58.5817 69.688 56.0491V54.1984C71.2508 49.1075 70.1495 44.6936 69.5843 43.409C69.5825 43.4046 69.58 43.4007 69.578 43.3963C69.5673 43.3727 69.5555 43.3498 69.5434 43.3272C69.536 43.3132 69.529 43.2991 69.521 43.2856C69.5097 43.2662 69.4971 43.2473 69.4847 43.2285C69.4743 43.2127 69.4641 43.1967 69.4533 43.1816C69.4428 43.1672 69.4315 43.1537 69.4205 43.1399C69.4061 43.1216 69.3918 43.1036 69.3765 43.0864C69.3676 43.0764 69.3581 43.0672 69.3489 43.0576C69.3303 43.0381 69.3118 43.0188 69.2922 43.0007C69.2842 42.9934 69.2756 42.9866 69.2674 42.9794C69.2459 42.9607 69.2243 42.9422 69.2018 42.9252C69.1926 42.9183 69.1828 42.912 69.1734 42.9053C69.1512 42.8893 69.1288 42.8735 69.1055 42.8593C69.0931 42.8516 69.0801 42.845 69.0675 42.8378C69.0467 42.8259 69.0258 42.8139 69.0042 42.8032C68.9875 42.7949 68.9704 42.788 68.9533 42.7805C68.9348 42.7724 68.9166 42.764 68.8976 42.7567C68.8781 42.7494 68.858 42.7433 68.8381 42.7368C68.8206 42.7312 68.8035 42.725 68.7858 42.7203C68.7659 42.7148 68.7454 42.7106 68.7251 42.7062C68.7064 42.702 68.6879 42.6976 68.6691 42.6944C68.6508 42.6912 68.6323 42.6893 68.6139 42.687C68.592 42.6843 68.5702 42.6813 68.5481 42.6798C68.5325 42.6787 68.5169 42.6787 68.5011 42.6781C68.4756 42.6774 68.4504 42.6766 68.4248 42.6774C68.4111 42.6778 68.3973 42.679 68.3835 42.68C68.3563 42.6818 68.329 42.6838 68.3016 42.6875C68.2971 42.6879 68.2928 42.6879 68.2885 42.6885C67.1069 42.8577 65.6656 42.5125 64.1399 42.1471C61.441 41.5008 58.3969 40.7736 55.7301 42.6964C53.1514 42.918 51.323 45.085 51.323 48.014C51.323 50.1439 52.3113 53.9482 52.538 54.7923V55.8162C52.538 58.4597 53.4527 60.903 54.9191 62.7258L54.9158 65.3803C54.8499 65.4852 54.5439 65.6856 54.1566 65.7996L49.5883 66.9861C49.5808 66.9881 49.5732 66.9901 49.5657 66.9923C46.6579 67.8073 45.1365 70.6581 45.1365 73.053V74.3771C45.1365 75.8265 46.405 77.0056 47.9644 77.0056L61.0548 77.0042C61.0643 77.0044 61.0736 77.0056 61.0833 77.0056C61.0929 77.0056 61.1023 77.0044 61.1119 77.0042L74.2023 77.0027C75.7615 77.0027 77.03 75.8236 77.03 74.3742V73.0501C77.0299 70.6552 75.5085 67.8045 72.6006 66.9898ZM61.0883 69.4488L56.8366 66.8977C57.1607 66.4874 57.3679 65.9894 57.3679 65.3987L57.3685 64.872C58.5026 65.5405 59.7699 65.9202 61.0966 65.9202C62.399 65.9202 63.6558 65.5831 64.7978 64.9449L64.7985 65.3944C64.7985 66.0024 65.0176 66.5121 65.3578 66.929L61.0883 69.4488ZM54.9902 55.3979C54.9902 54.1793 55.5059 52.3972 55.8913 51.2699C61.4463 51.3974 65.6378 52.7315 67.2361 53.323V54.0035C67.2361 54.0072 67.2361 54.011 67.2361 54.0147V56.0491C67.2361 58.2105 66.4233 60.1907 65.1554 61.5609C65.152 61.5641 65.149 61.5677 65.1457 61.571C64.0558 62.7444 62.6316 63.4682 61.0968 63.4682C57.8438 63.4682 54.9902 59.8926 54.9902 55.8165V55.3979ZM56.1696 45.1288C56.1791 45.1288 56.1882 45.1276 56.1975 45.1274C56.228 45.1268 56.2587 45.1258 56.2892 45.1228C56.3051 45.1213 56.3206 45.1184 56.3364 45.1163C56.3604 45.113 56.3843 45.11 56.4082 45.1052C56.4265 45.1017 56.4441 45.0966 56.4622 45.0923C56.483 45.0873 56.504 45.0825 56.5246 45.0764C56.5437 45.0706 56.5621 45.0635 56.5808 45.0568C56.5997 45.05 56.6187 45.0439 56.6374 45.0361C56.657 45.028 56.6758 45.0185 56.6948 45.0094C56.7118 45.0013 56.7292 44.9938 56.7459 44.9849C56.7669 44.9737 56.7869 44.9612 56.807 44.9487C56.821 44.9402 56.8354 44.9323 56.849 44.9232C56.8737 44.9068 56.8973 44.8885 56.9207 44.8704C56.9288 44.8642 56.9373 44.8588 56.9452 44.8524C58.7492 43.3783 61.0903 43.9388 63.569 44.5322C64.9031 44.8516 66.2732 45.1789 67.6035 45.1838C67.9232 46.365 68.2375 48.458 67.8999 50.951C65.9043 50.2241 61.2221 48.8069 55.0378 48.8069C55.0348 48.8069 55.032 48.8074 55.0289 48.8074C55.0004 48.8075 54.9721 48.8095 54.9439 48.8117C54.9307 48.8128 54.9175 48.8131 54.9045 48.8146C54.8811 48.8172 54.8579 48.8213 54.8348 48.8252C54.8172 48.8281 54.7995 48.8304 54.7822 48.8341C54.7661 48.8376 54.7503 48.8423 54.7342 48.8465C54.7109 48.8524 54.6875 48.858 54.6647 48.8653C54.6553 48.8684 54.6464 48.8722 54.6371 48.8754C54.6087 48.8852 54.5805 48.8952 54.5531 48.907C54.5467 48.9098 54.5405 48.9133 54.5342 48.9162C54.505 48.9294 54.476 48.943 54.448 48.9583C54.4363 48.9646 54.4254 48.9721 54.4141 48.9789C54.3922 48.9918 54.3701 49.0045 54.3491 49.0189C54.3278 49.0333 54.3074 49.0494 54.287 49.0653C54.2769 49.0731 54.2664 49.0803 54.2564 49.0885C54.2316 49.109 54.208 49.1311 54.1847 49.1537C54.1799 49.1583 54.1747 49.1626 54.17 49.1672C54.1488 49.1884 54.129 49.2111 54.1094 49.2339C54.1031 49.2413 54.0962 49.248 54.0901 49.2557C54.0749 49.2742 54.061 49.294 54.0467 49.3136C54.0371 49.3268 54.027 49.3396 54.0179 49.3533C54.008 49.3681 53.9992 49.3841 53.9899 49.3994C53.9778 49.4193 53.9655 49.4389 53.9546 49.4596C53.9484 49.4714 53.943 49.484 53.9372 49.496C53.929 49.5125 53.9206 49.5286 53.9133 49.5456C53.8284 48.9672 53.7752 48.4359 53.7752 48.0148C53.7752 46.6833 54.4023 45.1288 56.1696 45.1288ZM47.9642 74.5537C47.7138 74.5537 47.5886 74.411 47.5886 74.3773V73.0532C47.5886 71.5853 48.4914 69.8463 50.2169 69.357L54.3709 68.2781L59.8572 71.5698V74.5525L47.9642 74.5537ZM74.5778 74.3744C74.5778 74.4081 74.4526 74.5508 74.202 74.5508L62.3092 74.5522V71.5756L67.8689 68.2942L71.9493 69.3539C73.6748 69.8433 74.5776 71.5822 74.5776 73.0501L74.5778 74.3744Z" fill="#1D006E"/>
<path d="M39.0234 40.429C38.3463 40.429 37.7974 40.9779 37.7974 41.655V52.442L28.5351 58.6167C27.9718 58.9924 27.8194 59.7536 28.1951 60.3169C28.4314 60.6714 28.82 60.863 29.2163 60.863C29.4501 60.863 29.6862 60.7963 29.8953 60.657L39.0236 54.5716L48.1518 60.657C48.3609 60.7963 48.5971 60.863 48.8308 60.863C49.2269 60.863 49.6157 60.6713 49.8521 60.3169C50.2277 59.7536 50.0755 58.9922 49.512 58.6167L40.2496 52.4418V41.6548C40.2494 40.9779 39.7006 40.429 39.0234 40.429Z" stroke="#1D006E" stroke-width="0.4" mask="url(#path-1-outside-1)"/>
<path d="M25.9047 36.5377L38.9954 36.5364C39.0049 36.5365 39.014 36.5377 39.0235 36.5377C39.033 36.5377 39.0422 36.5365 39.0517 36.5364L52.1424 36.5348C53.7016 36.5348 54.9701 35.3557 54.9701 33.9064V32.5822C54.9701 30.1873 53.4485 27.3366 50.5407 26.5219C50.5332 26.5198 50.5257 26.518 50.5182 26.5158L45.9496 25.3293C45.5625 25.2153 45.2565 25.0148 45.1906 24.91L45.1874 22.4251C45.1912 22.4205 45.1952 22.4164 45.199 22.412C46.7654 20.5397 47.6281 18.1139 47.6281 15.5814V13.7306C49.1908 8.6396 48.0895 4.22571 47.5243 2.94098C47.5223 2.93654 47.5199 2.93255 47.5179 2.92811C47.5075 2.90512 47.4958 2.88274 47.484 2.86052C47.4764 2.84596 47.4689 2.83125 47.4607 2.81715C47.4499 2.79845 47.4379 2.78068 47.4261 2.76275C47.4152 2.74604 47.4045 2.72918 47.3928 2.71309C47.3832 2.69991 47.3729 2.6875 47.3628 2.67478C47.3475 2.65547 47.3322 2.636 47.3158 2.61761C47.3084 2.60934 47.3003 2.60168 47.2926 2.59355C47.2727 2.5724 47.2526 2.55156 47.2313 2.5321C47.2253 2.52658 47.2189 2.52168 47.2128 2.51616C47.1893 2.49547 47.1654 2.47524 47.1406 2.45639C47.1342 2.45149 47.1273 2.4472 47.1207 2.4426C47.0957 2.42451 47.0704 2.40689 47.0442 2.3908C47.035 2.38513 47.0253 2.38038 47.016 2.37486C46.9919 2.36091 46.9677 2.34712 46.9427 2.33486C46.9296 2.32842 46.9159 2.32291 46.9026 2.31693C46.8805 2.30712 46.8586 2.29701 46.8361 2.28842C46.8198 2.28229 46.8031 2.27739 46.7866 2.27187C46.7659 2.26498 46.7453 2.25777 46.7243 2.2521C46.7072 2.24735 46.6896 2.24398 46.6721 2.24C46.6506 2.23509 46.6295 2.23003 46.6077 2.22636C46.5916 2.2236 46.5752 2.22206 46.5588 2.21992C46.5349 2.21685 46.5112 2.21364 46.4871 2.21195C46.473 2.21103 46.4586 2.21103 46.4444 2.21042C46.4177 2.2095 46.391 2.20888 46.3641 2.20965C46.3512 2.21011 46.3382 2.21134 46.3253 2.21226C46.2974 2.21394 46.2695 2.21609 46.2416 2.21977C46.2373 2.22038 46.233 2.22038 46.2287 2.22099C45.0473 2.38988 43.6059 2.04475 42.0801 1.67939C39.3812 1.03312 36.3371 0.306077 33.6703 2.22865C31.0915 2.45026 29.2632 4.61728 29.2632 7.54628C29.2632 9.67621 30.2515 13.4804 30.4782 14.3246V15.3485C30.4782 17.992 31.3929 20.4354 32.8593 22.2581L32.856 24.9126C32.7901 25.0174 32.4843 25.2179 32.097 25.3319L27.5285 26.5184C27.521 26.5204 27.5134 26.5224 27.5059 26.5245C24.5981 27.3392 23.0766 30.1899 23.0766 32.5848V33.909C23.0769 35.3587 24.3454 36.5377 25.9047 36.5377ZM32.9305 14.9299C32.9305 13.7114 33.4462 11.9292 33.8317 10.8019C39.3867 10.9294 43.5782 12.2635 45.1765 12.8549V13.5349C45.1765 13.539 45.1765 13.5431 45.1765 13.5473V15.5811C45.1765 17.7425 44.3638 19.7225 43.0959 21.0928C43.0925 21.0961 43.0893 21.0998 43.0859 21.1032C41.996 22.2763 40.572 23 39.0373 23C35.7841 23 32.9307 19.4244 32.9307 15.3483L32.9305 14.9299ZM35.309 24.4041C36.4433 25.0726 37.7104 25.4524 39.0371 25.4524C40.3395 25.4524 41.5963 25.1152 42.7382 24.4771L42.7388 24.9264C42.7388 25.5344 42.958 26.0441 43.2982 26.4609L39.0288 28.9808L34.7771 26.4297C35.1012 26.0196 35.3084 25.5213 35.3084 24.9309L35.309 24.4041ZM52.5181 32.5822V33.9064C52.5181 33.9401 52.3929 34.0828 52.1424 34.0828L40.2495 34.0841V31.1076L45.8093 27.8263L49.8895 28.886C51.6153 29.3752 52.5181 31.1142 52.5181 32.5822ZM34.11 4.6608C34.119 4.6608 34.1276 4.65973 34.1366 4.65942C34.1676 4.65881 34.1987 4.65774 34.2297 4.65483C34.2453 4.65329 34.2605 4.65038 34.276 4.64839C34.3003 4.64517 34.3245 4.64195 34.3487 4.63736C34.3668 4.63383 34.3843 4.62893 34.4019 4.62463C34.4231 4.61942 34.4442 4.61467 34.4651 4.60839C34.4841 4.60257 34.5023 4.59567 34.5209 4.58908C34.54 4.58234 34.5592 4.57605 34.578 4.56824C34.5975 4.56011 34.6163 4.55077 34.6352 4.54172C34.6523 4.5336 34.6695 4.52594 34.6864 4.51705C34.7074 4.50586 34.7274 4.4933 34.7475 4.48088C34.7615 4.4723 34.7759 4.46464 34.7895 4.45529C34.8142 4.43874 34.8378 4.42065 34.8612 4.40242C34.8694 4.39613 34.8778 4.39092 34.8857 4.38433C36.6897 2.91033 39.0308 3.47078 41.5094 4.06434C42.8436 4.38372 44.2136 4.71107 45.5438 4.71582C45.8635 5.89695 46.1778 7.98995 45.8402 10.4829C43.8447 9.75606 39.1625 8.33891 32.9782 8.33891C32.975 8.33891 32.9719 8.33937 32.9687 8.33937C32.9411 8.33952 32.9138 8.34152 32.8864 8.34351C32.8723 8.34458 32.858 8.34504 32.8441 8.34657C32.8217 8.34903 32.7998 8.35301 32.7777 8.35669C32.759 8.35975 32.7402 8.36221 32.7218 8.36619C32.7069 8.36941 32.6925 8.3737 32.678 8.37738C32.6533 8.38366 32.6285 8.38964 32.6044 8.3973C32.5967 8.39975 32.5895 8.40297 32.582 8.40558C32.552 8.41584 32.5221 8.42657 32.493 8.43899C32.4887 8.44082 32.4847 8.44312 32.4804 8.44512C32.449 8.45906 32.418 8.47393 32.388 8.49033C32.3784 8.49569 32.3692 8.50197 32.3595 8.50764C32.3357 8.52159 32.3118 8.53538 32.2892 8.55086C32.2689 8.56465 32.2496 8.57998 32.2302 8.595C32.219 8.60358 32.2073 8.6114 32.1964 8.62044C32.1722 8.64052 32.1492 8.66212 32.1264 8.68419C32.121 8.6894 32.1152 8.694 32.11 8.69937C32.0892 8.72021 32.0695 8.74258 32.0502 8.76511C32.0436 8.77277 32.0366 8.77982 32.0302 8.78749C32.015 8.80588 32.0012 8.82565 31.9871 8.84496C31.9774 8.85829 31.9672 8.87132 31.958 8.88511C31.9482 8.89998 31.9393 8.91561 31.9301 8.93093C31.918 8.95086 31.9057 8.97063 31.8947 8.99147C31.8884 9.00327 31.883 9.01568 31.8772 9.02779C31.8691 9.04419 31.8607 9.06043 31.8533 9.07729C31.7684 8.49891 31.7152 7.96758 31.7152 7.54643C31.7155 6.21542 32.3426 4.6608 34.11 4.6608ZM25.529 32.5852C25.529 31.1171 26.4318 29.3783 28.1573 28.889L32.3112 27.81L37.7974 31.1018V34.0844L25.9044 34.0857C25.654 34.0857 25.5288 33.943 25.5288 33.9093L25.529 32.5852Z" stroke="#1D006E" stroke-width="0.4" mask="url(#path-1-outside-1)"/>
<path d="M28.4641 66.99C28.4566 66.9879 28.4491 66.9859 28.4416 66.9839L23.8731 65.7974C23.486 65.6834 23.1799 65.4829 23.114 65.3781L23.1108 62.8932C23.1146 62.8886 23.1186 62.8845 23.1224 62.8799C24.6888 61.0077 25.5515 58.5819 25.5515 56.0493V54.1986C27.1143 49.1077 26.013 44.6938 25.4478 43.4092C25.4459 43.4048 25.4435 43.4009 25.4415 43.3965C25.4308 43.3727 25.4188 43.3499 25.4067 43.3271C25.3995 43.3134 25.3924 43.2995 25.3848 43.2861C25.3731 43.2662 25.3606 43.2472 25.3478 43.2281C25.3377 43.2126 25.3278 43.1969 25.317 43.1821C25.3063 43.1674 25.2947 43.1533 25.2833 43.1392C25.2692 43.1215 25.2553 43.1036 25.2403 43.0869C25.2309 43.0765 25.2208 43.0668 25.2111 43.0567C25.1931 43.0379 25.1751 43.019 25.156 43.0015C25.1472 42.9936 25.138 42.9862 25.1291 42.9786C25.1083 42.9605 25.0875 42.9425 25.0655 42.926C25.0556 42.9185 25.045 42.9117 25.0347 42.9045C25.0131 42.8892 24.9917 42.874 24.9693 42.8602C24.9561 42.852 24.9422 42.8449 24.9285 42.8372C24.9085 42.8259 24.8885 42.8144 24.8678 42.8042C24.8504 42.7954 24.8324 42.7882 24.8145 42.7804C24.7967 42.7727 24.7793 42.7645 24.7612 42.7576C24.7411 42.7499 24.7204 42.7436 24.6999 42.737C24.683 42.7317 24.6665 42.7257 24.6495 42.7211C24.6291 42.7154 24.6082 42.7113 24.5875 42.7068C24.5693 42.7028 24.5511 42.6982 24.5327 42.6952C24.5143 42.692 24.4956 42.6901 24.4769 42.6878C24.4551 42.6851 24.4335 42.6822 24.4116 42.6806C24.396 42.6796 24.3802 42.6796 24.3646 42.6789C24.3391 42.6782 24.3138 42.6774 24.2882 42.6782C24.2746 42.6786 24.261 42.6799 24.2472 42.6808C24.2197 42.6826 24.1923 42.6846 24.1649 42.6883C24.1606 42.6888 24.1563 42.6887 24.152 42.6894C22.9706 42.8586 21.529 42.5133 20.0034 42.1479C17.3046 41.5016 14.2603 40.7744 11.5936 42.6972C9.0149 42.9188 7.18642 45.0858 7.18642 48.0148C7.18642 50.1447 8.17476 53.949 8.40142 54.7931V55.817C8.40142 58.4605 9.3162 60.9038 10.7825 62.7266L10.7793 65.3811C10.7134 65.486 10.4074 65.6864 10.0201 65.8004L5.45174 66.9869C5.44423 66.9889 5.43672 66.9909 5.42921 66.9931C2.52136 67.8075 1 70.6583 1 73.0532V74.3773C1 75.8267 2.26849 77.0058 3.82785 77.0058L16.9182 77.0044C16.9277 77.0046 16.9371 77.0058 16.9467 77.0058C16.9564 77.0058 16.9657 77.0046 16.9754 77.0044L30.0658 77.0029C31.625 77.0029 32.8935 75.8237 32.8935 74.3744V73.0503C32.8933 70.6554 31.372 67.8047 28.4641 66.99ZM16.9518 69.449L12.7001 66.8979C13.0242 66.4876 13.2314 65.9896 13.2314 65.3989L13.232 64.8722C14.3661 65.5407 15.6333 65.9204 16.9601 65.9204C18.2624 65.9204 19.5193 65.5833 20.6613 64.9451L20.6619 65.3946C20.6619 66.0026 20.8811 66.5123 21.2213 66.9292L16.9518 69.449ZM10.8536 55.3981C10.8536 54.1795 11.3693 52.3974 11.7548 51.2701C17.3098 51.3976 21.5013 52.7317 23.0996 53.3232V54.0037C23.0996 54.0074 23.0996 54.0112 23.0996 54.0149V56.0493C23.0996 58.2107 22.2867 60.1909 21.0189 61.5611C21.0155 61.5643 21.0124 61.5679 21.0092 61.5712C19.9193 62.7445 18.4951 63.4684 16.9602 63.4684C13.7072 63.4684 10.8536 59.8928 10.8536 55.8167V55.3981ZM12.0331 45.129C12.0426 45.129 12.0516 45.1278 12.061 45.1276C12.0915 45.127 12.1221 45.126 12.1526 45.123C12.1686 45.1215 12.1841 45.1186 12.1998 45.1165C12.2239 45.1132 12.2478 45.1102 12.2717 45.1054C12.2899 45.1019 12.3076 45.0968 12.3257 45.0925C12.3465 45.0875 12.3675 45.0827 12.388 45.0766C12.4072 45.0708 12.4256 45.0637 12.4443 45.057C12.4631 45.0502 12.4821 45.0441 12.5008 45.0363C12.5204 45.0282 12.5393 45.0187 12.5583 45.0096C12.5753 45.0015 12.5926 44.994 12.6093 44.9851C12.6303 44.9739 12.6504 44.9614 12.6705 44.9489C12.6844 44.9404 12.6988 44.9325 12.7125 44.9234C12.7371 44.907 12.7607 44.8887 12.7842 44.8706C12.7923 44.8643 12.8007 44.859 12.8087 44.8526C14.6127 43.3785 16.9538 43.939 19.4325 44.5324C20.7666 44.8518 22.1367 45.1791 23.4669 45.184C23.7866 46.3652 24.101 48.4582 23.7633 50.9512C21.7678 50.2243 17.0856 48.8071 10.9013 48.8071C10.8984 48.8071 10.8955 48.8076 10.8926 48.8076C10.8642 48.8077 10.836 48.8097 10.8078 48.8119C10.7945 48.8128 10.7812 48.8133 10.768 48.8148C10.7448 48.8174 10.7222 48.8214 10.6993 48.8252C10.6814 48.8283 10.6632 48.8306 10.6455 48.8344C10.6302 48.8376 10.6152 48.8422 10.5999 48.8462C10.5758 48.8523 10.5516 48.8582 10.528 48.8657C10.5199 48.8683 10.5122 48.8716 10.5041 48.8744C10.4745 48.8845 10.4451 48.8951 10.4164 48.9074C10.4118 48.9093 10.4075 48.9118 10.4031 48.9138C10.3718 48.9277 10.341 48.9423 10.3113 48.9587C10.3021 48.9638 10.2934 48.9699 10.2843 48.9751C10.2599 48.9892 10.2356 49.0034 10.2124 49.0192C10.1931 49.0323 10.1747 49.0471 10.1562 49.0614C10.1442 49.0706 10.1315 49.0792 10.1199 49.0888C10.0961 49.1083 10.0737 49.1296 10.0515 49.1509C10.0455 49.1565 10.0393 49.1618 10.0334 49.1676C10.0129 49.1881 9.99358 49.2102 9.97443 49.2324C9.96768 49.2404 9.96017 49.2477 9.95358 49.2557C9.93857 49.2741 9.92493 49.2936 9.91083 49.3129C9.90102 49.3264 9.8906 49.3394 9.88125 49.3533C9.87144 49.3682 9.86271 49.3838 9.85336 49.3992C9.84125 49.4191 9.82899 49.439 9.81795 49.4597C9.81167 49.4715 9.80631 49.4841 9.80048 49.496C9.79236 49.5126 9.78393 49.5287 9.77658 49.5457C9.69167 48.9673 9.63849 48.4359 9.63849 48.0148C9.63865 46.6835 10.2658 45.129 12.0331 45.129ZM3.8277 74.5539C3.57728 74.5539 3.45207 74.4112 3.45207 74.3775V73.0534C3.45207 71.5855 4.35489 69.8465 6.08039 69.3572L10.2343 68.2783L15.7207 71.57V74.5527L3.8277 74.5539ZM30.4413 74.3746C30.4413 74.4083 30.316 74.551 30.0655 74.551L18.1726 74.5523V71.5758L23.7324 68.2944L27.8128 69.3541C29.5383 69.8435 30.4411 71.5824 30.4411 73.0503L30.4413 74.3746Z" stroke="#1D006E" stroke-width="0.4" mask="url(#path-1-outside-1)"/>
<path d="M72.6006 66.9898C72.5931 66.9877 72.5856 66.9857 72.5781 66.9837L68.0096 65.7972C67.6225 65.6832 67.3164 65.4827 67.2505 65.3779L67.2473 62.893C67.2511 62.8884 67.2551 62.8843 67.259 62.8797C68.8254 61.0075 69.688 58.5817 69.688 56.0491V54.1984C71.2508 49.1075 70.1495 44.6936 69.5843 43.409C69.5825 43.4046 69.58 43.4007 69.578 43.3963C69.5673 43.3727 69.5555 43.3498 69.5434 43.3272C69.536 43.3132 69.529 43.2991 69.521 43.2856C69.5097 43.2662 69.4971 43.2473 69.4847 43.2285C69.4743 43.2127 69.4641 43.1967 69.4533 43.1816C69.4428 43.1672 69.4315 43.1537 69.4205 43.1399C69.4061 43.1216 69.3918 43.1036 69.3765 43.0864C69.3676 43.0764 69.3581 43.0672 69.3489 43.0576C69.3303 43.0381 69.3118 43.0188 69.2922 43.0007C69.2842 42.9934 69.2756 42.9866 69.2674 42.9794C69.2459 42.9607 69.2243 42.9422 69.2018 42.9252C69.1926 42.9183 69.1828 42.912 69.1734 42.9053C69.1512 42.8893 69.1288 42.8735 69.1055 42.8593C69.0931 42.8516 69.0801 42.845 69.0675 42.8378C69.0467 42.8259 69.0258 42.8139 69.0042 42.8032C68.9875 42.7949 68.9704 42.788 68.9533 42.7805C68.9348 42.7724 68.9166 42.764 68.8976 42.7567C68.8781 42.7494 68.858 42.7433 68.8381 42.7368C68.8206 42.7312 68.8035 42.725 68.7858 42.7203C68.7659 42.7148 68.7454 42.7106 68.7251 42.7062C68.7064 42.702 68.6879 42.6976 68.6691 42.6944C68.6508 42.6912 68.6323 42.6893 68.6139 42.687C68.592 42.6843 68.5702 42.6813 68.5481 42.6798C68.5325 42.6787 68.5169 42.6787 68.5011 42.6781C68.4756 42.6774 68.4504 42.6766 68.4248 42.6774C68.4111 42.6778 68.3973 42.679 68.3835 42.68C68.3563 42.6818 68.329 42.6838 68.3016 42.6875C68.2971 42.6879 68.2928 42.6879 68.2885 42.6885C67.1069 42.8577 65.6656 42.5125 64.1399 42.1471C61.441 41.5008 58.3969 40.7736 55.7301 42.6964C53.1514 42.918 51.323 45.085 51.323 48.014C51.323 50.1439 52.3113 53.9482 52.538 54.7923V55.8162C52.538 58.4597 53.4527 60.903 54.9191 62.7258L54.9158 65.3803C54.8499 65.4852 54.5439 65.6856 54.1566 65.7996L49.5883 66.9861C49.5808 66.9881 49.5732 66.9901 49.5657 66.9923C46.6579 67.8073 45.1365 70.6581 45.1365 73.053V74.3771C45.1365 75.8265 46.405 77.0056 47.9644 77.0056L61.0548 77.0042C61.0643 77.0044 61.0736 77.0056 61.0833 77.0056C61.0929 77.0056 61.1023 77.0044 61.1119 77.0042L74.2023 77.0027C75.7615 77.0027 77.03 75.8236 77.03 74.3742V73.0501C77.0299 70.6552 75.5085 67.8045 72.6006 66.9898ZM61.0883 69.4488L56.8366 66.8977C57.1607 66.4874 57.3679 65.9894 57.3679 65.3987L57.3685 64.872C58.5026 65.5405 59.7699 65.9202 61.0966 65.9202C62.399 65.9202 63.6558 65.5831 64.7978 64.9449L64.7985 65.3944C64.7985 66.0024 65.0176 66.5121 65.3578 66.929L61.0883 69.4488ZM54.9902 55.3979C54.9902 54.1793 55.5059 52.3972 55.8913 51.2699C61.4463 51.3974 65.6378 52.7315 67.2361 53.323V54.0035C67.2361 54.0072 67.2361 54.011 67.2361 54.0147V56.0491C67.2361 58.2105 66.4233 60.1907 65.1554 61.5609C65.152 61.5641 65.149 61.5677 65.1457 61.571C64.0558 62.7444 62.6316 63.4682 61.0968 63.4682C57.8438 63.4682 54.9902 59.8926 54.9902 55.8165V55.3979ZM56.1696 45.1288C56.1791 45.1288 56.1882 45.1276 56.1975 45.1274C56.228 45.1268 56.2587 45.1258 56.2892 45.1228C56.3051 45.1213 56.3206 45.1184 56.3364 45.1163C56.3604 45.113 56.3843 45.11 56.4082 45.1052C56.4265 45.1017 56.4441 45.0966 56.4622 45.0923C56.483 45.0873 56.504 45.0825 56.5246 45.0764C56.5437 45.0706 56.5621 45.0635 56.5808 45.0568C56.5997 45.05 56.6187 45.0439 56.6374 45.0361C56.657 45.028 56.6758 45.0185 56.6948 45.0094C56.7118 45.0013 56.7292 44.9938 56.7459 44.9849C56.7669 44.9737 56.7869 44.9612 56.807 44.9487C56.821 44.9402 56.8354 44.9323 56.849 44.9232C56.8737 44.9068 56.8973 44.8885 56.9207 44.8704C56.9288 44.8642 56.9373 44.8588 56.9452 44.8524C58.7492 43.3783 61.0903 43.9388 63.569 44.5322C64.9031 44.8516 66.2732 45.1789 67.6035 45.1838C67.9232 46.365 68.2375 48.458 67.8999 50.951C65.9043 50.2241 61.2221 48.8069 55.0378 48.8069C55.0348 48.8069 55.032 48.8074 55.0289 48.8074C55.0004 48.8075 54.9721 48.8095 54.9439 48.8117C54.9307 48.8128 54.9175 48.8131 54.9045 48.8146C54.8811 48.8172 54.8579 48.8213 54.8348 48.8252C54.8172 48.8281 54.7995 48.8304 54.7822 48.8341C54.7661 48.8376 54.7503 48.8423 54.7342 48.8465C54.7109 48.8524 54.6875 48.858 54.6647 48.8653C54.6553 48.8684 54.6464 48.8722 54.6371 48.8754C54.6087 48.8852 54.5805 48.8952 54.5531 48.907C54.5467 48.9098 54.5405 48.9133 54.5342 48.9162C54.505 48.9294 54.476 48.943 54.448 48.9583C54.4363 48.9646 54.4254 48.9721 54.4141 48.9789C54.3922 48.9918 54.3701 49.0045 54.3491 49.0189C54.3278 49.0333 54.3074 49.0494 54.287 49.0653C54.2769 49.0731 54.2664 49.0803 54.2564 49.0885C54.2316 49.109 54.208 49.1311 54.1847 49.1537C54.1799 49.1583 54.1747 49.1626 54.17 49.1672C54.1488 49.1884 54.129 49.2111 54.1094 49.2339C54.1031 49.2413 54.0962 49.248 54.0901 49.2557C54.0749 49.2742 54.061 49.294 54.0467 49.3136C54.0371 49.3268 54.027 49.3396 54.0179 49.3533C54.008 49.3681 53.9992 49.3841 53.9899 49.3994C53.9778 49.4193 53.9655 49.4389 53.9546 49.4596C53.9484 49.4714 53.943 49.484 53.9372 49.496C53.929 49.5125 53.9206 49.5286 53.9133 49.5456C53.8284 48.9672 53.7752 48.4359 53.7752 48.0148C53.7752 46.6833 54.4023 45.1288 56.1696 45.1288ZM47.9642 74.5537C47.7138 74.5537 47.5886 74.411 47.5886 74.3773V73.0532C47.5886 71.5853 48.4914 69.8463 50.2169 69.357L54.3709 68.2781L59.8572 71.5698V74.5525L47.9642 74.5537ZM74.5778 74.3744C74.5778 74.4081 74.4526 74.5508 74.202 74.5508L62.3092 74.5522V71.5756L67.8689 68.2942L71.9493 69.3539C73.6748 69.8433 74.5776 71.5822 74.5776 73.0501L74.5778 74.3744Z" stroke="#1D006E" stroke-width="0.4" mask="url(#path-1-outside-1)"/>
</svg>
