<svg width="20" height="20" viewBox="0 0 20 20" fill="none" xmlns="http://www.w3.org/2000/svg">
<path d="M17.4829 20H2.49756C1.80813 20 1.21951 19.7559 0.731707 19.2676C0.243902 18.7793 0 18.1901 0 17.5V2.5C0 1.8099 0.243902 1.2207 0.731707 0.732422C1.21951 0.244141 1.80813 0 2.49756 0H17.4829C18.1724 0 18.761 0.244141 19.2488 0.732422C19.7366 1.2207 19.9805 1.8099 19.9805 2.5V17.5C19.9805 18.1901 19.7366 18.7793 19.2488 19.2676C18.761 19.7559 18.1724 20 17.4829 20ZM6.2439 14.375C6.2439 14.2057 6.18211 14.0592 6.05854 13.9355C5.93496 13.8118 5.78862 13.75 5.61951 13.75H4.37073C4.20163 13.75 4.05528 13.8118 3.93171 13.9355C3.80813 14.0592 3.74634 14.2057 3.74634 14.375V16.875C3.74634 17.0443 3.80813 17.1908 3.93171 17.3145C4.05528 17.4382 4.20163 17.5 4.37073 17.5H5.61951C5.78862 17.5 5.93496 17.4382 6.05854 17.3145C6.18211 17.1908 6.2439 17.0443 6.2439 16.875V14.375ZM11.239 9.375C11.239 9.20573 11.1772 9.05925 11.0537 8.93555C10.9301 8.81185 10.7837 8.75 10.6146 8.75H9.36585C9.19675 8.75 9.05041 8.81185 8.92683 8.93555C8.80325 9.05925 8.74146 9.20573 8.74146 9.375V16.875C8.74146 17.0443 8.80325 17.1908 8.92683 17.3145C9.05041 17.4382 9.19675 17.5 9.36585 17.5H10.6146C10.7837 17.5 10.9301 17.4382 11.0537 17.3145C11.1772 17.1908 11.239 17.0443 11.239 16.875V9.375ZM16.2341 3.125C16.2341 2.95573 16.1724 2.80924 16.0488 2.68555C15.9252 2.56185 15.7789 2.5 15.6098 2.5H14.361C14.1919 2.5 14.0455 2.56185 13.922 2.68555C13.7984 2.80924 13.7366 2.95573 13.7366 3.125V16.875C13.7366 17.0443 13.7984 17.1908 13.922 17.3145C14.0455 17.4382 14.1919 17.5 14.361 17.5H15.6098C15.7789 17.5 15.9252 17.4382 16.0488 17.3145C16.1724 17.1908 16.2341 17.0443 16.2341 16.875V3.125Z" fill="#42607D"/>
</svg>
