<svg width="153" height="50" viewBox="0 0 153 50" fill="none" xmlns="http://www.w3.org/2000/svg">
<path d="M151.985 43.775C151.985 46.3995 150.041 48.5251 147.637 48.5251H5.36191C2.95908 48.5251 1.00879 46.3995 1.00879 43.775V5.89493C1.00879 3.27185 2.95918 1.13867 5.36191 1.13867H147.636C150.041 1.13867 151.983 3.27185 151.983 5.89493L151.985 43.775Z" fill="white"/>
<path d="M147.638 49.6304H5.36243C2.40623 49.6304 0 47.0049 0 43.7753V5.89645C0 2.66443 2.40623 0.0351562 5.36243 0.0351562H147.636C150.589 0.0351562 152.999 2.66443 152.999 5.89645V43.7753C153.001 47.0049 150.591 49.6304 147.638 49.6304Z" fill="#A6A6A6"/>
<path d="M151.985 43.775C151.985 46.3995 150.041 48.5251 147.637 48.5251H5.36191C2.95908 48.5251 1.00879 46.3995 1.00879 43.775V5.89493C1.00879 3.27185 2.95918 1.13867 5.36191 1.13867H147.636C150.041 1.13867 151.983 3.27185 151.983 5.89493L151.985 43.775Z" fill="black"/>
<path d="M34.1639 24.5722C34.131 20.575 37.1564 18.6303 37.2947 18.5398C35.5814 15.8075 32.9257 15.4342 31.9925 15.4045C29.762 15.1477 27.5985 16.8642 26.4623 16.8642C25.3034 16.8642 23.5537 15.4293 21.6679 15.4714C19.2413 15.5124 16.9712 17.049 15.726 19.4352C13.1566 24.3006 15.0729 31.4505 17.5348 35.3832C18.7662 37.3105 20.2052 39.4598 22.0886 39.3842C23.9313 39.3023 24.6196 38.1006 26.8433 38.1006C29.0464 38.1006 29.6929 39.3842 31.6137 39.3358C33.5914 39.3023 34.8364 37.4011 36.0248 35.4576C37.4479 33.2513 38.0193 31.0759 38.0421 30.9643C37.9967 30.9469 34.2025 29.3619 34.1639 24.5722ZM30.5353 12.8174C31.5263 11.4618 32.2045 9.61759 32.0162 7.74609C30.5817 7.81555 28.7879 8.83129 27.7548 10.1571C26.8408 11.3254 26.0244 13.2403 26.2353 15.0411C27.8467 15.1726 29.5011 14.1518 30.5353 12.8174Z" fill="white"/>
<path d="M147.638 0.0351562H71.4307L101.28 49.6304H147.638C150.59 49.6304 153 47.0049 153 43.7716V5.89645C153.001 2.66443 150.591 0.0351562 147.638 0.0351562Z" fill="url(#paint0_linear)"/>
<path d="M60.8532 39.1074H58.278L56.8673 34.2594H51.9641L50.6203 39.1074H48.1133L52.9722 22.6025H55.9727L60.8532 39.1074ZM56.4422 32.2254L55.1665 27.9156C55.0316 27.4753 54.7776 26.4385 54.4055 24.8064H54.3603C54.2106 25.5084 53.9713 26.5452 53.6436 27.9156L52.3895 32.2254H56.4422ZM73.3244 33.0105C73.3244 35.0345 72.8221 36.6344 71.8161 37.809C70.9159 38.8544 69.7967 39.3766 68.4619 39.3766C67.0207 39.3766 65.9843 38.8147 65.3549 37.6887V43.9332H62.9374V31.1179C62.9374 29.8465 62.9068 28.5432 62.8479 27.2062H64.974L65.109 29.0926H65.1542C65.9605 27.6713 67.184 26.9606 68.8259 26.9606C70.1096 26.9606 71.1811 27.5149 72.0384 28.6249C72.8945 29.7375 73.3244 31.1985 73.3244 33.0105ZM70.8614 33.1072C70.8614 31.9488 70.6232 30.9939 70.1447 30.241C69.622 29.4585 68.9201 29.0667 68.0401 29.0667C67.4437 29.0667 66.9016 29.2848 66.4174 29.7152C65.9321 30.1493 65.6146 30.716 65.4661 31.418C65.3913 31.7454 65.3539 32.0121 65.3539 32.223V34.2085C65.3539 35.0729 65.5966 35.8035 66.0819 36.4013C66.5672 36.9966 67.1977 37.2954 67.9733 37.2954C68.884 37.2954 69.5927 36.9098 70.0995 36.1445C70.6074 35.3768 70.8614 34.3648 70.8614 33.1072ZM85.8397 33.0105C85.8397 35.0345 85.3373 36.6344 84.3315 37.809C83.43 38.8544 82.312 39.3766 80.9762 39.3766C79.5349 39.3766 78.4985 38.8147 77.8692 37.6887V43.9332H75.4516V31.1179C75.4516 29.8465 75.421 28.5432 75.362 27.2062H77.4882L77.6231 29.0926H77.6684C78.4735 27.6713 79.6971 26.9606 81.3401 26.9606C82.6226 26.9606 83.6941 27.5149 84.5538 28.6249C85.4089 29.7375 85.8397 31.1985 85.8397 33.0105ZM83.3756 33.1072C83.3756 31.9488 83.1364 30.9939 82.6578 30.241C82.1351 29.4585 81.4354 29.0667 80.5555 29.0667C79.959 29.0667 79.417 29.2848 78.9305 29.7152C78.4452 30.1493 78.1289 30.716 77.9803 31.418C77.9066 31.7454 77.8669 32.0121 77.8669 32.223V34.2085C77.8669 35.0729 78.1107 35.8035 78.5937 36.4013C79.0791 36.9954 79.7096 37.2954 80.4874 37.2954C81.399 37.2954 82.1078 36.9098 82.6136 36.1445C83.1216 35.3768 83.3756 34.3648 83.3756 33.1072ZM99.8325 34.4776C99.8325 35.8828 99.3835 37.0251 98.4912 37.9069C97.5091 38.8693 96.1382 39.3517 94.3805 39.3517C92.7567 39.3517 91.455 39.0094 90.473 38.3236L91.032 36.1197C92.0922 36.8068 93.2568 37.1491 94.5246 37.1491C95.4362 37.1491 96.145 36.9234 96.6507 36.4756C97.1575 36.0267 97.4138 35.4264 97.4138 34.6773C97.4138 34.0065 97.2018 33.4445 96.7856 32.987C96.3672 32.5306 95.6755 32.1052 94.7038 31.7145C92.0616 30.6368 90.7394 29.0605 90.7394 26.9868C90.7394 25.6325 91.2066 24.5237 92.1388 23.6568C93.0709 22.7911 94.3069 22.3584 95.8446 22.3584C97.2178 22.3584 98.3619 22.6201 99.2702 23.1422L98.6635 25.2976C97.8086 24.7916 96.8435 24.5386 95.764 24.5386C94.9113 24.5386 94.2422 24.768 93.7637 25.2244C93.3611 25.6325 93.157 26.1299 93.157 26.7202C93.157 27.3714 93.3896 27.9121 93.8521 28.3363C94.2535 28.7268 94.9861 29.1523 96.0452 29.6087C97.3447 30.1817 98.2994 30.849 98.9107 31.6154C99.5264 32.3817 99.8325 33.3379 99.8325 34.4776ZM107.846 29.1906H105.181V34.9688C105.181 36.4384 105.651 37.1714 106.592 37.1714C107.024 37.1714 107.382 37.1316 107.666 37.0486L107.733 39.0565C107.257 39.2514 106.629 39.3492 105.853 39.3492C104.898 39.3492 104.152 39.0305 103.613 38.393C103.077 37.7555 102.807 36.6877 102.807 35.1846V29.1856H101.219V27.2013H102.807V25.0222L105.181 24.2384V27.2013H107.846V29.1906ZM119.846 33.0588C119.846 34.888 119.367 36.39 118.412 37.5646C117.413 38.7738 116.084 39.3765 114.428 39.3765C112.829 39.3765 111.558 38.7973 110.61 37.6402C109.662 36.4805 109.188 35.0196 109.188 33.2573C109.188 31.4129 109.677 29.9025 110.654 28.728C111.632 27.5522 112.95 26.9645 114.607 26.9645C116.203 26.9645 117.486 27.5448 118.456 28.7032C119.384 29.8268 119.846 31.2779 119.846 33.0588ZM117.34 33.1196C117.34 32.0293 117.124 31.0942 116.692 30.3116C116.185 29.3666 115.459 28.8942 114.519 28.8942C113.551 28.8942 112.808 29.3666 112.303 30.3116C111.869 31.0942 111.654 32.0455 111.654 33.1691C111.654 34.2606 111.869 35.1981 112.303 35.9783C112.825 36.9234 113.554 37.3959 114.499 37.3959C115.423 37.3959 116.148 36.9134 116.672 35.9547C117.116 35.1536 117.34 34.2122 117.34 33.1196ZM127.707 29.5316C127.468 29.4832 127.212 29.4584 126.945 29.4584C126.095 29.4584 125.437 29.8082 124.975 30.5125C124.573 31.1327 124.371 31.9165 124.371 32.8628V39.1073H121.954V30.9542C121.954 29.5837 121.93 28.3336 121.883 27.2075H123.989L124.078 29.4844H124.145C124.401 28.7019 124.802 28.0706 125.353 27.598C125.892 27.1727 126.474 26.9606 127.101 26.9606C127.324 26.9606 127.526 26.9779 127.705 27.009L127.707 29.5316ZM138.519 32.5937C138.519 33.0675 138.491 33.4668 138.431 33.793H131.178C131.205 34.9688 131.557 35.8692 132.231 36.4893C132.842 37.0425 133.632 37.3202 134.603 37.3202C135.677 37.3202 136.656 37.1342 137.537 36.7584L137.916 38.5927C136.886 39.0838 135.671 39.3281 134.268 39.3281C132.581 39.3281 131.256 38.7848 130.293 37.701C129.331 36.6158 128.849 35.1573 128.849 33.3304C128.849 31.537 129.297 30.0426 130.194 28.8508C131.133 27.5783 132.402 26.9419 133.998 26.9419C135.567 26.9419 136.754 27.5782 137.56 28.8508C138.198 29.8591 138.519 31.1092 138.519 32.5937ZM136.214 31.9079C136.231 31.1228 136.072 30.4469 135.745 29.8752C135.326 29.1385 134.682 28.7714 133.819 28.7714C133.029 28.7714 132.385 29.1298 131.895 29.8491C131.492 30.4209 131.253 31.108 131.179 31.9054L136.214 31.9079Z" fill="white"/>
<path d="M55.2766 16.6948H54.0098L53.317 14.3124H50.9074L50.2463 16.6948H49.0137L51.4018 8.58254H52.8759L55.2766 16.6948ZM53.1084 13.3128L52.4813 11.1945C52.4155 10.9774 52.2942 10.4726 52.1071 9.6665H52.0844C52.0073 10.015 51.8973 10.521 51.7317 11.1945L51.116 13.3128H53.1084ZM61.2478 10.8459L59.2226 16.6948H58.067L56.1076 10.8459H57.3845L58.2984 13.9391C58.4526 14.4562 58.5842 14.9498 58.6828 15.4187H58.7157C58.8043 14.9982 58.9357 14.5046 59.1001 13.9391L60.0027 10.8459H61.2478ZM65.5591 16.6948L65.4706 16.0213H65.4376C65.0748 16.5633 64.5464 16.8274 63.8752 16.8274C62.918 16.8274 62.2354 16.0932 62.2354 15.106C62.2354 13.6624 63.3795 12.9158 65.3605 12.9158V12.8079C65.3605 12.0377 64.9863 11.652 64.2493 11.652C63.7208 11.652 63.2582 11.7971 62.8522 12.0861L62.6106 11.2316C63.1062 10.8942 63.722 10.7255 64.4488 10.7255C65.8458 10.7255 66.5511 11.5317 66.5511 13.1452V15.2995C66.5511 15.8898 66.5738 16.3475 66.6282 16.696L65.5591 16.6948ZM65.3935 13.7816C64.0726 13.7816 63.4125 14.1313 63.4125 14.961C63.4125 15.5749 63.7538 15.8751 64.2267 15.8751C64.8321 15.8751 65.3935 15.3703 65.3935 14.6844V13.7816ZM69.1979 9.8823C68.8022 9.8823 68.4937 9.54496 68.4937 9.09972C68.4937 8.65448 68.8125 8.32954 69.2206 8.32954C69.6277 8.32954 69.9576 8.65448 69.9464 9.09972C69.9464 9.56976 69.6391 9.8823 69.1979 9.8823ZM69.8148 16.6948H68.6264V10.8459H69.8148V16.6948ZM73.1146 16.6948H71.9262V8.16211H73.1146V16.6948ZM78.1651 16.6948L78.0766 16.0213H78.0438C77.681 16.5633 77.1525 16.8274 76.4812 16.8274C75.5242 16.8274 74.8416 16.0932 74.8416 15.106C74.8416 13.6624 75.9856 12.9158 77.9666 12.9158V12.8079C77.9666 12.0377 77.5924 11.652 76.8553 11.652C76.3269 11.652 75.8643 11.7971 75.4583 12.0861L75.2157 11.2303C75.7113 10.893 76.327 10.7243 77.0539 10.7243C78.4509 10.7243 79.1561 11.5304 79.1561 13.144V15.2982C79.1561 15.8886 79.18 16.3462 79.2322 16.6947H78.1651V16.6948ZM77.9996 13.7816C76.6785 13.7816 76.0186 14.1313 76.0186 14.961C76.0186 15.5749 76.3598 15.8751 76.8327 15.8751C77.4382 15.8751 77.9996 15.3703 77.9996 14.6844V13.7816ZM83.971 16.8275C83.2124 16.8275 82.6522 16.4778 82.2893 15.792H82.2655L82.1975 16.6948H81.1848C81.2177 16.226 81.2291 15.6952 81.2291 15.1185V8.16211H82.4186V11.7017H82.4412C82.7938 11.0518 83.3644 10.7269 84.1467 10.7269C85.4349 10.7269 86.3375 11.9311 86.3375 13.6873C86.3375 15.503 85.3351 16.8275 83.971 16.8275ZM83.7294 11.7476C83.0456 11.7476 82.4198 12.3975 82.4198 13.3004V14.3235C82.4198 15.1297 82.9821 15.792 83.7091 15.792C84.5992 15.792 85.1288 14.9982 85.1288 13.7344C85.1276 12.555 84.5765 11.7476 83.7294 11.7476ZM89.2823 16.6948H88.0952V8.16211H89.2823V16.6948ZM95.7516 14.0829H92.1842C92.208 15.1904 92.8769 15.8155 93.868 15.8155C94.3964 15.8155 94.8806 15.7188 95.3093 15.539L95.4941 16.4418C94.9884 16.6824 94.3942 16.8027 93.7013 16.8027C92.0276 16.8027 91.0377 15.6469 91.0377 13.8547C91.0377 12.0614 92.0515 10.7132 93.5675 10.7132C94.9318 10.7132 95.7912 11.8208 95.7912 13.4938C95.7957 13.722 95.7855 13.9267 95.7516 14.0829ZM94.6618 13.1565C94.6618 12.2536 94.2433 11.6161 93.4836 11.6161C92.8009 11.6161 92.2635 12.266 92.1841 13.1565H94.6618ZM102.954 16.8275C101.392 16.8275 100.379 15.5514 100.379 13.8188C100.379 12.013 101.413 10.7256 103.044 10.7256C104.583 10.7256 105.619 11.9411 105.619 13.7233C105.619 15.5514 104.551 16.8275 102.954 16.8275ZM103 11.6757C102.141 11.6757 101.591 12.5537 101.591 13.7816C101.591 14.9858 102.153 15.8639 102.988 15.8639C103.824 15.8639 104.384 14.925 104.384 13.7568C104.385 12.5661 103.835 11.6757 103 11.6757ZM112.008 16.6948H110.821V13.3363C110.821 12.302 110.458 11.7836 109.742 11.7836C109.038 11.7836 108.553 12.4458 108.553 13.216V16.6948H107.365V12.5178C107.365 12.0006 107.353 11.4462 107.321 10.8447H108.367L108.422 11.7476H108.455C108.773 11.1225 109.424 10.7244 110.149 10.7244C111.271 10.7244 112.008 11.6633 112.008 13.1912V16.6948H112.008ZM119.783 11.8208H118.476V14.6609C118.476 15.3839 118.706 15.7448 119.167 15.7448C119.377 15.7448 119.554 15.72 119.696 15.6841L119.729 16.6713C119.497 16.7681 119.188 16.8164 118.806 16.8164C117.869 16.8164 117.31 16.2508 117.31 14.77V11.8208H116.53V10.8459H117.31V9.7744L118.476 9.38869V10.8447H119.783V11.8208ZM126.077 16.6948H124.887V13.3611C124.887 12.3144 124.524 11.7848 123.809 11.7848C123.193 11.7848 122.622 12.2424 122.622 13.1689V16.6948H121.432V8.16211H122.622V11.6757H122.644C123.018 11.0382 123.558 10.7244 124.251 10.7244C125.384 10.7244 126.077 11.6868 126.077 13.216V16.6948ZM132.149 14.0829H128.583C128.605 15.1904 129.274 15.8155 130.266 15.8155C130.795 15.8155 131.278 15.7188 131.707 15.539L131.893 16.4418C131.387 16.6824 130.792 16.8027 130.099 16.8027C128.425 16.8027 127.435 15.6469 127.435 13.8547C127.435 12.0614 128.449 10.7132 129.965 10.7132C131.329 10.7132 132.189 11.8208 132.189 13.4938C132.193 13.722 132.182 13.9267 132.149 14.0829ZM131.059 13.1565C131.059 12.2536 130.642 11.6161 129.882 11.6161C129.198 11.6161 128.661 12.266 128.583 13.1565H131.059Z" fill="white"/>
<defs>
<linearGradient id="paint0_linear" x1="112.216" y1="49.7652" x2="112.216" y2="5.06012" gradientUnits="userSpaceOnUse">
<stop stop-color="#1A1A1A" stop-opacity="0.1"/>
<stop offset="0.123" stop-color="#212121" stop-opacity="0.151"/>
<stop offset="0.308" stop-color="#353535" stop-opacity="0.227"/>
<stop offset="0.532" stop-color="#575757" stop-opacity="0.318"/>
<stop offset="0.783" stop-color="#858585" stop-opacity="0.421"/>
<stop offset="1" stop-color="#B3B3B3" stop-opacity="0.51"/>
</linearGradient>
</defs>
</svg>
