<svg width="153" height="51" viewBox="0 0 153 51" fill="none" xmlns="http://www.w3.org/2000/svg">
<path d="M153 43.4743C153 47.1757 149.972 50.1776 146.238 50.1776H6.76337C3.02871 50.1779 0 47.176 0 43.4743V7.28088C0 3.57969 3.02871 0.578125 6.76337 0.578125H146.238C149.972 0.578125 153 3.57969 153 7.28088V43.4743H153Z" fill="black"/>
<path d="M11.4766 10.127V43.7157L28.5672 26.9215L11.4766 10.127Z" fill="url(#paint0_linear)"/>
<path d="M33.1574 22.4105L26.2585 18.4632L11.4766 10.0049V10.127L28.5672 26.9216L33.1574 22.4105Z" fill="url(#paint1_linear)"/>
<path d="M11.4766 43.7161V43.8382L26.2585 35.3796L33.1571 31.4324L28.5672 26.9219L11.4766 43.7161Z" fill="url(#paint2_linear)"/>
<path d="M33.1566 22.4102L28.5664 26.9212L33.1563 31.4317L41.0405 26.9209L33.1566 22.4102Z" fill="url(#paint3_linear)"/>
<path d="M119.072 33.4877C118.43 33.4877 117.844 33.3703 117.314 33.1358C116.784 32.9011 116.338 32.54 115.978 32.0532H115.87C115.942 32.6236 115.978 33.1643 115.978 33.6751V37.6947H114.486V23.5412H115.7L115.906 24.8782H115.978C116.362 24.3431 116.809 23.9574 117.318 23.7196C117.828 23.4819 118.413 23.363 119.072 23.363C120.379 23.363 121.388 23.8059 122.098 24.6911C122.808 25.5763 123.164 26.8185 123.164 28.4163C123.164 30.0207 122.802 31.2667 122.081 32.1558C121.358 33.0439 120.356 33.4877 119.072 33.4877ZM118.856 24.6197C117.849 24.6197 117.12 24.8963 116.671 25.4486C116.221 26.0011 115.99 26.8807 115.978 28.087V28.4164C115.978 29.7892 116.209 30.771 116.671 31.3625C117.133 31.9539 117.873 32.2489 118.892 32.2489C119.744 32.2489 120.411 31.9077 120.894 31.2243C121.376 30.5413 121.617 29.5995 121.617 28.3986C121.617 27.181 121.376 26.246 120.894 25.5956C120.411 24.9446 119.732 24.6197 118.856 24.6197ZM126.621 33.3093H125.128V19.4413H126.621V33.3093ZM135.204 33.3093L134.906 31.9189H134.835C134.343 32.5314 133.853 32.9461 133.364 33.1622C132.876 33.3795 132.265 33.4878 131.534 33.4878C130.557 33.4878 129.791 33.2381 129.236 32.7392C128.682 32.2403 128.405 31.5306 128.405 30.6092C128.405 28.6369 129.997 27.6029 133.18 27.5074L134.853 27.4538V26.8478C134.853 26.0812 134.687 25.515 134.354 25.15C134.021 24.7842 133.488 24.6016 132.758 24.6016C131.936 24.6016 131.006 24.8512 129.97 25.3501L129.511 24.2183C129.997 23.9568 130.528 23.752 131.108 23.6034C131.686 23.4549 132.266 23.3805 132.848 23.3805C134.023 23.3805 134.893 23.6387 135.46 24.1558C136.026 24.6728 136.31 25.5016 136.31 26.6427V33.309H135.204V33.3093H135.204ZM131.831 32.2669C132.76 32.2669 133.49 32.0143 134.021 31.5095C134.551 31.0046 134.817 30.2973 134.817 29.3878V28.5056L133.323 28.5675C132.136 28.6099 131.281 28.7919 130.756 29.1165C130.231 29.4403 129.969 29.9439 129.969 30.6273C129.969 31.1618 130.132 31.5691 130.459 31.8477C130.786 32.1273 131.243 32.2669 131.831 32.2669ZM137.176 23.5412H138.777L140.935 29.1118C141.409 30.3836 141.703 31.3014 141.817 31.8661H141.889C141.967 31.5625 142.131 31.0446 142.379 30.3101C142.628 29.576 143.442 27.3203 144.82 23.5412H146.422L142.186 34.6643C141.766 35.7636 141.276 36.5435 140.715 37.0048C140.154 37.4649 139.466 37.6947 138.652 37.6947C138.196 37.6947 137.746 37.6443 137.302 37.5435V36.3582C137.632 36.4294 138.001 36.4653 138.408 36.4653C139.434 36.4653 140.165 35.8949 140.603 34.7539L141.151 33.3638L137.176 23.5412ZM91.4175 24.4489C91.8914 24.8375 92.8809 25.654 92.8809 27.2077C92.8809 28.7187 92.0149 29.4352 91.1489 30.1085C90.8809 30.3738 90.5716 30.6607 90.5716 31.1108C90.5716 31.5593 90.8806 31.8048 91.1083 31.9889L91.8507 32.5598C92.7577 33.3161 93.5815 34.0112 93.5815 35.4215C93.5815 37.3419 91.7053 39.2821 88.16 39.2821C85.1702 39.2821 83.7278 37.8728 83.7278 36.36C83.7278 35.6248 84.0972 34.5834 85.3153 33.8675C86.5926 33.0911 88.3255 32.99 89.2528 32.9271C88.9632 32.5598 88.6342 32.1715 88.6342 31.5392C88.6342 31.1923 88.7377 30.9878 88.8403 30.7414C88.6126 30.7622 88.3862 30.7826 88.1798 30.7826C85.9952 30.7826 84.7583 29.1684 84.7583 27.5756C84.7583 26.6355 85.1918 25.5929 86.0772 24.8379C87.2528 23.8777 88.6545 23.7137 89.7688 23.7137H94.0147L92.6952 24.4492H91.4176V24.4489H91.4175ZM89.9533 33.5209C89.7885 33.4996 89.685 33.4996 89.4798 33.4996C89.2943 33.4996 88.1795 33.5414 87.3147 33.8281C86.8612 33.9902 85.5414 34.4805 85.5414 35.932C85.5414 37.3819 86.9647 38.4254 89.1708 38.4254C91.1486 38.4254 92.2013 37.4836 92.2013 36.218C92.2013 35.1739 91.5208 34.6246 89.9533 33.5209ZM90.5516 29.6383C91.0251 29.1678 91.0658 28.5148 91.0658 28.1466C91.0658 26.6759 90.1797 24.3876 88.469 24.3876C87.9324 24.3876 87.3557 24.6529 87.0257 25.062C86.6757 25.4909 86.5716 26.042 86.5716 26.5739C86.5716 27.9426 87.3757 30.2108 89.1495 30.2108C89.665 30.2108 90.2204 29.9656 90.5516 29.6383ZM78.4385 33.1939C75.1663 33.1939 73.4168 30.6643 73.4168 28.3793C73.4168 25.7067 75.6187 23.4232 78.7485 23.4232C81.7727 23.4232 83.6665 25.7681 83.6665 28.237C83.6668 30.643 81.7945 33.1939 78.4385 33.1939ZM81.0111 31.5418C81.5059 30.8884 81.6294 30.0729 81.6294 29.2767C81.6294 27.481 80.7649 24.0547 78.2124 24.0547C77.5334 24.0547 76.8544 24.3203 76.3605 24.7495C75.5576 25.4625 75.4129 26.3605 75.4129 27.2386C75.4129 29.2565 76.4215 32.5806 78.9127 32.5806C79.7152 32.5806 80.5387 32.1937 81.0111 31.5418ZM67.2824 33.1939C64.0096 33.1939 62.2597 30.6643 62.2597 28.3793C62.2597 25.7067 64.4625 23.4232 67.5914 23.4232C70.6166 23.4232 72.51 25.7681 72.51 28.237C72.5104 30.643 70.6378 33.1939 67.2824 33.1939ZM69.8556 31.5418C70.3494 30.8884 70.4733 30.0729 70.4733 29.2767C70.4733 27.481 69.6082 24.0547 67.0557 24.0547C66.3769 24.0547 65.6973 24.3203 65.2038 24.7495C64.4009 25.4625 64.257 26.3605 64.257 27.2386C64.257 29.2565 65.2651 32.5806 67.7566 32.5806C68.5594 32.5806 69.3824 32.1937 69.8556 31.5418ZM60.6875 32.8741L57.7279 33.5509C56.5271 33.7359 55.4515 33.8986 54.3139 33.8986C48.6017 33.8986 46.4297 29.7352 46.4297 26.4743C46.4297 22.4962 49.5125 18.8057 54.7901 18.8057C55.908 18.8057 56.9831 18.9693 57.9555 19.2361C59.5074 19.6669 60.2316 20.1996 60.6872 20.5076L58.969 22.1277L58.2451 22.291L58.7623 21.4705C58.059 20.7943 56.7749 19.5435 54.3339 19.5435C51.0641 19.5435 48.6011 22.0056 48.6011 25.5941C48.6011 29.4486 51.4159 33.0786 55.9262 33.0786C57.252 33.0786 57.9334 32.8124 58.5547 32.5658V29.2648L55.4306 29.4287L57.0854 28.5459H61.4727L60.9352 29.0585C60.7892 29.1821 60.7692 29.2236 60.7279 29.386C60.7064 29.571 60.6869 30.1663 60.6869 30.3712V32.8741H60.6875V32.8741Z" fill="#F9F9F9"/>
<path d="M97.958 32.2829C97.2748 32.2213 97.1317 32.0989 97.1317 31.2981V19.691C97.1359 19.6468 97.1386 19.6014 97.1428 19.5587C97.2263 18.8413 97.433 18.7183 98.0752 18.3486H95.115L93.5625 19.0871H95.1446V19.0963L95.1434 19.0889V31.7499C95.1434 32.1593 95.0618 32.2216 94.5852 32.8361H98.2485L99.0142 32.3861C98.6627 32.3437 98.3104 32.3239 97.958 32.2829ZM106.379 32.4715C106.153 32.5939 105.927 32.7371 105.702 32.8382C105.023 33.1435 104.324 33.2254 103.706 33.2254C103.05 33.2254 102.022 33.1833 100.973 32.4306C99.515 31.4114 98.8778 29.66 98.8778 28.1329C98.8778 24.9767 101.467 23.4289 103.584 23.4289C104.324 23.4289 105.085 23.6118 105.702 23.9996C106.728 24.6704 106.995 25.5462 107.138 26.0148L102.31 27.9504L100.727 28.0725C101.24 30.659 103.008 32.165 104.961 32.165C106.009 32.165 106.769 31.7991 107.468 31.4535L106.379 32.4715ZM104.447 26.4014C104.837 26.2594 105.043 26.1367 105.043 25.8518C105.043 25.0377 104.118 24.1003 103.008 24.1003C102.185 24.1003 100.645 24.7321 100.645 26.9312C100.645 27.2774 100.686 27.6438 100.707 28.0117L104.447 26.4014ZM108.362 23.5682V24.912H108.197V23.5682H107.749V23.4289H108.811V23.5682H108.362ZM110.211 24.912V23.5558H110.203L109.786 24.912H109.657L109.236 23.5558H109.23V24.912H109.081V23.4289H109.337L109.718 24.6277H109.724L110.099 23.4289H110.359V24.912H110.211Z" fill="#F9F9F9"/>
<path d="M50.5396 14.812H49.5112C49.5112 14.6717 49.4137 14.2748 49.2187 13.6208H47.734C47.5327 14.2641 47.4319 14.661 47.4319 14.812H46.4648C46.4648 14.7292 46.7149 14.0498 47.2151 12.7739C47.7152 11.4979 47.9653 10.795 47.9653 10.6658H49.1801C49.1801 10.7867 49.4065 11.4793 49.8597 12.7436C50.3129 14.008 50.5396 14.6972 50.5396 14.812ZM49.055 13.0125C48.6886 11.9171 48.5055 11.3248 48.5055 11.2355H48.4541C48.4541 11.3183 48.2644 11.9106 47.8854 13.0125H49.055ZM54.6832 14.812H53.8896C53.8896 14.7248 53.595 14.2653 53.006 13.4332C52.3892 12.5563 52.0377 11.9568 51.9521 11.634H51.9007C51.9542 12.0988 51.9812 12.5192 51.9812 12.8951C51.9812 13.4196 51.9961 14.0587 52.0261 14.8123H51.2354C51.2674 14.1542 51.2836 13.4314 51.2836 12.6437C51.2836 11.8688 51.2675 11.2095 51.2354 10.6661H52.1897C52.1897 10.7788 52.4541 11.2279 52.9833 12.0132C53.5465 12.8474 53.8702 13.4133 53.9537 13.7107H54.0018C53.9504 13.2372 53.9246 12.8127 53.9246 12.4368C53.9246 11.8617 53.9097 11.2712 53.8798 10.6661H54.6832C54.653 11.1926 54.6383 11.8519 54.6383 12.6437C54.638 13.4415 54.653 14.1642 54.6832 14.812ZM59.3404 12.5954C59.3404 13.1984 59.1454 13.7249 58.7556 14.1749C58.3655 14.6252 57.8193 14.8499 57.1166 14.8499C56.7996 14.8499 56.3625 14.8372 55.8055 14.8117C55.8333 14.1705 55.8474 13.4474 55.8474 12.6431C55.8474 11.8706 55.8334 11.2113 55.8055 10.6655H56.3679C56.46 10.6655 56.597 10.6622 56.7792 10.656C56.9611 10.6498 57.0801 10.6465 57.1358 10.6465C57.9091 10.6465 58.4696 10.8377 58.8181 11.2199C59.1663 11.602 59.3404 12.0603 59.3404 12.5954ZM58.4633 12.7323C58.4633 12.3247 58.3433 11.9814 58.1034 11.7019C57.8635 11.4229 57.4971 11.2833 57.0044 11.2833C56.9123 11.2833 56.7861 11.2928 56.6251 11.3121C56.6464 11.7368 56.6571 12.1803 56.6571 12.6431C56.6571 13.1506 56.6679 13.6537 56.6891 14.1526C56.8266 14.1801 56.9665 14.194 57.1067 14.1942C57.5674 14.1942 57.9084 14.0522 58.1301 13.7687C58.3517 13.4853 58.4633 13.1399 58.4633 12.7323ZM63.635 14.812H62.6838C62.4352 14.0605 62.2447 13.5965 62.1119 13.4204C61.979 13.244 61.7649 13.156 61.4693 13.156C61.3449 13.156 61.2261 13.1572 61.1128 13.1592C61.1128 13.705 61.1223 14.2558 61.1418 14.812H60.2486C60.2764 14.1707 60.2904 13.4477 60.2904 12.6434C60.2904 11.8709 60.2764 11.2116 60.2486 10.6658H60.8043C60.8686 10.6658 61.003 10.6625 61.2076 10.6563C61.4122 10.6501 61.6012 10.6468 61.7747 10.6468C62.758 10.6468 63.2498 10.98 63.2498 11.6467C63.2498 12.1753 62.9692 12.5435 62.408 12.7519V12.7996C62.6243 12.8589 62.8139 13.0264 62.9766 13.3009C63.1391 13.5758 63.3586 14.0794 63.635 14.812ZM62.4301 11.8821C62.4301 11.4597 62.1558 11.2483 61.6075 11.2483C61.4062 11.2483 61.2282 11.2631 61.0742 11.2928C61.0978 11.6218 61.1094 12.0508 61.1094 12.5794C61.2273 12.5838 61.3269 12.5856 61.4083 12.5856C62.0894 12.5859 62.4301 12.3514 62.4301 11.8821ZM68.241 12.6624C68.241 13.314 68.0397 13.8544 67.6368 14.2834C67.2339 14.7121 66.7358 14.9267 66.1426 14.9267C65.577 14.9267 65.1035 14.7298 64.7224 14.3358C64.341 13.9421 64.1504 13.4415 64.1504 12.8346C64.1504 12.183 64.3517 11.6426 64.7547 11.2136C65.1573 10.7849 65.6554 10.5703 66.2488 10.5703C66.8145 10.5703 67.2877 10.7666 67.6691 11.1594C68.0505 11.5522 68.241 12.0529 68.241 12.6624ZM67.3544 12.7546C67.3544 12.3108 67.2398 11.9509 67.0107 11.6749C66.7813 11.3989 66.4986 11.2611 66.1624 11.2611C65.8495 11.2611 65.5839 11.4001 65.3655 11.6782C65.1471 11.9562 65.0373 12.3076 65.0373 12.7324C65.0373 13.1738 65.1525 13.5331 65.3828 13.8103C65.6131 14.0875 65.8953 14.2259 66.2297 14.2259C66.5423 14.2259 66.8082 14.0863 67.0266 13.807C67.2449 13.528 67.3544 13.177 67.3544 12.7546ZM70.058 14.812H69.1486C69.1764 14.1538 69.1905 13.4311 69.1905 12.6434C69.1905 11.8685 69.1765 11.2092 69.1486 10.6658H70.058C70.0302 11.2009 70.0161 11.8599 70.0161 12.6434C70.0161 13.4435 70.0302 14.1666 70.058 14.812ZM74.7155 12.5954C74.7155 13.1984 74.5204 13.7249 74.1307 14.1749C73.7406 14.6252 73.1944 14.8499 72.4917 14.8499C72.1746 14.8499 71.7376 14.8372 71.1806 14.8117C71.2084 14.1705 71.2225 13.4474 71.2225 12.6431C71.2225 11.8706 71.2085 11.2113 71.1806 10.6655H71.743C71.8351 10.6655 71.9721 10.6622 72.1543 10.656C72.3362 10.6498 72.4552 10.6465 72.5109 10.6465C73.2841 10.6465 73.8447 10.8377 74.1932 11.2199C74.5414 11.602 74.7155 12.0603 74.7155 12.5954ZM73.8384 12.7323C73.8384 12.3247 73.7185 11.9814 73.4785 11.7019C73.2386 11.4229 72.8722 11.2833 72.3795 11.2833C72.2874 11.2833 72.1611 11.2928 72.0002 11.3121C72.0215 11.7368 72.0322 12.1803 72.0322 12.6431C72.0322 13.1506 72.043 13.6537 72.0642 14.1526C72.2017 14.1801 72.3416 14.194 72.4818 14.1942C72.9424 14.1942 73.2835 14.0522 73.5051 13.7687C73.7268 13.4853 73.8384 13.1399 73.8384 12.7323ZM80.8943 14.812H79.8659C79.8659 14.6717 79.7684 14.2748 79.5731 13.6208H78.0885C77.8872 14.2641 77.7863 14.661 77.7863 14.812H76.8196C76.8196 14.7292 77.0696 14.0498 77.5698 12.7739C78.0699 11.4979 78.32 10.795 78.32 10.6658H79.5348C79.5348 10.7867 79.7615 11.4793 80.2144 12.7436C80.6673 14.008 80.8943 14.6972 80.8943 14.812ZM79.4097 13.0125C79.0433 11.9171 78.8599 11.3248 78.8599 11.2355H78.8085C78.8085 11.3183 78.6191 11.9106 78.2401 13.0125H79.4097ZM84.6424 11.7514C84.6424 12.2589 84.4522 12.6336 84.072 12.8755C83.6918 13.1174 83.2254 13.2387 82.6726 13.2387C82.5718 13.2387 82.5003 13.2366 82.4573 13.2324C82.4573 13.6318 82.4689 14.158 82.4926 14.812H81.5895C81.6173 14.1986 81.6313 13.4755 81.6313 12.6434C81.6313 11.8792 81.6173 11.2199 81.5895 10.6658H82.1485C82.2278 10.6658 82.3797 10.6625 82.6047 10.6563C82.8297 10.6501 83.0244 10.6468 83.1895 10.6468C83.5963 10.6468 83.9403 10.7381 84.2209 10.9207C84.5015 11.1034 84.6424 11.3799 84.6424 11.7514ZM83.8136 11.9266C83.8136 11.4724 83.5093 11.2451 82.9009 11.2451C82.7486 11.2451 82.588 11.261 82.419 11.2928C82.4426 11.6942 82.4543 12.1483 82.4543 12.6559C82.5078 12.6603 82.5701 12.6621 82.6407 12.6621C83.4226 12.6624 83.8136 12.4172 83.8136 11.9266ZM88.4965 11.7514C88.4965 12.2589 88.3062 12.6336 87.9263 12.8755C87.5461 13.1174 87.0795 13.2387 86.5267 13.2387C86.4259 13.2387 86.3544 13.2366 86.3113 13.2324C86.3113 13.6318 86.323 14.158 86.3466 14.812H85.4435C85.4713 14.1986 85.4854 13.4755 85.4854 12.6434C85.4854 11.8792 85.4714 11.2199 85.4435 10.6658H86.0026C86.0819 10.6658 86.2338 10.6625 86.4588 10.6563C86.6837 10.6501 86.8785 10.6468 87.0436 10.6468C87.4504 10.6468 87.7944 10.7381 88.075 10.9207C88.3556 11.1034 88.4965 11.3799 88.4965 11.7514ZM87.6676 11.9266C87.6676 11.4724 87.3634 11.2451 86.7549 11.2451C86.6027 11.2451 86.442 11.261 86.273 11.2928C86.2966 11.6942 86.3083 12.1483 86.3083 12.6559C86.3619 12.6603 86.4241 12.6621 86.4947 12.6621C87.2766 12.6624 87.6676 12.4172 87.6676 11.9266ZM94.7977 12.6624C94.7977 13.314 94.5964 13.8544 94.1934 14.2834C93.7905 14.7123 93.2924 14.9267 92.6993 14.9267C92.1336 14.9267 91.6601 14.7298 91.279 14.3358C90.8979 13.9421 90.7071 13.4415 90.7071 12.8346C90.7071 12.183 90.9084 11.6426 91.3113 11.2136C91.7142 10.7846 92.2123 10.5703 92.8055 10.5703C93.3711 10.5703 93.8446 10.7666 94.2257 11.1594C94.6068 11.5522 94.7977 12.0529 94.7977 12.6624ZM93.9108 12.7546C93.9108 12.3108 93.7962 11.9509 93.567 11.6749C93.3379 11.3989 93.0549 11.2611 92.7187 11.2611C92.4058 11.2611 92.1402 11.4001 91.9218 11.6782C91.7035 11.9562 91.594 12.3076 91.594 12.7324C91.594 13.1738 91.7092 13.5331 91.9395 13.8103C92.1698 14.0875 92.4519 14.2259 92.786 14.2259C93.0989 14.2259 93.3645 14.0863 93.5829 13.807C93.8016 13.528 93.9108 13.177 93.9108 12.7546ZM99.153 14.812H98.3594C98.3594 14.7248 98.0651 14.2653 97.4758 13.4332C96.859 12.5563 96.5075 11.9568 96.422 11.634H96.3705C96.4241 12.0988 96.451 12.5192 96.451 12.8951C96.451 13.4196 96.466 14.0587 96.4959 14.8123H95.7053C95.7373 14.1542 95.7534 13.4314 95.7534 12.6437C95.7534 11.8688 95.7373 11.2095 95.7053 10.6661H96.6595C96.6595 10.7788 96.9242 11.2279 97.4531 12.0132C98.0167 12.8474 98.34 13.4133 98.4235 13.7107H98.4717C98.4202 13.2372 98.3945 12.8127 98.3945 12.4368C98.3945 11.8617 98.3795 11.2712 98.3496 10.6661H99.1531C99.1229 11.1926 99.1082 11.8519 99.1082 12.6437C99.1082 13.4415 99.1231 14.1642 99.153 14.812Z" fill="#F9F9FA"/>
<defs>
<linearGradient id="paint0_linear" x1="20.0219" y1="10.127" x2="20.0219" y2="43.7158" gradientUnits="userSpaceOnUse">
<stop stop-color="#257CB0"/>
<stop offset="0.286" stop-color="#4A93B5"/>
<stop offset="0.767" stop-color="#78BCBB"/>
<stop offset="1" stop-color="#89CFBD"/>
</linearGradient>
<linearGradient id="paint1_linear" x1="11.4768" y1="18.463" x2="33.1576" y2="18.463" gradientUnits="userSpaceOnUse">
<stop stop-color="#52C1AD"/>
<stop offset="1" stop-color="#DEE89A"/>
</linearGradient>
<linearGradient id="paint2_linear" x1="22.3168" y1="26.9219" x2="22.3168" y2="43.8383" gradientUnits="userSpaceOnUse">
<stop stop-color="#EC413D"/>
<stop offset="0.167" stop-color="#DA4452"/>
<stop offset="0.575" stop-color="#B0487A"/>
<stop offset="0.862" stop-color="#954A92"/>
<stop offset="1" stop-color="#8A4A9D"/>
</linearGradient>
<linearGradient id="paint3_linear" x1="34.8036" y1="22.4102" x2="34.8036" y2="31.4314" gradientUnits="userSpaceOnUse">
<stop stop-color="#F58879"/>
<stop offset="0.119" stop-color="#F69079"/>
<stop offset="0.713" stop-color="#FCB877"/>
<stop offset="1" stop-color="#FEC874"/>
</linearGradient>
</defs>
</svg>
