<svg width="27" height="27" viewBox="0 0 27 27" fill="none" xmlns="http://www.w3.org/2000/svg">
<path d="M24.5312 11.2967H23.625V11.25H13.5V15.75H19.8579C18.9303 18.3696 16.4379 20.25 13.5 20.25C9.77228 20.25 6.74997 17.2277 6.74997 13.5C6.74997 9.77231 9.77228 6.75 13.5 6.75C15.2207 6.75 16.7861 7.39912 17.978 8.45944L21.1601 5.27737C19.1508 3.40481 16.4632 2.25 13.5 2.25C7.28716 2.25 2.24997 7.28719 2.24997 13.5C2.24997 19.7128 7.28716 24.75 13.5 24.75C19.7128 24.75 24.75 19.7128 24.75 13.5C24.75 12.7457 24.6723 12.0094 24.5312 11.2967Z" fill="#FFC107"/>
<path d="M3.54709 8.26369L7.24328 10.9744C8.2434 8.49825 10.6655 6.75 13.5 6.75C15.2207 6.75 16.7861 7.39913 17.978 8.45944L21.1601 5.27738C19.1508 3.40481 16.4632 2.25 13.5 2.25C9.17884 2.25 5.43146 4.68956 3.54709 8.26369Z" fill="#FF3D00"/>
<path d="M13.5 24.75C16.4058 24.75 19.0462 23.638 21.0425 21.8295L17.5606 18.8831C16.3932 19.771 14.9667 20.2512 13.5 20.25C10.5738 20.25 8.08927 18.3842 7.15327 15.7804L3.48465 18.607C5.34652 22.2503 9.12765 24.75 13.5 24.75Z" fill="#4CAF50"/>
<path d="M24.5312 11.2967H23.625V11.25H13.5V15.75H19.8579C19.4142 16.9967 18.615 18.0862 17.559 18.8837L17.5607 18.8826L21.0425 21.8289C20.7962 22.0528 24.75 19.125 24.75 13.5C24.75 12.7457 24.6723 12.0094 24.5312 11.2967Z" fill="#1976D2"/>
</svg>
