<svg width="22" height="17" viewBox="0 0 22 17" fill="none" xmlns="http://www.w3.org/2000/svg">
<path d="M18.995 2.68799C19.8914 2.15208 20.5622 1.30823 20.882 0.313989C20.0397 0.813791 19.118 1.16587 18.157 1.35499C16.8246 -0.0544839 14.7135 -0.397485 13.0034 0.517645C11.2933 1.43277 10.4075 3.37948 10.841 5.26999C7.39062 5.09676 4.17598 3.4669 1.99702 0.785989C0.859855 2.74741 1.44097 5.25477 3.32502 6.51599C2.64373 6.49409 1.97754 6.30963 1.38202 5.97799C1.38202 5.99599 1.38202 6.01399 1.38202 6.03199C1.38241 8.07514 2.82239 9.83507 4.82502 10.24C4.19308 10.4119 3.53022 10.4372 2.88702 10.314C3.45022 12.0613 5.06057 13.2583 6.89602 13.294C5.37585 14.4871 3.49849 15.1342 1.56602 15.131C1.22349 15.1315 0.881226 15.1118 0.541016 15.072C2.50341 16.333 4.78738 17.0023 7.12002 17C10.3653 17.0223 13.484 15.7429 15.7787 13.448C18.0734 11.1531 19.3526 8.03424 19.33 4.78899C19.33 4.60299 19.3257 4.41799 19.317 4.23399C20.1575 3.62659 20.8828 2.87414 21.459 2.01199C20.676 2.35905 19.8455 2.58691 18.995 2.68799Z" fill="white"/>
</svg>
